  0
SECTION
  2
BLOCKS
  0
ENDSEC
  0
SECTION
  2
ENTITIES
  0
LINE
  8
0
 10
1.57007
 20
-29.9589
 11
3.13585
 21
-29.8357
  0
LINE
  8
0
 10
3.13585
 20
-29.8357
 11
4.69302
 21
-29.6306
  0
LINE
  8
0
 10
4.69302
 20
-29.6306
 11
6.23734
 21
-29.3444
  0
LINE
  8
0
 10
6.23734
 20
-29.3444
 11
7.76456
 21
-28.9778
  0
LINE
  8
0
 10
7.76456
 20
-28.9778
 11
9.27051
 21
-28.5317
  0
LINE
  8
0
 10
9.27051
 20
-28.5317
 11
10.751
 21
-28.0074
  0
LINE
  8
0
 10
10.751
 20
-28.0074
 11
12.2021
 21
-27.4064
  0
LINE
  8
0
 10
12.2021
 20
-27.4064
 11
13.6197
 21
-26.7302
  0
LINE
  8
0
 10
13.6197
 20
-26.7302
 11
15
 21
-25.9808
  0
LINE
  8
0
 10
15
 20
-25.9808
 11
16.3392
 21
-25.1601
  0
LINE
  8
0
 10
16.3392
 20
-25.1601
 11
17.6336
 21
-24.2705
  0
LINE
  8
0
 10
17.6336
 20
-24.2705
 11
18.8796
 21
-23.3144
  0
LINE
  8
0
 10
18.8796
 20
-23.3144
 11
20.0739
 21
-22.2943
  0
LINE
  8
0
 10
20.0739
 20
-22.2943
 11
21.2132
 21
-21.2132
  0
LINE
  8
0
 10
21.2132
 20
-21.2132
 11
22.2943
 21
-20.0739
  0
LINE
  8
0
 10
22.2943
 20
-20.0739
 11
23.3144
 21
-18.8796
  0
LINE
  8
0
 10
23.3144
 20
-18.8796
 11
24.2705
 21
-17.6336
  0
LINE
  8
0
 10
24.2705
 20
-17.6336
 11
25.1601
 21
-16.3392
  0
LINE
  8
0
 10
25.1601
 20
-16.3392
 11
25.9808
 21
-15
  0
LINE
  8
0
 10
25.9808
 20
-15
 11
26.7302
 21
-13.6197
  0
LINE
  8
0
 10
26.7302
 20
-13.6197
 11
27.4064
 21
-12.2021
  0
LINE
  8
0
 10
27.4064
 20
-12.2021
 11
28.0074
 21
-10.751
  0
LINE
  8
0
 10
28.0074
 20
-10.751
 11
28.5317
 21
-9.27051
  0
LINE
  8
0
 10
28.5317
 20
-9.27051
 11
28.9778
 21
-7.76456
  0
LINE
  8
0
 10
28.9778
 20
-7.76456
 11
29.3444
 21
-6.23734
  0
LINE
  8
0
 10
29.3444
 20
-6.23734
 11
29.6306
 21
-4.69302
  0
LINE
  8
0
 10
29.6306
 20
-4.69302
 11
29.8357
 21
-3.13585
  0
LINE
  8
0
 10
29.8357
 20
-3.13585
 11
29.9589
 21
-1.57007
  0
LINE
  8
0
 10
29.9589
 20
-1.57007
 11
30
 21
0
  0
LINE
  8
0
 10
30
 20
0
 11
29.9589
 21
1.57007
  0
LINE
  8
0
 10
29.9589
 20
1.57007
 11
29.8357
 21
3.13585
  0
LINE
  8
0
 10
29.8357
 20
3.13585
 11
29.6306
 21
4.69302
  0
LINE
  8
0
 10
29.6306
 20
4.69302
 11
29.3444
 21
6.23734
  0
LINE
  8
0
 10
29.3444
 20
6.23734
 11
28.9778
 21
7.76456
  0
LINE
  8
0
 10
28.9778
 20
7.76456
 11
28.5317
 21
9.27051
  0
LINE
  8
0
 10
28.5317
 20
9.27051
 11
28.0074
 21
10.751
  0
LINE
  8
0
 10
28.0074
 20
10.751
 11
27.4064
 21
12.2021
  0
LINE
  8
0
 10
27.4064
 20
12.2021
 11
26.7302
 21
13.6197
  0
LINE
  8
0
 10
26.7302
 20
13.6197
 11
25.9808
 21
15
  0
LINE
  8
0
 10
25.9808
 20
15
 11
25.1601
 21
16.3392
  0
LINE
  8
0
 10
25.1601
 20
16.3392
 11
24.2705
 21
17.6336
  0
LINE
  8
0
 10
24.2705
 20
17.6336
 11
23.3144
 21
18.8796
  0
LINE
  8
0
 10
23.3144
 20
18.8796
 11
22.2943
 21
20.0739
  0
LINE
  8
0
 10
22.2943
 20
20.0739
 11
21.2132
 21
21.2132
  0
LINE
  8
0
 10
21.2132
 20
21.2132
 11
20.0739
 21
22.2943
  0
LINE
  8
0
 10
20.0739
 20
22.2943
 11
18.8796
 21
23.3144
  0
LINE
  8
0
 10
18.8796
 20
23.3144
 11
17.6336
 21
24.2705
  0
LINE
  8
0
 10
17.6336
 20
24.2705
 11
16.3392
 21
25.1601
  0
LINE
  8
0
 10
16.3392
 20
25.1601
 11
15
 21
25.9808
  0
LINE
  8
0
 10
15
 20
25.9808
 11
13.6197
 21
26.7302
  0
LINE
  8
0
 10
13.6197
 20
26.7302
 11
12.2021
 21
27.4064
  0
LINE
  8
0
 10
12.2021
 20
27.4064
 11
10.751
 21
28.0074
  0
LINE
  8
0
 10
10.751
 20
28.0074
 11
9.27051
 21
28.5317
  0
LINE
  8
0
 10
9.27051
 20
28.5317
 11
7.76456
 21
28.9778
  0
LINE
  8
0
 10
7.76456
 20
28.9778
 11
6.23734
 21
29.3444
  0
LINE
  8
0
 10
6.23734
 20
29.3444
 11
4.69302
 21
29.6306
  0
LINE
  8
0
 10
4.69302
 20
29.6306
 11
3.13585
 21
29.8357
  0
LINE
  8
0
 10
3.13585
 20
29.8357
 11
1.57007
 21
29.9589
  0
LINE
  8
0
 10
1.57007
 20
29.9589
 11
0
 21
30
  0
LINE
  8
0
 10
0
 20
30
 11
-1.57007
 21
29.9589
  0
LINE
  8
0
 10
-1.57007
 20
29.9589
 11
-3.13585
 21
29.8357
  0
LINE
  8
0
 10
-3.13585
 20
29.8357
 11
-4.69302
 21
29.6306
  0
LINE
  8
0
 10
-4.69302
 20
29.6306
 11
-6.23734
 21
29.3444
  0
LINE
  8
0
 10
-6.23734
 20
29.3444
 11
-7.76456
 21
28.9778
  0
LINE
  8
0
 10
-7.76456
 20
28.9778
 11
-9.27051
 21
28.5317
  0
LINE
  8
0
 10
-9.27051
 20
28.5317
 11
-10.751
 21
28.0074
  0
LINE
  8
0
 10
-10.751
 20
28.0074
 11
-12.2021
 21
27.4064
  0
LINE
  8
0
 10
-12.2021
 20
27.4064
 11
-13.6197
 21
26.7302
  0
LINE
  8
0
 10
-13.6197
 20
26.7302
 11
-15
 21
25.9808
  0
LINE
  8
0
 10
-15
 20
25.9808
 11
-16.3392
 21
25.1601
  0
LINE
  8
0
 10
-16.3392
 20
25.1601
 11
-17.6336
 21
24.2705
  0
LINE
  8
0
 10
-17.6336
 20
24.2705
 11
-18.8796
 21
23.3144
  0
LINE
  8
0
 10
-18.8796
 20
23.3144
 11
-20.0739
 21
22.2943
  0
LINE
  8
0
 10
-20.0739
 20
22.2943
 11
-21.2132
 21
21.2132
  0
LINE
  8
0
 10
-21.2132
 20
21.2132
 11
-22.2943
 21
20.0739
  0
LINE
  8
0
 10
-22.2943
 20
20.0739
 11
-23.3144
 21
18.8796
  0
LINE
  8
0
 10
-23.3144
 20
18.8796
 11
-24.2705
 21
17.6336
  0
LINE
  8
0
 10
-24.2705
 20
17.6336
 11
-25.1601
 21
16.3392
  0
LINE
  8
0
 10
-25.1601
 20
16.3392
 11
-25.9808
 21
15
  0
LINE
  8
0
 10
-25.9808
 20
15
 11
-26.7302
 21
13.6197
  0
LINE
  8
0
 10
-26.7302
 20
13.6197
 11
-27.4064
 21
12.2021
  0
LINE
  8
0
 10
-27.4064
 20
12.2021
 11
-28.0074
 21
10.751
  0
LINE
  8
0
 10
-28.0074
 20
10.751
 11
-28.5317
 21
9.27051
  0
LINE
  8
0
 10
-28.5317
 20
9.27051
 11
-28.9778
 21
7.76456
  0
LINE
  8
0
 10
-28.9778
 20
7.76456
 11
-29.3444
 21
6.23734
  0
LINE
  8
0
 10
-29.3444
 20
6.23734
 11
-29.6306
 21
4.69302
  0
LINE
  8
0
 10
-29.6306
 20
4.69302
 11
-29.8357
 21
3.13585
  0
LINE
  8
0
 10
-29.8357
 20
3.13585
 11
-29.9589
 21
1.57007
  0
LINE
  8
0
 10
-29.9589
 20
1.57007
 11
-30
 21
0
  0
LINE
  8
0
 10
-30
 20
0
 11
-29.9589
 21
-1.57007
  0
LINE
  8
0
 10
-29.9589
 20
-1.57007
 11
-29.8357
 21
-3.13585
  0
LINE
  8
0
 10
-29.8357
 20
-3.13585
 11
-29.6306
 21
-4.69302
  0
LINE
  8
0
 10
-29.6306
 20
-4.69302
 11
-29.3444
 21
-6.23734
  0
LINE
  8
0
 10
-29.3444
 20
-6.23734
 11
-28.9778
 21
-7.76456
  0
LINE
  8
0
 10
-28.9778
 20
-7.76456
 11
-28.5317
 21
-9.27051
  0
LINE
  8
0
 10
-28.5317
 20
-9.27051
 11
-28.0074
 21
-10.751
  0
LINE
  8
0
 10
-28.0074
 20
-10.751
 11
-27.4064
 21
-12.2021
  0
LINE
  8
0
 10
-27.4064
 20
-12.2021
 11
-26.7302
 21
-13.6197
  0
LINE
  8
0
 10
-26.7302
 20
-13.6197
 11
-25.9808
 21
-15
  0
LINE
  8
0
 10
-25.9808
 20
-15
 11
-25.1601
 21
-16.3392
  0
LINE
  8
0
 10
-25.1601
 20
-16.3392
 11
-24.2705
 21
-17.6336
  0
LINE
  8
0
 10
-24.2705
 20
-17.6336
 11
-23.3144
 21
-18.8796
  0
LINE
  8
0
 10
-23.3144
 20
-18.8796
 11
-22.2943
 21
-20.0739
  0
LINE
  8
0
 10
-22.2943
 20
-20.0739
 11
-21.2132
 21
-21.2132
  0
LINE
  8
0
 10
-21.2132
 20
-21.2132
 11
-20.0739
 21
-22.2943
  0
LINE
  8
0
 10
-20.0739
 20
-22.2943
 11
-18.8796
 21
-23.3144
  0
LINE
  8
0
 10
-18.8796
 20
-23.3144
 11
-17.6336
 21
-24.2705
  0
LINE
  8
0
 10
-17.6336
 20
-24.2705
 11
-16.3392
 21
-25.1601
  0
LINE
  8
0
 10
-16.3392
 20
-25.1601
 11
-15
 21
-25.9808
  0
LINE
  8
0
 10
-15
 20
-25.9808
 11
-13.6197
 21
-26.7302
  0
LINE
  8
0
 10
-13.6197
 20
-26.7302
 11
-12.2021
 21
-27.4064
  0
LINE
  8
0
 10
-12.2021
 20
-27.4064
 11
-10.751
 21
-28.0074
  0
LINE
  8
0
 10
-10.751
 20
-28.0074
 11
-9.27051
 21
-28.5317
  0
LINE
  8
0
 10
-9.27051
 20
-28.5317
 11
-7.76456
 21
-28.9778
  0
LINE
  8
0
 10
-7.76456
 20
-28.9778
 11
-6.23734
 21
-29.3444
  0
LINE
  8
0
 10
-6.23734
 20
-29.3444
 11
-4.69302
 21
-29.6306
  0
LINE
  8
0
 10
-4.69302
 20
-29.6306
 11
-3.13585
 21
-29.8357
  0
LINE
  8
0
 10
-3.13585
 20
-29.8357
 11
-1.57007
 21
-29.9589
  0
LINE
  8
0
 10
-1.57007
 20
-29.9589
 11
0
 21
-30
  0
LINE
  8
0
 10
0
 20
-30
 11
1.57007
 21
-29.9589
  0
LINE
  8
0
 10
-10.0047
 20
15.15
 11
-10.1091
 21
15.1583
  0
LINE
  8
0
 10
-10.1091
 20
15.1583
 11
-10.2129
 21
15.1719
  0
LINE
  8
0
 10
-10.2129
 20
15.1719
 11
-10.3158
 21
15.191
  0
LINE
  8
0
 10
-10.3158
 20
15.191
 11
-10.4176
 21
15.2155
  0
LINE
  8
0
 10
-10.4176
 20
15.2155
 11
-10.518
 21
15.2452
  0
LINE
  8
0
 10
-10.518
 20
15.2452
 11
-10.6167
 21
15.2801
  0
LINE
  8
0
 10
-10.6167
 20
15.2801
 11
-10.7135
 21
15.3202
  0
LINE
  8
0
 10
-10.7135
 20
15.3202
 11
-10.808
 21
15.3653
  0
LINE
  8
0
 10
-10.808
 20
15.3653
 11
-10.9
 21
15.4153
  0
LINE
  8
0
 10
-10.9
 20
15.4153
 11
-10.9893
 21
15.47
  0
LINE
  8
0
 10
-10.9893
 20
15.47
 11
-11.0756
 21
15.5293
  0
LINE
  8
0
 10
-11.0756
 20
15.5293
 11
-11.1586
 21
15.593
  0
LINE
  8
0
 10
-11.1586
 20
15.593
 11
-11.2383
 21
15.661
  0
LINE
  8
0
 10
-11.2383
 20
15.661
 11
-11.3142
 21
15.7331
  0
LINE
  8
0
 10
-11.3142
 20
15.7331
 11
-11.3863
 21
15.809
  0
LINE
  8
0
 10
-11.3863
 20
15.809
 11
-11.4543
 21
15.8887
  0
LINE
  8
0
 10
-11.4543
 20
15.8887
 11
-11.518
 21
15.9717
  0
LINE
  8
0
 10
-11.518
 20
15.9717
 11
-11.5773
 21
16.058
  0
LINE
  8
0
 10
-11.5773
 20
16.058
 11
-11.6321
 21
16.1473
  0
LINE
  8
0
 10
-11.6321
 20
16.1473
 11
-11.682
 21
16.2393
  0
LINE
  8
0
 10
-11.682
 20
16.2393
 11
-11.7271
 21
16.3338
  0
LINE
  8
0
 10
-11.7271
 20
16.3338
 11
-11.7672
 21
16.4306
  0
LINE
  8
0
 10
-11.7672
 20
16.4306
 11
-11.8021
 21
16.5293
  0
LINE
  8
0
 10
-11.8021
 20
16.5293
 11
-11.8319
 21
16.6297
  0
LINE
  8
0
 10
-11.8319
 20
16.6297
 11
-11.8563
 21
16.7315
  0
LINE
  8
0
 10
-11.8563
 20
16.7315
 11
-11.8754
 21
16.8344
  0
LINE
  8
0
 10
-11.8754
 20
16.8344
 11
-11.889
 21
16.9382
  0
LINE
  8
0
 10
-11.889
 20
16.9382
 11
-11.8973
 21
17.0426
  0
LINE
  8
0
 10
-11.8973
 20
17.0426
 11
-11.9
 21
17.1473
  0
LINE
  8
0
 10
-11.9
 20
17.1473
 11
-11.8973
 21
17.252
  0
LINE
  8
0
 10
-11.8973
 20
17.252
 11
-11.889
 21
17.3564
  0
LINE
  8
0
 10
-11.889
 20
17.3564
 11
-11.8754
 21
17.4602
  0
LINE
  8
0
 10
-11.8754
 20
17.4602
 11
-11.8563
 21
17.5631
  0
LINE
  8
0
 10
-11.8563
 20
17.5631
 11
-11.8319
 21
17.6649
  0
LINE
  8
0
 10
-11.8319
 20
17.6649
 11
-11.8021
 21
17.7653
  0
LINE
  8
0
 10
-11.8021
 20
17.7653
 11
-11.7672
 21
17.864
  0
LINE
  8
0
 10
-11.7672
 20
17.864
 11
-11.7271
 21
17.9608
  0
LINE
  8
0
 10
-11.7271
 20
17.9608
 11
-11.682
 21
18.0553
  0
LINE
  8
0
 10
-11.682
 20
18.0553
 11
-11.6321
 21
18.1473
  0
LINE
  8
0
 10
-11.6321
 20
18.1473
 11
-11.5773
 21
18.2366
  0
LINE
  8
0
 10
-11.5773
 20
18.2366
 11
-11.518
 21
18.3229
  0
LINE
  8
0
 10
-11.518
 20
18.3229
 11
-11.4543
 21
18.4059
  0
LINE
  8
0
 10
-11.4543
 20
18.4059
 11
-11.3863
 21
18.4856
  0
LINE
  8
0
 10
-11.3863
 20
18.4856
 11
-11.3142
 21
18.5615
  0
LINE
  8
0
 10
-11.3142
 20
18.5615
 11
-11.2383
 21
18.6336
  0
LINE
  8
0
 10
-11.2383
 20
18.6336
 11
-11.1586
 21
18.7016
  0
LINE
  8
0
 10
-11.1586
 20
18.7016
 11
-11.0756
 21
18.7653
  0
LINE
  8
0
 10
-11.0756
 20
18.7653
 11
-10.9893
 21
18.8246
  0
LINE
  8
0
 10
-10.9893
 20
18.8246
 11
-10.9
 21
18.8794
  0
LINE
  8
0
 10
-10.9
 20
18.8794
 11
-10.808
 21
18.9293
  0
LINE
  8
0
 10
-10.808
 20
18.9293
 11
-10.7135
 21
18.9744
  0
LINE
  8
0
 10
-10.7135
 20
18.9744
 11
-10.6167
 21
19.0145
  0
LINE
  8
0
 10
-10.6167
 20
19.0145
 11
-10.518
 21
19.0494
  0
LINE
  8
0
 10
-10.518
 20
19.0494
 11
-10.4176
 21
19.0792
  0
LINE
  8
0
 10
-10.4176
 20
19.0792
 11
-10.3158
 21
19.1036
  0
LINE
  8
0
 10
-10.3158
 20
19.1036
 11
-10.2129
 21
19.1227
  0
LINE
  8
0
 10
-10.2129
 20
19.1227
 11
-10.1091
 21
19.1363
  0
LINE
  8
0
 10
-10.1091
 20
19.1363
 11
-10.0047
 21
19.1446
  0
LINE
  8
0
 10
-10.0047
 20
19.1446
 11
-9.89999
 21
19.1473
  0
LINE
  8
0
 10
-9.89999
 20
19.1473
 11
-9.79532
 21
19.1446
  0
LINE
  8
0
 10
-9.79532
 20
19.1446
 11
-9.69093
 21
19.1363
  0
LINE
  8
0
 10
-9.69093
 20
19.1363
 11
-9.58713
 21
19.1227
  0
LINE
  8
0
 10
-9.58713
 20
19.1227
 11
-9.48418
 21
19.1036
  0
LINE
  8
0
 10
-9.48418
 20
19.1036
 11
-9.38235
 21
19.0792
  0
LINE
  8
0
 10
-9.38235
 20
19.0792
 11
-9.28197
 21
19.0494
  0
LINE
  8
0
 10
-9.28197
 20
19.0494
 11
-9.18326
 21
19.0145
  0
LINE
  8
0
 10
-9.18326
 20
19.0145
 11
-9.08652
 21
18.9744
  0
LINE
  8
0
 10
-9.08652
 20
18.9744
 11
-8.99202
 21
18.9293
  0
LINE
  8
0
 10
-8.99202
 20
18.9293
 11
-8.89999
 21
18.8794
  0
LINE
  8
0
 10
-8.89999
 20
18.8794
 11
-8.81071
 21
18.8246
  0
LINE
  8
0
 10
-8.81071
 20
18.8246
 11
-8.72443
 21
18.7653
  0
LINE
  8
0
 10
-8.72443
 20
18.7653
 11
-8.64136
 21
18.7016
  0
LINE
  8
0
 10
-8.64136
 20
18.7016
 11
-8.56174
 21
18.6336
  0
LINE
  8
0
 10
-8.56174
 20
18.6336
 11
-8.48578
 21
18.5615
  0
LINE
  8
0
 10
-8.48578
 20
18.5615
 11
-8.4137
 21
18.4856
  0
LINE
  8
0
 10
-8.4137
 20
18.4856
 11
-8.3457
 21
18.4059
  0
LINE
  8
0
 10
-8.3457
 20
18.4059
 11
-8.28197
 21
18.3229
  0
LINE
  8
0
 10
-8.28197
 20
18.3229
 11
-8.22266
 21
18.2366
  0
LINE
  8
0
 10
-8.22266
 20
18.2366
 11
-8.16794
 21
18.1473
  0
LINE
  8
0
 10
-8.16794
 20
18.1473
 11
-8.11798
 21
18.0553
  0
LINE
  8
0
 10
-8.11798
 20
18.0553
 11
-8.07291
 21
17.9608
  0
LINE
  8
0
 10
-8.07291
 20
17.9608
 11
-8.03284
 21
17.864
  0
LINE
  8
0
 10
-8.03284
 20
17.864
 11
-7.99788
 21
17.7653
  0
LINE
  8
0
 10
-7.99788
 20
17.7653
 11
-7.96814
 21
17.6649
  0
LINE
  8
0
 10
-7.96814
 20
17.6649
 11
-7.9437
 21
17.5631
  0
LINE
  8
0
 10
-7.9437
 20
17.5631
 11
-7.92461
 21
17.4602
  0
LINE
  8
0
 10
-7.92461
 20
17.4602
 11
-7.91095
 21
17.3564
  0
LINE
  8
0
 10
-7.91095
 20
17.3564
 11
-7.90273
 21
17.252
  0
LINE
  8
0
 10
-7.90273
 20
17.252
 11
-7.89999
 21
17.1473
  0
LINE
  8
0
 10
-7.89999
 20
17.1473
 11
-7.90273
 21
17.0426
  0
LINE
  8
0
 10
-7.90273
 20
17.0426
 11
-7.91095
 21
16.9382
  0
LINE
  8
0
 10
-7.91095
 20
16.9382
 11
-7.92461
 21
16.8344
  0
LINE
  8
0
 10
-7.92461
 20
16.8344
 11
-7.9437
 21
16.7315
  0
LINE
  8
0
 10
-7.9437
 20
16.7315
 11
-7.96814
 21
16.6297
  0
LINE
  8
0
 10
-7.96814
 20
16.6297
 11
-7.99788
 21
16.5293
  0
LINE
  8
0
 10
-7.99788
 20
16.5293
 11
-8.03284
 21
16.4306
  0
LINE
  8
0
 10
-8.03284
 20
16.4306
 11
-8.07291
 21
16.3338
  0
LINE
  8
0
 10
-8.07291
 20
16.3338
 11
-8.11798
 21
16.2393
  0
LINE
  8
0
 10
-8.11798
 20
16.2393
 11
-8.16794
 21
16.1473
  0
LINE
  8
0
 10
-8.16794
 20
16.1473
 11
-8.22266
 21
16.058
  0
LINE
  8
0
 10
-8.22266
 20
16.058
 11
-8.28197
 21
15.9717
  0
LINE
  8
0
 10
-8.28197
 20
15.9717
 11
-8.3457
 21
15.8887
  0
LINE
  8
0
 10
-8.3457
 20
15.8887
 11
-8.4137
 21
15.809
  0
LINE
  8
0
 10
-8.4137
 20
15.809
 11
-8.48578
 21
15.7331
  0
LINE
  8
0
 10
-8.48578
 20
15.7331
 11
-8.56174
 21
15.661
  0
LINE
  8
0
 10
-8.56174
 20
15.661
 11
-8.64136
 21
15.593
  0
LINE
  8
0
 10
-8.64136
 20
15.593
 11
-8.72443
 21
15.5293
  0
LINE
  8
0
 10
-8.72443
 20
15.5293
 11
-8.81071
 21
15.47
  0
LINE
  8
0
 10
-8.81071
 20
15.47
 11
-8.89999
 21
15.4153
  0
LINE
  8
0
 10
-8.89999
 20
15.4153
 11
-8.99202
 21
15.3653
  0
LINE
  8
0
 10
-8.99202
 20
15.3653
 11
-9.08652
 21
15.3202
  0
LINE
  8
0
 10
-9.08652
 20
15.3202
 11
-9.18326
 21
15.2801
  0
LINE
  8
0
 10
-9.18326
 20
15.2801
 11
-9.28197
 21
15.2452
  0
LINE
  8
0
 10
-9.28197
 20
15.2452
 11
-9.38235
 21
15.2155
  0
LINE
  8
0
 10
-9.38235
 20
15.2155
 11
-9.48418
 21
15.191
  0
LINE
  8
0
 10
-9.48418
 20
15.191
 11
-9.58713
 21
15.1719
  0
LINE
  8
0
 10
-9.58713
 20
15.1719
 11
-9.69093
 21
15.1583
  0
LINE
  8
0
 10
-9.69093
 20
15.1583
 11
-9.79532
 21
15.15
  0
LINE
  8
0
 10
-9.79532
 20
15.15
 11
-9.89999
 21
15.1473
  0
LINE
  8
0
 10
-9.89999
 20
15.1473
 11
-10.0047
 21
15.15
  0
LINE
  8
0
 10
-0.177933
 20
-3.39534
 11
-0.355392
 21
-3.38136
  0
LINE
  8
0
 10
-0.355392
 20
-3.38136
 11
-0.531876
 21
-3.35814
  0
LINE
  8
0
 10
-0.531876
 20
-3.35814
 11
-0.706894
 21
-3.3257
  0
LINE
  8
0
 10
-0.706894
 20
-3.3257
 11
-0.879974
 21
-3.28415
  0
LINE
  8
0
 10
-0.879974
 20
-3.28415
 11
-1.05066
 21
-3.23358
  0
LINE
  8
0
 10
-1.05066
 20
-3.23358
 11
-1.21844
 21
-3.17416
  0
LINE
  8
0
 10
-1.21844
 20
-3.17416
 11
-1.38289
 21
-3.10605
  0
LINE
  8
0
 10
-1.38289
 20
-3.10605
 11
-1.54356
 21
-3.02942
  0
LINE
  8
0
 10
-1.54356
 20
-3.02942
 11
-1.7
 21
-2.94449
  0
LINE
  8
0
 10
-1.7
 20
-2.94449
 11
-1.85176
 21
-2.85147
  0
LINE
  8
0
 10
-1.85176
 20
-2.85147
 11
-1.99846
 21
-2.75066
  0
LINE
  8
0
 10
-1.99846
 20
-2.75066
 11
-2.13968
 21
-2.64229
  0
LINE
  8
0
 10
-2.13968
 20
-2.64229
 11
-2.27504
 21
-2.52669
  0
LINE
  8
0
 10
-2.27504
 20
-2.52669
 11
-2.40416
 21
-2.40416
  0
LINE
  8
0
 10
-2.40416
 20
-2.40416
 11
-2.52669
 21
-2.27504
  0
LINE
  8
0
 10
-2.52669
 20
-2.27504
 11
-2.64229
 21
-2.13968
  0
LINE
  8
0
 10
-2.64229
 20
-2.13968
 11
-2.75066
 21
-1.99846
  0
LINE
  8
0
 10
-2.75066
 20
-1.99846
 11
-2.85147
 21
-1.85176
  0
LINE
  8
0
 10
-2.85147
 20
-1.85176
 11
-2.94449
 21
-1.7
  0
LINE
  8
0
 10
-2.94449
 20
-1.7
 11
-3.02942
 21
-1.54356
  0
LINE
  8
0
 10
-3.02942
 20
-1.54356
 11
-3.10605
 21
-1.38289
  0
LINE
  8
0
 10
-3.10605
 20
-1.38289
 11
-3.17416
 21
-1.21844
  0
LINE
  8
0
 10
-3.17416
 20
-1.21844
 11
-3.23358
 21
-1.05066
  0
LINE
  8
0
 10
-3.23358
 20
-1.05066
 11
-3.28415
 21
-0.879974
  0
LINE
  8
0
 10
-3.28415
 20
-0.879974
 11
-3.3257
 21
-0.706894
  0
LINE
  8
0
 10
-3.3257
 20
-0.706894
 11
-3.35814
 21
-0.531876
  0
LINE
  8
0
 10
-3.35814
 20
-0.531876
 11
-3.38136
 21
-0.355392
  0
LINE
  8
0
 10
-3.38136
 20
-0.355392
 11
-3.39534
 21
-0.177933
  0
LINE
  8
0
 10
-3.39534
 20
-0.177933
 11
-3.39999
 21
0
  0
LINE
  8
0
 10
-3.39999
 20
0
 11
-3.39534
 21
0.177933
  0
LINE
  8
0
 10
-3.39534
 20
0.177933
 11
-3.38136
 21
0.355392
  0
LINE
  8
0
 10
-3.38136
 20
0.355392
 11
-3.35814
 21
0.531876
  0
LINE
  8
0
 10
-3.35814
 20
0.531876
 11
-3.3257
 21
0.706894
  0
LINE
  8
0
 10
-3.3257
 20
0.706894
 11
-3.28415
 21
0.879974
  0
LINE
  8
0
 10
-3.28415
 20
0.879974
 11
-3.23358
 21
1.05066
  0
LINE
  8
0
 10
-3.23358
 20
1.05066
 11
-3.17416
 21
1.21844
  0
LINE
  8
0
 10
-3.17416
 20
1.21844
 11
-3.10605
 21
1.38289
  0
LINE
  8
0
 10
-3.10605
 20
1.38289
 11
-3.02942
 21
1.54356
  0
LINE
  8
0
 10
-3.02942
 20
1.54356
 11
-2.94449
 21
1.7
  0
LINE
  8
0
 10
-2.94449
 20
1.7
 11
-2.85147
 21
1.85176
  0
LINE
  8
0
 10
-2.85147
 20
1.85176
 11
-2.75066
 21
1.99846
  0
LINE
  8
0
 10
-2.75066
 20
1.99846
 11
-2.64229
 21
2.13968
  0
LINE
  8
0
 10
-2.64229
 20
2.13968
 11
-2.52669
 21
2.27504
  0
LINE
  8
0
 10
-2.52669
 20
2.27504
 11
-2.40416
 21
2.40416
  0
LINE
  8
0
 10
-2.40416
 20
2.40416
 11
-2.27504
 21
2.52669
  0
LINE
  8
0
 10
-2.27504
 20
2.52669
 11
-2.13968
 21
2.64229
  0
LINE
  8
0
 10
-2.13968
 20
2.64229
 11
-1.99846
 21
2.75066
  0
LINE
  8
0
 10
-1.99846
 20
2.75066
 11
-1.85176
 21
2.85147
  0
LINE
  8
0
 10
-1.85176
 20
2.85147
 11
-1.7
 21
2.94449
  0
LINE
  8
0
 10
-1.7
 20
2.94449
 11
-1.54356
 21
3.02942
  0
LINE
  8
0
 10
-1.54356
 20
3.02942
 11
-1.38289
 21
3.10605
  0
LINE
  8
0
 10
-1.38289
 20
3.10605
 11
-1.21844
 21
3.17416
  0
LINE
  8
0
 10
-1.21844
 20
3.17416
 11
-1.05066
 21
3.23358
  0
LINE
  8
0
 10
-1.05066
 20
3.23358
 11
-0.879974
 21
3.28415
  0
LINE
  8
0
 10
-0.879974
 20
3.28415
 11
-0.706894
 21
3.3257
  0
LINE
  8
0
 10
-0.706894
 20
3.3257
 11
-0.531876
 21
3.35814
  0
LINE
  8
0
 10
-0.531876
 20
3.35814
 11
-0.355392
 21
3.38136
  0
LINE
  8
0
 10
-0.355392
 20
3.38136
 11
-0.177933
 21
3.39534
  0
LINE
  8
0
 10
-0.177933
 20
3.39534
 11
0
 21
3.39999
  0
LINE
  8
0
 10
0
 20
3.39999
 11
0.177933
 21
3.39534
  0
LINE
  8
0
 10
0.177933
 20
3.39534
 11
0.355392
 21
3.38136
  0
LINE
  8
0
 10
0.355392
 20
3.38136
 11
0.531876
 21
3.35814
  0
LINE
  8
0
 10
0.531876
 20
3.35814
 11
0.706894
 21
3.3257
  0
LINE
  8
0
 10
0.706894
 20
3.3257
 11
0.879974
 21
3.28415
  0
LINE
  8
0
 10
0.879974
 20
3.28415
 11
1.05066
 21
3.23358
  0
LINE
  8
0
 10
1.05066
 20
3.23358
 11
1.21844
 21
3.17416
  0
LINE
  8
0
 10
1.21844
 20
3.17416
 11
1.38289
 21
3.10605
  0
LINE
  8
0
 10
1.38289
 20
3.10605
 11
1.54356
 21
3.02942
  0
LINE
  8
0
 10
1.54356
 20
3.02942
 11
1.7
 21
2.94449
  0
LINE
  8
0
 10
1.7
 20
2.94449
 11
1.85176
 21
2.85147
  0
LINE
  8
0
 10
1.85176
 20
2.85147
 11
1.99846
 21
2.75066
  0
LINE
  8
0
 10
1.99846
 20
2.75066
 11
2.13968
 21
2.64229
  0
LINE
  8
0
 10
2.13968
 20
2.64229
 11
2.27504
 21
2.52669
  0
LINE
  8
0
 10
2.27504
 20
2.52669
 11
2.40416
 21
2.40416
  0
LINE
  8
0
 10
2.40416
 20
2.40416
 11
2.52669
 21
2.27504
  0
LINE
  8
0
 10
2.52669
 20
2.27504
 11
2.64229
 21
2.13968
  0
LINE
  8
0
 10
2.64229
 20
2.13968
 11
2.75066
 21
1.99846
  0
LINE
  8
0
 10
2.75066
 20
1.99846
 11
2.85147
 21
1.85176
  0
LINE
  8
0
 10
2.85147
 20
1.85176
 11
2.94449
 21
1.7
  0
LINE
  8
0
 10
2.94449
 20
1.7
 11
3.02942
 21
1.54356
  0
LINE
  8
0
 10
3.02942
 20
1.54356
 11
3.10605
 21
1.38289
  0
LINE
  8
0
 10
3.10605
 20
1.38289
 11
3.17416
 21
1.21844
  0
LINE
  8
0
 10
3.17416
 20
1.21844
 11
3.23358
 21
1.05066
  0
LINE
  8
0
 10
3.23358
 20
1.05066
 11
3.28415
 21
0.879974
  0
LINE
  8
0
 10
3.28415
 20
0.879974
 11
3.3257
 21
0.706894
  0
LINE
  8
0
 10
3.3257
 20
0.706894
 11
3.35814
 21
0.531876
  0
LINE
  8
0
 10
3.35814
 20
0.531876
 11
3.38136
 21
0.355392
  0
LINE
  8
0
 10
3.38136
 20
0.355392
 11
3.39534
 21
0.177933
  0
LINE
  8
0
 10
3.39534
 20
0.177933
 11
3.39999
 21
0
  0
LINE
  8
0
 10
3.39999
 20
0
 11
3.39534
 21
-0.177933
  0
LINE
  8
0
 10
3.39534
 20
-0.177933
 11
3.38136
 21
-0.355392
  0
LINE
  8
0
 10
3.38136
 20
-0.355392
 11
3.35814
 21
-0.531876
  0
LINE
  8
0
 10
3.35814
 20
-0.531876
 11
3.3257
 21
-0.706894
  0
LINE
  8
0
 10
3.3257
 20
-0.706894
 11
3.28415
 21
-0.879974
  0
LINE
  8
0
 10
3.28415
 20
-0.879974
 11
3.23358
 21
-1.05066
  0
LINE
  8
0
 10
3.23358
 20
-1.05066
 11
3.17416
 21
-1.21844
  0
LINE
  8
0
 10
3.17416
 20
-1.21844
 11
3.10605
 21
-1.38289
  0
LINE
  8
0
 10
3.10605
 20
-1.38289
 11
3.02942
 21
-1.54356
  0
LINE
  8
0
 10
3.02942
 20
-1.54356
 11
2.94449
 21
-1.7
  0
LINE
  8
0
 10
2.94449
 20
-1.7
 11
2.85147
 21
-1.85176
  0
LINE
  8
0
 10
2.85147
 20
-1.85176
 11
2.75066
 21
-1.99846
  0
LINE
  8
0
 10
2.75066
 20
-1.99846
 11
2.64229
 21
-2.13968
  0
LINE
  8
0
 10
2.64229
 20
-2.13968
 11
2.52669
 21
-2.27504
  0
LINE
  8
0
 10
2.52669
 20
-2.27504
 11
2.40416
 21
-2.40416
  0
LINE
  8
0
 10
2.40416
 20
-2.40416
 11
2.27504
 21
-2.52669
  0
LINE
  8
0
 10
2.27504
 20
-2.52669
 11
2.13968
 21
-2.64229
  0
LINE
  8
0
 10
2.13968
 20
-2.64229
 11
1.99846
 21
-2.75066
  0
LINE
  8
0
 10
1.99846
 20
-2.75066
 11
1.85176
 21
-2.85147
  0
LINE
  8
0
 10
1.85176
 20
-2.85147
 11
1.7
 21
-2.94449
  0
LINE
  8
0
 10
1.7
 20
-2.94449
 11
1.54356
 21
-3.02942
  0
LINE
  8
0
 10
1.54356
 20
-3.02942
 11
1.38289
 21
-3.10605
  0
LINE
  8
0
 10
1.38289
 20
-3.10605
 11
1.21844
 21
-3.17416
  0
LINE
  8
0
 10
1.21844
 20
-3.17416
 11
1.05066
 21
-3.23358
  0
LINE
  8
0
 10
1.05066
 20
-3.23358
 11
0.879974
 21
-3.28415
  0
LINE
  8
0
 10
0.879974
 20
-3.28415
 11
0.706894
 21
-3.3257
  0
LINE
  8
0
 10
0.706894
 20
-3.3257
 11
0.531876
 21
-3.35814
  0
LINE
  8
0
 10
0.531876
 20
-3.35814
 11
0.355392
 21
-3.38136
  0
LINE
  8
0
 10
0.355392
 20
-3.38136
 11
0.177933
 21
-3.39534
  0
LINE
  8
0
 10
0.177933
 20
-3.39534
 11
0
 21
-3.39999
  0
LINE
  8
0
 10
0
 20
-3.39999
 11
-0.177933
 21
-3.39534
  0
LINE
  8
0
 10
19.6953
 20
-1.99725
 11
19.5909
 21
-1.98903
  0
LINE
  8
0
 10
19.5909
 20
-1.98903
 11
19.4871
 21
-1.97537
  0
LINE
  8
0
 10
19.4871
 20
-1.97537
 11
19.3842
 21
-1.9563
  0
LINE
  8
0
 10
19.3842
 20
-1.9563
 11
19.2824
 21
-1.93184
  0
LINE
  8
0
 10
19.2824
 20
-1.93184
 11
19.182
 21
-1.9021
  0
LINE
  8
0
 10
19.182
 20
-1.9021
 11
19.0833
 21
-1.86716
  0
LINE
  8
0
 10
19.0833
 20
-1.86716
 11
18.9865
 21
-1.82709
  0
LINE
  8
0
 10
18.9865
 20
-1.82709
 11
18.892
 21
-1.782
  0
LINE
  8
0
 10
18.892
 20
-1.782
 11
18.8
 21
-1.73204
  0
LINE
  8
0
 10
18.8
 20
-1.73204
 11
18.7107
 21
-1.67734
  0
LINE
  8
0
 10
18.7107
 20
-1.67734
 11
18.6244
 21
-1.61803
  0
LINE
  8
0
 10
18.6244
 20
-1.61803
 11
18.5414
 21
-1.55428
  0
LINE
  8
0
 10
18.5414
 20
-1.55428
 11
18.4617
 21
-1.48628
  0
LINE
  8
0
 10
18.4617
 20
-1.48628
 11
18.3858
 21
-1.4142
  0
LINE
  8
0
 10
18.3858
 20
-1.4142
 11
18.3137
 21
-1.33826
  0
LINE
  8
0
 10
18.3137
 20
-1.33826
 11
18.2457
 21
-1.25864
  0
LINE
  8
0
 10
18.2457
 20
-1.25864
 11
18.182
 21
-1.17557
  0
LINE
  8
0
 10
18.182
 20
-1.17557
 11
18.1227
 21
-1.08928
  0
LINE
  8
0
 10
18.1227
 20
-1.08928
 11
18.0679
 21
-1
  0
LINE
  8
0
 10
18.0679
 20
-1
 11
18.018
 21
-0.907974
  0
LINE
  8
0
 10
18.018
 20
-0.907974
 11
17.9729
 21
-0.813461
  0
LINE
  8
0
 10
17.9729
 20
-0.813461
 11
17.9328
 21
-0.716736
  0
LINE
  8
0
 10
17.9328
 20
-0.716736
 11
17.8979
 21
-0.618027
  0
LINE
  8
0
 10
17.8979
 20
-0.618027
 11
17.8681
 21
-0.517624
  0
LINE
  8
0
 10
17.8681
 20
-0.517624
 11
17.8437
 21
-0.415817
  0
LINE
  8
0
 10
17.8437
 20
-0.415817
 11
17.8246
 21
-0.312866
  0
LINE
  8
0
 10
17.8246
 20
-0.312866
 11
17.811
 21
-0.209045
  0
LINE
  8
0
 10
17.811
 20
-0.209045
 11
17.8027
 21
-0.10466
  0
LINE
  8
0
 10
17.8027
 20
-0.10466
 11
17.8
 21
0
  0
LINE
  8
0
 10
17.8
 20
0
 11
17.8027
 21
0.10466
  0
LINE
  8
0
 10
17.8027
 20
0.10466
 11
17.811
 21
0.209045
  0
LINE
  8
0
 10
17.811
 20
0.209045
 11
17.8246
 21
0.312866
  0
LINE
  8
0
 10
17.8246
 20
0.312866
 11
17.8437
 21
0.415817
  0
LINE
  8
0
 10
17.8437
 20
0.415817
 11
17.8681
 21
0.517624
  0
LINE
  8
0
 10
17.8681
 20
0.517624
 11
17.8979
 21
0.618027
  0
LINE
  8
0
 10
17.8979
 20
0.618027
 11
17.9328
 21
0.716736
  0
LINE
  8
0
 10
17.9328
 20
0.716736
 11
17.9729
 21
0.813461
  0
LINE
  8
0
 10
17.9729
 20
0.813461
 11
18.018
 21
0.907974
  0
LINE
  8
0
 10
18.018
 20
0.907974
 11
18.0679
 21
1
  0
LINE
  8
0
 10
18.0679
 20
1
 11
18.1227
 21
1.08928
  0
LINE
  8
0
 10
18.1227
 20
1.08928
 11
18.182
 21
1.17557
  0
LINE
  8
0
 10
18.182
 20
1.17557
 11
18.2457
 21
1.25864
  0
LINE
  8
0
 10
18.2457
 20
1.25864
 11
18.3137
 21
1.33826
  0
LINE
  8
0
 10
18.3137
 20
1.33826
 11
18.3858
 21
1.4142
  0
LINE
  8
0
 10
18.3858
 20
1.4142
 11
18.4617
 21
1.48628
  0
LINE
  8
0
 10
18.4617
 20
1.48628
 11
18.5414
 21
1.55428
  0
LINE
  8
0
 10
18.5414
 20
1.55428
 11
18.6244
 21
1.61803
  0
LINE
  8
0
 10
18.6244
 20
1.61803
 11
18.7107
 21
1.67734
  0
LINE
  8
0
 10
18.7107
 20
1.67734
 11
18.8
 21
1.73204
  0
LINE
  8
0
 10
18.8
 20
1.73204
 11
18.892
 21
1.782
  0
LINE
  8
0
 10
18.892
 20
1.782
 11
18.9865
 21
1.82709
  0
LINE
  8
0
 10
18.9865
 20
1.82709
 11
19.0833
 21
1.86716
  0
LINE
  8
0
 10
19.0833
 20
1.86716
 11
19.182
 21
1.9021
  0
LINE
  8
0
 10
19.182
 20
1.9021
 11
19.2824
 21
1.93184
  0
LINE
  8
0
 10
19.2824
 20
1.93184
 11
19.3842
 21
1.9563
  0
LINE
  8
0
 10
19.3842
 20
1.9563
 11
19.4871
 21
1.97537
  0
LINE
  8
0
 10
19.4871
 20
1.97537
 11
19.5909
 21
1.98903
  0
LINE
  8
0
 10
19.5909
 20
1.98903
 11
19.6953
 21
1.99725
  0
LINE
  8
0
 10
19.6953
 20
1.99725
 11
19.8
 21
2
  0
LINE
  8
0
 10
19.8
 20
2
 11
19.9047
 21
1.99725
  0
LINE
  8
0
 10
19.9047
 20
1.99725
 11
20.0091
 21
1.98903
  0
LINE
  8
0
 10
20.0091
 20
1.98903
 11
20.1129
 21
1.97537
  0
LINE
  8
0
 10
20.1129
 20
1.97537
 11
20.2158
 21
1.9563
  0
LINE
  8
0
 10
20.2158
 20
1.9563
 11
20.3176
 21
1.93184
  0
LINE
  8
0
 10
20.3176
 20
1.93184
 11
20.418
 21
1.9021
  0
LINE
  8
0
 10
20.418
 20
1.9021
 11
20.5167
 21
1.86716
  0
LINE
  8
0
 10
20.5167
 20
1.86716
 11
20.6135
 21
1.82709
  0
LINE
  8
0
 10
20.6135
 20
1.82709
 11
20.708
 21
1.782
  0
LINE
  8
0
 10
20.708
 20
1.782
 11
20.8
 21
1.73204
  0
LINE
  8
0
 10
20.8
 20
1.73204
 11
20.8893
 21
1.67734
  0
LINE
  8
0
 10
20.8893
 20
1.67734
 11
20.9756
 21
1.61803
  0
LINE
  8
0
 10
20.9756
 20
1.61803
 11
21.0586
 21
1.55428
  0
LINE
  8
0
 10
21.0586
 20
1.55428
 11
21.1383
 21
1.48628
  0
LINE
  8
0
 10
21.1383
 20
1.48628
 11
21.2142
 21
1.4142
  0
LINE
  8
0
 10
21.2142
 20
1.4142
 11
21.2863
 21
1.33826
  0
LINE
  8
0
 10
21.2863
 20
1.33826
 11
21.3543
 21
1.25864
  0
LINE
  8
0
 10
21.3543
 20
1.25864
 11
21.418
 21
1.17557
  0
LINE
  8
0
 10
21.418
 20
1.17557
 11
21.4773
 21
1.08928
  0
LINE
  8
0
 10
21.4773
 20
1.08928
 11
21.5321
 21
1
  0
LINE
  8
0
 10
21.5321
 20
1
 11
21.582
 21
0.907974
  0
LINE
  8
0
 10
21.582
 20
0.907974
 11
21.6271
 21
0.813461
  0
LINE
  8
0
 10
21.6271
 20
0.813461
 11
21.6672
 21
0.716736
  0
LINE
  8
0
 10
21.6672
 20
0.716736
 11
21.7021
 21
0.618027
  0
LINE
  8
0
 10
21.7021
 20
0.618027
 11
21.7319
 21
0.517624
  0
LINE
  8
0
 10
21.7319
 20
0.517624
 11
21.7563
 21
0.415817
  0
LINE
  8
0
 10
21.7563
 20
0.415817
 11
21.7754
 21
0.312866
  0
LINE
  8
0
 10
21.7754
 20
0.312866
 11
21.789
 21
0.209045
  0
LINE
  8
0
 10
21.789
 20
0.209045
 11
21.7973
 21
0.10466
  0
LINE
  8
0
 10
21.7973
 20
0.10466
 11
21.8
 21
0
  0
LINE
  8
0
 10
21.8
 20
0
 11
21.7973
 21
-0.10466
  0
LINE
  8
0
 10
21.7973
 20
-0.10466
 11
21.789
 21
-0.209045
  0
LINE
  8
0
 10
21.789
 20
-0.209045
 11
21.7754
 21
-0.312866
  0
LINE
  8
0
 10
21.7754
 20
-0.312866
 11
21.7563
 21
-0.415817
  0
LINE
  8
0
 10
21.7563
 20
-0.415817
 11
21.7319
 21
-0.517624
  0
LINE
  8
0
 10
21.7319
 20
-0.517624
 11
21.7021
 21
-0.618027
  0
LINE
  8
0
 10
21.7021
 20
-0.618027
 11
21.6672
 21
-0.716736
  0
LINE
  8
0
 10
21.6672
 20
-0.716736
 11
21.6271
 21
-0.813461
  0
LINE
  8
0
 10
21.6271
 20
-0.813461
 11
21.582
 21
-0.907974
  0
LINE
  8
0
 10
21.582
 20
-0.907974
 11
21.5321
 21
-1
  0
LINE
  8
0
 10
21.5321
 20
-1
 11
21.4773
 21
-1.08928
  0
LINE
  8
0
 10
21.4773
 20
-1.08928
 11
21.418
 21
-1.17557
  0
LINE
  8
0
 10
21.418
 20
-1.17557
 11
21.3543
 21
-1.25864
  0
LINE
  8
0
 10
21.3543
 20
-1.25864
 11
21.2863
 21
-1.33826
  0
LINE
  8
0
 10
21.2863
 20
-1.33826
 11
21.2142
 21
-1.4142
  0
LINE
  8
0
 10
21.2142
 20
-1.4142
 11
21.1383
 21
-1.48628
  0
LINE
  8
0
 10
21.1383
 20
-1.48628
 11
21.0586
 21
-1.55428
  0
LINE
  8
0
 10
21.0586
 20
-1.55428
 11
20.9756
 21
-1.61803
  0
LINE
  8
0
 10
20.9756
 20
-1.61803
 11
20.8893
 21
-1.67734
  0
LINE
  8
0
 10
20.8893
 20
-1.67734
 11
20.8
 21
-1.73204
  0
LINE
  8
0
 10
20.8
 20
-1.73204
 11
20.708
 21
-1.782
  0
LINE
  8
0
 10
20.708
 20
-1.782
 11
20.6135
 21
-1.82709
  0
LINE
  8
0
 10
20.6135
 20
-1.82709
 11
20.5167
 21
-1.86716
  0
LINE
  8
0
 10
20.5167
 20
-1.86716
 11
20.418
 21
-1.9021
  0
LINE
  8
0
 10
20.418
 20
-1.9021
 11
20.3176
 21
-1.93184
  0
LINE
  8
0
 10
20.3176
 20
-1.93184
 11
20.2158
 21
-1.9563
  0
LINE
  8
0
 10
20.2158
 20
-1.9563
 11
20.1129
 21
-1.97537
  0
LINE
  8
0
 10
20.1129
 20
-1.97537
 11
20.0091
 21
-1.98903
  0
LINE
  8
0
 10
20.0091
 20
-1.98903
 11
19.9047
 21
-1.99725
  0
LINE
  8
0
 10
19.9047
 20
-1.99725
 11
19.8
 21
-2
  0
LINE
  8
0
 10
19.8
 20
-2
 11
19.6953
 21
-1.99725
  0
LINE
  8
0
 10
-10.0047
 20
-19.1446
 11
-10.1091
 21
-19.1363
  0
LINE
  8
0
 10
-10.1091
 20
-19.1363
 11
-10.2129
 21
-19.1227
  0
LINE
  8
0
 10
-10.2129
 20
-19.1227
 11
-10.3158
 21
-19.1036
  0
LINE
  8
0
 10
-10.3158
 20
-19.1036
 11
-10.4176
 21
-19.0792
  0
LINE
  8
0
 10
-10.4176
 20
-19.0792
 11
-10.518
 21
-19.0494
  0
LINE
  8
0
 10
-10.518
 20
-19.0494
 11
-10.6167
 21
-19.0145
  0
LINE
  8
0
 10
-10.6167
 20
-19.0145
 11
-10.7135
 21
-18.9744
  0
LINE
  8
0
 10
-10.7135
 20
-18.9744
 11
-10.808
 21
-18.9293
  0
LINE
  8
0
 10
-10.808
 20
-18.9293
 11
-10.9
 21
-18.8794
  0
LINE
  8
0
 10
-10.9
 20
-18.8794
 11
-10.9893
 21
-18.8246
  0
LINE
  8
0
 10
-10.9893
 20
-18.8246
 11
-11.0756
 21
-18.7653
  0
LINE
  8
0
 10
-11.0756
 20
-18.7653
 11
-11.1586
 21
-18.7016
  0
LINE
  8
0
 10
-11.1586
 20
-18.7016
 11
-11.2383
 21
-18.6336
  0
LINE
  8
0
 10
-11.2383
 20
-18.6336
 11
-11.3142
 21
-18.5615
  0
LINE
  8
0
 10
-11.3142
 20
-18.5615
 11
-11.3863
 21
-18.4856
  0
LINE
  8
0
 10
-11.3863
 20
-18.4856
 11
-11.4543
 21
-18.4059
  0
LINE
  8
0
 10
-11.4543
 20
-18.4059
 11
-11.518
 21
-18.3229
  0
LINE
  8
0
 10
-11.518
 20
-18.3229
 11
-11.5773
 21
-18.2366
  0
LINE
  8
0
 10
-11.5773
 20
-18.2366
 11
-11.6321
 21
-18.1473
  0
LINE
  8
0
 10
-11.6321
 20
-18.1473
 11
-11.682
 21
-18.0553
  0
LINE
  8
0
 10
-11.682
 20
-18.0553
 11
-11.7271
 21
-17.9608
  0
LINE
  8
0
 10
-11.7271
 20
-17.9608
 11
-11.7672
 21
-17.864
  0
LINE
  8
0
 10
-11.7672
 20
-17.864
 11
-11.8021
 21
-17.7653
  0
LINE
  8
0
 10
-11.8021
 20
-17.7653
 11
-11.8319
 21
-17.6649
  0
LINE
  8
0
 10
-11.8319
 20
-17.6649
 11
-11.8563
 21
-17.5631
  0
LINE
  8
0
 10
-11.8563
 20
-17.5631
 11
-11.8754
 21
-17.4602
  0
LINE
  8
0
 10
-11.8754
 20
-17.4602
 11
-11.889
 21
-17.3564
  0
LINE
  8
0
 10
-11.889
 20
-17.3564
 11
-11.8973
 21
-17.252
  0
LINE
  8
0
 10
-11.8973
 20
-17.252
 11
-11.9
 21
-17.1473
  0
LINE
  8
0
 10
-11.9
 20
-17.1473
 11
-11.8973
 21
-17.0426
  0
LINE
  8
0
 10
-11.8973
 20
-17.0426
 11
-11.889
 21
-16.9382
  0
LINE
  8
0
 10
-11.889
 20
-16.9382
 11
-11.8754
 21
-16.8344
  0
LINE
  8
0
 10
-11.8754
 20
-16.8344
 11
-11.8563
 21
-16.7315
  0
LINE
  8
0
 10
-11.8563
 20
-16.7315
 11
-11.8319
 21
-16.6297
  0
LINE
  8
0
 10
-11.8319
 20
-16.6297
 11
-11.8021
 21
-16.5293
  0
LINE
  8
0
 10
-11.8021
 20
-16.5293
 11
-11.7672
 21
-16.4306
  0
LINE
  8
0
 10
-11.7672
 20
-16.4306
 11
-11.7271
 21
-16.3338
  0
LINE
  8
0
 10
-11.7271
 20
-16.3338
 11
-11.682
 21
-16.2393
  0
LINE
  8
0
 10
-11.682
 20
-16.2393
 11
-11.6321
 21
-16.1473
  0
LINE
  8
0
 10
-11.6321
 20
-16.1473
 11
-11.5773
 21
-16.058
  0
LINE
  8
0
 10
-11.5773
 20
-16.058
 11
-11.518
 21
-15.9717
  0
LINE
  8
0
 10
-11.518
 20
-15.9717
 11
-11.4543
 21
-15.8887
  0
LINE
  8
0
 10
-11.4543
 20
-15.8887
 11
-11.3863
 21
-15.809
  0
LINE
  8
0
 10
-11.3863
 20
-15.809
 11
-11.3142
 21
-15.7331
  0
LINE
  8
0
 10
-11.3142
 20
-15.7331
 11
-11.2383
 21
-15.661
  0
LINE
  8
0
 10
-11.2383
 20
-15.661
 11
-11.1586
 21
-15.593
  0
LINE
  8
0
 10
-11.1586
 20
-15.593
 11
-11.0756
 21
-15.5293
  0
LINE
  8
0
 10
-11.0756
 20
-15.5293
 11
-10.9893
 21
-15.47
  0
LINE
  8
0
 10
-10.9893
 20
-15.47
 11
-10.9
 21
-15.4153
  0
LINE
  8
0
 10
-10.9
 20
-15.4153
 11
-10.808
 21
-15.3653
  0
LINE
  8
0
 10
-10.808
 20
-15.3653
 11
-10.7135
 21
-15.3202
  0
LINE
  8
0
 10
-10.7135
 20
-15.3202
 11
-10.6167
 21
-15.2801
  0
LINE
  8
0
 10
-10.6167
 20
-15.2801
 11
-10.518
 21
-15.2452
  0
LINE
  8
0
 10
-10.518
 20
-15.2452
 11
-10.4176
 21
-15.2155
  0
LINE
  8
0
 10
-10.4176
 20
-15.2155
 11
-10.3158
 21
-15.191
  0
LINE
  8
0
 10
-10.3158
 20
-15.191
 11
-10.2129
 21
-15.1719
  0
LINE
  8
0
 10
-10.2129
 20
-15.1719
 11
-10.1091
 21
-15.1583
  0
LINE
  8
0
 10
-10.1091
 20
-15.1583
 11
-10.0047
 21
-15.15
  0
LINE
  8
0
 10
-10.0047
 20
-15.15
 11
-9.89999
 21
-15.1473
  0
LINE
  8
0
 10
-9.89999
 20
-15.1473
 11
-9.79532
 21
-15.15
  0
LINE
  8
0
 10
-9.79532
 20
-15.15
 11
-9.69093
 21
-15.1583
  0
LINE
  8
0
 10
-9.69093
 20
-15.1583
 11
-9.58713
 21
-15.1719
  0
LINE
  8
0
 10
-9.58713
 20
-15.1719
 11
-9.48418
 21
-15.191
  0
LINE
  8
0
 10
-9.48418
 20
-15.191
 11
-9.38235
 21
-15.2155
  0
LINE
  8
0
 10
-9.38235
 20
-15.2155
 11
-9.28197
 21
-15.2452
  0
LINE
  8
0
 10
-9.28197
 20
-15.2452
 11
-9.18326
 21
-15.2801
  0
LINE
  8
0
 10
-9.18326
 20
-15.2801
 11
-9.08652
 21
-15.3202
  0
LINE
  8
0
 10
-9.08652
 20
-15.3202
 11
-8.99202
 21
-15.3653
  0
LINE
  8
0
 10
-8.99202
 20
-15.3653
 11
-8.89999
 21
-15.4153
  0
LINE
  8
0
 10
-8.89999
 20
-15.4153
 11
-8.81071
 21
-15.47
  0
LINE
  8
0
 10
-8.81071
 20
-15.47
 11
-8.72443
 21
-15.5293
  0
LINE
  8
0
 10
-8.72443
 20
-15.5293
 11
-8.64136
 21
-15.593
  0
LINE
  8
0
 10
-8.64136
 20
-15.593
 11
-8.56174
 21
-15.661
  0
LINE
  8
0
 10
-8.56174
 20
-15.661
 11
-8.48578
 21
-15.7331
  0
LINE
  8
0
 10
-8.48578
 20
-15.7331
 11
-8.4137
 21
-15.809
  0
LINE
  8
0
 10
-8.4137
 20
-15.809
 11
-8.3457
 21
-15.8887
  0
LINE
  8
0
 10
-8.3457
 20
-15.8887
 11
-8.28197
 21
-15.9717
  0
LINE
  8
0
 10
-8.28197
 20
-15.9717
 11
-8.22266
 21
-16.058
  0
LINE
  8
0
 10
-8.22266
 20
-16.058
 11
-8.16794
 21
-16.1473
  0
LINE
  8
0
 10
-8.16794
 20
-16.1473
 11
-8.11798
 21
-16.2393
  0
LINE
  8
0
 10
-8.11798
 20
-16.2393
 11
-8.07291
 21
-16.3338
  0
LINE
  8
0
 10
-8.07291
 20
-16.3338
 11
-8.03284
 21
-16.4306
  0
LINE
  8
0
 10
-8.03284
 20
-16.4306
 11
-7.99788
 21
-16.5293
  0
LINE
  8
0
 10
-7.99788
 20
-16.5293
 11
-7.96814
 21
-16.6297
  0
LINE
  8
0
 10
-7.96814
 20
-16.6297
 11
-7.9437
 21
-16.7315
  0
LINE
  8
0
 10
-7.9437
 20
-16.7315
 11
-7.92461
 21
-16.8344
  0
LINE
  8
0
 10
-7.92461
 20
-16.8344
 11
-7.91095
 21
-16.9382
  0
LINE
  8
0
 10
-7.91095
 20
-16.9382
 11
-7.90273
 21
-17.0426
  0
LINE
  8
0
 10
-7.90273
 20
-17.0426
 11
-7.89999
 21
-17.1473
  0
LINE
  8
0
 10
-7.89999
 20
-17.1473
 11
-7.90273
 21
-17.252
  0
LINE
  8
0
 10
-7.90273
 20
-17.252
 11
-7.91095
 21
-17.3564
  0
LINE
  8
0
 10
-7.91095
 20
-17.3564
 11
-7.92461
 21
-17.4602
  0
LINE
  8
0
 10
-7.92461
 20
-17.4602
 11
-7.9437
 21
-17.5631
  0
LINE
  8
0
 10
-7.9437
 20
-17.5631
 11
-7.96814
 21
-17.6649
  0
LINE
  8
0
 10
-7.96814
 20
-17.6649
 11
-7.99788
 21
-17.7653
  0
LINE
  8
0
 10
-7.99788
 20
-17.7653
 11
-8.03284
 21
-17.864
  0
LINE
  8
0
 10
-8.03284
 20
-17.864
 11
-8.07291
 21
-17.9608
  0
LINE
  8
0
 10
-8.07291
 20
-17.9608
 11
-8.11798
 21
-18.0553
  0
LINE
  8
0
 10
-8.11798
 20
-18.0553
 11
-8.16794
 21
-18.1473
  0
LINE
  8
0
 10
-8.16794
 20
-18.1473
 11
-8.22266
 21
-18.2366
  0
LINE
  8
0
 10
-8.22266
 20
-18.2366
 11
-8.28197
 21
-18.3229
  0
LINE
  8
0
 10
-8.28197
 20
-18.3229
 11
-8.3457
 21
-18.4059
  0
LINE
  8
0
 10
-8.3457
 20
-18.4059
 11
-8.4137
 21
-18.4856
  0
LINE
  8
0
 10
-8.4137
 20
-18.4856
 11
-8.48578
 21
-18.5615
  0
LINE
  8
0
 10
-8.48578
 20
-18.5615
 11
-8.56174
 21
-18.6336
  0
LINE
  8
0
 10
-8.56174
 20
-18.6336
 11
-8.64136
 21
-18.7016
  0
LINE
  8
0
 10
-8.64136
 20
-18.7016
 11
-8.72443
 21
-18.7653
  0
LINE
  8
0
 10
-8.72443
 20
-18.7653
 11
-8.81071
 21
-18.8246
  0
LINE
  8
0
 10
-8.81071
 20
-18.8246
 11
-8.89999
 21
-18.8794
  0
LINE
  8
0
 10
-8.89999
 20
-18.8794
 11
-8.99202
 21
-18.9293
  0
LINE
  8
0
 10
-8.99202
 20
-18.9293
 11
-9.08652
 21
-18.9744
  0
LINE
  8
0
 10
-9.08652
 20
-18.9744
 11
-9.18326
 21
-19.0145
  0
LINE
  8
0
 10
-9.18326
 20
-19.0145
 11
-9.28197
 21
-19.0494
  0
LINE
  8
0
 10
-9.28197
 20
-19.0494
 11
-9.38235
 21
-19.0792
  0
LINE
  8
0
 10
-9.38235
 20
-19.0792
 11
-9.48418
 21
-19.1036
  0
LINE
  8
0
 10
-9.48418
 20
-19.1036
 11
-9.58713
 21
-19.1227
  0
LINE
  8
0
 10
-9.58713
 20
-19.1227
 11
-9.69093
 21
-19.1363
  0
LINE
  8
0
 10
-9.69093
 20
-19.1363
 11
-9.79532
 21
-19.1446
  0
LINE
  8
0
 10
-9.79532
 20
-19.1446
 11
-9.89999
 21
-19.1473
  0
LINE
  8
0
 10
-9.89999
 20
-19.1473
 11
-10.0047
 21
-19.1446
  0
ENDSEC
  0
SECTION
  2
OBJECTS
  0
DICTIONARY
  0
ENDSEC
  0
EOF
