  0
SECTION
  2
BLOCKS
  0
ENDSEC
  0
SECTION
  2
ENTITIES
  0
LINE
  8
0
 10
34.2094
 20
-27.9945
 11
34.4181
 21
-27.9781
  0
LINE
  8
0
 10
34.4181
 20
-27.9781
 11
34.6257
 21
-27.9508
  0
LINE
  8
0
 10
34.6257
 20
-27.9508
 11
34.8316
 21
-27.9126
  0
LINE
  8
0
 10
34.8316
 20
-27.9126
 11
35.0353
 21
-27.8637
  0
LINE
  8
0
 10
35.0353
 20
-27.8637
 11
35.2361
 21
-27.8042
  0
LINE
  8
0
 10
35.2361
 20
-27.8042
 11
35.4335
 21
-27.7343
  0
LINE
  8
0
 10
35.4335
 20
-27.7343
 11
35.627
 21
-27.6542
  0
LINE
  8
0
 10
35.627
 20
-27.6542
 11
35.816
 21
-27.564
  0
LINE
  8
0
 10
35.816
 20
-27.564
 11
36
 21
-27.4641
  0
LINE
  8
0
 10
36
 20
-27.4641
 11
36.1786
 21
-27.3547
  0
LINE
  8
0
 10
36.1786
 20
-27.3547
 11
36.3511
 21
-27.2361
  0
LINE
  8
0
 10
36.3511
 20
-27.2361
 11
36.5173
 21
-27.1086
  0
LINE
  8
0
 10
36.5173
 20
-27.1086
 11
36.6765
 21
-26.9726
  0
LINE
  8
0
 10
36.6765
 20
-26.9726
 11
36.8284
 21
-26.8284
  0
LINE
  8
0
 10
36.8284
 20
-26.8284
 11
36.9726
 21
-26.6765
  0
LINE
  8
0
 10
36.9726
 20
-26.6765
 11
37.1086
 21
-26.5173
  0
LINE
  8
0
 10
37.1086
 20
-26.5173
 11
37.2361
 21
-26.3511
  0
LINE
  8
0
 10
37.2361
 20
-26.3511
 11
37.3547
 21
-26.1786
  0
LINE
  8
0
 10
37.3547
 20
-26.1786
 11
37.4641
 21
-26
  0
LINE
  8
0
 10
37.4641
 20
-26
 11
37.564
 21
-25.816
  0
LINE
  8
0
 10
37.564
 20
-25.816
 11
37.6542
 21
-25.627
  0
LINE
  8
0
 10
37.6542
 20
-25.627
 11
37.7343
 21
-25.4335
  0
LINE
  8
0
 10
37.7343
 20
-25.4335
 11
37.8042
 21
-25.2361
  0
LINE
  8
0
 10
37.8042
 20
-25.2361
 11
37.8637
 21
-25.0353
  0
LINE
  8
0
 10
37.8637
 20
-25.0353
 11
37.9126
 21
-24.8316
  0
LINE
  8
0
 10
37.9126
 20
-24.8316
 11
37.9508
 21
-24.6257
  0
LINE
  8
0
 10
37.9508
 20
-24.6257
 11
37.9781
 21
-24.4181
  0
LINE
  8
0
 10
37.9781
 20
-24.4181
 11
37.9945
 21
-24.2094
  0
LINE
  8
0
 10
37.9945
 20
-24.2094
 11
38
 21
-24
  0
LINE
  8
0
 10
38
 20
-24
 11
38
 21
24
  0
LINE
  8
0
 10
38
 20
24
 11
37.9945
 21
24.2094
  0
LINE
  8
0
 10
37.9945
 20
24.2094
 11
37.9781
 21
24.4181
  0
LINE
  8
0
 10
37.9781
 20
24.4181
 11
37.9508
 21
24.6257
  0
LINE
  8
0
 10
37.9508
 20
24.6257
 11
37.9126
 21
24.8316
  0
LINE
  8
0
 10
37.9126
 20
24.8316
 11
37.8637
 21
25.0353
  0
LINE
  8
0
 10
37.8637
 20
25.0353
 11
37.8042
 21
25.2361
  0
LINE
  8
0
 10
37.8042
 20
25.2361
 11
37.7343
 21
25.4335
  0
LINE
  8
0
 10
37.7343
 20
25.4335
 11
37.6542
 21
25.627
  0
LINE
  8
0
 10
37.6542
 20
25.627
 11
37.564
 21
25.816
  0
LINE
  8
0
 10
37.564
 20
25.816
 11
37.4641
 21
26
  0
LINE
  8
0
 10
37.4641
 20
26
 11
37.3547
 21
26.1786
  0
LINE
  8
0
 10
37.3547
 20
26.1786
 11
37.2361
 21
26.3511
  0
LINE
  8
0
 10
37.2361
 20
26.3511
 11
37.1086
 21
26.5173
  0
LINE
  8
0
 10
37.1086
 20
26.5173
 11
36.9726
 21
26.6765
  0
LINE
  8
0
 10
36.9726
 20
26.6765
 11
36.8284
 21
26.8284
  0
LINE
  8
0
 10
36.8284
 20
26.8284
 11
36.6765
 21
26.9726
  0
LINE
  8
0
 10
36.6765
 20
26.9726
 11
36.5173
 21
27.1086
  0
LINE
  8
0
 10
36.5173
 20
27.1086
 11
36.3511
 21
27.2361
  0
LINE
  8
0
 10
36.3511
 20
27.2361
 11
36.1786
 21
27.3547
  0
LINE
  8
0
 10
36.1786
 20
27.3547
 11
36
 21
27.4641
  0
LINE
  8
0
 10
36
 20
27.4641
 11
35.816
 21
27.564
  0
LINE
  8
0
 10
35.816
 20
27.564
 11
35.627
 21
27.6542
  0
LINE
  8
0
 10
35.627
 20
27.6542
 11
35.4335
 21
27.7343
  0
LINE
  8
0
 10
35.4335
 20
27.7343
 11
35.2361
 21
27.8042
  0
LINE
  8
0
 10
35.2361
 20
27.8042
 11
35.0353
 21
27.8637
  0
LINE
  8
0
 10
35.0353
 20
27.8637
 11
34.8316
 21
27.9126
  0
LINE
  8
0
 10
34.8316
 20
27.9126
 11
34.6257
 21
27.9508
  0
LINE
  8
0
 10
34.6257
 20
27.9508
 11
34.4181
 21
27.9781
  0
LINE
  8
0
 10
34.4181
 20
27.9781
 11
34.2094
 21
27.9945
  0
LINE
  8
0
 10
34.2094
 20
27.9945
 11
34
 21
28
  0
LINE
  8
0
 10
34
 20
28
 11
-34
 21
28
  0
LINE
  8
0
 10
-34
 20
28
 11
-34.2094
 21
27.9945
  0
LINE
  8
0
 10
-34.2094
 20
27.9945
 11
-34.4181
 21
27.9781
  0
LINE
  8
0
 10
-34.4181
 20
27.9781
 11
-34.6257
 21
27.9508
  0
LINE
  8
0
 10
-34.6257
 20
27.9508
 11
-34.8316
 21
27.9126
  0
LINE
  8
0
 10
-34.8316
 20
27.9126
 11
-35.0353
 21
27.8637
  0
LINE
  8
0
 10
-35.0353
 20
27.8637
 11
-35.2361
 21
27.8042
  0
LINE
  8
0
 10
-35.2361
 20
27.8042
 11
-35.4335
 21
27.7343
  0
LINE
  8
0
 10
-35.4335
 20
27.7343
 11
-35.627
 21
27.6542
  0
LINE
  8
0
 10
-35.627
 20
27.6542
 11
-35.816
 21
27.564
  0
LINE
  8
0
 10
-35.816
 20
27.564
 11
-36
 21
27.4641
  0
LINE
  8
0
 10
-36
 20
27.4641
 11
-36.1786
 21
27.3547
  0
LINE
  8
0
 10
-36.1786
 20
27.3547
 11
-36.3511
 21
27.2361
  0
LINE
  8
0
 10
-36.3511
 20
27.2361
 11
-36.5173
 21
27.1086
  0
LINE
  8
0
 10
-36.5173
 20
27.1086
 11
-36.6765
 21
26.9726
  0
LINE
  8
0
 10
-36.6765
 20
26.9726
 11
-36.8284
 21
26.8284
  0
LINE
  8
0
 10
-36.8284
 20
26.8284
 11
-36.9726
 21
26.6765
  0
LINE
  8
0
 10
-36.9726
 20
26.6765
 11
-37.1086
 21
26.5173
  0
LINE
  8
0
 10
-37.1086
 20
26.5173
 11
-37.2361
 21
26.3511
  0
LINE
  8
0
 10
-37.2361
 20
26.3511
 11
-37.3547
 21
26.1786
  0
LINE
  8
0
 10
-37.3547
 20
26.1786
 11
-37.4641
 21
26
  0
LINE
  8
0
 10
-37.4641
 20
26
 11
-37.564
 21
25.816
  0
LINE
  8
0
 10
-37.564
 20
25.816
 11
-37.6542
 21
25.627
  0
LINE
  8
0
 10
-37.6542
 20
25.627
 11
-37.7343
 21
25.4335
  0
LINE
  8
0
 10
-37.7343
 20
25.4335
 11
-37.8042
 21
25.2361
  0
LINE
  8
0
 10
-37.8042
 20
25.2361
 11
-37.8637
 21
25.0353
  0
LINE
  8
0
 10
-37.8637
 20
25.0353
 11
-37.9126
 21
24.8316
  0
LINE
  8
0
 10
-37.9126
 20
24.8316
 11
-37.9508
 21
24.6257
  0
LINE
  8
0
 10
-37.9508
 20
24.6257
 11
-37.9781
 21
24.4181
  0
LINE
  8
0
 10
-37.9781
 20
24.4181
 11
-37.9945
 21
24.2094
  0
LINE
  8
0
 10
-37.9945
 20
24.2094
 11
-38
 21
24
  0
LINE
  8
0
 10
-38
 20
24
 11
-38
 21
-24
  0
LINE
  8
0
 10
-38
 20
-24
 11
-37.9945
 21
-24.2094
  0
LINE
  8
0
 10
-37.9945
 20
-24.2094
 11
-37.9781
 21
-24.4181
  0
LINE
  8
0
 10
-37.9781
 20
-24.4181
 11
-37.9508
 21
-24.6257
  0
LINE
  8
0
 10
-37.9508
 20
-24.6257
 11
-37.9126
 21
-24.8316
  0
LINE
  8
0
 10
-37.9126
 20
-24.8316
 11
-37.8637
 21
-25.0353
  0
LINE
  8
0
 10
-37.8637
 20
-25.0353
 11
-37.8042
 21
-25.2361
  0
LINE
  8
0
 10
-37.8042
 20
-25.2361
 11
-37.7343
 21
-25.4335
  0
LINE
  8
0
 10
-37.7343
 20
-25.4335
 11
-37.6542
 21
-25.627
  0
LINE
  8
0
 10
-37.6542
 20
-25.627
 11
-37.564
 21
-25.816
  0
LINE
  8
0
 10
-37.564
 20
-25.816
 11
-37.4641
 21
-26
  0
LINE
  8
0
 10
-37.4641
 20
-26
 11
-37.3547
 21
-26.1786
  0
LINE
  8
0
 10
-37.3547
 20
-26.1786
 11
-37.2361
 21
-26.3511
  0
LINE
  8
0
 10
-37.2361
 20
-26.3511
 11
-37.1086
 21
-26.5173
  0
LINE
  8
0
 10
-37.1086
 20
-26.5173
 11
-36.9726
 21
-26.6765
  0
LINE
  8
0
 10
-36.9726
 20
-26.6765
 11
-36.8284
 21
-26.8284
  0
LINE
  8
0
 10
-36.8284
 20
-26.8284
 11
-36.6765
 21
-26.9726
  0
LINE
  8
0
 10
-36.6765
 20
-26.9726
 11
-36.5173
 21
-27.1086
  0
LINE
  8
0
 10
-36.5173
 20
-27.1086
 11
-36.3511
 21
-27.2361
  0
LINE
  8
0
 10
-36.3511
 20
-27.2361
 11
-36.1786
 21
-27.3547
  0
LINE
  8
0
 10
-36.1786
 20
-27.3547
 11
-36
 21
-27.4641
  0
LINE
  8
0
 10
-36
 20
-27.4641
 11
-35.816
 21
-27.564
  0
LINE
  8
0
 10
-35.816
 20
-27.564
 11
-35.627
 21
-27.6542
  0
LINE
  8
0
 10
-35.627
 20
-27.6542
 11
-35.4335
 21
-27.7343
  0
LINE
  8
0
 10
-35.4335
 20
-27.7343
 11
-35.2361
 21
-27.8042
  0
LINE
  8
0
 10
-35.2361
 20
-27.8042
 11
-35.0353
 21
-27.8637
  0
LINE
  8
0
 10
-35.0353
 20
-27.8637
 11
-34.8316
 21
-27.9126
  0
LINE
  8
0
 10
-34.8316
 20
-27.9126
 11
-34.6257
 21
-27.9508
  0
LINE
  8
0
 10
-34.6257
 20
-27.9508
 11
-34.4181
 21
-27.9781
  0
LINE
  8
0
 10
-34.4181
 20
-27.9781
 11
-34.2094
 21
-27.9945
  0
LINE
  8
0
 10
-34.2094
 20
-27.9945
 11
-34
 21
-28
  0
LINE
  8
0
 10
-34
 20
-28
 11
34
 21
-28
  0
LINE
  8
0
 10
34
 20
-28
 11
34.2094
 21
-27.9945
  0
LINE
  8
0
 10
-32.589
 20
20.8023
 11
-32.5896
 21
20.8024
  0
LINE
  8
0
 10
-32.5896
 20
20.8024
 11
-32.6777
 21
20.8093
  0
LINE
  8
0
 10
-32.6777
 20
20.8093
 11
-32.7659
 21
20.8209
  0
LINE
  8
0
 10
-32.7659
 20
20.8209
 11
-32.8535
 21
20.8371
  0
LINE
  8
0
 10
-32.8535
 20
20.8371
 11
-32.94
 21
20.8579
  0
LINE
  8
0
 10
-32.94
 20
20.8579
 11
-33.0253
 21
20.8832
  0
LINE
  8
0
 10
-33.0253
 20
20.8832
 11
-33.1092
 21
20.9129
  0
LINE
  8
0
 10
-33.1092
 20
20.9129
 11
-33.1915
 21
20.947
  0
LINE
  8
0
 10
-33.1915
 20
20.947
 11
-33.2718
 21
20.9853
  0
LINE
  8
0
 10
-33.2718
 20
20.9853
 11
-33.35
 21
21.0278
  0
LINE
  8
0
 10
-33.35
 20
21.0278
 11
-33.4259
 21
21.0743
  0
LINE
  8
0
 10
-33.4259
 20
21.0743
 11
-33.4992
 21
21.1247
  0
LINE
  8
0
 10
-33.4992
 20
21.1247
 11
-33.5698
 21
21.1789
  0
LINE
  8
0
 10
-33.5698
 20
21.1789
 11
-33.6375
 21
21.2367
  0
LINE
  8
0
 10
-33.6375
 20
21.2367
 11
-33.7021
 21
21.2979
  0
LINE
  8
0
 10
-33.7021
 20
21.2979
 11
-33.7633
 21
21.3625
  0
LINE
  8
0
 10
-33.7633
 20
21.3625
 11
-33.8211
 21
21.4302
  0
LINE
  8
0
 10
-33.8211
 20
21.4302
 11
-33.8753
 21
21.5008
  0
LINE
  8
0
 10
-33.8753
 20
21.5008
 11
-33.9257
 21
21.5741
  0
LINE
  8
0
 10
-33.9257
 20
21.5741
 11
-33.9722
 21
21.65
  0
LINE
  8
0
 10
-33.9722
 20
21.65
 11
-34.0147
 21
21.7282
  0
LINE
  8
0
 10
-34.0147
 20
21.7282
 11
-34.053
 21
21.8085
  0
LINE
  8
0
 10
-34.053
 20
21.8085
 11
-34.0871
 21
21.8908
  0
LINE
  8
0
 10
-34.0871
 20
21.8908
 11
-34.1168
 21
21.9747
  0
LINE
  8
0
 10
-34.1168
 20
21.9747
 11
-34.1421
 21
22.06
  0
LINE
  8
0
 10
-34.1421
 20
22.06
 11
-34.1628
 21
22.1465
  0
LINE
  8
0
 10
-34.1628
 20
22.1465
 11
-34.1791
 21
22.2341
  0
LINE
  8
0
 10
-34.1791
 20
22.2341
 11
-34.1907
 21
22.3223
  0
LINE
  8
0
 10
-34.1907
 20
22.3223
 11
-34.1977
 21
22.411
  0
LINE
  8
0
 10
-34.1977
 20
22.411
 11
-34.2
 21
22.5
  0
LINE
  8
0
 10
-34.2
 20
22.5
 11
-34.1977
 21
22.589
  0
LINE
  8
0
 10
-34.1977
 20
22.589
 11
-34.1907
 21
22.6777
  0
LINE
  8
0
 10
-34.1907
 20
22.6777
 11
-34.1791
 21
22.7659
  0
LINE
  8
0
 10
-34.1791
 20
22.7659
 11
-34.1628
 21
22.8535
  0
LINE
  8
0
 10
-34.1628
 20
22.8535
 11
-34.1421
 21
22.94
  0
LINE
  8
0
 10
-34.1421
 20
22.94
 11
-34.1168
 21
23.0253
  0
LINE
  8
0
 10
-34.1168
 20
23.0253
 11
-34.0871
 21
23.1092
  0
LINE
  8
0
 10
-34.0871
 20
23.1092
 11
-34.053
 21
23.1915
  0
LINE
  8
0
 10
-34.053
 20
23.1915
 11
-34.0147
 21
23.2718
  0
LINE
  8
0
 10
-34.0147
 20
23.2718
 11
-33.9722
 21
23.35
  0
LINE
  8
0
 10
-33.9722
 20
23.35
 11
-33.9257
 21
23.4259
  0
LINE
  8
0
 10
-33.9257
 20
23.4259
 11
-33.8753
 21
23.4992
  0
LINE
  8
0
 10
-33.8753
 20
23.4992
 11
-33.8211
 21
23.5698
  0
LINE
  8
0
 10
-33.8211
 20
23.5698
 11
-33.7633
 21
23.6375
  0
LINE
  8
0
 10
-33.7633
 20
23.6375
 11
-33.7021
 21
23.7021
  0
LINE
  8
0
 10
-33.7021
 20
23.7021
 11
-33.6375
 21
23.7633
  0
LINE
  8
0
 10
-33.6375
 20
23.7633
 11
-33.5698
 21
23.8211
  0
LINE
  8
0
 10
-33.5698
 20
23.8211
 11
-33.4992
 21
23.8753
  0
LINE
  8
0
 10
-33.4992
 20
23.8753
 11
-33.4259
 21
23.9257
  0
LINE
  8
0
 10
-33.4259
 20
23.9257
 11
-33.35
 21
23.9722
  0
LINE
  8
0
 10
-33.35
 20
23.9722
 11
-33.2718
 21
24.0147
  0
LINE
  8
0
 10
-33.2718
 20
24.0147
 11
-33.1915
 21
24.053
  0
LINE
  8
0
 10
-33.1915
 20
24.053
 11
-33.1092
 21
24.0871
  0
LINE
  8
0
 10
-33.1092
 20
24.0871
 11
-33.0253
 21
24.1168
  0
LINE
  8
0
 10
-33.0253
 20
24.1168
 11
-32.94
 21
24.1421
  0
LINE
  8
0
 10
-32.94
 20
24.1421
 11
-32.8535
 21
24.1628
  0
LINE
  8
0
 10
-32.8535
 20
24.1628
 11
-32.7659
 21
24.1791
  0
LINE
  8
0
 10
-32.7659
 20
24.1791
 11
-32.6777
 21
24.1907
  0
LINE
  8
0
 10
-32.6777
 20
24.1907
 11
-32.589
 21
24.1977
  0
LINE
  8
0
 10
-32.589
 20
24.1977
 11
-32.5
 21
24.2
  0
LINE
  8
0
 10
-32.5
 20
24.2
 11
-32.411
 21
24.1977
  0
LINE
  8
0
 10
-32.411
 20
24.1977
 11
-32.3223
 21
24.1907
  0
LINE
  8
0
 10
-32.3223
 20
24.1907
 11
-32.2341
 21
24.1791
  0
LINE
  8
0
 10
-32.2341
 20
24.1791
 11
-32.1465
 21
24.1628
  0
LINE
  8
0
 10
-32.1465
 20
24.1628
 11
-32.06
 21
24.1421
  0
LINE
  8
0
 10
-32.06
 20
24.1421
 11
-31.9747
 21
24.1168
  0
LINE
  8
0
 10
-31.9747
 20
24.1168
 11
-31.8908
 21
24.0871
  0
LINE
  8
0
 10
-31.8908
 20
24.0871
 11
-31.8085
 21
24.053
  0
LINE
  8
0
 10
-31.8085
 20
24.053
 11
-31.7282
 21
24.0147
  0
LINE
  8
0
 10
-31.7282
 20
24.0147
 11
-31.65
 21
23.9722
  0
LINE
  8
0
 10
-31.65
 20
23.9722
 11
-31.5741
 21
23.9257
  0
LINE
  8
0
 10
-31.5741
 20
23.9257
 11
-31.5008
 21
23.8753
  0
LINE
  8
0
 10
-31.5008
 20
23.8753
 11
-31.4302
 21
23.8211
  0
LINE
  8
0
 10
-31.4302
 20
23.8211
 11
-31.3625
 21
23.7633
  0
LINE
  8
0
 10
-31.3625
 20
23.7633
 11
-31.2979
 21
23.7021
  0
LINE
  8
0
 10
-31.2979
 20
23.7021
 11
-31.2367
 21
23.6375
  0
LINE
  8
0
 10
-31.2367
 20
23.6375
 11
-31.1789
 21
23.5698
  0
LINE
  8
0
 10
-31.1789
 20
23.5698
 11
-31.1247
 21
23.4992
  0
LINE
  8
0
 10
-31.1247
 20
23.4992
 11
-31.0743
 21
23.4259
  0
LINE
  8
0
 10
-31.0743
 20
23.4259
 11
-31.0278
 21
23.35
  0
LINE
  8
0
 10
-31.0278
 20
23.35
 11
-30.9853
 21
23.2718
  0
LINE
  8
0
 10
-30.9853
 20
23.2718
 11
-30.947
 21
23.1915
  0
LINE
  8
0
 10
-30.947
 20
23.1915
 11
-30.9129
 21
23.1092
  0
LINE
  8
0
 10
-30.9129
 20
23.1092
 11
-30.8832
 21
23.0253
  0
LINE
  8
0
 10
-30.8832
 20
23.0253
 11
-30.8579
 21
22.94
  0
LINE
  8
0
 10
-30.8579
 20
22.94
 11
-30.8371
 21
22.8535
  0
LINE
  8
0
 10
-30.8371
 20
22.8535
 11
-30.8209
 21
22.7659
  0
LINE
  8
0
 10
-30.8209
 20
22.7659
 11
-30.8093
 21
22.6777
  0
LINE
  8
0
 10
-30.8093
 20
22.6777
 11
-30.8024
 21
22.5896
  0
LINE
  8
0
 10
-30.8024
 20
22.5896
 11
-30.8023
 21
22.589
  0
LINE
  8
0
 10
-30.8023
 20
22.589
 11
-30.8
 21
22.5
  0
LINE
  8
0
 10
-30.8
 20
22.5
 11
-30.8023
 21
22.411
  0
LINE
  8
0
 10
-30.8023
 20
22.411
 11
-30.8093
 21
22.3223
  0
LINE
  8
0
 10
-30.8093
 20
22.3223
 11
-30.8209
 21
22.2341
  0
LINE
  8
0
 10
-30.8209
 20
22.2341
 11
-30.8371
 21
22.1465
  0
LINE
  8
0
 10
-30.8371
 20
22.1465
 11
-30.8579
 21
22.06
  0
LINE
  8
0
 10
-30.8579
 20
22.06
 11
-30.8832
 21
21.9747
  0
LINE
  8
0
 10
-30.8832
 20
21.9747
 11
-30.9129
 21
21.8908
  0
LINE
  8
0
 10
-30.9129
 20
21.8908
 11
-30.947
 21
21.8085
  0
LINE
  8
0
 10
-30.947
 20
21.8085
 11
-30.9853
 21
21.7282
  0
LINE
  8
0
 10
-30.9853
 20
21.7282
 11
-31.0278
 21
21.65
  0
LINE
  8
0
 10
-31.0278
 20
21.65
 11
-31.0743
 21
21.5741
  0
LINE
  8
0
 10
-31.0743
 20
21.5741
 11
-31.1247
 21
21.5008
  0
LINE
  8
0
 10
-31.1247
 20
21.5008
 11
-31.1789
 21
21.4302
  0
LINE
  8
0
 10
-31.1789
 20
21.4302
 11
-31.2367
 21
21.3625
  0
LINE
  8
0
 10
-31.2367
 20
21.3625
 11
-31.2979
 21
21.2979
  0
LINE
  8
0
 10
-31.2979
 20
21.2979
 11
-31.3625
 21
21.2367
  0
LINE
  8
0
 10
-31.3625
 20
21.2367
 11
-31.4302
 21
21.1789
  0
LINE
  8
0
 10
-31.4302
 20
21.1789
 11
-31.5008
 21
21.1247
  0
LINE
  8
0
 10
-31.5008
 20
21.1247
 11
-31.5741
 21
21.0743
  0
LINE
  8
0
 10
-31.5741
 20
21.0743
 11
-31.65
 21
21.0278
  0
LINE
  8
0
 10
-31.65
 20
21.0278
 11
-31.7282
 21
20.9853
  0
LINE
  8
0
 10
-31.7282
 20
20.9853
 11
-31.8085
 21
20.947
  0
LINE
  8
0
 10
-31.8085
 20
20.947
 11
-31.8908
 21
20.9129
  0
LINE
  8
0
 10
-31.8908
 20
20.9129
 11
-31.9747
 21
20.8832
  0
LINE
  8
0
 10
-31.9747
 20
20.8832
 11
-32.06
 21
20.8579
  0
LINE
  8
0
 10
-32.06
 20
20.8579
 11
-32.1465
 21
20.8371
  0
LINE
  8
0
 10
-32.1465
 20
20.8371
 11
-32.2341
 21
20.8209
  0
LINE
  8
0
 10
-32.2341
 20
20.8209
 11
-32.3223
 21
20.8093
  0
LINE
  8
0
 10
-32.3223
 20
20.8093
 11
-32.411
 21
20.8023
  0
LINE
  8
0
 10
-32.411
 20
20.8023
 11
-32.5
 21
20.8
  0
LINE
  8
0
 10
-32.5
 20
20.8
 11
-32.589
 21
20.8023
  0
LINE
  8
0
 10
32.411
 20
20.8023
 11
32.3223
 21
20.8093
  0
LINE
  8
0
 10
32.3223
 20
20.8093
 11
32.2341
 21
20.8209
  0
LINE
  8
0
 10
32.2341
 20
20.8209
 11
32.1465
 21
20.8371
  0
LINE
  8
0
 10
32.1465
 20
20.8371
 11
32.06
 21
20.8579
  0
LINE
  8
0
 10
32.06
 20
20.8579
 11
31.9747
 21
20.8832
  0
LINE
  8
0
 10
31.9747
 20
20.8832
 11
31.8908
 21
20.9129
  0
LINE
  8
0
 10
31.8908
 20
20.9129
 11
31.8085
 21
20.947
  0
LINE
  8
0
 10
31.8085
 20
20.947
 11
31.7282
 21
20.9853
  0
LINE
  8
0
 10
31.7282
 20
20.9853
 11
31.65
 21
21.0278
  0
LINE
  8
0
 10
31.65
 20
21.0278
 11
31.5741
 21
21.0743
  0
LINE
  8
0
 10
31.5741
 20
21.0743
 11
31.5008
 21
21.1247
  0
LINE
  8
0
 10
31.5008
 20
21.1247
 11
31.4302
 21
21.1789
  0
LINE
  8
0
 10
31.4302
 20
21.1789
 11
31.3625
 21
21.2367
  0
LINE
  8
0
 10
31.3625
 20
21.2367
 11
31.2979
 21
21.2979
  0
LINE
  8
0
 10
31.2979
 20
21.2979
 11
31.2367
 21
21.3625
  0
LINE
  8
0
 10
31.2367
 20
21.3625
 11
31.1789
 21
21.4302
  0
LINE
  8
0
 10
31.1789
 20
21.4302
 11
31.1247
 21
21.5008
  0
LINE
  8
0
 10
31.1247
 20
21.5008
 11
31.0743
 21
21.5741
  0
LINE
  8
0
 10
31.0743
 20
21.5741
 11
31.0278
 21
21.65
  0
LINE
  8
0
 10
31.0278
 20
21.65
 11
30.9853
 21
21.7282
  0
LINE
  8
0
 10
30.9853
 20
21.7282
 11
30.947
 21
21.8085
  0
LINE
  8
0
 10
30.947
 20
21.8085
 11
30.9129
 21
21.8908
  0
LINE
  8
0
 10
30.9129
 20
21.8908
 11
30.8832
 21
21.9747
  0
LINE
  8
0
 10
30.8832
 20
21.9747
 11
30.8579
 21
22.06
  0
LINE
  8
0
 10
30.8579
 20
22.06
 11
30.8371
 21
22.1465
  0
LINE
  8
0
 10
30.8371
 20
22.1465
 11
30.8209
 21
22.2341
  0
LINE
  8
0
 10
30.8209
 20
22.2341
 11
30.8093
 21
22.3223
  0
LINE
  8
0
 10
30.8093
 20
22.3223
 11
30.8023
 21
22.411
  0
LINE
  8
0
 10
30.8023
 20
22.411
 11
30.8
 21
22.5
  0
LINE
  8
0
 10
30.8
 20
22.5
 11
30.8023
 21
22.589
  0
LINE
  8
0
 10
30.8023
 20
22.589
 11
30.8024
 21
22.5896
  0
LINE
  8
0
 10
30.8024
 20
22.5896
 11
30.8093
 21
22.6777
  0
LINE
  8
0
 10
30.8093
 20
22.6777
 11
30.8209
 21
22.7659
  0
LINE
  8
0
 10
30.8209
 20
22.7659
 11
30.8371
 21
22.8535
  0
LINE
  8
0
 10
30.8371
 20
22.8535
 11
30.8579
 21
22.94
  0
LINE
  8
0
 10
30.8579
 20
22.94
 11
30.8832
 21
23.0253
  0
LINE
  8
0
 10
30.8832
 20
23.0253
 11
30.9129
 21
23.1092
  0
LINE
  8
0
 10
30.9129
 20
23.1092
 11
30.947
 21
23.1915
  0
LINE
  8
0
 10
30.947
 20
23.1915
 11
30.9853
 21
23.2718
  0
LINE
  8
0
 10
30.9853
 20
23.2718
 11
31.0278
 21
23.35
  0
LINE
  8
0
 10
31.0278
 20
23.35
 11
31.0743
 21
23.4259
  0
LINE
  8
0
 10
31.0743
 20
23.4259
 11
31.1247
 21
23.4992
  0
LINE
  8
0
 10
31.1247
 20
23.4992
 11
31.1789
 21
23.5698
  0
LINE
  8
0
 10
31.1789
 20
23.5698
 11
31.2367
 21
23.6375
  0
LINE
  8
0
 10
31.2367
 20
23.6375
 11
31.2979
 21
23.7021
  0
LINE
  8
0
 10
31.2979
 20
23.7021
 11
31.3625
 21
23.7633
  0
LINE
  8
0
 10
31.3625
 20
23.7633
 11
31.4302
 21
23.8211
  0
LINE
  8
0
 10
31.4302
 20
23.8211
 11
31.5008
 21
23.8753
  0
LINE
  8
0
 10
31.5008
 20
23.8753
 11
31.5741
 21
23.9257
  0
LINE
  8
0
 10
31.5741
 20
23.9257
 11
31.65
 21
23.9722
  0
LINE
  8
0
 10
31.65
 20
23.9722
 11
31.7282
 21
24.0147
  0
LINE
  8
0
 10
31.7282
 20
24.0147
 11
31.8085
 21
24.053
  0
LINE
  8
0
 10
31.8085
 20
24.053
 11
31.8908
 21
24.0871
  0
LINE
  8
0
 10
31.8908
 20
24.0871
 11
31.9747
 21
24.1168
  0
LINE
  8
0
 10
31.9747
 20
24.1168
 11
32.06
 21
24.1421
  0
LINE
  8
0
 10
32.06
 20
24.1421
 11
32.1465
 21
24.1628
  0
LINE
  8
0
 10
32.1465
 20
24.1628
 11
32.2341
 21
24.1791
  0
LINE
  8
0
 10
32.2341
 20
24.1791
 11
32.3223
 21
24.1907
  0
LINE
  8
0
 10
32.3223
 20
24.1907
 11
32.411
 21
24.1977
  0
LINE
  8
0
 10
32.411
 20
24.1977
 11
32.5
 21
24.2
  0
LINE
  8
0
 10
32.5
 20
24.2
 11
32.589
 21
24.1977
  0
LINE
  8
0
 10
32.589
 20
24.1977
 11
32.6777
 21
24.1907
  0
LINE
  8
0
 10
32.6777
 20
24.1907
 11
32.7659
 21
24.1791
  0
LINE
  8
0
 10
32.7659
 20
24.1791
 11
32.8535
 21
24.1628
  0
LINE
  8
0
 10
32.8535
 20
24.1628
 11
32.94
 21
24.1421
  0
LINE
  8
0
 10
32.94
 20
24.1421
 11
33.0253
 21
24.1168
  0
LINE
  8
0
 10
33.0253
 20
24.1168
 11
33.1092
 21
24.0871
  0
LINE
  8
0
 10
33.1092
 20
24.0871
 11
33.1915
 21
24.053
  0
LINE
  8
0
 10
33.1915
 20
24.053
 11
33.2718
 21
24.0147
  0
LINE
  8
0
 10
33.2718
 20
24.0147
 11
33.35
 21
23.9722
  0
LINE
  8
0
 10
33.35
 20
23.9722
 11
33.4259
 21
23.9257
  0
LINE
  8
0
 10
33.4259
 20
23.9257
 11
33.4992
 21
23.8753
  0
LINE
  8
0
 10
33.4992
 20
23.8753
 11
33.5698
 21
23.8211
  0
LINE
  8
0
 10
33.5698
 20
23.8211
 11
33.6375
 21
23.7633
  0
LINE
  8
0
 10
33.6375
 20
23.7633
 11
33.7021
 21
23.7021
  0
LINE
  8
0
 10
33.7021
 20
23.7021
 11
33.7633
 21
23.6375
  0
LINE
  8
0
 10
33.7633
 20
23.6375
 11
33.8211
 21
23.5698
  0
LINE
  8
0
 10
33.8211
 20
23.5698
 11
33.8753
 21
23.4992
  0
LINE
  8
0
 10
33.8753
 20
23.4992
 11
33.9257
 21
23.4259
  0
LINE
  8
0
 10
33.9257
 20
23.4259
 11
33.9722
 21
23.35
  0
LINE
  8
0
 10
33.9722
 20
23.35
 11
34.0147
 21
23.2718
  0
LINE
  8
0
 10
34.0147
 20
23.2718
 11
34.053
 21
23.1915
  0
LINE
  8
0
 10
34.053
 20
23.1915
 11
34.0871
 21
23.1092
  0
LINE
  8
0
 10
34.0871
 20
23.1092
 11
34.1168
 21
23.0253
  0
LINE
  8
0
 10
34.1168
 20
23.0253
 11
34.1421
 21
22.94
  0
LINE
  8
0
 10
34.1421
 20
22.94
 11
34.1628
 21
22.8535
  0
LINE
  8
0
 10
34.1628
 20
22.8535
 11
34.1791
 21
22.7659
  0
LINE
  8
0
 10
34.1791
 20
22.7659
 11
34.1907
 21
22.6777
  0
LINE
  8
0
 10
34.1907
 20
22.6777
 11
34.1977
 21
22.589
  0
LINE
  8
0
 10
34.1977
 20
22.589
 11
34.2
 21
22.5
  0
LINE
  8
0
 10
34.2
 20
22.5
 11
34.1977
 21
22.411
  0
LINE
  8
0
 10
34.1977
 20
22.411
 11
34.1907
 21
22.3223
  0
LINE
  8
0
 10
34.1907
 20
22.3223
 11
34.1791
 21
22.2341
  0
LINE
  8
0
 10
34.1791
 20
22.2341
 11
34.1628
 21
22.1465
  0
LINE
  8
0
 10
34.1628
 20
22.1465
 11
34.1421
 21
22.06
  0
LINE
  8
0
 10
34.1421
 20
22.06
 11
34.1168
 21
21.9747
  0
LINE
  8
0
 10
34.1168
 20
21.9747
 11
34.0871
 21
21.8908
  0
LINE
  8
0
 10
34.0871
 20
21.8908
 11
34.053
 21
21.8085
  0
LINE
  8
0
 10
34.053
 20
21.8085
 11
34.0147
 21
21.7282
  0
LINE
  8
0
 10
34.0147
 20
21.7282
 11
33.9722
 21
21.65
  0
LINE
  8
0
 10
33.9722
 20
21.65
 11
33.9257
 21
21.5741
  0
LINE
  8
0
 10
33.9257
 20
21.5741
 11
33.8753
 21
21.5008
  0
LINE
  8
0
 10
33.8753
 20
21.5008
 11
33.8211
 21
21.4302
  0
LINE
  8
0
 10
33.8211
 20
21.4302
 11
33.7633
 21
21.3625
  0
LINE
  8
0
 10
33.7633
 20
21.3625
 11
33.7021
 21
21.2979
  0
LINE
  8
0
 10
33.7021
 20
21.2979
 11
33.6375
 21
21.2367
  0
LINE
  8
0
 10
33.6375
 20
21.2367
 11
33.5698
 21
21.1789
  0
LINE
  8
0
 10
33.5698
 20
21.1789
 11
33.4992
 21
21.1247
  0
LINE
  8
0
 10
33.4992
 20
21.1247
 11
33.4259
 21
21.0743
  0
LINE
  8
0
 10
33.4259
 20
21.0743
 11
33.35
 21
21.0278
  0
LINE
  8
0
 10
33.35
 20
21.0278
 11
33.2718
 21
20.9853
  0
LINE
  8
0
 10
33.2718
 20
20.9853
 11
33.1915
 21
20.947
  0
LINE
  8
0
 10
33.1915
 20
20.947
 11
33.1092
 21
20.9129
  0
LINE
  8
0
 10
33.1092
 20
20.9129
 11
33.0253
 21
20.8832
  0
LINE
  8
0
 10
33.0253
 20
20.8832
 11
32.94
 21
20.8579
  0
LINE
  8
0
 10
32.94
 20
20.8579
 11
32.8535
 21
20.8371
  0
LINE
  8
0
 10
32.8535
 20
20.8371
 11
32.7659
 21
20.8209
  0
LINE
  8
0
 10
32.7659
 20
20.8209
 11
32.6777
 21
20.8093
  0
LINE
  8
0
 10
32.6777
 20
20.8093
 11
32.5896
 21
20.8024
  0
LINE
  8
0
 10
32.5896
 20
20.8024
 11
32.589
 21
20.8023
  0
LINE
  8
0
 10
32.589
 20
20.8023
 11
32.5
 21
20.8
  0
LINE
  8
0
 10
32.5
 20
20.8
 11
32.411
 21
20.8023
  0
LINE
  8
0
 10
32.411
 20
-24.1977
 11
32.3223
 21
-24.1907
  0
LINE
  8
0
 10
32.3223
 20
-24.1907
 11
32.2341
 21
-24.1791
  0
LINE
  8
0
 10
32.2341
 20
-24.1791
 11
32.1465
 21
-24.1628
  0
LINE
  8
0
 10
32.1465
 20
-24.1628
 11
32.06
 21
-24.1421
  0
LINE
  8
0
 10
32.06
 20
-24.1421
 11
31.9747
 21
-24.1168
  0
LINE
  8
0
 10
31.9747
 20
-24.1168
 11
31.8908
 21
-24.0871
  0
LINE
  8
0
 10
31.8908
 20
-24.0871
 11
31.8085
 21
-24.053
  0
LINE
  8
0
 10
31.8085
 20
-24.053
 11
31.7282
 21
-24.0147
  0
LINE
  8
0
 10
31.7282
 20
-24.0147
 11
31.65
 21
-23.9722
  0
LINE
  8
0
 10
31.65
 20
-23.9722
 11
31.5741
 21
-23.9257
  0
LINE
  8
0
 10
31.5741
 20
-23.9257
 11
31.5008
 21
-23.8753
  0
LINE
  8
0
 10
31.5008
 20
-23.8753
 11
31.4302
 21
-23.8211
  0
LINE
  8
0
 10
31.4302
 20
-23.8211
 11
31.3625
 21
-23.7633
  0
LINE
  8
0
 10
31.3625
 20
-23.7633
 11
31.2979
 21
-23.7021
  0
LINE
  8
0
 10
31.2979
 20
-23.7021
 11
31.2367
 21
-23.6375
  0
LINE
  8
0
 10
31.2367
 20
-23.6375
 11
31.1789
 21
-23.5698
  0
LINE
  8
0
 10
31.1789
 20
-23.5698
 11
31.1247
 21
-23.4992
  0
LINE
  8
0
 10
31.1247
 20
-23.4992
 11
31.0743
 21
-23.4259
  0
LINE
  8
0
 10
31.0743
 20
-23.4259
 11
31.0278
 21
-23.35
  0
LINE
  8
0
 10
31.0278
 20
-23.35
 11
30.9853
 21
-23.2718
  0
LINE
  8
0
 10
30.9853
 20
-23.2718
 11
30.947
 21
-23.1915
  0
LINE
  8
0
 10
30.947
 20
-23.1915
 11
30.9129
 21
-23.1092
  0
LINE
  8
0
 10
30.9129
 20
-23.1092
 11
30.8832
 21
-23.0253
  0
LINE
  8
0
 10
30.8832
 20
-23.0253
 11
30.8579
 21
-22.94
  0
LINE
  8
0
 10
30.8579
 20
-22.94
 11
30.8371
 21
-22.8535
  0
LINE
  8
0
 10
30.8371
 20
-22.8535
 11
30.8209
 21
-22.7659
  0
LINE
  8
0
 10
30.8209
 20
-22.7659
 11
30.8093
 21
-22.6777
  0
LINE
  8
0
 10
30.8093
 20
-22.6777
 11
30.8024
 21
-22.5896
  0
LINE
  8
0
 10
30.8024
 20
-22.5896
 11
30.8023
 21
-22.589
  0
LINE
  8
0
 10
30.8023
 20
-22.589
 11
30.8
 21
-22.5
  0
LINE
  8
0
 10
30.8
 20
-22.5
 11
30.8023
 21
-22.411
  0
LINE
  8
0
 10
30.8023
 20
-22.411
 11
30.8093
 21
-22.3223
  0
LINE
  8
0
 10
30.8093
 20
-22.3223
 11
30.8209
 21
-22.2341
  0
LINE
  8
0
 10
30.8209
 20
-22.2341
 11
30.8371
 21
-22.1465
  0
LINE
  8
0
 10
30.8371
 20
-22.1465
 11
30.8579
 21
-22.06
  0
LINE
  8
0
 10
30.8579
 20
-22.06
 11
30.8832
 21
-21.9747
  0
LINE
  8
0
 10
30.8832
 20
-21.9747
 11
30.9129
 21
-21.8908
  0
LINE
  8
0
 10
30.9129
 20
-21.8908
 11
30.947
 21
-21.8085
  0
LINE
  8
0
 10
30.947
 20
-21.8085
 11
30.9853
 21
-21.7282
  0
LINE
  8
0
 10
30.9853
 20
-21.7282
 11
31.0278
 21
-21.65
  0
LINE
  8
0
 10
31.0278
 20
-21.65
 11
31.0743
 21
-21.5741
  0
LINE
  8
0
 10
31.0743
 20
-21.5741
 11
31.1247
 21
-21.5008
  0
LINE
  8
0
 10
31.1247
 20
-21.5008
 11
31.1789
 21
-21.4302
  0
LINE
  8
0
 10
31.1789
 20
-21.4302
 11
31.2367
 21
-21.3625
  0
LINE
  8
0
 10
31.2367
 20
-21.3625
 11
31.2979
 21
-21.2979
  0
LINE
  8
0
 10
31.2979
 20
-21.2979
 11
31.3625
 21
-21.2367
  0
LINE
  8
0
 10
31.3625
 20
-21.2367
 11
31.4302
 21
-21.1789
  0
LINE
  8
0
 10
31.4302
 20
-21.1789
 11
31.5008
 21
-21.1247
  0
LINE
  8
0
 10
31.5008
 20
-21.1247
 11
31.5741
 21
-21.0743
  0
LINE
  8
0
 10
31.5741
 20
-21.0743
 11
31.65
 21
-21.0278
  0
LINE
  8
0
 10
31.65
 20
-21.0278
 11
31.7282
 21
-20.9853
  0
LINE
  8
0
 10
31.7282
 20
-20.9853
 11
31.8085
 21
-20.947
  0
LINE
  8
0
 10
31.8085
 20
-20.947
 11
31.8908
 21
-20.9129
  0
LINE
  8
0
 10
31.8908
 20
-20.9129
 11
31.9747
 21
-20.8832
  0
LINE
  8
0
 10
31.9747
 20
-20.8832
 11
32.06
 21
-20.8579
  0
LINE
  8
0
 10
32.06
 20
-20.8579
 11
32.1465
 21
-20.8371
  0
LINE
  8
0
 10
32.1465
 20
-20.8371
 11
32.2341
 21
-20.8209
  0
LINE
  8
0
 10
32.2341
 20
-20.8209
 11
32.3223
 21
-20.8093
  0
LINE
  8
0
 10
32.3223
 20
-20.8093
 11
32.411
 21
-20.8023
  0
LINE
  8
0
 10
32.411
 20
-20.8023
 11
32.5
 21
-20.8
  0
LINE
  8
0
 10
32.5
 20
-20.8
 11
32.589
 21
-20.8023
  0
LINE
  8
0
 10
32.589
 20
-20.8023
 11
32.5896
 21
-20.8024
  0
LINE
  8
0
 10
32.5896
 20
-20.8024
 11
32.6777
 21
-20.8093
  0
LINE
  8
0
 10
32.6777
 20
-20.8093
 11
32.7659
 21
-20.8209
  0
LINE
  8
0
 10
32.7659
 20
-20.8209
 11
32.8535
 21
-20.8371
  0
LINE
  8
0
 10
32.8535
 20
-20.8371
 11
32.94
 21
-20.8579
  0
LINE
  8
0
 10
32.94
 20
-20.8579
 11
33.0253
 21
-20.8832
  0
LINE
  8
0
 10
33.0253
 20
-20.8832
 11
33.1092
 21
-20.9129
  0
LINE
  8
0
 10
33.1092
 20
-20.9129
 11
33.1915
 21
-20.947
  0
LINE
  8
0
 10
33.1915
 20
-20.947
 11
33.2718
 21
-20.9853
  0
LINE
  8
0
 10
33.2718
 20
-20.9853
 11
33.35
 21
-21.0278
  0
LINE
  8
0
 10
33.35
 20
-21.0278
 11
33.4259
 21
-21.0743
  0
LINE
  8
0
 10
33.4259
 20
-21.0743
 11
33.4992
 21
-21.1247
  0
LINE
  8
0
 10
33.4992
 20
-21.1247
 11
33.5698
 21
-21.1789
  0
LINE
  8
0
 10
33.5698
 20
-21.1789
 11
33.6375
 21
-21.2367
  0
LINE
  8
0
 10
33.6375
 20
-21.2367
 11
33.7021
 21
-21.2979
  0
LINE
  8
0
 10
33.7021
 20
-21.2979
 11
33.7633
 21
-21.3625
  0
LINE
  8
0
 10
33.7633
 20
-21.3625
 11
33.8211
 21
-21.4302
  0
LINE
  8
0
 10
33.8211
 20
-21.4302
 11
33.8753
 21
-21.5008
  0
LINE
  8
0
 10
33.8753
 20
-21.5008
 11
33.9257
 21
-21.5741
  0
LINE
  8
0
 10
33.9257
 20
-21.5741
 11
33.9722
 21
-21.65
  0
LINE
  8
0
 10
33.9722
 20
-21.65
 11
34.0147
 21
-21.7282
  0
LINE
  8
0
 10
34.0147
 20
-21.7282
 11
34.053
 21
-21.8085
  0
LINE
  8
0
 10
34.053
 20
-21.8085
 11
34.0871
 21
-21.8908
  0
LINE
  8
0
 10
34.0871
 20
-21.8908
 11
34.1168
 21
-21.9747
  0
LINE
  8
0
 10
34.1168
 20
-21.9747
 11
34.1421
 21
-22.06
  0
LINE
  8
0
 10
34.1421
 20
-22.06
 11
34.1628
 21
-22.1465
  0
LINE
  8
0
 10
34.1628
 20
-22.1465
 11
34.1791
 21
-22.2341
  0
LINE
  8
0
 10
34.1791
 20
-22.2341
 11
34.1907
 21
-22.3223
  0
LINE
  8
0
 10
34.1907
 20
-22.3223
 11
34.1977
 21
-22.411
  0
LINE
  8
0
 10
34.1977
 20
-22.411
 11
34.2
 21
-22.5
  0
LINE
  8
0
 10
34.2
 20
-22.5
 11
34.1977
 21
-22.589
  0
LINE
  8
0
 10
34.1977
 20
-22.589
 11
34.1907
 21
-22.6777
  0
LINE
  8
0
 10
34.1907
 20
-22.6777
 11
34.1791
 21
-22.7659
  0
LINE
  8
0
 10
34.1791
 20
-22.7659
 11
34.1628
 21
-22.8535
  0
LINE
  8
0
 10
34.1628
 20
-22.8535
 11
34.1421
 21
-22.94
  0
LINE
  8
0
 10
34.1421
 20
-22.94
 11
34.1168
 21
-23.0253
  0
LINE
  8
0
 10
34.1168
 20
-23.0253
 11
34.0871
 21
-23.1092
  0
LINE
  8
0
 10
34.0871
 20
-23.1092
 11
34.053
 21
-23.1915
  0
LINE
  8
0
 10
34.053
 20
-23.1915
 11
34.0147
 21
-23.2718
  0
LINE
  8
0
 10
34.0147
 20
-23.2718
 11
33.9722
 21
-23.35
  0
LINE
  8
0
 10
33.9722
 20
-23.35
 11
33.9257
 21
-23.4259
  0
LINE
  8
0
 10
33.9257
 20
-23.4259
 11
33.8753
 21
-23.4992
  0
LINE
  8
0
 10
33.8753
 20
-23.4992
 11
33.8211
 21
-23.5698
  0
LINE
  8
0
 10
33.8211
 20
-23.5698
 11
33.7633
 21
-23.6375
  0
LINE
  8
0
 10
33.7633
 20
-23.6375
 11
33.7021
 21
-23.7021
  0
LINE
  8
0
 10
33.7021
 20
-23.7021
 11
33.6375
 21
-23.7633
  0
LINE
  8
0
 10
33.6375
 20
-23.7633
 11
33.5698
 21
-23.8211
  0
LINE
  8
0
 10
33.5698
 20
-23.8211
 11
33.4992
 21
-23.8753
  0
LINE
  8
0
 10
33.4992
 20
-23.8753
 11
33.4259
 21
-23.9257
  0
LINE
  8
0
 10
33.4259
 20
-23.9257
 11
33.35
 21
-23.9722
  0
LINE
  8
0
 10
33.35
 20
-23.9722
 11
33.2718
 21
-24.0147
  0
LINE
  8
0
 10
33.2718
 20
-24.0147
 11
33.1915
 21
-24.053
  0
LINE
  8
0
 10
33.1915
 20
-24.053
 11
33.1092
 21
-24.0871
  0
LINE
  8
0
 10
33.1092
 20
-24.0871
 11
33.0253
 21
-24.1168
  0
LINE
  8
0
 10
33.0253
 20
-24.1168
 11
32.94
 21
-24.1421
  0
LINE
  8
0
 10
32.94
 20
-24.1421
 11
32.8535
 21
-24.1628
  0
LINE
  8
0
 10
32.8535
 20
-24.1628
 11
32.7659
 21
-24.1791
  0
LINE
  8
0
 10
32.7659
 20
-24.1791
 11
32.6777
 21
-24.1907
  0
LINE
  8
0
 10
32.6777
 20
-24.1907
 11
32.589
 21
-24.1977
  0
LINE
  8
0
 10
32.589
 20
-24.1977
 11
32.5
 21
-24.2
  0
LINE
  8
0
 10
32.5
 20
-24.2
 11
32.411
 21
-24.1977
  0
LINE
  8
0
 10
-32.589
 20
-24.1977
 11
-32.6777
 21
-24.1907
  0
LINE
  8
0
 10
-32.6777
 20
-24.1907
 11
-32.7659
 21
-24.1791
  0
LINE
  8
0
 10
-32.7659
 20
-24.1791
 11
-32.8535
 21
-24.1628
  0
LINE
  8
0
 10
-32.8535
 20
-24.1628
 11
-32.94
 21
-24.1421
  0
LINE
  8
0
 10
-32.94
 20
-24.1421
 11
-33.0253
 21
-24.1168
  0
LINE
  8
0
 10
-33.0253
 20
-24.1168
 11
-33.1092
 21
-24.0871
  0
LINE
  8
0
 10
-33.1092
 20
-24.0871
 11
-33.1915
 21
-24.053
  0
LINE
  8
0
 10
-33.1915
 20
-24.053
 11
-33.2718
 21
-24.0147
  0
LINE
  8
0
 10
-33.2718
 20
-24.0147
 11
-33.35
 21
-23.9722
  0
LINE
  8
0
 10
-33.35
 20
-23.9722
 11
-33.4259
 21
-23.9257
  0
LINE
  8
0
 10
-33.4259
 20
-23.9257
 11
-33.4992
 21
-23.8753
  0
LINE
  8
0
 10
-33.4992
 20
-23.8753
 11
-33.5698
 21
-23.8211
  0
LINE
  8
0
 10
-33.5698
 20
-23.8211
 11
-33.6375
 21
-23.7633
  0
LINE
  8
0
 10
-33.6375
 20
-23.7633
 11
-33.7021
 21
-23.7021
  0
LINE
  8
0
 10
-33.7021
 20
-23.7021
 11
-33.7633
 21
-23.6375
  0
LINE
  8
0
 10
-33.7633
 20
-23.6375
 11
-33.8211
 21
-23.5698
  0
LINE
  8
0
 10
-33.8211
 20
-23.5698
 11
-33.8753
 21
-23.4992
  0
LINE
  8
0
 10
-33.8753
 20
-23.4992
 11
-33.9257
 21
-23.4259
  0
LINE
  8
0
 10
-33.9257
 20
-23.4259
 11
-33.9722
 21
-23.35
  0
LINE
  8
0
 10
-33.9722
 20
-23.35
 11
-34.0147
 21
-23.2718
  0
LINE
  8
0
 10
-34.0147
 20
-23.2718
 11
-34.053
 21
-23.1915
  0
LINE
  8
0
 10
-34.053
 20
-23.1915
 11
-34.0871
 21
-23.1092
  0
LINE
  8
0
 10
-34.0871
 20
-23.1092
 11
-34.1168
 21
-23.0253
  0
LINE
  8
0
 10
-34.1168
 20
-23.0253
 11
-34.1421
 21
-22.94
  0
LINE
  8
0
 10
-34.1421
 20
-22.94
 11
-34.1628
 21
-22.8535
  0
LINE
  8
0
 10
-34.1628
 20
-22.8535
 11
-34.1791
 21
-22.7659
  0
LINE
  8
0
 10
-34.1791
 20
-22.7659
 11
-34.1907
 21
-22.6777
  0
LINE
  8
0
 10
-34.1907
 20
-22.6777
 11
-34.1977
 21
-22.589
  0
LINE
  8
0
 10
-34.1977
 20
-22.589
 11
-34.2
 21
-22.5
  0
LINE
  8
0
 10
-34.2
 20
-22.5
 11
-34.1977
 21
-22.411
  0
LINE
  8
0
 10
-34.1977
 20
-22.411
 11
-34.1907
 21
-22.3223
  0
LINE
  8
0
 10
-34.1907
 20
-22.3223
 11
-34.1791
 21
-22.2341
  0
LINE
  8
0
 10
-34.1791
 20
-22.2341
 11
-34.1628
 21
-22.1465
  0
LINE
  8
0
 10
-34.1628
 20
-22.1465
 11
-34.1421
 21
-22.06
  0
LINE
  8
0
 10
-34.1421
 20
-22.06
 11
-34.1168
 21
-21.9747
  0
LINE
  8
0
 10
-34.1168
 20
-21.9747
 11
-34.0871
 21
-21.8908
  0
LINE
  8
0
 10
-34.0871
 20
-21.8908
 11
-34.053
 21
-21.8085
  0
LINE
  8
0
 10
-34.053
 20
-21.8085
 11
-34.0147
 21
-21.7282
  0
LINE
  8
0
 10
-34.0147
 20
-21.7282
 11
-33.9722
 21
-21.65
  0
LINE
  8
0
 10
-33.9722
 20
-21.65
 11
-33.9257
 21
-21.5741
  0
LINE
  8
0
 10
-33.9257
 20
-21.5741
 11
-33.8753
 21
-21.5008
  0
LINE
  8
0
 10
-33.8753
 20
-21.5008
 11
-33.8211
 21
-21.4302
  0
LINE
  8
0
 10
-33.8211
 20
-21.4302
 11
-33.7633
 21
-21.3625
  0
LINE
  8
0
 10
-33.7633
 20
-21.3625
 11
-33.7021
 21
-21.2979
  0
LINE
  8
0
 10
-33.7021
 20
-21.2979
 11
-33.6375
 21
-21.2367
  0
LINE
  8
0
 10
-33.6375
 20
-21.2367
 11
-33.5698
 21
-21.1789
  0
LINE
  8
0
 10
-33.5698
 20
-21.1789
 11
-33.4992
 21
-21.1247
  0
LINE
  8
0
 10
-33.4992
 20
-21.1247
 11
-33.4259
 21
-21.0743
  0
LINE
  8
0
 10
-33.4259
 20
-21.0743
 11
-33.35
 21
-21.0278
  0
LINE
  8
0
 10
-33.35
 20
-21.0278
 11
-33.2718
 21
-20.9853
  0
LINE
  8
0
 10
-33.2718
 20
-20.9853
 11
-33.1915
 21
-20.947
  0
LINE
  8
0
 10
-33.1915
 20
-20.947
 11
-33.1092
 21
-20.9129
  0
LINE
  8
0
 10
-33.1092
 20
-20.9129
 11
-33.0253
 21
-20.8832
  0
LINE
  8
0
 10
-33.0253
 20
-20.8832
 11
-32.94
 21
-20.8579
  0
LINE
  8
0
 10
-32.94
 20
-20.8579
 11
-32.8535
 21
-20.8371
  0
LINE
  8
0
 10
-32.8535
 20
-20.8371
 11
-32.7659
 21
-20.8209
  0
LINE
  8
0
 10
-32.7659
 20
-20.8209
 11
-32.6777
 21
-20.8093
  0
LINE
  8
0
 10
-32.6777
 20
-20.8093
 11
-32.5896
 21
-20.8024
  0
LINE
  8
0
 10
-32.5896
 20
-20.8024
 11
-32.589
 21
-20.8023
  0
LINE
  8
0
 10
-32.589
 20
-20.8023
 11
-32.5
 21
-20.8
  0
LINE
  8
0
 10
-32.5
 20
-20.8
 11
-32.411
 21
-20.8023
  0
LINE
  8
0
 10
-32.411
 20
-20.8023
 11
-32.3223
 21
-20.8093
  0
LINE
  8
0
 10
-32.3223
 20
-20.8093
 11
-32.2341
 21
-20.8209
  0
LINE
  8
0
 10
-32.2341
 20
-20.8209
 11
-32.1465
 21
-20.8371
  0
LINE
  8
0
 10
-32.1465
 20
-20.8371
 11
-32.06
 21
-20.8579
  0
LINE
  8
0
 10
-32.06
 20
-20.8579
 11
-31.9747
 21
-20.8832
  0
LINE
  8
0
 10
-31.9747
 20
-20.8832
 11
-31.8908
 21
-20.9129
  0
LINE
  8
0
 10
-31.8908
 20
-20.9129
 11
-31.8085
 21
-20.947
  0
LINE
  8
0
 10
-31.8085
 20
-20.947
 11
-31.7282
 21
-20.9853
  0
LINE
  8
0
 10
-31.7282
 20
-20.9853
 11
-31.65
 21
-21.0278
  0
LINE
  8
0
 10
-31.65
 20
-21.0278
 11
-31.5741
 21
-21.0743
  0
LINE
  8
0
 10
-31.5741
 20
-21.0743
 11
-31.5008
 21
-21.1247
  0
LINE
  8
0
 10
-31.5008
 20
-21.1247
 11
-31.4302
 21
-21.1789
  0
LINE
  8
0
 10
-31.4302
 20
-21.1789
 11
-31.3625
 21
-21.2367
  0
LINE
  8
0
 10
-31.3625
 20
-21.2367
 11
-31.2979
 21
-21.2979
  0
LINE
  8
0
 10
-31.2979
 20
-21.2979
 11
-31.2367
 21
-21.3625
  0
LINE
  8
0
 10
-31.2367
 20
-21.3625
 11
-31.1789
 21
-21.4302
  0
LINE
  8
0
 10
-31.1789
 20
-21.4302
 11
-31.1247
 21
-21.5008
  0
LINE
  8
0
 10
-31.1247
 20
-21.5008
 11
-31.0743
 21
-21.5741
  0
LINE
  8
0
 10
-31.0743
 20
-21.5741
 11
-31.0278
 21
-21.65
  0
LINE
  8
0
 10
-31.0278
 20
-21.65
 11
-30.9853
 21
-21.7282
  0
LINE
  8
0
 10
-30.9853
 20
-21.7282
 11
-30.947
 21
-21.8085
  0
LINE
  8
0
 10
-30.947
 20
-21.8085
 11
-30.9129
 21
-21.8908
  0
LINE
  8
0
 10
-30.9129
 20
-21.8908
 11
-30.8832
 21
-21.9747
  0
LINE
  8
0
 10
-30.8832
 20
-21.9747
 11
-30.8579
 21
-22.06
  0
LINE
  8
0
 10
-30.8579
 20
-22.06
 11
-30.8371
 21
-22.1465
  0
LINE
  8
0
 10
-30.8371
 20
-22.1465
 11
-30.8209
 21
-22.2341
  0
LINE
  8
0
 10
-30.8209
 20
-22.2341
 11
-30.8093
 21
-22.3223
  0
LINE
  8
0
 10
-30.8093
 20
-22.3223
 11
-30.8023
 21
-22.411
  0
LINE
  8
0
 10
-30.8023
 20
-22.411
 11
-30.8
 21
-22.5
  0
LINE
  8
0
 10
-30.8
 20
-22.5
 11
-30.8023
 21
-22.589
  0
LINE
  8
0
 10
-30.8023
 20
-22.589
 11
-30.8024
 21
-22.5896
  0
LINE
  8
0
 10
-30.8024
 20
-22.5896
 11
-30.8093
 21
-22.6777
  0
LINE
  8
0
 10
-30.8093
 20
-22.6777
 11
-30.8209
 21
-22.7659
  0
LINE
  8
0
 10
-30.8209
 20
-22.7659
 11
-30.8371
 21
-22.8535
  0
LINE
  8
0
 10
-30.8371
 20
-22.8535
 11
-30.8579
 21
-22.94
  0
LINE
  8
0
 10
-30.8579
 20
-22.94
 11
-30.8832
 21
-23.0253
  0
LINE
  8
0
 10
-30.8832
 20
-23.0253
 11
-30.9129
 21
-23.1092
  0
LINE
  8
0
 10
-30.9129
 20
-23.1092
 11
-30.947
 21
-23.1915
  0
LINE
  8
0
 10
-30.947
 20
-23.1915
 11
-30.9853
 21
-23.2718
  0
LINE
  8
0
 10
-30.9853
 20
-23.2718
 11
-31.0278
 21
-23.35
  0
LINE
  8
0
 10
-31.0278
 20
-23.35
 11
-31.0743
 21
-23.4259
  0
LINE
  8
0
 10
-31.0743
 20
-23.4259
 11
-31.1247
 21
-23.4992
  0
LINE
  8
0
 10
-31.1247
 20
-23.4992
 11
-31.1789
 21
-23.5698
  0
LINE
  8
0
 10
-31.1789
 20
-23.5698
 11
-31.2367
 21
-23.6375
  0
LINE
  8
0
 10
-31.2367
 20
-23.6375
 11
-31.2979
 21
-23.7021
  0
LINE
  8
0
 10
-31.2979
 20
-23.7021
 11
-31.3625
 21
-23.7633
  0
LINE
  8
0
 10
-31.3625
 20
-23.7633
 11
-31.4302
 21
-23.8211
  0
LINE
  8
0
 10
-31.4302
 20
-23.8211
 11
-31.5008
 21
-23.8753
  0
LINE
  8
0
 10
-31.5008
 20
-23.8753
 11
-31.5741
 21
-23.9257
  0
LINE
  8
0
 10
-31.5741
 20
-23.9257
 11
-31.65
 21
-23.9722
  0
LINE
  8
0
 10
-31.65
 20
-23.9722
 11
-31.7282
 21
-24.0147
  0
LINE
  8
0
 10
-31.7282
 20
-24.0147
 11
-31.8085
 21
-24.053
  0
LINE
  8
0
 10
-31.8085
 20
-24.053
 11
-31.8908
 21
-24.0871
  0
LINE
  8
0
 10
-31.8908
 20
-24.0871
 11
-31.9747
 21
-24.1168
  0
LINE
  8
0
 10
-31.9747
 20
-24.1168
 11
-32.06
 21
-24.1421
  0
LINE
  8
0
 10
-32.06
 20
-24.1421
 11
-32.1465
 21
-24.1628
  0
LINE
  8
0
 10
-32.1465
 20
-24.1628
 11
-32.2341
 21
-24.1791
  0
LINE
  8
0
 10
-32.2341
 20
-24.1791
 11
-32.3223
 21
-24.1907
  0
LINE
  8
0
 10
-32.3223
 20
-24.1907
 11
-32.411
 21
-24.1977
  0
LINE
  8
0
 10
-32.411
 20
-24.1977
 11
-32.5
 21
-24.2
  0
LINE
  8
0
 10
-32.5
 20
-24.2
 11
-32.589
 21
-24.1977
  0
ENDSEC
  0
SECTION
  2
OBJECTS
  0
DICTIONARY
  0
ENDSEC
  0
EOF
