  0
SECTION
  2
BLOCKS
  0
ENDSEC
  0
SECTION
  2
ENTITIES
  0
LINE
  8
0
 10
23.314
 20
-28.9918
 11
23.6272
 21
-28.9671
  0
LINE
  8
0
 10
23.6272
 20
-28.9671
 11
23.9386
 21
-28.9261
  0
LINE
  8
0
 10
23.9386
 20
-28.9261
 11
24.2475
 21
-28.8689
  0
LINE
  8
0
 10
24.2475
 20
-28.8689
 11
24.5529
 21
-28.7955
  0
LINE
  8
0
 10
24.5529
 20
-28.7955
 11
24.8541
 21
-28.7063
  0
LINE
  8
0
 10
24.8541
 20
-28.7063
 11
25.1502
 21
-28.6015
  0
LINE
  8
0
 10
25.1502
 20
-28.6015
 11
25.4404
 21
-28.4813
  0
LINE
  8
0
 10
25.4404
 20
-28.4813
 11
25.7239
 21
-28.346
  0
LINE
  8
0
 10
25.7239
 20
-28.346
 11
26
 21
-28.1962
  0
LINE
  8
0
 10
26
 20
-28.1962
 11
26.2678
 21
-28.032
  0
LINE
  8
0
 10
26.2678
 20
-28.032
 11
26.5267
 21
-27.8541
  0
LINE
  8
0
 10
26.5267
 20
-27.8541
 11
26.7759
 21
-27.6629
  0
LINE
  8
0
 10
26.7759
 20
-27.6629
 11
27.0148
 21
-27.4589
  0
LINE
  8
0
 10
27.0148
 20
-27.4589
 11
27.2426
 21
-27.2426
  0
LINE
  8
0
 10
27.2426
 20
-27.2426
 11
27.4589
 21
-27.0148
  0
LINE
  8
0
 10
27.4589
 20
-27.0148
 11
27.6629
 21
-26.7759
  0
LINE
  8
0
 10
27.6629
 20
-26.7759
 11
27.8541
 21
-26.5267
  0
LINE
  8
0
 10
27.8541
 20
-26.5267
 11
28.032
 21
-26.2678
  0
LINE
  8
0
 10
28.032
 20
-26.2678
 11
28.1962
 21
-26
  0
LINE
  8
0
 10
28.1962
 20
-26
 11
28.346
 21
-25.7239
  0
LINE
  8
0
 10
28.346
 20
-25.7239
 11
28.4813
 21
-25.4404
  0
LINE
  8
0
 10
28.4813
 20
-25.4404
 11
28.6015
 21
-25.1502
  0
LINE
  8
0
 10
28.6015
 20
-25.1502
 11
28.7063
 21
-24.8541
  0
LINE
  8
0
 10
28.7063
 20
-24.8541
 11
28.7955
 21
-24.5529
  0
LINE
  8
0
 10
28.7955
 20
-24.5529
 11
28.8689
 21
-24.2475
  0
LINE
  8
0
 10
28.8689
 20
-24.2475
 11
28.9261
 21
-23.9386
  0
LINE
  8
0
 10
28.9261
 20
-23.9386
 11
28.9671
 21
-23.6272
  0
LINE
  8
0
 10
28.9671
 20
-23.6272
 11
28.9918
 21
-23.314
  0
LINE
  8
0
 10
28.9918
 20
-23.314
 11
29
 21
-23
  0
LINE
  8
0
 10
29
 20
-23
 11
29
 21
23
  0
LINE
  8
0
 10
29
 20
23
 11
28.9918
 21
23.314
  0
LINE
  8
0
 10
28.9918
 20
23.314
 11
28.9671
 21
23.6272
  0
LINE
  8
0
 10
28.9671
 20
23.6272
 11
28.9261
 21
23.9386
  0
LINE
  8
0
 10
28.9261
 20
23.9386
 11
28.8689
 21
24.2475
  0
LINE
  8
0
 10
28.8689
 20
24.2475
 11
28.7955
 21
24.5529
  0
LINE
  8
0
 10
28.7955
 20
24.5529
 11
28.7063
 21
24.8541
  0
LINE
  8
0
 10
28.7063
 20
24.8541
 11
28.6015
 21
25.1502
  0
LINE
  8
0
 10
28.6015
 20
25.1502
 11
28.4813
 21
25.4404
  0
LINE
  8
0
 10
28.4813
 20
25.4404
 11
28.346
 21
25.7239
  0
LINE
  8
0
 10
28.346
 20
25.7239
 11
28.1962
 21
26
  0
LINE
  8
0
 10
28.1962
 20
26
 11
28.032
 21
26.2678
  0
LINE
  8
0
 10
28.032
 20
26.2678
 11
27.8541
 21
26.5267
  0
LINE
  8
0
 10
27.8541
 20
26.5267
 11
27.6629
 21
26.7759
  0
LINE
  8
0
 10
27.6629
 20
26.7759
 11
27.4589
 21
27.0148
  0
LINE
  8
0
 10
27.4589
 20
27.0148
 11
27.2426
 21
27.2426
  0
LINE
  8
0
 10
27.2426
 20
27.2426
 11
27.0148
 21
27.4589
  0
LINE
  8
0
 10
27.0148
 20
27.4589
 11
26.7759
 21
27.6629
  0
LINE
  8
0
 10
26.7759
 20
27.6629
 11
26.5267
 21
27.8541
  0
LINE
  8
0
 10
26.5267
 20
27.8541
 11
26.2678
 21
28.032
  0
LINE
  8
0
 10
26.2678
 20
28.032
 11
26
 21
28.1962
  0
LINE
  8
0
 10
26
 20
28.1962
 11
25.7239
 21
28.346
  0
LINE
  8
0
 10
25.7239
 20
28.346
 11
25.4404
 21
28.4813
  0
LINE
  8
0
 10
25.4404
 20
28.4813
 11
25.1502
 21
28.6015
  0
LINE
  8
0
 10
25.1502
 20
28.6015
 11
24.8541
 21
28.7063
  0
LINE
  8
0
 10
24.8541
 20
28.7063
 11
24.5529
 21
28.7955
  0
LINE
  8
0
 10
24.5529
 20
28.7955
 11
24.2475
 21
28.8689
  0
LINE
  8
0
 10
24.2475
 20
28.8689
 11
23.9386
 21
28.9261
  0
LINE
  8
0
 10
23.9386
 20
28.9261
 11
23.6272
 21
28.9671
  0
LINE
  8
0
 10
23.6272
 20
28.9671
 11
23.314
 21
28.9918
  0
LINE
  8
0
 10
23.314
 20
28.9918
 11
23
 21
29
  0
LINE
  8
0
 10
23
 20
29
 11
-23
 21
29
  0
LINE
  8
0
 10
-23
 20
29
 11
-23.314
 21
28.9918
  0
LINE
  8
0
 10
-23.314
 20
28.9918
 11
-23.6272
 21
28.9671
  0
LINE
  8
0
 10
-23.6272
 20
28.9671
 11
-23.9386
 21
28.9261
  0
LINE
  8
0
 10
-23.9386
 20
28.9261
 11
-24.2475
 21
28.8689
  0
LINE
  8
0
 10
-24.2475
 20
28.8689
 11
-24.5529
 21
28.7955
  0
LINE
  8
0
 10
-24.5529
 20
28.7955
 11
-24.8541
 21
28.7063
  0
LINE
  8
0
 10
-24.8541
 20
28.7063
 11
-25.1502
 21
28.6015
  0
LINE
  8
0
 10
-25.1502
 20
28.6015
 11
-25.4404
 21
28.4813
  0
LINE
  8
0
 10
-25.4404
 20
28.4813
 11
-25.7239
 21
28.346
  0
LINE
  8
0
 10
-25.7239
 20
28.346
 11
-26
 21
28.1962
  0
LINE
  8
0
 10
-26
 20
28.1962
 11
-26.2678
 21
28.032
  0
LINE
  8
0
 10
-26.2678
 20
28.032
 11
-26.5267
 21
27.8541
  0
LINE
  8
0
 10
-26.5267
 20
27.8541
 11
-26.7759
 21
27.6629
  0
LINE
  8
0
 10
-26.7759
 20
27.6629
 11
-27.0148
 21
27.4589
  0
LINE
  8
0
 10
-27.0148
 20
27.4589
 11
-27.2426
 21
27.2426
  0
LINE
  8
0
 10
-27.2426
 20
27.2426
 11
-27.4589
 21
27.0148
  0
LINE
  8
0
 10
-27.4589
 20
27.0148
 11
-27.6629
 21
26.7759
  0
LINE
  8
0
 10
-27.6629
 20
26.7759
 11
-27.8541
 21
26.5267
  0
LINE
  8
0
 10
-27.8541
 20
26.5267
 11
-28.032
 21
26.2678
  0
LINE
  8
0
 10
-28.032
 20
26.2678
 11
-28.1962
 21
26
  0
LINE
  8
0
 10
-28.1962
 20
26
 11
-28.346
 21
25.7239
  0
LINE
  8
0
 10
-28.346
 20
25.7239
 11
-28.4813
 21
25.4404
  0
LINE
  8
0
 10
-28.4813
 20
25.4404
 11
-28.6015
 21
25.1502
  0
LINE
  8
0
 10
-28.6015
 20
25.1502
 11
-28.7063
 21
24.8541
  0
LINE
  8
0
 10
-28.7063
 20
24.8541
 11
-28.7955
 21
24.5529
  0
LINE
  8
0
 10
-28.7955
 20
24.5529
 11
-28.8689
 21
24.2475
  0
LINE
  8
0
 10
-28.8689
 20
24.2475
 11
-28.9261
 21
23.9386
  0
LINE
  8
0
 10
-28.9261
 20
23.9386
 11
-28.9671
 21
23.6272
  0
LINE
  8
0
 10
-28.9671
 20
23.6272
 11
-28.9918
 21
23.314
  0
LINE
  8
0
 10
-28.9918
 20
23.314
 11
-29
 21
23
  0
LINE
  8
0
 10
-29
 20
23
 11
-29
 21
-23
  0
LINE
  8
0
 10
-29
 20
-23
 11
-28.9918
 21
-23.314
  0
LINE
  8
0
 10
-28.9918
 20
-23.314
 11
-28.9671
 21
-23.6272
  0
LINE
  8
0
 10
-28.9671
 20
-23.6272
 11
-28.9261
 21
-23.9386
  0
LINE
  8
0
 10
-28.9261
 20
-23.9386
 11
-28.8689
 21
-24.2475
  0
LINE
  8
0
 10
-28.8689
 20
-24.2475
 11
-28.7955
 21
-24.5529
  0
LINE
  8
0
 10
-28.7955
 20
-24.5529
 11
-28.7063
 21
-24.8541
  0
LINE
  8
0
 10
-28.7063
 20
-24.8541
 11
-28.6015
 21
-25.1502
  0
LINE
  8
0
 10
-28.6015
 20
-25.1502
 11
-28.4813
 21
-25.4404
  0
LINE
  8
0
 10
-28.4813
 20
-25.4404
 11
-28.346
 21
-25.7239
  0
LINE
  8
0
 10
-28.346
 20
-25.7239
 11
-28.1962
 21
-26
  0
LINE
  8
0
 10
-28.1962
 20
-26
 11
-28.032
 21
-26.2678
  0
LINE
  8
0
 10
-28.032
 20
-26.2678
 11
-27.8541
 21
-26.5267
  0
LINE
  8
0
 10
-27.8541
 20
-26.5267
 11
-27.6629
 21
-26.7759
  0
LINE
  8
0
 10
-27.6629
 20
-26.7759
 11
-27.4589
 21
-27.0148
  0
LINE
  8
0
 10
-27.4589
 20
-27.0148
 11
-27.2426
 21
-27.2426
  0
LINE
  8
0
 10
-27.2426
 20
-27.2426
 11
-27.0148
 21
-27.4589
  0
LINE
  8
0
 10
-27.0148
 20
-27.4589
 11
-26.7759
 21
-27.6629
  0
LINE
  8
0
 10
-26.7759
 20
-27.6629
 11
-26.5267
 21
-27.8541
  0
LINE
  8
0
 10
-26.5267
 20
-27.8541
 11
-26.2678
 21
-28.032
  0
LINE
  8
0
 10
-26.2678
 20
-28.032
 11
-26
 21
-28.1962
  0
LINE
  8
0
 10
-26
 20
-28.1962
 11
-25.7239
 21
-28.346
  0
LINE
  8
0
 10
-25.7239
 20
-28.346
 11
-25.4404
 21
-28.4813
  0
LINE
  8
0
 10
-25.4404
 20
-28.4813
 11
-25.1502
 21
-28.6015
  0
LINE
  8
0
 10
-25.1502
 20
-28.6015
 11
-24.8541
 21
-28.7063
  0
LINE
  8
0
 10
-24.8541
 20
-28.7063
 11
-24.5529
 21
-28.7955
  0
LINE
  8
0
 10
-24.5529
 20
-28.7955
 11
-24.2475
 21
-28.8689
  0
LINE
  8
0
 10
-24.2475
 20
-28.8689
 11
-23.9386
 21
-28.9261
  0
LINE
  8
0
 10
-23.9386
 20
-28.9261
 11
-23.6272
 21
-28.9671
  0
LINE
  8
0
 10
-23.6272
 20
-28.9671
 11
-23.314
 21
-28.9918
  0
LINE
  8
0
 10
-23.314
 20
-28.9918
 11
-23
 21
-29
  0
LINE
  8
0
 10
-23
 20
-29
 11
23
 21
-29
  0
LINE
  8
0
 10
23
 20
-29
 11
23.314
 21
-28.9918
  0
LINE
  8
0
 10
-24.1178
 20
21.7531
 11
-24.2352
 21
21.7623
  0
LINE
  8
0
 10
-24.2352
 20
21.7623
 11
-24.352
 21
21.7777
  0
LINE
  8
0
 10
-24.352
 20
21.7777
 11
-24.4678
 21
21.7992
  0
LINE
  8
0
 10
-24.4678
 20
21.7992
 11
-24.5823
 21
21.8267
  0
LINE
  8
0
 10
-24.5823
 20
21.8267
 11
-24.6953
 21
21.8601
  0
LINE
  8
0
 10
-24.6953
 20
21.8601
 11
-24.8063
 21
21.8994
  0
LINE
  8
0
 10
-24.8063
 20
21.8994
 11
-24.9152
 21
21.9445
  0
LINE
  8
0
 10
-24.9152
 20
21.9445
 11
-25.0215
 21
21.9952
  0
LINE
  8
0
 10
-25.0215
 20
21.9952
 11
-25.125
 21
22.0514
  0
LINE
  8
0
 10
-25.125
 20
22.0514
 11
-25.2254
 21
22.113
  0
LINE
  8
0
 10
-25.2254
 20
22.113
 11
-25.3225
 21
22.1797
  0
LINE
  8
0
 10
-25.3225
 20
22.1797
 11
-25.416
 21
22.2514
  0
LINE
  8
0
 10
-25.416
 20
22.2514
 11
-25.5055
 21
22.3279
  0
LINE
  8
0
 10
-25.5055
 20
22.3279
 11
-25.591
 21
22.409
  0
LINE
  8
0
 10
-25.591
 20
22.409
 11
-25.6721
 21
22.4945
  0
LINE
  8
0
 10
-25.6721
 20
22.4945
 11
-25.7486
 21
22.584
  0
LINE
  8
0
 10
-25.7486
 20
22.584
 11
-25.8203
 21
22.6775
  0
LINE
  8
0
 10
-25.8203
 20
22.6775
 11
-25.887
 21
22.7746
  0
LINE
  8
0
 10
-25.887
 20
22.7746
 11
-25.9486
 21
22.875
  0
LINE
  8
0
 10
-25.9486
 20
22.875
 11
-26.0048
 21
22.9785
  0
LINE
  8
0
 10
-26.0048
 20
22.9785
 11
-26.0555
 21
23.0848
  0
LINE
  8
0
 10
-26.0555
 20
23.0848
 11
-26.1006
 21
23.1937
  0
LINE
  8
0
 10
-26.1006
 20
23.1937
 11
-26.1399
 21
23.3047
  0
LINE
  8
0
 10
-26.1399
 20
23.3047
 11
-26.1733
 21
23.4177
  0
LINE
  8
0
 10
-26.1733
 20
23.4177
 11
-26.2008
 21
23.5322
  0
LINE
  8
0
 10
-26.2008
 20
23.5322
 11
-26.2223
 21
23.648
  0
LINE
  8
0
 10
-26.2223
 20
23.648
 11
-26.2377
 21
23.7648
  0
LINE
  8
0
 10
-26.2377
 20
23.7648
 11
-26.2469
 21
23.8822
  0
LINE
  8
0
 10
-26.2469
 20
23.8822
 11
-26.25
 21
24
  0
LINE
  8
0
 10
-26.25
 20
24
 11
-26.2469
 21
24.1178
  0
LINE
  8
0
 10
-26.2469
 20
24.1178
 11
-26.2377
 21
24.2352
  0
LINE
  8
0
 10
-26.2377
 20
24.2352
 11
-26.2223
 21
24.352
  0
LINE
  8
0
 10
-26.2223
 20
24.352
 11
-26.2008
 21
24.4678
  0
LINE
  8
0
 10
-26.2008
 20
24.4678
 11
-26.1733
 21
24.5823
  0
LINE
  8
0
 10
-26.1733
 20
24.5823
 11
-26.1399
 21
24.6953
  0
LINE
  8
0
 10
-26.1399
 20
24.6953
 11
-26.1006
 21
24.8063
  0
LINE
  8
0
 10
-26.1006
 20
24.8063
 11
-26.0555
 21
24.9152
  0
LINE
  8
0
 10
-26.0555
 20
24.9152
 11
-26.0048
 21
25.0215
  0
LINE
  8
0
 10
-26.0048
 20
25.0215
 11
-25.9486
 21
25.125
  0
LINE
  8
0
 10
-25.9486
 20
25.125
 11
-25.887
 21
25.2254
  0
LINE
  8
0
 10
-25.887
 20
25.2254
 11
-25.8203
 21
25.3225
  0
LINE
  8
0
 10
-25.8203
 20
25.3225
 11
-25.7486
 21
25.416
  0
LINE
  8
0
 10
-25.7486
 20
25.416
 11
-25.6721
 21
25.5055
  0
LINE
  8
0
 10
-25.6721
 20
25.5055
 11
-25.591
 21
25.591
  0
LINE
  8
0
 10
-25.591
 20
25.591
 11
-25.5055
 21
25.6721
  0
LINE
  8
0
 10
-25.5055
 20
25.6721
 11
-25.416
 21
25.7486
  0
LINE
  8
0
 10
-25.416
 20
25.7486
 11
-25.3225
 21
25.8203
  0
LINE
  8
0
 10
-25.3225
 20
25.8203
 11
-25.2254
 21
25.887
  0
LINE
  8
0
 10
-25.2254
 20
25.887
 11
-25.125
 21
25.9486
  0
LINE
  8
0
 10
-25.125
 20
25.9486
 11
-25.0215
 21
26.0048
  0
LINE
  8
0
 10
-25.0215
 20
26.0048
 11
-24.9152
 21
26.0555
  0
LINE
  8
0
 10
-24.9152
 20
26.0555
 11
-24.8063
 21
26.1006
  0
LINE
  8
0
 10
-24.8063
 20
26.1006
 11
-24.6953
 21
26.1399
  0
LINE
  8
0
 10
-24.6953
 20
26.1399
 11
-24.5823
 21
26.1733
  0
LINE
  8
0
 10
-24.5823
 20
26.1733
 11
-24.4678
 21
26.2008
  0
LINE
  8
0
 10
-24.4678
 20
26.2008
 11
-24.352
 21
26.2223
  0
LINE
  8
0
 10
-24.352
 20
26.2223
 11
-24.2352
 21
26.2377
  0
LINE
  8
0
 10
-24.2352
 20
26.2377
 11
-24.1178
 21
26.2469
  0
LINE
  8
0
 10
-24.1178
 20
26.2469
 11
-24
 21
26.25
  0
LINE
  8
0
 10
-24
 20
26.25
 11
-23.8822
 21
26.2469
  0
LINE
  8
0
 10
-23.8822
 20
26.2469
 11
-23.7648
 21
26.2377
  0
LINE
  8
0
 10
-23.7648
 20
26.2377
 11
-23.648
 21
26.2223
  0
LINE
  8
0
 10
-23.648
 20
26.2223
 11
-23.5322
 21
26.2008
  0
LINE
  8
0
 10
-23.5322
 20
26.2008
 11
-23.4177
 21
26.1733
  0
LINE
  8
0
 10
-23.4177
 20
26.1733
 11
-23.3047
 21
26.1399
  0
LINE
  8
0
 10
-23.3047
 20
26.1399
 11
-23.1937
 21
26.1006
  0
LINE
  8
0
 10
-23.1937
 20
26.1006
 11
-23.0848
 21
26.0555
  0
LINE
  8
0
 10
-23.0848
 20
26.0555
 11
-22.9785
 21
26.0048
  0
LINE
  8
0
 10
-22.9785
 20
26.0048
 11
-22.875
 21
25.9486
  0
LINE
  8
0
 10
-22.875
 20
25.9486
 11
-22.7746
 21
25.887
  0
LINE
  8
0
 10
-22.7746
 20
25.887
 11
-22.6775
 21
25.8203
  0
LINE
  8
0
 10
-22.6775
 20
25.8203
 11
-22.584
 21
25.7486
  0
LINE
  8
0
 10
-22.584
 20
25.7486
 11
-22.4945
 21
25.6721
  0
LINE
  8
0
 10
-22.4945
 20
25.6721
 11
-22.409
 21
25.591
  0
LINE
  8
0
 10
-22.409
 20
25.591
 11
-22.3279
 21
25.5055
  0
LINE
  8
0
 10
-22.3279
 20
25.5055
 11
-22.2514
 21
25.416
  0
LINE
  8
0
 10
-22.2514
 20
25.416
 11
-22.1797
 21
25.3225
  0
LINE
  8
0
 10
-22.1797
 20
25.3225
 11
-22.113
 21
25.2254
  0
LINE
  8
0
 10
-22.113
 20
25.2254
 11
-22.0514
 21
25.125
  0
LINE
  8
0
 10
-22.0514
 20
25.125
 11
-21.9952
 21
25.0215
  0
LINE
  8
0
 10
-21.9952
 20
25.0215
 11
-21.9445
 21
24.9152
  0
LINE
  8
0
 10
-21.9445
 20
24.9152
 11
-21.8994
 21
24.8063
  0
LINE
  8
0
 10
-21.8994
 20
24.8063
 11
-21.8601
 21
24.6953
  0
LINE
  8
0
 10
-21.8601
 20
24.6953
 11
-21.8267
 21
24.5823
  0
LINE
  8
0
 10
-21.8267
 20
24.5823
 11
-21.7992
 21
24.4678
  0
LINE
  8
0
 10
-21.7992
 20
24.4678
 11
-21.7777
 21
24.352
  0
LINE
  8
0
 10
-21.7777
 20
24.352
 11
-21.7623
 21
24.2352
  0
LINE
  8
0
 10
-21.7623
 20
24.2352
 11
-21.7531
 21
24.1178
  0
LINE
  8
0
 10
-21.7531
 20
24.1178
 11
-21.75
 21
24
  0
LINE
  8
0
 10
-21.75
 20
24
 11
-21.7531
 21
23.8822
  0
LINE
  8
0
 10
-21.7531
 20
23.8822
 11
-21.7623
 21
23.7648
  0
LINE
  8
0
 10
-21.7623
 20
23.7648
 11
-21.7777
 21
23.648
  0
LINE
  8
0
 10
-21.7777
 20
23.648
 11
-21.7992
 21
23.5322
  0
LINE
  8
0
 10
-21.7992
 20
23.5322
 11
-21.8267
 21
23.4177
  0
LINE
  8
0
 10
-21.8267
 20
23.4177
 11
-21.8601
 21
23.3047
  0
LINE
  8
0
 10
-21.8601
 20
23.3047
 11
-21.8994
 21
23.1937
  0
LINE
  8
0
 10
-21.8994
 20
23.1937
 11
-21.9445
 21
23.0848
  0
LINE
  8
0
 10
-21.9445
 20
23.0848
 11
-21.9952
 21
22.9785
  0
LINE
  8
0
 10
-21.9952
 20
22.9785
 11
-22.0514
 21
22.875
  0
LINE
  8
0
 10
-22.0514
 20
22.875
 11
-22.113
 21
22.7746
  0
LINE
  8
0
 10
-22.113
 20
22.7746
 11
-22.1797
 21
22.6775
  0
LINE
  8
0
 10
-22.1797
 20
22.6775
 11
-22.2514
 21
22.584
  0
LINE
  8
0
 10
-22.2514
 20
22.584
 11
-22.3279
 21
22.4945
  0
LINE
  8
0
 10
-22.3279
 20
22.4945
 11
-22.409
 21
22.409
  0
LINE
  8
0
 10
-22.409
 20
22.409
 11
-22.4945
 21
22.3279
  0
LINE
  8
0
 10
-22.4945
 20
22.3279
 11
-22.584
 21
22.2514
  0
LINE
  8
0
 10
-22.584
 20
22.2514
 11
-22.6775
 21
22.1797
  0
LINE
  8
0
 10
-22.6775
 20
22.1797
 11
-22.7746
 21
22.113
  0
LINE
  8
0
 10
-22.7746
 20
22.113
 11
-22.875
 21
22.0514
  0
LINE
  8
0
 10
-22.875
 20
22.0514
 11
-22.9785
 21
21.9952
  0
LINE
  8
0
 10
-22.9785
 20
21.9952
 11
-23.0848
 21
21.9445
  0
LINE
  8
0
 10
-23.0848
 20
21.9445
 11
-23.1937
 21
21.8994
  0
LINE
  8
0
 10
-23.1937
 20
21.8994
 11
-23.3047
 21
21.8601
  0
LINE
  8
0
 10
-23.3047
 20
21.8601
 11
-23.4177
 21
21.8267
  0
LINE
  8
0
 10
-23.4177
 20
21.8267
 11
-23.5322
 21
21.7992
  0
LINE
  8
0
 10
-23.5322
 20
21.7992
 11
-23.648
 21
21.7777
  0
LINE
  8
0
 10
-23.648
 20
21.7777
 11
-23.7648
 21
21.7623
  0
LINE
  8
0
 10
-23.7648
 20
21.7623
 11
-23.8822
 21
21.7531
  0
LINE
  8
0
 10
-23.8822
 20
21.7531
 11
-24
 21
21.75
  0
LINE
  8
0
 10
-24
 20
21.75
 11
-24.1178
 21
21.7531
  0
LINE
  8
0
 10
23.8822
 20
21.7531
 11
23.7648
 21
21.7623
  0
LINE
  8
0
 10
23.7648
 20
21.7623
 11
23.648
 21
21.7777
  0
LINE
  8
0
 10
23.648
 20
21.7777
 11
23.5322
 21
21.7992
  0
LINE
  8
0
 10
23.5322
 20
21.7992
 11
23.4177
 21
21.8267
  0
LINE
  8
0
 10
23.4177
 20
21.8267
 11
23.3047
 21
21.8601
  0
LINE
  8
0
 10
23.3047
 20
21.8601
 11
23.1937
 21
21.8994
  0
LINE
  8
0
 10
23.1937
 20
21.8994
 11
23.0848
 21
21.9445
  0
LINE
  8
0
 10
23.0848
 20
21.9445
 11
22.9785
 21
21.9952
  0
LINE
  8
0
 10
22.9785
 20
21.9952
 11
22.875
 21
22.0514
  0
LINE
  8
0
 10
22.875
 20
22.0514
 11
22.7746
 21
22.113
  0
LINE
  8
0
 10
22.7746
 20
22.113
 11
22.6775
 21
22.1797
  0
LINE
  8
0
 10
22.6775
 20
22.1797
 11
22.584
 21
22.2514
  0
LINE
  8
0
 10
22.584
 20
22.2514
 11
22.4945
 21
22.3279
  0
LINE
  8
0
 10
22.4945
 20
22.3279
 11
22.409
 21
22.409
  0
LINE
  8
0
 10
22.409
 20
22.409
 11
22.3279
 21
22.4945
  0
LINE
  8
0
 10
22.3279
 20
22.4945
 11
22.2514
 21
22.584
  0
LINE
  8
0
 10
22.2514
 20
22.584
 11
22.1797
 21
22.6775
  0
LINE
  8
0
 10
22.1797
 20
22.6775
 11
22.113
 21
22.7746
  0
LINE
  8
0
 10
22.113
 20
22.7746
 11
22.0514
 21
22.875
  0
LINE
  8
0
 10
22.0514
 20
22.875
 11
21.9952
 21
22.9785
  0
LINE
  8
0
 10
21.9952
 20
22.9785
 11
21.9445
 21
23.0848
  0
LINE
  8
0
 10
21.9445
 20
23.0848
 11
21.8994
 21
23.1937
  0
LINE
  8
0
 10
21.8994
 20
23.1937
 11
21.8601
 21
23.3047
  0
LINE
  8
0
 10
21.8601
 20
23.3047
 11
21.8267
 21
23.4177
  0
LINE
  8
0
 10
21.8267
 20
23.4177
 11
21.7992
 21
23.5322
  0
LINE
  8
0
 10
21.7992
 20
23.5322
 11
21.7777
 21
23.648
  0
LINE
  8
0
 10
21.7777
 20
23.648
 11
21.7623
 21
23.7648
  0
LINE
  8
0
 10
21.7623
 20
23.7648
 11
21.7531
 21
23.8822
  0
LINE
  8
0
 10
21.7531
 20
23.8822
 11
21.75
 21
24
  0
LINE
  8
0
 10
21.75
 20
24
 11
21.7531
 21
24.1178
  0
LINE
  8
0
 10
21.7531
 20
24.1178
 11
21.7623
 21
24.2352
  0
LINE
  8
0
 10
21.7623
 20
24.2352
 11
21.7777
 21
24.352
  0
LINE
  8
0
 10
21.7777
 20
24.352
 11
21.7992
 21
24.4678
  0
LINE
  8
0
 10
21.7992
 20
24.4678
 11
21.8267
 21
24.5823
  0
LINE
  8
0
 10
21.8267
 20
24.5823
 11
21.8601
 21
24.6953
  0
LINE
  8
0
 10
21.8601
 20
24.6953
 11
21.8994
 21
24.8063
  0
LINE
  8
0
 10
21.8994
 20
24.8063
 11
21.9445
 21
24.9152
  0
LINE
  8
0
 10
21.9445
 20
24.9152
 11
21.9952
 21
25.0215
  0
LINE
  8
0
 10
21.9952
 20
25.0215
 11
22.0514
 21
25.125
  0
LINE
  8
0
 10
22.0514
 20
25.125
 11
22.113
 21
25.2254
  0
LINE
  8
0
 10
22.113
 20
25.2254
 11
22.1797
 21
25.3225
  0
LINE
  8
0
 10
22.1797
 20
25.3225
 11
22.2514
 21
25.416
  0
LINE
  8
0
 10
22.2514
 20
25.416
 11
22.3279
 21
25.5055
  0
LINE
  8
0
 10
22.3279
 20
25.5055
 11
22.409
 21
25.591
  0
LINE
  8
0
 10
22.409
 20
25.591
 11
22.4945
 21
25.6721
  0
LINE
  8
0
 10
22.4945
 20
25.6721
 11
22.584
 21
25.7486
  0
LINE
  8
0
 10
22.584
 20
25.7486
 11
22.6775
 21
25.8203
  0
LINE
  8
0
 10
22.6775
 20
25.8203
 11
22.7746
 21
25.887
  0
LINE
  8
0
 10
22.7746
 20
25.887
 11
22.875
 21
25.9486
  0
LINE
  8
0
 10
22.875
 20
25.9486
 11
22.9785
 21
26.0048
  0
LINE
  8
0
 10
22.9785
 20
26.0048
 11
23.0848
 21
26.0555
  0
LINE
  8
0
 10
23.0848
 20
26.0555
 11
23.1937
 21
26.1006
  0
LINE
  8
0
 10
23.1937
 20
26.1006
 11
23.3047
 21
26.1399
  0
LINE
  8
0
 10
23.3047
 20
26.1399
 11
23.4177
 21
26.1733
  0
LINE
  8
0
 10
23.4177
 20
26.1733
 11
23.5322
 21
26.2008
  0
LINE
  8
0
 10
23.5322
 20
26.2008
 11
23.648
 21
26.2223
  0
LINE
  8
0
 10
23.648
 20
26.2223
 11
23.7648
 21
26.2377
  0
LINE
  8
0
 10
23.7648
 20
26.2377
 11
23.8822
 21
26.2469
  0
LINE
  8
0
 10
23.8822
 20
26.2469
 11
24
 21
26.25
  0
LINE
  8
0
 10
24
 20
26.25
 11
24.1178
 21
26.2469
  0
LINE
  8
0
 10
24.1178
 20
26.2469
 11
24.2352
 21
26.2377
  0
LINE
  8
0
 10
24.2352
 20
26.2377
 11
24.352
 21
26.2223
  0
LINE
  8
0
 10
24.352
 20
26.2223
 11
24.4678
 21
26.2008
  0
LINE
  8
0
 10
24.4678
 20
26.2008
 11
24.5823
 21
26.1733
  0
LINE
  8
0
 10
24.5823
 20
26.1733
 11
24.6953
 21
26.1399
  0
LINE
  8
0
 10
24.6953
 20
26.1399
 11
24.8063
 21
26.1006
  0
LINE
  8
0
 10
24.8063
 20
26.1006
 11
24.9152
 21
26.0555
  0
LINE
  8
0
 10
24.9152
 20
26.0555
 11
25.0215
 21
26.0048
  0
LINE
  8
0
 10
25.0215
 20
26.0048
 11
25.125
 21
25.9486
  0
LINE
  8
0
 10
25.125
 20
25.9486
 11
25.2254
 21
25.887
  0
LINE
  8
0
 10
25.2254
 20
25.887
 11
25.3225
 21
25.8203
  0
LINE
  8
0
 10
25.3225
 20
25.8203
 11
25.416
 21
25.7486
  0
LINE
  8
0
 10
25.416
 20
25.7486
 11
25.5055
 21
25.6721
  0
LINE
  8
0
 10
25.5055
 20
25.6721
 11
25.591
 21
25.591
  0
LINE
  8
0
 10
25.591
 20
25.591
 11
25.6721
 21
25.5055
  0
LINE
  8
0
 10
25.6721
 20
25.5055
 11
25.7486
 21
25.416
  0
LINE
  8
0
 10
25.7486
 20
25.416
 11
25.8203
 21
25.3225
  0
LINE
  8
0
 10
25.8203
 20
25.3225
 11
25.887
 21
25.2254
  0
LINE
  8
0
 10
25.887
 20
25.2254
 11
25.9486
 21
25.125
  0
LINE
  8
0
 10
25.9486
 20
25.125
 11
26.0048
 21
25.0215
  0
LINE
  8
0
 10
26.0048
 20
25.0215
 11
26.0555
 21
24.9152
  0
LINE
  8
0
 10
26.0555
 20
24.9152
 11
26.1006
 21
24.8063
  0
LINE
  8
0
 10
26.1006
 20
24.8063
 11
26.1399
 21
24.6953
  0
LINE
  8
0
 10
26.1399
 20
24.6953
 11
26.1733
 21
24.5823
  0
LINE
  8
0
 10
26.1733
 20
24.5823
 11
26.2008
 21
24.4678
  0
LINE
  8
0
 10
26.2008
 20
24.4678
 11
26.2223
 21
24.352
  0
LINE
  8
0
 10
26.2223
 20
24.352
 11
26.2377
 21
24.2352
  0
LINE
  8
0
 10
26.2377
 20
24.2352
 11
26.2469
 21
24.1178
  0
LINE
  8
0
 10
26.2469
 20
24.1178
 11
26.25
 21
24
  0
LINE
  8
0
 10
26.25
 20
24
 11
26.2469
 21
23.8822
  0
LINE
  8
0
 10
26.2469
 20
23.8822
 11
26.2377
 21
23.7648
  0
LINE
  8
0
 10
26.2377
 20
23.7648
 11
26.2223
 21
23.648
  0
LINE
  8
0
 10
26.2223
 20
23.648
 11
26.2008
 21
23.5322
  0
LINE
  8
0
 10
26.2008
 20
23.5322
 11
26.1733
 21
23.4177
  0
LINE
  8
0
 10
26.1733
 20
23.4177
 11
26.1399
 21
23.3047
  0
LINE
  8
0
 10
26.1399
 20
23.3047
 11
26.1006
 21
23.1937
  0
LINE
  8
0
 10
26.1006
 20
23.1937
 11
26.0555
 21
23.0848
  0
LINE
  8
0
 10
26.0555
 20
23.0848
 11
26.0048
 21
22.9785
  0
LINE
  8
0
 10
26.0048
 20
22.9785
 11
25.9486
 21
22.875
  0
LINE
  8
0
 10
25.9486
 20
22.875
 11
25.887
 21
22.7746
  0
LINE
  8
0
 10
25.887
 20
22.7746
 11
25.8203
 21
22.6775
  0
LINE
  8
0
 10
25.8203
 20
22.6775
 11
25.7486
 21
22.584
  0
LINE
  8
0
 10
25.7486
 20
22.584
 11
25.6721
 21
22.4945
  0
LINE
  8
0
 10
25.6721
 20
22.4945
 11
25.591
 21
22.409
  0
LINE
  8
0
 10
25.591
 20
22.409
 11
25.5055
 21
22.3279
  0
LINE
  8
0
 10
25.5055
 20
22.3279
 11
25.416
 21
22.2514
  0
LINE
  8
0
 10
25.416
 20
22.2514
 11
25.3225
 21
22.1797
  0
LINE
  8
0
 10
25.3225
 20
22.1797
 11
25.2254
 21
22.113
  0
LINE
  8
0
 10
25.2254
 20
22.113
 11
25.125
 21
22.0514
  0
LINE
  8
0
 10
25.125
 20
22.0514
 11
25.0215
 21
21.9952
  0
LINE
  8
0
 10
25.0215
 20
21.9952
 11
24.9152
 21
21.9445
  0
LINE
  8
0
 10
24.9152
 20
21.9445
 11
24.8063
 21
21.8994
  0
LINE
  8
0
 10
24.8063
 20
21.8994
 11
24.6953
 21
21.8601
  0
LINE
  8
0
 10
24.6953
 20
21.8601
 11
24.5823
 21
21.8267
  0
LINE
  8
0
 10
24.5823
 20
21.8267
 11
24.4678
 21
21.7992
  0
LINE
  8
0
 10
24.4678
 20
21.7992
 11
24.352
 21
21.7777
  0
LINE
  8
0
 10
24.352
 20
21.7777
 11
24.2352
 21
21.7623
  0
LINE
  8
0
 10
24.2352
 20
21.7623
 11
24.1178
 21
21.7531
  0
LINE
  8
0
 10
24.1178
 20
21.7531
 11
24
 21
21.75
  0
LINE
  8
0
 10
24
 20
21.75
 11
23.8822
 21
21.7531
  0
LINE
  8
0
 10
-0.588776
 20
-11.2346
 11
-1.17593
 21
-11.1884
  0
LINE
  8
0
 10
-1.17593
 20
-11.1884
 11
-1.75989
 21
-11.1115
  0
LINE
  8
0
 10
-1.75989
 20
-11.1115
 11
-2.339
 21
-11.0042
  0
LINE
  8
0
 10
-2.339
 20
-11.0042
 11
-2.9117
 21
-10.8667
  0
LINE
  8
0
 10
-2.9117
 20
-10.8667
 11
-3.47643
 21
-10.6994
  0
LINE
  8
0
 10
-3.47643
 20
-10.6994
 11
-4.03163
 21
-10.5028
  0
LINE
  8
0
 10
-4.03163
 20
-10.5028
 11
-4.57578
 21
-10.2774
  0
LINE
  8
0
 10
-4.57578
 20
-10.2774
 11
-5.10738
 21
-10.0238
  0
LINE
  8
0
 10
-5.10738
 20
-10.0238
 11
-5.625
 21
-9.74278
  0
LINE
  8
0
 10
-5.625
 20
-9.74278
 11
-6.12718
 21
-9.43503
  0
LINE
  8
0
 10
-6.12718
 20
-9.43503
 11
-6.61258
 21
-9.10143
  0
LINE
  8
0
 10
-6.61258
 20
-9.10143
 11
-7.07985
 21
-8.74289
  0
LINE
  8
0
 10
-7.07985
 20
-8.74289
 11
-7.52771
 21
-8.36037
  0
LINE
  8
0
 10
-7.52771
 20
-8.36037
 11
-7.95494
 21
-7.95494
  0
LINE
  8
0
 10
-7.95494
 20
-7.95494
 11
-8.36037
 21
-7.52771
  0
LINE
  8
0
 10
-8.36037
 20
-7.52771
 11
-8.74289
 21
-7.07985
  0
LINE
  8
0
 10
-8.74289
 20
-7.07985
 11
-9.10143
 21
-6.61258
  0
LINE
  8
0
 10
-9.10143
 20
-6.61258
 11
-9.43503
 21
-6.12718
  0
LINE
  8
0
 10
-9.43503
 20
-6.12718
 11
-9.74278
 21
-5.625
  0
LINE
  8
0
 10
-9.74278
 20
-5.625
 11
-10.0238
 21
-5.10738
  0
LINE
  8
0
 10
-10.0238
 20
-5.10738
 11
-10.2774
 21
-4.57578
  0
LINE
  8
0
 10
-10.2774
 20
-4.57578
 11
-10.5028
 21
-4.03163
  0
LINE
  8
0
 10
-10.5028
 20
-4.03163
 11
-10.6994
 21
-3.47643
  0
LINE
  8
0
 10
-10.6994
 20
-3.47643
 11
-10.8667
 21
-2.9117
  0
LINE
  8
0
 10
-10.8667
 20
-2.9117
 11
-11.0042
 21
-2.339
  0
LINE
  8
0
 10
-11.0042
 20
-2.339
 11
-11.1115
 21
-1.75989
  0
LINE
  8
0
 10
-11.1115
 20
-1.75989
 11
-11.1884
 21
-1.17593
  0
LINE
  8
0
 10
-11.1884
 20
-1.17593
 11
-11.2346
 21
-0.588776
  0
LINE
  8
0
 10
-11.2346
 20
-0.588776
 11
-11.25
 21
0
  0
LINE
  8
0
 10
-11.25
 20
0
 11
-11.2346
 21
0.588776
  0
LINE
  8
0
 10
-11.2346
 20
0.588776
 11
-11.1884
 21
1.17593
  0
LINE
  8
0
 10
-11.1884
 20
1.17593
 11
-11.1115
 21
1.75989
  0
LINE
  8
0
 10
-11.1115
 20
1.75989
 11
-11.0042
 21
2.339
  0
LINE
  8
0
 10
-11.0042
 20
2.339
 11
-10.8667
 21
2.9117
  0
LINE
  8
0
 10
-10.8667
 20
2.9117
 11
-10.6994
 21
3.47643
  0
LINE
  8
0
 10
-10.6994
 20
3.47643
 11
-10.5028
 21
4.03163
  0
LINE
  8
0
 10
-10.5028
 20
4.03163
 11
-10.2774
 21
4.57578
  0
LINE
  8
0
 10
-10.2774
 20
4.57578
 11
-10.0238
 21
5.10738
  0
LINE
  8
0
 10
-10.0238
 20
5.10738
 11
-9.74278
 21
5.625
  0
LINE
  8
0
 10
-9.74278
 20
5.625
 11
-9.43503
 21
6.12718
  0
LINE
  8
0
 10
-9.43503
 20
6.12718
 11
-9.10143
 21
6.61258
  0
LINE
  8
0
 10
-9.10143
 20
6.61258
 11
-8.74289
 21
7.07985
  0
LINE
  8
0
 10
-8.74289
 20
7.07985
 11
-8.36037
 21
7.52771
  0
LINE
  8
0
 10
-8.36037
 20
7.52771
 11
-7.95494
 21
7.95494
  0
LINE
  8
0
 10
-7.95494
 20
7.95494
 11
-7.52771
 21
8.36037
  0
LINE
  8
0
 10
-7.52771
 20
8.36037
 11
-7.07985
 21
8.74289
  0
LINE
  8
0
 10
-7.07985
 20
8.74289
 11
-6.61258
 21
9.10143
  0
LINE
  8
0
 10
-6.61258
 20
9.10143
 11
-6.12718
 21
9.43503
  0
LINE
  8
0
 10
-6.12718
 20
9.43503
 11
-5.625
 21
9.74278
  0
LINE
  8
0
 10
-5.625
 20
9.74278
 11
-5.10738
 21
10.0238
  0
LINE
  8
0
 10
-5.10738
 20
10.0238
 11
-4.57578
 21
10.2774
  0
LINE
  8
0
 10
-4.57578
 20
10.2774
 11
-4.03163
 21
10.5028
  0
LINE
  8
0
 10
-4.03163
 20
10.5028
 11
-3.47643
 21
10.6994
  0
LINE
  8
0
 10
-3.47643
 20
10.6994
 11
-2.9117
 21
10.8667
  0
LINE
  8
0
 10
-2.9117
 20
10.8667
 11
-2.339
 21
11.0042
  0
LINE
  8
0
 10
-2.339
 20
11.0042
 11
-1.75989
 21
11.1115
  0
LINE
  8
0
 10
-1.75989
 20
11.1115
 11
-1.17593
 21
11.1884
  0
LINE
  8
0
 10
-1.17593
 20
11.1884
 11
-0.588776
 21
11.2346
  0
LINE
  8
0
 10
-0.588776
 20
11.2346
 11
0
 21
11.25
  0
LINE
  8
0
 10
0
 20
11.25
 11
0.588776
 21
11.2346
  0
LINE
  8
0
 10
0.588776
 20
11.2346
 11
1.17593
 21
11.1884
  0
LINE
  8
0
 10
1.17593
 20
11.1884
 11
1.75989
 21
11.1115
  0
LINE
  8
0
 10
1.75989
 20
11.1115
 11
2.339
 21
11.0042
  0
LINE
  8
0
 10
2.339
 20
11.0042
 11
2.9117
 21
10.8667
  0
LINE
  8
0
 10
2.9117
 20
10.8667
 11
3.47643
 21
10.6994
  0
LINE
  8
0
 10
3.47643
 20
10.6994
 11
4.03163
 21
10.5028
  0
LINE
  8
0
 10
4.03163
 20
10.5028
 11
4.57578
 21
10.2774
  0
LINE
  8
0
 10
4.57578
 20
10.2774
 11
5.10738
 21
10.0238
  0
LINE
  8
0
 10
5.10738
 20
10.0238
 11
5.625
 21
9.74278
  0
LINE
  8
0
 10
5.625
 20
9.74278
 11
6.12718
 21
9.43503
  0
LINE
  8
0
 10
6.12718
 20
9.43503
 11
6.61258
 21
9.10143
  0
LINE
  8
0
 10
6.61258
 20
9.10143
 11
7.07985
 21
8.74289
  0
LINE
  8
0
 10
7.07985
 20
8.74289
 11
7.52771
 21
8.36037
  0
LINE
  8
0
 10
7.52771
 20
8.36037
 11
7.95494
 21
7.95494
  0
LINE
  8
0
 10
7.95494
 20
7.95494
 11
8.36037
 21
7.52771
  0
LINE
  8
0
 10
8.36037
 20
7.52771
 11
8.74289
 21
7.07985
  0
LINE
  8
0
 10
8.74289
 20
7.07985
 11
9.10143
 21
6.61258
  0
LINE
  8
0
 10
9.10143
 20
6.61258
 11
9.43503
 21
6.12718
  0
LINE
  8
0
 10
9.43503
 20
6.12718
 11
9.74278
 21
5.625
  0
LINE
  8
0
 10
9.74278
 20
5.625
 11
10.0238
 21
5.10738
  0
LINE
  8
0
 10
10.0238
 20
5.10738
 11
10.2774
 21
4.57578
  0
LINE
  8
0
 10
10.2774
 20
4.57578
 11
10.5028
 21
4.03163
  0
LINE
  8
0
 10
10.5028
 20
4.03163
 11
10.6994
 21
3.47643
  0
LINE
  8
0
 10
10.6994
 20
3.47643
 11
10.8667
 21
2.9117
  0
LINE
  8
0
 10
10.8667
 20
2.9117
 11
11.0042
 21
2.339
  0
LINE
  8
0
 10
11.0042
 20
2.339
 11
11.1115
 21
1.75989
  0
LINE
  8
0
 10
11.1115
 20
1.75989
 11
11.1884
 21
1.17593
  0
LINE
  8
0
 10
11.1884
 20
1.17593
 11
11.2346
 21
0.588776
  0
LINE
  8
0
 10
11.2346
 20
0.588776
 11
11.25
 21
0
  0
LINE
  8
0
 10
11.25
 20
0
 11
11.2346
 21
-0.588776
  0
LINE
  8
0
 10
11.2346
 20
-0.588776
 11
11.1884
 21
-1.17593
  0
LINE
  8
0
 10
11.1884
 20
-1.17593
 11
11.1115
 21
-1.75989
  0
LINE
  8
0
 10
11.1115
 20
-1.75989
 11
11.0042
 21
-2.339
  0
LINE
  8
0
 10
11.0042
 20
-2.339
 11
10.8667
 21
-2.9117
  0
LINE
  8
0
 10
10.8667
 20
-2.9117
 11
10.6994
 21
-3.47643
  0
LINE
  8
0
 10
10.6994
 20
-3.47643
 11
10.5028
 21
-4.03163
  0
LINE
  8
0
 10
10.5028
 20
-4.03163
 11
10.2774
 21
-4.57578
  0
LINE
  8
0
 10
10.2774
 20
-4.57578
 11
10.0238
 21
-5.10738
  0
LINE
  8
0
 10
10.0238
 20
-5.10738
 11
9.74278
 21
-5.625
  0
LINE
  8
0
 10
9.74278
 20
-5.625
 11
9.43503
 21
-6.12718
  0
LINE
  8
0
 10
9.43503
 20
-6.12718
 11
9.10143
 21
-6.61258
  0
LINE
  8
0
 10
9.10143
 20
-6.61258
 11
8.74289
 21
-7.07985
  0
LINE
  8
0
 10
8.74289
 20
-7.07985
 11
8.36037
 21
-7.52771
  0
LINE
  8
0
 10
8.36037
 20
-7.52771
 11
7.95494
 21
-7.95494
  0
LINE
  8
0
 10
7.95494
 20
-7.95494
 11
7.52771
 21
-8.36037
  0
LINE
  8
0
 10
7.52771
 20
-8.36037
 11
7.07985
 21
-8.74289
  0
LINE
  8
0
 10
7.07985
 20
-8.74289
 11
6.61258
 21
-9.10143
  0
LINE
  8
0
 10
6.61258
 20
-9.10143
 11
6.12718
 21
-9.43503
  0
LINE
  8
0
 10
6.12718
 20
-9.43503
 11
5.625
 21
-9.74278
  0
LINE
  8
0
 10
5.625
 20
-9.74278
 11
5.10738
 21
-10.0238
  0
LINE
  8
0
 10
5.10738
 20
-10.0238
 11
4.57578
 21
-10.2774
  0
LINE
  8
0
 10
4.57578
 20
-10.2774
 11
4.03163
 21
-10.5028
  0
LINE
  8
0
 10
4.03163
 20
-10.5028
 11
3.47643
 21
-10.6994
  0
LINE
  8
0
 10
3.47643
 20
-10.6994
 11
2.9117
 21
-10.8667
  0
LINE
  8
0
 10
2.9117
 20
-10.8667
 11
2.339
 21
-11.0042
  0
LINE
  8
0
 10
2.339
 20
-11.0042
 11
1.75989
 21
-11.1115
  0
LINE
  8
0
 10
1.75989
 20
-11.1115
 11
1.17593
 21
-11.1884
  0
LINE
  8
0
 10
1.17593
 20
-11.1884
 11
0.588776
 21
-11.2346
  0
LINE
  8
0
 10
0.588776
 20
-11.2346
 11
0
 21
-11.25
  0
LINE
  8
0
 10
0
 20
-11.25
 11
-0.588776
 21
-11.2346
  0
LINE
  8
0
 10
-24.1178
 20
-26.2469
 11
-24.2352
 21
-26.2377
  0
LINE
  8
0
 10
-24.2352
 20
-26.2377
 11
-24.352
 21
-26.2223
  0
LINE
  8
0
 10
-24.352
 20
-26.2223
 11
-24.4678
 21
-26.2008
  0
LINE
  8
0
 10
-24.4678
 20
-26.2008
 11
-24.5823
 21
-26.1733
  0
LINE
  8
0
 10
-24.5823
 20
-26.1733
 11
-24.6953
 21
-26.1399
  0
LINE
  8
0
 10
-24.6953
 20
-26.1399
 11
-24.8063
 21
-26.1006
  0
LINE
  8
0
 10
-24.8063
 20
-26.1006
 11
-24.9152
 21
-26.0555
  0
LINE
  8
0
 10
-24.9152
 20
-26.0555
 11
-25.0215
 21
-26.0048
  0
LINE
  8
0
 10
-25.0215
 20
-26.0048
 11
-25.125
 21
-25.9486
  0
LINE
  8
0
 10
-25.125
 20
-25.9486
 11
-25.2254
 21
-25.887
  0
LINE
  8
0
 10
-25.2254
 20
-25.887
 11
-25.3225
 21
-25.8203
  0
LINE
  8
0
 10
-25.3225
 20
-25.8203
 11
-25.416
 21
-25.7486
  0
LINE
  8
0
 10
-25.416
 20
-25.7486
 11
-25.5055
 21
-25.6721
  0
LINE
  8
0
 10
-25.5055
 20
-25.6721
 11
-25.591
 21
-25.591
  0
LINE
  8
0
 10
-25.591
 20
-25.591
 11
-25.6721
 21
-25.5055
  0
LINE
  8
0
 10
-25.6721
 20
-25.5055
 11
-25.7486
 21
-25.416
  0
LINE
  8
0
 10
-25.7486
 20
-25.416
 11
-25.8203
 21
-25.3225
  0
LINE
  8
0
 10
-25.8203
 20
-25.3225
 11
-25.887
 21
-25.2254
  0
LINE
  8
0
 10
-25.887
 20
-25.2254
 11
-25.9486
 21
-25.125
  0
LINE
  8
0
 10
-25.9486
 20
-25.125
 11
-26.0048
 21
-25.0215
  0
LINE
  8
0
 10
-26.0048
 20
-25.0215
 11
-26.0555
 21
-24.9152
  0
LINE
  8
0
 10
-26.0555
 20
-24.9152
 11
-26.1006
 21
-24.8063
  0
LINE
  8
0
 10
-26.1006
 20
-24.8063
 11
-26.1399
 21
-24.6953
  0
LINE
  8
0
 10
-26.1399
 20
-24.6953
 11
-26.1733
 21
-24.5823
  0
LINE
  8
0
 10
-26.1733
 20
-24.5823
 11
-26.2008
 21
-24.4678
  0
LINE
  8
0
 10
-26.2008
 20
-24.4678
 11
-26.2223
 21
-24.352
  0
LINE
  8
0
 10
-26.2223
 20
-24.352
 11
-26.2377
 21
-24.2352
  0
LINE
  8
0
 10
-26.2377
 20
-24.2352
 11
-26.2469
 21
-24.1178
  0
LINE
  8
0
 10
-26.2469
 20
-24.1178
 11
-26.25
 21
-24
  0
LINE
  8
0
 10
-26.25
 20
-24
 11
-26.2469
 21
-23.8822
  0
LINE
  8
0
 10
-26.2469
 20
-23.8822
 11
-26.2377
 21
-23.7648
  0
LINE
  8
0
 10
-26.2377
 20
-23.7648
 11
-26.2223
 21
-23.648
  0
LINE
  8
0
 10
-26.2223
 20
-23.648
 11
-26.2008
 21
-23.5322
  0
LINE
  8
0
 10
-26.2008
 20
-23.5322
 11
-26.1733
 21
-23.4177
  0
LINE
  8
0
 10
-26.1733
 20
-23.4177
 11
-26.1399
 21
-23.3047
  0
LINE
  8
0
 10
-26.1399
 20
-23.3047
 11
-26.1006
 21
-23.1937
  0
LINE
  8
0
 10
-26.1006
 20
-23.1937
 11
-26.0555
 21
-23.0848
  0
LINE
  8
0
 10
-26.0555
 20
-23.0848
 11
-26.0048
 21
-22.9785
  0
LINE
  8
0
 10
-26.0048
 20
-22.9785
 11
-25.9486
 21
-22.875
  0
LINE
  8
0
 10
-25.9486
 20
-22.875
 11
-25.887
 21
-22.7746
  0
LINE
  8
0
 10
-25.887
 20
-22.7746
 11
-25.8203
 21
-22.6775
  0
LINE
  8
0
 10
-25.8203
 20
-22.6775
 11
-25.7486
 21
-22.584
  0
LINE
  8
0
 10
-25.7486
 20
-22.584
 11
-25.6721
 21
-22.4945
  0
LINE
  8
0
 10
-25.6721
 20
-22.4945
 11
-25.591
 21
-22.409
  0
LINE
  8
0
 10
-25.591
 20
-22.409
 11
-25.5055
 21
-22.3279
  0
LINE
  8
0
 10
-25.5055
 20
-22.3279
 11
-25.416
 21
-22.2514
  0
LINE
  8
0
 10
-25.416
 20
-22.2514
 11
-25.3225
 21
-22.1797
  0
LINE
  8
0
 10
-25.3225
 20
-22.1797
 11
-25.2254
 21
-22.113
  0
LINE
  8
0
 10
-25.2254
 20
-22.113
 11
-25.125
 21
-22.0514
  0
LINE
  8
0
 10
-25.125
 20
-22.0514
 11
-25.0215
 21
-21.9952
  0
LINE
  8
0
 10
-25.0215
 20
-21.9952
 11
-24.9152
 21
-21.9445
  0
LINE
  8
0
 10
-24.9152
 20
-21.9445
 11
-24.8063
 21
-21.8994
  0
LINE
  8
0
 10
-24.8063
 20
-21.8994
 11
-24.6953
 21
-21.8601
  0
LINE
  8
0
 10
-24.6953
 20
-21.8601
 11
-24.5823
 21
-21.8267
  0
LINE
  8
0
 10
-24.5823
 20
-21.8267
 11
-24.4678
 21
-21.7992
  0
LINE
  8
0
 10
-24.4678
 20
-21.7992
 11
-24.352
 21
-21.7777
  0
LINE
  8
0
 10
-24.352
 20
-21.7777
 11
-24.2352
 21
-21.7623
  0
LINE
  8
0
 10
-24.2352
 20
-21.7623
 11
-24.1178
 21
-21.7531
  0
LINE
  8
0
 10
-24.1178
 20
-21.7531
 11
-24
 21
-21.75
  0
LINE
  8
0
 10
-24
 20
-21.75
 11
-23.8822
 21
-21.7531
  0
LINE
  8
0
 10
-23.8822
 20
-21.7531
 11
-23.7648
 21
-21.7623
  0
LINE
  8
0
 10
-23.7648
 20
-21.7623
 11
-23.648
 21
-21.7777
  0
LINE
  8
0
 10
-23.648
 20
-21.7777
 11
-23.5322
 21
-21.7992
  0
LINE
  8
0
 10
-23.5322
 20
-21.7992
 11
-23.4177
 21
-21.8267
  0
LINE
  8
0
 10
-23.4177
 20
-21.8267
 11
-23.3047
 21
-21.8601
  0
LINE
  8
0
 10
-23.3047
 20
-21.8601
 11
-23.1937
 21
-21.8994
  0
LINE
  8
0
 10
-23.1937
 20
-21.8994
 11
-23.0848
 21
-21.9445
  0
LINE
  8
0
 10
-23.0848
 20
-21.9445
 11
-22.9785
 21
-21.9952
  0
LINE
  8
0
 10
-22.9785
 20
-21.9952
 11
-22.875
 21
-22.0514
  0
LINE
  8
0
 10
-22.875
 20
-22.0514
 11
-22.7746
 21
-22.113
  0
LINE
  8
0
 10
-22.7746
 20
-22.113
 11
-22.6775
 21
-22.1797
  0
LINE
  8
0
 10
-22.6775
 20
-22.1797
 11
-22.584
 21
-22.2514
  0
LINE
  8
0
 10
-22.584
 20
-22.2514
 11
-22.4945
 21
-22.3279
  0
LINE
  8
0
 10
-22.4945
 20
-22.3279
 11
-22.409
 21
-22.409
  0
LINE
  8
0
 10
-22.409
 20
-22.409
 11
-22.3279
 21
-22.4945
  0
LINE
  8
0
 10
-22.3279
 20
-22.4945
 11
-22.2514
 21
-22.584
  0
LINE
  8
0
 10
-22.2514
 20
-22.584
 11
-22.1797
 21
-22.6775
  0
LINE
  8
0
 10
-22.1797
 20
-22.6775
 11
-22.113
 21
-22.7746
  0
LINE
  8
0
 10
-22.113
 20
-22.7746
 11
-22.0514
 21
-22.875
  0
LINE
  8
0
 10
-22.0514
 20
-22.875
 11
-21.9952
 21
-22.9785
  0
LINE
  8
0
 10
-21.9952
 20
-22.9785
 11
-21.9445
 21
-23.0848
  0
LINE
  8
0
 10
-21.9445
 20
-23.0848
 11
-21.8994
 21
-23.1937
  0
LINE
  8
0
 10
-21.8994
 20
-23.1937
 11
-21.8601
 21
-23.3047
  0
LINE
  8
0
 10
-21.8601
 20
-23.3047
 11
-21.8267
 21
-23.4177
  0
LINE
  8
0
 10
-21.8267
 20
-23.4177
 11
-21.7992
 21
-23.5322
  0
LINE
  8
0
 10
-21.7992
 20
-23.5322
 11
-21.7777
 21
-23.648
  0
LINE
  8
0
 10
-21.7777
 20
-23.648
 11
-21.7623
 21
-23.7648
  0
LINE
  8
0
 10
-21.7623
 20
-23.7648
 11
-21.7531
 21
-23.8822
  0
LINE
  8
0
 10
-21.7531
 20
-23.8822
 11
-21.75
 21
-24
  0
LINE
  8
0
 10
-21.75
 20
-24
 11
-21.7531
 21
-24.1178
  0
LINE
  8
0
 10
-21.7531
 20
-24.1178
 11
-21.7623
 21
-24.2352
  0
LINE
  8
0
 10
-21.7623
 20
-24.2352
 11
-21.7777
 21
-24.352
  0
LINE
  8
0
 10
-21.7777
 20
-24.352
 11
-21.7992
 21
-24.4678
  0
LINE
  8
0
 10
-21.7992
 20
-24.4678
 11
-21.8267
 21
-24.5823
  0
LINE
  8
0
 10
-21.8267
 20
-24.5823
 11
-21.8601
 21
-24.6953
  0
LINE
  8
0
 10
-21.8601
 20
-24.6953
 11
-21.8994
 21
-24.8063
  0
LINE
  8
0
 10
-21.8994
 20
-24.8063
 11
-21.9445
 21
-24.9152
  0
LINE
  8
0
 10
-21.9445
 20
-24.9152
 11
-21.9952
 21
-25.0215
  0
LINE
  8
0
 10
-21.9952
 20
-25.0215
 11
-22.0514
 21
-25.125
  0
LINE
  8
0
 10
-22.0514
 20
-25.125
 11
-22.113
 21
-25.2254
  0
LINE
  8
0
 10
-22.113
 20
-25.2254
 11
-22.1797
 21
-25.3225
  0
LINE
  8
0
 10
-22.1797
 20
-25.3225
 11
-22.2514
 21
-25.416
  0
LINE
  8
0
 10
-22.2514
 20
-25.416
 11
-22.3279
 21
-25.5055
  0
LINE
  8
0
 10
-22.3279
 20
-25.5055
 11
-22.409
 21
-25.591
  0
LINE
  8
0
 10
-22.409
 20
-25.591
 11
-22.4945
 21
-25.6721
  0
LINE
  8
0
 10
-22.4945
 20
-25.6721
 11
-22.584
 21
-25.7486
  0
LINE
  8
0
 10
-22.584
 20
-25.7486
 11
-22.6775
 21
-25.8203
  0
LINE
  8
0
 10
-22.6775
 20
-25.8203
 11
-22.7746
 21
-25.887
  0
LINE
  8
0
 10
-22.7746
 20
-25.887
 11
-22.875
 21
-25.9486
  0
LINE
  8
0
 10
-22.875
 20
-25.9486
 11
-22.9785
 21
-26.0048
  0
LINE
  8
0
 10
-22.9785
 20
-26.0048
 11
-23.0848
 21
-26.0555
  0
LINE
  8
0
 10
-23.0848
 20
-26.0555
 11
-23.1937
 21
-26.1006
  0
LINE
  8
0
 10
-23.1937
 20
-26.1006
 11
-23.3047
 21
-26.1399
  0
LINE
  8
0
 10
-23.3047
 20
-26.1399
 11
-23.4177
 21
-26.1733
  0
LINE
  8
0
 10
-23.4177
 20
-26.1733
 11
-23.5322
 21
-26.2008
  0
LINE
  8
0
 10
-23.5322
 20
-26.2008
 11
-23.648
 21
-26.2223
  0
LINE
  8
0
 10
-23.648
 20
-26.2223
 11
-23.7648
 21
-26.2377
  0
LINE
  8
0
 10
-23.7648
 20
-26.2377
 11
-23.8822
 21
-26.2469
  0
LINE
  8
0
 10
-23.8822
 20
-26.2469
 11
-24
 21
-26.25
  0
LINE
  8
0
 10
-24
 20
-26.25
 11
-24.1178
 21
-26.2469
  0
LINE
  8
0
 10
23.8822
 20
-26.2469
 11
23.7648
 21
-26.2377
  0
LINE
  8
0
 10
23.7648
 20
-26.2377
 11
23.648
 21
-26.2223
  0
LINE
  8
0
 10
23.648
 20
-26.2223
 11
23.5322
 21
-26.2008
  0
LINE
  8
0
 10
23.5322
 20
-26.2008
 11
23.4177
 21
-26.1733
  0
LINE
  8
0
 10
23.4177
 20
-26.1733
 11
23.3047
 21
-26.1399
  0
LINE
  8
0
 10
23.3047
 20
-26.1399
 11
23.1937
 21
-26.1006
  0
LINE
  8
0
 10
23.1937
 20
-26.1006
 11
23.0848
 21
-26.0555
  0
LINE
  8
0
 10
23.0848
 20
-26.0555
 11
22.9785
 21
-26.0048
  0
LINE
  8
0
 10
22.9785
 20
-26.0048
 11
22.875
 21
-25.9486
  0
LINE
  8
0
 10
22.875
 20
-25.9486
 11
22.7746
 21
-25.887
  0
LINE
  8
0
 10
22.7746
 20
-25.887
 11
22.6775
 21
-25.8203
  0
LINE
  8
0
 10
22.6775
 20
-25.8203
 11
22.584
 21
-25.7486
  0
LINE
  8
0
 10
22.584
 20
-25.7486
 11
22.4945
 21
-25.6721
  0
LINE
  8
0
 10
22.4945
 20
-25.6721
 11
22.409
 21
-25.591
  0
LINE
  8
0
 10
22.409
 20
-25.591
 11
22.3279
 21
-25.5055
  0
LINE
  8
0
 10
22.3279
 20
-25.5055
 11
22.2514
 21
-25.416
  0
LINE
  8
0
 10
22.2514
 20
-25.416
 11
22.1797
 21
-25.3225
  0
LINE
  8
0
 10
22.1797
 20
-25.3225
 11
22.113
 21
-25.2254
  0
LINE
  8
0
 10
22.113
 20
-25.2254
 11
22.0514
 21
-25.125
  0
LINE
  8
0
 10
22.0514
 20
-25.125
 11
21.9952
 21
-25.0215
  0
LINE
  8
0
 10
21.9952
 20
-25.0215
 11
21.9445
 21
-24.9152
  0
LINE
  8
0
 10
21.9445
 20
-24.9152
 11
21.8994
 21
-24.8063
  0
LINE
  8
0
 10
21.8994
 20
-24.8063
 11
21.8601
 21
-24.6953
  0
LINE
  8
0
 10
21.8601
 20
-24.6953
 11
21.8267
 21
-24.5823
  0
LINE
  8
0
 10
21.8267
 20
-24.5823
 11
21.7992
 21
-24.4678
  0
LINE
  8
0
 10
21.7992
 20
-24.4678
 11
21.7777
 21
-24.352
  0
LINE
  8
0
 10
21.7777
 20
-24.352
 11
21.7623
 21
-24.2352
  0
LINE
  8
0
 10
21.7623
 20
-24.2352
 11
21.7531
 21
-24.1178
  0
LINE
  8
0
 10
21.7531
 20
-24.1178
 11
21.75
 21
-24
  0
LINE
  8
0
 10
21.75
 20
-24
 11
21.7531
 21
-23.8822
  0
LINE
  8
0
 10
21.7531
 20
-23.8822
 11
21.7623
 21
-23.7648
  0
LINE
  8
0
 10
21.7623
 20
-23.7648
 11
21.7777
 21
-23.648
  0
LINE
  8
0
 10
21.7777
 20
-23.648
 11
21.7992
 21
-23.5322
  0
LINE
  8
0
 10
21.7992
 20
-23.5322
 11
21.8267
 21
-23.4177
  0
LINE
  8
0
 10
21.8267
 20
-23.4177
 11
21.8601
 21
-23.3047
  0
LINE
  8
0
 10
21.8601
 20
-23.3047
 11
21.8994
 21
-23.1937
  0
LINE
  8
0
 10
21.8994
 20
-23.1937
 11
21.9445
 21
-23.0848
  0
LINE
  8
0
 10
21.9445
 20
-23.0848
 11
21.9952
 21
-22.9785
  0
LINE
  8
0
 10
21.9952
 20
-22.9785
 11
22.0514
 21
-22.875
  0
LINE
  8
0
 10
22.0514
 20
-22.875
 11
22.113
 21
-22.7746
  0
LINE
  8
0
 10
22.113
 20
-22.7746
 11
22.1797
 21
-22.6775
  0
LINE
  8
0
 10
22.1797
 20
-22.6775
 11
22.2514
 21
-22.584
  0
LINE
  8
0
 10
22.2514
 20
-22.584
 11
22.3279
 21
-22.4945
  0
LINE
  8
0
 10
22.3279
 20
-22.4945
 11
22.409
 21
-22.409
  0
LINE
  8
0
 10
22.409
 20
-22.409
 11
22.4945
 21
-22.3279
  0
LINE
  8
0
 10
22.4945
 20
-22.3279
 11
22.584
 21
-22.2514
  0
LINE
  8
0
 10
22.584
 20
-22.2514
 11
22.6775
 21
-22.1797
  0
LINE
  8
0
 10
22.6775
 20
-22.1797
 11
22.7746
 21
-22.113
  0
LINE
  8
0
 10
22.7746
 20
-22.113
 11
22.875
 21
-22.0514
  0
LINE
  8
0
 10
22.875
 20
-22.0514
 11
22.9785
 21
-21.9952
  0
LINE
  8
0
 10
22.9785
 20
-21.9952
 11
23.0848
 21
-21.9445
  0
LINE
  8
0
 10
23.0848
 20
-21.9445
 11
23.1937
 21
-21.8994
  0
LINE
  8
0
 10
23.1937
 20
-21.8994
 11
23.3047
 21
-21.8601
  0
LINE
  8
0
 10
23.3047
 20
-21.8601
 11
23.4177
 21
-21.8267
  0
LINE
  8
0
 10
23.4177
 20
-21.8267
 11
23.5322
 21
-21.7992
  0
LINE
  8
0
 10
23.5322
 20
-21.7992
 11
23.648
 21
-21.7777
  0
LINE
  8
0
 10
23.648
 20
-21.7777
 11
23.7648
 21
-21.7623
  0
LINE
  8
0
 10
23.7648
 20
-21.7623
 11
23.8822
 21
-21.7531
  0
LINE
  8
0
 10
23.8822
 20
-21.7531
 11
24
 21
-21.75
  0
LINE
  8
0
 10
24
 20
-21.75
 11
24.1178
 21
-21.7531
  0
LINE
  8
0
 10
24.1178
 20
-21.7531
 11
24.2352
 21
-21.7623
  0
LINE
  8
0
 10
24.2352
 20
-21.7623
 11
24.352
 21
-21.7777
  0
LINE
  8
0
 10
24.352
 20
-21.7777
 11
24.4678
 21
-21.7992
  0
LINE
  8
0
 10
24.4678
 20
-21.7992
 11
24.5823
 21
-21.8267
  0
LINE
  8
0
 10
24.5823
 20
-21.8267
 11
24.6953
 21
-21.8601
  0
LINE
  8
0
 10
24.6953
 20
-21.8601
 11
24.8063
 21
-21.8994
  0
LINE
  8
0
 10
24.8063
 20
-21.8994
 11
24.9152
 21
-21.9445
  0
LINE
  8
0
 10
24.9152
 20
-21.9445
 11
25.0215
 21
-21.9952
  0
LINE
  8
0
 10
25.0215
 20
-21.9952
 11
25.125
 21
-22.0514
  0
LINE
  8
0
 10
25.125
 20
-22.0514
 11
25.2254
 21
-22.113
  0
LINE
  8
0
 10
25.2254
 20
-22.113
 11
25.3225
 21
-22.1797
  0
LINE
  8
0
 10
25.3225
 20
-22.1797
 11
25.416
 21
-22.2514
  0
LINE
  8
0
 10
25.416
 20
-22.2514
 11
25.5055
 21
-22.3279
  0
LINE
  8
0
 10
25.5055
 20
-22.3279
 11
25.591
 21
-22.409
  0
LINE
  8
0
 10
25.591
 20
-22.409
 11
25.6721
 21
-22.4945
  0
LINE
  8
0
 10
25.6721
 20
-22.4945
 11
25.7486
 21
-22.584
  0
LINE
  8
0
 10
25.7486
 20
-22.584
 11
25.8203
 21
-22.6775
  0
LINE
  8
0
 10
25.8203
 20
-22.6775
 11
25.887
 21
-22.7746
  0
LINE
  8
0
 10
25.887
 20
-22.7746
 11
25.9486
 21
-22.875
  0
LINE
  8
0
 10
25.9486
 20
-22.875
 11
26.0048
 21
-22.9785
  0
LINE
  8
0
 10
26.0048
 20
-22.9785
 11
26.0555
 21
-23.0848
  0
LINE
  8
0
 10
26.0555
 20
-23.0848
 11
26.1006
 21
-23.1937
  0
LINE
  8
0
 10
26.1006
 20
-23.1937
 11
26.1399
 21
-23.3047
  0
LINE
  8
0
 10
26.1399
 20
-23.3047
 11
26.1733
 21
-23.4177
  0
LINE
  8
0
 10
26.1733
 20
-23.4177
 11
26.2008
 21
-23.5322
  0
LINE
  8
0
 10
26.2008
 20
-23.5322
 11
26.2223
 21
-23.648
  0
LINE
  8
0
 10
26.2223
 20
-23.648
 11
26.2377
 21
-23.7648
  0
LINE
  8
0
 10
26.2377
 20
-23.7648
 11
26.2469
 21
-23.8822
  0
LINE
  8
0
 10
26.2469
 20
-23.8822
 11
26.25
 21
-24
  0
LINE
  8
0
 10
26.25
 20
-24
 11
26.2469
 21
-24.1178
  0
LINE
  8
0
 10
26.2469
 20
-24.1178
 11
26.2377
 21
-24.2352
  0
LINE
  8
0
 10
26.2377
 20
-24.2352
 11
26.2223
 21
-24.352
  0
LINE
  8
0
 10
26.2223
 20
-24.352
 11
26.2008
 21
-24.4678
  0
LINE
  8
0
 10
26.2008
 20
-24.4678
 11
26.1733
 21
-24.5823
  0
LINE
  8
0
 10
26.1733
 20
-24.5823
 11
26.1399
 21
-24.6953
  0
LINE
  8
0
 10
26.1399
 20
-24.6953
 11
26.1006
 21
-24.8063
  0
LINE
  8
0
 10
26.1006
 20
-24.8063
 11
26.0555
 21
-24.9152
  0
LINE
  8
0
 10
26.0555
 20
-24.9152
 11
26.0048
 21
-25.0215
  0
LINE
  8
0
 10
26.0048
 20
-25.0215
 11
25.9486
 21
-25.125
  0
LINE
  8
0
 10
25.9486
 20
-25.125
 11
25.887
 21
-25.2254
  0
LINE
  8
0
 10
25.887
 20
-25.2254
 11
25.8203
 21
-25.3225
  0
LINE
  8
0
 10
25.8203
 20
-25.3225
 11
25.7486
 21
-25.416
  0
LINE
  8
0
 10
25.7486
 20
-25.416
 11
25.6721
 21
-25.5055
  0
LINE
  8
0
 10
25.6721
 20
-25.5055
 11
25.591
 21
-25.591
  0
LINE
  8
0
 10
25.591
 20
-25.591
 11
25.5055
 21
-25.6721
  0
LINE
  8
0
 10
25.5055
 20
-25.6721
 11
25.416
 21
-25.7486
  0
LINE
  8
0
 10
25.416
 20
-25.7486
 11
25.3225
 21
-25.8203
  0
LINE
  8
0
 10
25.3225
 20
-25.8203
 11
25.2254
 21
-25.887
  0
LINE
  8
0
 10
25.2254
 20
-25.887
 11
25.125
 21
-25.9486
  0
LINE
  8
0
 10
25.125
 20
-25.9486
 11
25.0215
 21
-26.0048
  0
LINE
  8
0
 10
25.0215
 20
-26.0048
 11
24.9152
 21
-26.0555
  0
LINE
  8
0
 10
24.9152
 20
-26.0555
 11
24.8063
 21
-26.1006
  0
LINE
  8
0
 10
24.8063
 20
-26.1006
 11
24.6953
 21
-26.1399
  0
LINE
  8
0
 10
24.6953
 20
-26.1399
 11
24.5823
 21
-26.1733
  0
LINE
  8
0
 10
24.5823
 20
-26.1733
 11
24.4678
 21
-26.2008
  0
LINE
  8
0
 10
24.4678
 20
-26.2008
 11
24.352
 21
-26.2223
  0
LINE
  8
0
 10
24.352
 20
-26.2223
 11
24.2352
 21
-26.2377
  0
LINE
  8
0
 10
24.2352
 20
-26.2377
 11
24.1178
 21
-26.2469
  0
LINE
  8
0
 10
24.1178
 20
-26.2469
 11
24
 21
-26.25
  0
LINE
  8
0
 10
24
 20
-26.25
 11
23.8822
 21
-26.2469
  0
ENDSEC
  0
SECTION
  2
OBJECTS
  0
DICTIONARY
  0
ENDSEC
  0
EOF
