  0
SECTION
  2
BLOCKS
  0
ENDSEC
  0
SECTION
  2
ENTITIES
  0
LINE
  8
0
 10
51.314
 20
-16.9918
 11
51.6272
 21
-16.9671
  0
LINE
  8
0
 10
51.6272
 20
-16.9671
 11
51.9386
 21
-16.9261
  0
LINE
  8
0
 10
51.9386
 20
-16.9261
 11
52.2475
 21
-16.8689
  0
LINE
  8
0
 10
52.2475
 20
-16.8689
 11
52.5529
 21
-16.7955
  0
LINE
  8
0
 10
52.5529
 20
-16.7955
 11
52.8541
 21
-16.7063
  0
LINE
  8
0
 10
52.8541
 20
-16.7063
 11
53.1502
 21
-16.6015
  0
LINE
  8
0
 10
53.1502
 20
-16.6015
 11
53.4404
 21
-16.4813
  0
LINE
  8
0
 10
53.4404
 20
-16.4813
 11
53.7239
 21
-16.346
  0
LINE
  8
0
 10
53.7239
 20
-16.346
 11
54
 21
-16.1962
  0
LINE
  8
0
 10
54
 20
-16.1962
 11
54.2678
 21
-16.032
  0
LINE
  8
0
 10
54.2678
 20
-16.032
 11
54.5267
 21
-15.8541
  0
LINE
  8
0
 10
54.5267
 20
-15.8541
 11
54.7759
 21
-15.6629
  0
LINE
  8
0
 10
54.7759
 20
-15.6629
 11
55.0148
 21
-15.4589
  0
LINE
  8
0
 10
55.0148
 20
-15.4589
 11
55.2426
 21
-15.2426
  0
LINE
  8
0
 10
55.2426
 20
-15.2426
 11
55.4589
 21
-15.0148
  0
LINE
  8
0
 10
55.4589
 20
-15.0148
 11
55.6629
 21
-14.7759
  0
LINE
  8
0
 10
55.6629
 20
-14.7759
 11
55.8541
 21
-14.5267
  0
LINE
  8
0
 10
55.8541
 20
-14.5267
 11
56.032
 21
-14.2678
  0
LINE
  8
0
 10
56.032
 20
-14.2678
 11
56.1962
 21
-14
  0
LINE
  8
0
 10
56.1962
 20
-14
 11
56.346
 21
-13.7239
  0
LINE
  8
0
 10
56.346
 20
-13.7239
 11
56.4813
 21
-13.4404
  0
LINE
  8
0
 10
56.4813
 20
-13.4404
 11
56.6015
 21
-13.1502
  0
LINE
  8
0
 10
56.6015
 20
-13.1502
 11
56.7063
 21
-12.8541
  0
LINE
  8
0
 10
56.7063
 20
-12.8541
 11
56.7955
 21
-12.5529
  0
LINE
  8
0
 10
56.7955
 20
-12.5529
 11
56.8689
 21
-12.2475
  0
LINE
  8
0
 10
56.8689
 20
-12.2475
 11
56.9261
 21
-11.9386
  0
LINE
  8
0
 10
56.9261
 20
-11.9386
 11
56.9671
 21
-11.6272
  0
LINE
  8
0
 10
56.9671
 20
-11.6272
 11
56.9918
 21
-11.314
  0
LINE
  8
0
 10
56.9918
 20
-11.314
 11
57
 21
-11
  0
LINE
  8
0
 10
57
 20
-11
 11
57
 21
11
  0
LINE
  8
0
 10
57
 20
11
 11
56.9918
 21
11.314
  0
LINE
  8
0
 10
56.9918
 20
11.314
 11
56.9671
 21
11.6272
  0
LINE
  8
0
 10
56.9671
 20
11.6272
 11
56.9261
 21
11.9386
  0
LINE
  8
0
 10
56.9261
 20
11.9386
 11
56.8689
 21
12.2475
  0
LINE
  8
0
 10
56.8689
 20
12.2475
 11
56.7955
 21
12.5529
  0
LINE
  8
0
 10
56.7955
 20
12.5529
 11
56.7063
 21
12.8541
  0
LINE
  8
0
 10
56.7063
 20
12.8541
 11
56.6015
 21
13.1502
  0
LINE
  8
0
 10
56.6015
 20
13.1502
 11
56.4813
 21
13.4404
  0
LINE
  8
0
 10
56.4813
 20
13.4404
 11
56.346
 21
13.7239
  0
LINE
  8
0
 10
56.346
 20
13.7239
 11
56.1962
 21
14
  0
LINE
  8
0
 10
56.1962
 20
14
 11
56.032
 21
14.2678
  0
LINE
  8
0
 10
56.032
 20
14.2678
 11
55.8541
 21
14.5267
  0
LINE
  8
0
 10
55.8541
 20
14.5267
 11
55.6629
 21
14.7759
  0
LINE
  8
0
 10
55.6629
 20
14.7759
 11
55.4589
 21
15.0148
  0
LINE
  8
0
 10
55.4589
 20
15.0148
 11
55.2426
 21
15.2426
  0
LINE
  8
0
 10
55.2426
 20
15.2426
 11
55.0148
 21
15.4589
  0
LINE
  8
0
 10
55.0148
 20
15.4589
 11
54.7759
 21
15.6629
  0
LINE
  8
0
 10
54.7759
 20
15.6629
 11
54.5267
 21
15.8541
  0
LINE
  8
0
 10
54.5267
 20
15.8541
 11
54.2678
 21
16.032
  0
LINE
  8
0
 10
54.2678
 20
16.032
 11
54
 21
16.1962
  0
LINE
  8
0
 10
54
 20
16.1962
 11
53.7239
 21
16.346
  0
LINE
  8
0
 10
53.7239
 20
16.346
 11
53.4404
 21
16.4813
  0
LINE
  8
0
 10
53.4404
 20
16.4813
 11
53.1502
 21
16.6015
  0
LINE
  8
0
 10
53.1502
 20
16.6015
 11
52.8541
 21
16.7063
  0
LINE
  8
0
 10
52.8541
 20
16.7063
 11
52.5529
 21
16.7955
  0
LINE
  8
0
 10
52.5529
 20
16.7955
 11
52.2475
 21
16.8689
  0
LINE
  8
0
 10
52.2475
 20
16.8689
 11
51.9386
 21
16.9261
  0
LINE
  8
0
 10
51.9386
 20
16.9261
 11
51.6272
 21
16.9671
  0
LINE
  8
0
 10
51.6272
 20
16.9671
 11
51.314
 21
16.9918
  0
LINE
  8
0
 10
51.314
 20
16.9918
 11
51
 21
17
  0
LINE
  8
0
 10
51
 20
17
 11
-51
 21
17
  0
LINE
  8
0
 10
-51
 20
17
 11
-51.314
 21
16.9918
  0
LINE
  8
0
 10
-51.314
 20
16.9918
 11
-51.6272
 21
16.9671
  0
LINE
  8
0
 10
-51.6272
 20
16.9671
 11
-51.9386
 21
16.9261
  0
LINE
  8
0
 10
-51.9386
 20
16.9261
 11
-52.2475
 21
16.8689
  0
LINE
  8
0
 10
-52.2475
 20
16.8689
 11
-52.5529
 21
16.7955
  0
LINE
  8
0
 10
-52.5529
 20
16.7955
 11
-52.8541
 21
16.7063
  0
LINE
  8
0
 10
-52.8541
 20
16.7063
 11
-53.1502
 21
16.6015
  0
LINE
  8
0
 10
-53.1502
 20
16.6015
 11
-53.4404
 21
16.4813
  0
LINE
  8
0
 10
-53.4404
 20
16.4813
 11
-53.7239
 21
16.346
  0
LINE
  8
0
 10
-53.7239
 20
16.346
 11
-54
 21
16.1962
  0
LINE
  8
0
 10
-54
 20
16.1962
 11
-54.2678
 21
16.032
  0
LINE
  8
0
 10
-54.2678
 20
16.032
 11
-54.5267
 21
15.8541
  0
LINE
  8
0
 10
-54.5267
 20
15.8541
 11
-54.7759
 21
15.6629
  0
LINE
  8
0
 10
-54.7759
 20
15.6629
 11
-55.0148
 21
15.4589
  0
LINE
  8
0
 10
-55.0148
 20
15.4589
 11
-55.2426
 21
15.2426
  0
LINE
  8
0
 10
-55.2426
 20
15.2426
 11
-55.4589
 21
15.0148
  0
LINE
  8
0
 10
-55.4589
 20
15.0148
 11
-55.6629
 21
14.7759
  0
LINE
  8
0
 10
-55.6629
 20
14.7759
 11
-55.8541
 21
14.5267
  0
LINE
  8
0
 10
-55.8541
 20
14.5267
 11
-56.032
 21
14.2678
  0
LINE
  8
0
 10
-56.032
 20
14.2678
 11
-56.1962
 21
14
  0
LINE
  8
0
 10
-56.1962
 20
14
 11
-56.346
 21
13.7239
  0
LINE
  8
0
 10
-56.346
 20
13.7239
 11
-56.4813
 21
13.4404
  0
LINE
  8
0
 10
-56.4813
 20
13.4404
 11
-56.6015
 21
13.1502
  0
LINE
  8
0
 10
-56.6015
 20
13.1502
 11
-56.7063
 21
12.8541
  0
LINE
  8
0
 10
-56.7063
 20
12.8541
 11
-56.7955
 21
12.5529
  0
LINE
  8
0
 10
-56.7955
 20
12.5529
 11
-56.8689
 21
12.2475
  0
LINE
  8
0
 10
-56.8689
 20
12.2475
 11
-56.9261
 21
11.9386
  0
LINE
  8
0
 10
-56.9261
 20
11.9386
 11
-56.9671
 21
11.6272
  0
LINE
  8
0
 10
-56.9671
 20
11.6272
 11
-56.9918
 21
11.314
  0
LINE
  8
0
 10
-56.9918
 20
11.314
 11
-57
 21
11
  0
LINE
  8
0
 10
-57
 20
11
 11
-57
 21
-11
  0
LINE
  8
0
 10
-57
 20
-11
 11
-56.9918
 21
-11.314
  0
LINE
  8
0
 10
-56.9918
 20
-11.314
 11
-56.9671
 21
-11.6272
  0
LINE
  8
0
 10
-56.9671
 20
-11.6272
 11
-56.9261
 21
-11.9386
  0
LINE
  8
0
 10
-56.9261
 20
-11.9386
 11
-56.8689
 21
-12.2475
  0
LINE
  8
0
 10
-56.8689
 20
-12.2475
 11
-56.7955
 21
-12.5529
  0
LINE
  8
0
 10
-56.7955
 20
-12.5529
 11
-56.7063
 21
-12.8541
  0
LINE
  8
0
 10
-56.7063
 20
-12.8541
 11
-56.6015
 21
-13.1502
  0
LINE
  8
0
 10
-56.6015
 20
-13.1502
 11
-56.4813
 21
-13.4404
  0
LINE
  8
0
 10
-56.4813
 20
-13.4404
 11
-56.346
 21
-13.7239
  0
LINE
  8
0
 10
-56.346
 20
-13.7239
 11
-56.1962
 21
-14
  0
LINE
  8
0
 10
-56.1962
 20
-14
 11
-56.032
 21
-14.2678
  0
LINE
  8
0
 10
-56.032
 20
-14.2678
 11
-55.8541
 21
-14.5267
  0
LINE
  8
0
 10
-55.8541
 20
-14.5267
 11
-55.6629
 21
-14.7759
  0
LINE
  8
0
 10
-55.6629
 20
-14.7759
 11
-55.4589
 21
-15.0148
  0
LINE
  8
0
 10
-55.4589
 20
-15.0148
 11
-55.2426
 21
-15.2426
  0
LINE
  8
0
 10
-55.2426
 20
-15.2426
 11
-55.0148
 21
-15.4589
  0
LINE
  8
0
 10
-55.0148
 20
-15.4589
 11
-54.7759
 21
-15.6629
  0
LINE
  8
0
 10
-54.7759
 20
-15.6629
 11
-54.5267
 21
-15.8541
  0
LINE
  8
0
 10
-54.5267
 20
-15.8541
 11
-54.2678
 21
-16.032
  0
LINE
  8
0
 10
-54.2678
 20
-16.032
 11
-54
 21
-16.1962
  0
LINE
  8
0
 10
-54
 20
-16.1962
 11
-53.7239
 21
-16.346
  0
LINE
  8
0
 10
-53.7239
 20
-16.346
 11
-53.4404
 21
-16.4813
  0
LINE
  8
0
 10
-53.4404
 20
-16.4813
 11
-53.1502
 21
-16.6015
  0
LINE
  8
0
 10
-53.1502
 20
-16.6015
 11
-52.8541
 21
-16.7063
  0
LINE
  8
0
 10
-52.8541
 20
-16.7063
 11
-52.5529
 21
-16.7955
  0
LINE
  8
0
 10
-52.5529
 20
-16.7955
 11
-52.2475
 21
-16.8689
  0
LINE
  8
0
 10
-52.2475
 20
-16.8689
 11
-51.9386
 21
-16.9261
  0
LINE
  8
0
 10
-51.9386
 20
-16.9261
 11
-51.6272
 21
-16.9671
  0
LINE
  8
0
 10
-51.6272
 20
-16.9671
 11
-51.314
 21
-16.9918
  0
LINE
  8
0
 10
-51.314
 20
-16.9918
 11
-51
 21
-17
  0
LINE
  8
0
 10
-51
 20
-17
 11
51
 21
-17
  0
LINE
  8
0
 10
51
 20
-17
 11
51.314
 21
-16.9918
  0
LINE
  8
0
 10
-52.089
 20
-1.69766
 11
-52.1777
 21
-1.69069
  0
LINE
  8
0
 10
-52.1777
 20
-1.69069
 11
-52.2659
 21
-1.67906
  0
LINE
  8
0
 10
-52.2659
 20
-1.67906
 11
-52.3535
 21
-1.66284
  0
LINE
  8
0
 10
-52.3535
 20
-1.66284
 11
-52.44
 21
-1.64206
  0
LINE
  8
0
 10
-52.44
 20
-1.64206
 11
-52.5253
 21
-1.61679
  0
LINE
  8
0
 10
-52.5253
 20
-1.61679
 11
-52.6092
 21
-1.58708
  0
LINE
  8
0
 10
-52.6092
 20
-1.58708
 11
-52.6915
 21
-1.55302
  0
LINE
  8
0
 10
-52.6915
 20
-1.55302
 11
-52.7718
 21
-1.51471
  0
LINE
  8
0
 10
-52.7718
 20
-1.51471
 11
-52.85
 21
-1.47223
  0
LINE
  8
0
 10
-52.85
 20
-1.47223
 11
-52.9259
 21
-1.42574
  0
LINE
  8
0
 10
-52.9259
 20
-1.42574
 11
-52.9992
 21
-1.37532
  0
LINE
  8
0
 10
-52.9992
 20
-1.37532
 11
-53.0698
 21
-1.32114
  0
LINE
  8
0
 10
-53.0698
 20
-1.32114
 11
-53.1375
 21
-1.26334
  0
LINE
  8
0
 10
-53.1375
 20
-1.26334
 11
-53.2021
 21
-1.20207
  0
LINE
  8
0
 10
-53.2021
 20
-1.20207
 11
-53.2633
 21
-1.13751
  0
LINE
  8
0
 10
-53.2633
 20
-1.13751
 11
-53.3211
 21
-1.06984
  0
LINE
  8
0
 10
-53.3211
 20
-1.06984
 11
-53.3753
 21
-0.999222
  0
LINE
  8
0
 10
-53.3753
 20
-0.999222
 11
-53.4257
 21
-0.925873
  0
LINE
  8
0
 10
-53.4257
 20
-0.925873
 11
-53.4722
 21
-0.849991
  0
LINE
  8
0
 10
-53.4722
 20
-0.849991
 11
-53.5147
 21
-0.771774
  0
LINE
  8
0
 10
-53.5147
 20
-0.771774
 11
-53.553
 21
-0.691437
  0
LINE
  8
0
 10
-53.553
 20
-0.691437
 11
-53.5871
 21
-0.609222
  0
LINE
  8
0
 10
-53.5871
 20
-0.609222
 11
-53.6168
 21
-0.525314
  0
LINE
  8
0
 10
-53.6168
 20
-0.525314
 11
-53.6421
 21
-0.439987
  0
LINE
  8
0
 10
-53.6421
 20
-0.439987
 11
-53.6628
 21
-0.353439
  0
LINE
  8
0
 10
-53.6628
 20
-0.353439
 11
-53.6791
 21
-0.26593
  0
LINE
  8
0
 10
-53.6791
 20
-0.26593
 11
-53.6907
 21
-0.177689
  0
LINE
  8
0
 10
-53.6907
 20
-0.177689
 11
-53.6977
 21
-0.0889587
  0
LINE
  8
0
 10
-53.6977
 20
-0.0889587
 11
-53.7
 21
0
  0
LINE
  8
0
 10
-53.7
 20
0
 11
-53.6977
 21
0.0889587
  0
LINE
  8
0
 10
-53.6977
 20
0.0889587
 11
-53.6907
 21
0.177689
  0
LINE
  8
0
 10
-53.6907
 20
0.177689
 11
-53.6791
 21
0.26593
  0
LINE
  8
0
 10
-53.6791
 20
0.26593
 11
-53.6628
 21
0.353439
  0
LINE
  8
0
 10
-53.6628
 20
0.353439
 11
-53.6421
 21
0.439987
  0
LINE
  8
0
 10
-53.6421
 20
0.439987
 11
-53.6168
 21
0.525314
  0
LINE
  8
0
 10
-53.6168
 20
0.525314
 11
-53.5871
 21
0.609222
  0
LINE
  8
0
 10
-53.5871
 20
0.609222
 11
-53.553
 21
0.691437
  0
LINE
  8
0
 10
-53.553
 20
0.691437
 11
-53.5147
 21
0.771774
  0
LINE
  8
0
 10
-53.5147
 20
0.771774
 11
-53.4722
 21
0.849991
  0
LINE
  8
0
 10
-53.4722
 20
0.849991
 11
-53.4257
 21
0.925873
  0
LINE
  8
0
 10
-53.4257
 20
0.925873
 11
-53.3753
 21
0.999222
  0
LINE
  8
0
 10
-53.3753
 20
0.999222
 11
-53.3211
 21
1.06984
  0
LINE
  8
0
 10
-53.3211
 20
1.06984
 11
-53.2633
 21
1.13751
  0
LINE
  8
0
 10
-53.2633
 20
1.13751
 11
-53.2021
 21
1.20207
  0
LINE
  8
0
 10
-53.2021
 20
1.20207
 11
-53.1375
 21
1.26334
  0
LINE
  8
0
 10
-53.1375
 20
1.26334
 11
-53.0698
 21
1.32114
  0
LINE
  8
0
 10
-53.0698
 20
1.32114
 11
-52.9992
 21
1.37532
  0
LINE
  8
0
 10
-52.9992
 20
1.37532
 11
-52.9259
 21
1.42574
  0
LINE
  8
0
 10
-52.9259
 20
1.42574
 11
-52.85
 21
1.47223
  0
LINE
  8
0
 10
-52.85
 20
1.47223
 11
-52.7718
 21
1.51471
  0
LINE
  8
0
 10
-52.7718
 20
1.51471
 11
-52.6915
 21
1.55302
  0
LINE
  8
0
 10
-52.6915
 20
1.55302
 11
-52.6092
 21
1.58708
  0
LINE
  8
0
 10
-52.6092
 20
1.58708
 11
-52.5253
 21
1.61679
  0
LINE
  8
0
 10
-52.5253
 20
1.61679
 11
-52.44
 21
1.64206
  0
LINE
  8
0
 10
-52.44
 20
1.64206
 11
-52.3535
 21
1.66284
  0
LINE
  8
0
 10
-52.3535
 20
1.66284
 11
-52.2659
 21
1.67906
  0
LINE
  8
0
 10
-52.2659
 20
1.67906
 11
-52.1777
 21
1.69069
  0
LINE
  8
0
 10
-52.1777
 20
1.69069
 11
-52.089
 21
1.69766
  0
LINE
  8
0
 10
-52.089
 20
1.69766
 11
-52
 21
1.7
  0
LINE
  8
0
 10
-52
 20
1.7
 11
-51.911
 21
1.69766
  0
LINE
  8
0
 10
-51.911
 20
1.69766
 11
-51.8223
 21
1.69069
  0
LINE
  8
0
 10
-51.8223
 20
1.69069
 11
-51.7341
 21
1.67906
  0
LINE
  8
0
 10
-51.7341
 20
1.67906
 11
-51.6465
 21
1.66284
  0
LINE
  8
0
 10
-51.6465
 20
1.66284
 11
-51.56
 21
1.64206
  0
LINE
  8
0
 10
-51.56
 20
1.64206
 11
-51.4747
 21
1.61679
  0
LINE
  8
0
 10
-51.4747
 20
1.61679
 11
-51.3908
 21
1.58708
  0
LINE
  8
0
 10
-51.3908
 20
1.58708
 11
-51.3085
 21
1.55302
  0
LINE
  8
0
 10
-51.3085
 20
1.55302
 11
-51.2282
 21
1.51471
  0
LINE
  8
0
 10
-51.2282
 20
1.51471
 11
-51.15
 21
1.47223
  0
LINE
  8
0
 10
-51.15
 20
1.47223
 11
-51.0741
 21
1.42574
  0
LINE
  8
0
 10
-51.0741
 20
1.42574
 11
-51.0008
 21
1.37532
  0
LINE
  8
0
 10
-51.0008
 20
1.37532
 11
-50.9302
 21
1.32114
  0
LINE
  8
0
 10
-50.9302
 20
1.32114
 11
-50.8625
 21
1.26334
  0
LINE
  8
0
 10
-50.8625
 20
1.26334
 11
-50.7979
 21
1.20207
  0
LINE
  8
0
 10
-50.7979
 20
1.20207
 11
-50.7367
 21
1.13751
  0
LINE
  8
0
 10
-50.7367
 20
1.13751
 11
-50.6789
 21
1.06984
  0
LINE
  8
0
 10
-50.6789
 20
1.06984
 11
-50.6247
 21
0.999222
  0
LINE
  8
0
 10
-50.6247
 20
0.999222
 11
-50.5743
 21
0.925873
  0
LINE
  8
0
 10
-50.5743
 20
0.925873
 11
-50.5278
 21
0.849991
  0
LINE
  8
0
 10
-50.5278
 20
0.849991
 11
-50.4853
 21
0.771774
  0
LINE
  8
0
 10
-50.4853
 20
0.771774
 11
-50.447
 21
0.691437
  0
LINE
  8
0
 10
-50.447
 20
0.691437
 11
-50.4129
 21
0.609222
  0
LINE
  8
0
 10
-50.4129
 20
0.609222
 11
-50.3832
 21
0.525314
  0
LINE
  8
0
 10
-50.3832
 20
0.525314
 11
-50.3579
 21
0.439987
  0
LINE
  8
0
 10
-50.3579
 20
0.439987
 11
-50.3372
 21
0.353439
  0
LINE
  8
0
 10
-50.3372
 20
0.353439
 11
-50.3209
 21
0.26593
  0
LINE
  8
0
 10
-50.3209
 20
0.26593
 11
-50.3093
 21
0.177689
  0
LINE
  8
0
 10
-50.3093
 20
0.177689
 11
-50.3023
 21
0.0889587
  0
LINE
  8
0
 10
-50.3023
 20
0.0889587
 11
-50.3
 21
0
  0
LINE
  8
0
 10
-50.3
 20
0
 11
-50.3023
 21
-0.0889587
  0
LINE
  8
0
 10
-50.3023
 20
-0.0889587
 11
-50.3093
 21
-0.177689
  0
LINE
  8
0
 10
-50.3093
 20
-0.177689
 11
-50.3209
 21
-0.26593
  0
LINE
  8
0
 10
-50.3209
 20
-0.26593
 11
-50.3372
 21
-0.353439
  0
LINE
  8
0
 10
-50.3372
 20
-0.353439
 11
-50.3579
 21
-0.439987
  0
LINE
  8
0
 10
-50.3579
 20
-0.439987
 11
-50.3832
 21
-0.525314
  0
LINE
  8
0
 10
-50.3832
 20
-0.525314
 11
-50.4129
 21
-0.609222
  0
LINE
  8
0
 10
-50.4129
 20
-0.609222
 11
-50.447
 21
-0.691437
  0
LINE
  8
0
 10
-50.447
 20
-0.691437
 11
-50.4853
 21
-0.771774
  0
LINE
  8
0
 10
-50.4853
 20
-0.771774
 11
-50.5278
 21
-0.849991
  0
LINE
  8
0
 10
-50.5278
 20
-0.849991
 11
-50.5743
 21
-0.925873
  0
LINE
  8
0
 10
-50.5743
 20
-0.925873
 11
-50.6247
 21
-0.999222
  0
LINE
  8
0
 10
-50.6247
 20
-0.999222
 11
-50.6789
 21
-1.06984
  0
LINE
  8
0
 10
-50.6789
 20
-1.06984
 11
-50.7367
 21
-1.13751
  0
LINE
  8
0
 10
-50.7367
 20
-1.13751
 11
-50.7979
 21
-1.20207
  0
LINE
  8
0
 10
-50.7979
 20
-1.20207
 11
-50.8625
 21
-1.26334
  0
LINE
  8
0
 10
-50.8625
 20
-1.26334
 11
-50.9302
 21
-1.32114
  0
LINE
  8
0
 10
-50.9302
 20
-1.32114
 11
-51.0008
 21
-1.37532
  0
LINE
  8
0
 10
-51.0008
 20
-1.37532
 11
-51.0741
 21
-1.42574
  0
LINE
  8
0
 10
-51.0741
 20
-1.42574
 11
-51.15
 21
-1.47223
  0
LINE
  8
0
 10
-51.15
 20
-1.47223
 11
-51.2282
 21
-1.51471
  0
LINE
  8
0
 10
-51.2282
 20
-1.51471
 11
-51.3085
 21
-1.55302
  0
LINE
  8
0
 10
-51.3085
 20
-1.55302
 11
-51.3908
 21
-1.58708
  0
LINE
  8
0
 10
-51.3908
 20
-1.58708
 11
-51.4747
 21
-1.61679
  0
LINE
  8
0
 10
-51.4747
 20
-1.61679
 11
-51.56
 21
-1.64206
  0
LINE
  8
0
 10
-51.56
 20
-1.64206
 11
-51.6465
 21
-1.66284
  0
LINE
  8
0
 10
-51.6465
 20
-1.66284
 11
-51.7341
 21
-1.67906
  0
LINE
  8
0
 10
-51.7341
 20
-1.67906
 11
-51.8223
 21
-1.69069
  0
LINE
  8
0
 10
-51.8223
 20
-1.69069
 11
-51.911
 21
-1.69766
  0
LINE
  8
0
 10
-51.911
 20
-1.69766
 11
-52
 21
-1.7
  0
LINE
  8
0
 10
-52
 20
-1.7
 11
-52.089
 21
-1.69766
  0
LINE
  8
0
 10
51.911
 20
-1.69766
 11
51.8223
 21
-1.69069
  0
LINE
  8
0
 10
51.8223
 20
-1.69069
 11
51.7341
 21
-1.67906
  0
LINE
  8
0
 10
51.7341
 20
-1.67906
 11
51.6465
 21
-1.66284
  0
LINE
  8
0
 10
51.6465
 20
-1.66284
 11
51.56
 21
-1.64206
  0
LINE
  8
0
 10
51.56
 20
-1.64206
 11
51.4747
 21
-1.61679
  0
LINE
  8
0
 10
51.4747
 20
-1.61679
 11
51.3908
 21
-1.58708
  0
LINE
  8
0
 10
51.3908
 20
-1.58708
 11
51.3085
 21
-1.55302
  0
LINE
  8
0
 10
51.3085
 20
-1.55302
 11
51.2282
 21
-1.51471
  0
LINE
  8
0
 10
51.2282
 20
-1.51471
 11
51.15
 21
-1.47223
  0
LINE
  8
0
 10
51.15
 20
-1.47223
 11
51.0741
 21
-1.42574
  0
LINE
  8
0
 10
51.0741
 20
-1.42574
 11
51.0008
 21
-1.37532
  0
LINE
  8
0
 10
51.0008
 20
-1.37532
 11
50.9302
 21
-1.32114
  0
LINE
  8
0
 10
50.9302
 20
-1.32114
 11
50.8625
 21
-1.26334
  0
LINE
  8
0
 10
50.8625
 20
-1.26334
 11
50.7979
 21
-1.20207
  0
LINE
  8
0
 10
50.7979
 20
-1.20207
 11
50.7367
 21
-1.13751
  0
LINE
  8
0
 10
50.7367
 20
-1.13751
 11
50.6789
 21
-1.06984
  0
LINE
  8
0
 10
50.6789
 20
-1.06984
 11
50.6247
 21
-0.999222
  0
LINE
  8
0
 10
50.6247
 20
-0.999222
 11
50.5743
 21
-0.925873
  0
LINE
  8
0
 10
50.5743
 20
-0.925873
 11
50.5278
 21
-0.849991
  0
LINE
  8
0
 10
50.5278
 20
-0.849991
 11
50.4853
 21
-0.771774
  0
LINE
  8
0
 10
50.4853
 20
-0.771774
 11
50.447
 21
-0.691437
  0
LINE
  8
0
 10
50.447
 20
-0.691437
 11
50.4129
 21
-0.609222
  0
LINE
  8
0
 10
50.4129
 20
-0.609222
 11
50.3832
 21
-0.525314
  0
LINE
  8
0
 10
50.3832
 20
-0.525314
 11
50.3579
 21
-0.439987
  0
LINE
  8
0
 10
50.3579
 20
-0.439987
 11
50.3372
 21
-0.353439
  0
LINE
  8
0
 10
50.3372
 20
-0.353439
 11
50.3209
 21
-0.26593
  0
LINE
  8
0
 10
50.3209
 20
-0.26593
 11
50.3093
 21
-0.177689
  0
LINE
  8
0
 10
50.3093
 20
-0.177689
 11
50.3023
 21
-0.0889587
  0
LINE
  8
0
 10
50.3023
 20
-0.0889587
 11
50.3
 21
0
  0
LINE
  8
0
 10
50.3
 20
0
 11
50.3023
 21
0.0889587
  0
LINE
  8
0
 10
50.3023
 20
0.0889587
 11
50.3093
 21
0.177689
  0
LINE
  8
0
 10
50.3093
 20
0.177689
 11
50.3209
 21
0.26593
  0
LINE
  8
0
 10
50.3209
 20
0.26593
 11
50.3372
 21
0.353439
  0
LINE
  8
0
 10
50.3372
 20
0.353439
 11
50.3579
 21
0.439987
  0
LINE
  8
0
 10
50.3579
 20
0.439987
 11
50.3832
 21
0.525314
  0
LINE
  8
0
 10
50.3832
 20
0.525314
 11
50.4129
 21
0.609222
  0
LINE
  8
0
 10
50.4129
 20
0.609222
 11
50.447
 21
0.691437
  0
LINE
  8
0
 10
50.447
 20
0.691437
 11
50.4853
 21
0.771774
  0
LINE
  8
0
 10
50.4853
 20
0.771774
 11
50.5278
 21
0.849991
  0
LINE
  8
0
 10
50.5278
 20
0.849991
 11
50.5743
 21
0.925873
  0
LINE
  8
0
 10
50.5743
 20
0.925873
 11
50.6247
 21
0.999222
  0
LINE
  8
0
 10
50.6247
 20
0.999222
 11
50.6789
 21
1.06984
  0
LINE
  8
0
 10
50.6789
 20
1.06984
 11
50.7367
 21
1.13751
  0
LINE
  8
0
 10
50.7367
 20
1.13751
 11
50.7979
 21
1.20207
  0
LINE
  8
0
 10
50.7979
 20
1.20207
 11
50.8625
 21
1.26334
  0
LINE
  8
0
 10
50.8625
 20
1.26334
 11
50.9302
 21
1.32114
  0
LINE
  8
0
 10
50.9302
 20
1.32114
 11
51.0008
 21
1.37532
  0
LINE
  8
0
 10
51.0008
 20
1.37532
 11
51.0741
 21
1.42574
  0
LINE
  8
0
 10
51.0741
 20
1.42574
 11
51.15
 21
1.47223
  0
LINE
  8
0
 10
51.15
 20
1.47223
 11
51.2282
 21
1.51471
  0
LINE
  8
0
 10
51.2282
 20
1.51471
 11
51.3085
 21
1.55302
  0
LINE
  8
0
 10
51.3085
 20
1.55302
 11
51.3908
 21
1.58708
  0
LINE
  8
0
 10
51.3908
 20
1.58708
 11
51.4747
 21
1.61679
  0
LINE
  8
0
 10
51.4747
 20
1.61679
 11
51.56
 21
1.64206
  0
LINE
  8
0
 10
51.56
 20
1.64206
 11
51.6465
 21
1.66284
  0
LINE
  8
0
 10
51.6465
 20
1.66284
 11
51.7341
 21
1.67906
  0
LINE
  8
0
 10
51.7341
 20
1.67906
 11
51.8223
 21
1.69069
  0
LINE
  8
0
 10
51.8223
 20
1.69069
 11
51.911
 21
1.69766
  0
LINE
  8
0
 10
51.911
 20
1.69766
 11
52
 21
1.7
  0
LINE
  8
0
 10
52
 20
1.7
 11
52.089
 21
1.69766
  0
LINE
  8
0
 10
52.089
 20
1.69766
 11
52.1777
 21
1.69069
  0
LINE
  8
0
 10
52.1777
 20
1.69069
 11
52.2659
 21
1.67906
  0
LINE
  8
0
 10
52.2659
 20
1.67906
 11
52.3535
 21
1.66284
  0
LINE
  8
0
 10
52.3535
 20
1.66284
 11
52.44
 21
1.64206
  0
LINE
  8
0
 10
52.44
 20
1.64206
 11
52.5253
 21
1.61679
  0
LINE
  8
0
 10
52.5253
 20
1.61679
 11
52.6092
 21
1.58708
  0
LINE
  8
0
 10
52.6092
 20
1.58708
 11
52.6915
 21
1.55302
  0
LINE
  8
0
 10
52.6915
 20
1.55302
 11
52.7718
 21
1.51471
  0
LINE
  8
0
 10
52.7718
 20
1.51471
 11
52.85
 21
1.47223
  0
LINE
  8
0
 10
52.85
 20
1.47223
 11
52.9259
 21
1.42574
  0
LINE
  8
0
 10
52.9259
 20
1.42574
 11
52.9992
 21
1.37532
  0
LINE
  8
0
 10
52.9992
 20
1.37532
 11
53.0698
 21
1.32114
  0
LINE
  8
0
 10
53.0698
 20
1.32114
 11
53.1375
 21
1.26334
  0
LINE
  8
0
 10
53.1375
 20
1.26334
 11
53.2021
 21
1.20207
  0
LINE
  8
0
 10
53.2021
 20
1.20207
 11
53.2633
 21
1.13751
  0
LINE
  8
0
 10
53.2633
 20
1.13751
 11
53.3211
 21
1.06984
  0
LINE
  8
0
 10
53.3211
 20
1.06984
 11
53.3753
 21
0.999222
  0
LINE
  8
0
 10
53.3753
 20
0.999222
 11
53.4257
 21
0.925873
  0
LINE
  8
0
 10
53.4257
 20
0.925873
 11
53.4722
 21
0.849991
  0
LINE
  8
0
 10
53.4722
 20
0.849991
 11
53.5147
 21
0.771774
  0
LINE
  8
0
 10
53.5147
 20
0.771774
 11
53.553
 21
0.691437
  0
LINE
  8
0
 10
53.553
 20
0.691437
 11
53.5871
 21
0.609222
  0
LINE
  8
0
 10
53.5871
 20
0.609222
 11
53.6168
 21
0.525314
  0
LINE
  8
0
 10
53.6168
 20
0.525314
 11
53.6421
 21
0.439987
  0
LINE
  8
0
 10
53.6421
 20
0.439987
 11
53.6628
 21
0.353439
  0
LINE
  8
0
 10
53.6628
 20
0.353439
 11
53.6791
 21
0.26593
  0
LINE
  8
0
 10
53.6791
 20
0.26593
 11
53.6907
 21
0.177689
  0
LINE
  8
0
 10
53.6907
 20
0.177689
 11
53.6977
 21
0.0889587
  0
LINE
  8
0
 10
53.6977
 20
0.0889587
 11
53.7
 21
0
  0
LINE
  8
0
 10
53.7
 20
0
 11
53.6977
 21
-0.0889587
  0
LINE
  8
0
 10
53.6977
 20
-0.0889587
 11
53.6907
 21
-0.177689
  0
LINE
  8
0
 10
53.6907
 20
-0.177689
 11
53.6791
 21
-0.26593
  0
LINE
  8
0
 10
53.6791
 20
-0.26593
 11
53.6628
 21
-0.353439
  0
LINE
  8
0
 10
53.6628
 20
-0.353439
 11
53.6421
 21
-0.439987
  0
LINE
  8
0
 10
53.6421
 20
-0.439987
 11
53.6168
 21
-0.525314
  0
LINE
  8
0
 10
53.6168
 20
-0.525314
 11
53.5871
 21
-0.609222
  0
LINE
  8
0
 10
53.5871
 20
-0.609222
 11
53.553
 21
-0.691437
  0
LINE
  8
0
 10
53.553
 20
-0.691437
 11
53.5147
 21
-0.771774
  0
LINE
  8
0
 10
53.5147
 20
-0.771774
 11
53.4722
 21
-0.849991
  0
LINE
  8
0
 10
53.4722
 20
-0.849991
 11
53.4257
 21
-0.925873
  0
LINE
  8
0
 10
53.4257
 20
-0.925873
 11
53.3753
 21
-0.999222
  0
LINE
  8
0
 10
53.3753
 20
-0.999222
 11
53.3211
 21
-1.06984
  0
LINE
  8
0
 10
53.3211
 20
-1.06984
 11
53.2633
 21
-1.13751
  0
LINE
  8
0
 10
53.2633
 20
-1.13751
 11
53.2021
 21
-1.20207
  0
LINE
  8
0
 10
53.2021
 20
-1.20207
 11
53.1375
 21
-1.26334
  0
LINE
  8
0
 10
53.1375
 20
-1.26334
 11
53.0698
 21
-1.32114
  0
LINE
  8
0
 10
53.0698
 20
-1.32114
 11
52.9992
 21
-1.37532
  0
LINE
  8
0
 10
52.9992
 20
-1.37532
 11
52.9259
 21
-1.42574
  0
LINE
  8
0
 10
52.9259
 20
-1.42574
 11
52.85
 21
-1.47223
  0
LINE
  8
0
 10
52.85
 20
-1.47223
 11
52.7718
 21
-1.51471
  0
LINE
  8
0
 10
52.7718
 20
-1.51471
 11
52.6915
 21
-1.55302
  0
LINE
  8
0
 10
52.6915
 20
-1.55302
 11
52.6092
 21
-1.58708
  0
LINE
  8
0
 10
52.6092
 20
-1.58708
 11
52.5253
 21
-1.61679
  0
LINE
  8
0
 10
52.5253
 20
-1.61679
 11
52.44
 21
-1.64206
  0
LINE
  8
0
 10
52.44
 20
-1.64206
 11
52.3535
 21
-1.66284
  0
LINE
  8
0
 10
52.3535
 20
-1.66284
 11
52.2659
 21
-1.67906
  0
LINE
  8
0
 10
52.2659
 20
-1.67906
 11
52.1777
 21
-1.69069
  0
LINE
  8
0
 10
52.1777
 20
-1.69069
 11
52.089
 21
-1.69766
  0
LINE
  8
0
 10
52.089
 20
-1.69766
 11
52
 21
-1.7
  0
LINE
  8
0
 10
52
 20
-1.7
 11
51.911
 21
-1.69766
  0
ENDSEC
  0
SECTION
  2
OBJECTS
  0
DICTIONARY
  0
ENDSEC
  0
EOF
