  0
SECTION
  2
BLOCKS
  0
ENDSEC
  0
SECTION
  2
ENTITIES
  0
LINE
  8
0
 10
-22.843
 20
-22.9959
 11
-22.6864
 21
-22.9836
  0
LINE
  8
0
 10
-22.6864
 20
-22.9836
 11
-22.5307
 21
-22.9631
  0
LINE
  8
0
 10
-22.5307
 20
-22.9631
 11
-22.3763
 21
-22.9344
  0
LINE
  8
0
 10
-22.3763
 20
-22.9344
 11
-22.2235
 21
-22.8978
  0
LINE
  8
0
 10
-22.2235
 20
-22.8978
 11
-22.073
 21
-22.8532
  0
LINE
  8
0
 10
-22.073
 20
-22.8532
 11
-21.9249
 21
-22.8007
  0
LINE
  8
0
 10
-21.9249
 20
-22.8007
 11
-21.7798
 21
-22.7406
  0
LINE
  8
0
 10
-21.7798
 20
-22.7406
 11
-21.638
 21
-22.673
  0
LINE
  8
0
 10
-21.638
 20
-22.673
 11
-21.5
 21
-22.5981
  0
LINE
  8
0
 10
-21.5
 20
-22.5981
 11
-21.3661
 21
-22.516
  0
LINE
  8
0
 10
-21.3661
 20
-22.516
 11
-21.2366
 21
-22.427
  0
LINE
  8
0
 10
-21.2366
 20
-22.427
 11
-21.112
 21
-22.3314
  0
LINE
  8
0
 10
-21.112
 20
-22.3314
 11
-21
 21
-22.2357
  0
LINE
  8
0
 10
-21
 20
-22.2357
 11
-20.888
 21
-22.3314
  0
LINE
  8
0
 10
-20.888
 20
-22.3314
 11
-20.7634
 21
-22.427
  0
LINE
  8
0
 10
-20.7634
 20
-22.427
 11
-20.6339
 21
-22.516
  0
LINE
  8
0
 10
-20.6339
 20
-22.516
 11
-20.5
 21
-22.5981
  0
LINE
  8
0
 10
-20.5
 20
-22.5981
 11
-20.362
 21
-22.673
  0
LINE
  8
0
 10
-20.362
 20
-22.673
 11
-20.2202
 21
-22.7406
  0
LINE
  8
0
 10
-20.2202
 20
-22.7406
 11
-20.0751
 21
-22.8007
  0
LINE
  8
0
 10
-20.0751
 20
-22.8007
 11
-19.927
 21
-22.8532
  0
LINE
  8
0
 10
-19.927
 20
-22.8532
 11
-19.7765
 21
-22.8978
  0
LINE
  8
0
 10
-19.7765
 20
-22.8978
 11
-19.6237
 21
-22.9344
  0
LINE
  8
0
 10
-19.6237
 20
-22.9344
 11
-19.4693
 21
-22.9631
  0
LINE
  8
0
 10
-19.4693
 20
-22.9631
 11
-19.3136
 21
-22.9836
  0
LINE
  8
0
 10
-19.3136
 20
-22.9836
 11
-19.157
 21
-22.9959
  0
LINE
  8
0
 10
-19.157
 20
-22.9959
 11
-19
 21
-23
  0
LINE
  8
0
 10
-19
 20
-23
 11
19
 21
-23
  0
LINE
  8
0
 10
19
 20
-23
 11
19.157
 21
-22.9959
  0
LINE
  8
0
 10
19.157
 20
-22.9959
 11
19.3136
 21
-22.9836
  0
LINE
  8
0
 10
19.3136
 20
-22.9836
 11
19.4693
 21
-22.9631
  0
LINE
  8
0
 10
19.4693
 20
-22.9631
 11
19.6237
 21
-22.9344
  0
LINE
  8
0
 10
19.6237
 20
-22.9344
 11
19.7765
 21
-22.8978
  0
LINE
  8
0
 10
19.7765
 20
-22.8978
 11
19.927
 21
-22.8532
  0
LINE
  8
0
 10
19.927
 20
-22.8532
 11
20.0751
 21
-22.8007
  0
LINE
  8
0
 10
20.0751
 20
-22.8007
 11
20.2202
 21
-22.7406
  0
LINE
  8
0
 10
20.2202
 20
-22.7406
 11
20.362
 21
-22.673
  0
LINE
  8
0
 10
20.362
 20
-22.673
 11
20.5
 21
-22.5981
  0
LINE
  8
0
 10
20.5
 20
-22.5981
 11
20.6339
 21
-22.516
  0
LINE
  8
0
 10
20.6339
 20
-22.516
 11
20.7634
 21
-22.427
  0
LINE
  8
0
 10
20.7634
 20
-22.427
 11
20.888
 21
-22.3314
  0
LINE
  8
0
 10
20.888
 20
-22.3314
 11
21
 21
-22.2357
  0
LINE
  8
0
 10
21
 20
-22.2357
 11
21.112
 21
-22.3314
  0
LINE
  8
0
 10
21.112
 20
-22.3314
 11
21.2366
 21
-22.427
  0
LINE
  8
0
 10
21.2366
 20
-22.427
 11
21.3661
 21
-22.516
  0
LINE
  8
0
 10
21.3661
 20
-22.516
 11
21.5
 21
-22.5981
  0
LINE
  8
0
 10
21.5
 20
-22.5981
 11
21.638
 21
-22.673
  0
LINE
  8
0
 10
21.638
 20
-22.673
 11
21.7798
 21
-22.7406
  0
LINE
  8
0
 10
21.7798
 20
-22.7406
 11
21.9249
 21
-22.8007
  0
LINE
  8
0
 10
21.9249
 20
-22.8007
 11
22.073
 21
-22.8532
  0
LINE
  8
0
 10
22.073
 20
-22.8532
 11
22.2235
 21
-22.8978
  0
LINE
  8
0
 10
22.2235
 20
-22.8978
 11
22.3763
 21
-22.9344
  0
LINE
  8
0
 10
22.3763
 20
-22.9344
 11
22.5307
 21
-22.9631
  0
LINE
  8
0
 10
22.5307
 20
-22.9631
 11
22.6864
 21
-22.9836
  0
LINE
  8
0
 10
22.6864
 20
-22.9836
 11
22.843
 21
-22.9959
  0
LINE
  8
0
 10
22.843
 20
-22.9959
 11
23
 21
-23
  0
LINE
  8
0
 10
23
 20
-23
 11
31
 21
-23
  0
LINE
  8
0
 10
31
 20
-23
 11
31.157
 21
-22.9959
  0
LINE
  8
0
 10
31.157
 20
-22.9959
 11
31.3136
 21
-22.9836
  0
LINE
  8
0
 10
31.3136
 20
-22.9836
 11
31.4693
 21
-22.9631
  0
LINE
  8
0
 10
31.4693
 20
-22.9631
 11
31.6237
 21
-22.9344
  0
LINE
  8
0
 10
31.6237
 20
-22.9344
 11
31.7765
 21
-22.8978
  0
LINE
  8
0
 10
31.7765
 20
-22.8978
 11
31.927
 21
-22.8532
  0
LINE
  8
0
 10
31.927
 20
-22.8532
 11
32.0751
 21
-22.8007
  0
LINE
  8
0
 10
32.0751
 20
-22.8007
 11
32.2202
 21
-22.7406
  0
LINE
  8
0
 10
32.2202
 20
-22.7406
 11
32.362
 21
-22.673
  0
LINE
  8
0
 10
32.362
 20
-22.673
 11
32.5
 21
-22.5981
  0
LINE
  8
0
 10
32.5
 20
-22.5981
 11
32.6339
 21
-22.516
  0
LINE
  8
0
 10
32.6339
 20
-22.516
 11
32.7634
 21
-22.427
  0
LINE
  8
0
 10
32.7634
 20
-22.427
 11
32.888
 21
-22.3314
  0
LINE
  8
0
 10
32.888
 20
-22.3314
 11
33.0074
 21
-22.2294
  0
LINE
  8
0
 10
33.0074
 20
-22.2294
 11
33.1213
 21
-22.1213
  0
LINE
  8
0
 10
33.1213
 20
-22.1213
 11
33.2294
 21
-22.0074
  0
LINE
  8
0
 10
33.2294
 20
-22.0074
 11
33.3314
 21
-21.888
  0
LINE
  8
0
 10
33.3314
 20
-21.888
 11
33.427
 21
-21.7634
  0
LINE
  8
0
 10
33.427
 20
-21.7634
 11
33.516
 21
-21.6339
  0
LINE
  8
0
 10
33.516
 20
-21.6339
 11
33.5981
 21
-21.5
  0
LINE
  8
0
 10
33.5981
 20
-21.5
 11
33.673
 21
-21.362
  0
LINE
  8
0
 10
33.673
 20
-21.362
 11
33.7406
 21
-21.2202
  0
LINE
  8
0
 10
33.7406
 20
-21.2202
 11
33.8007
 21
-21.0751
  0
LINE
  8
0
 10
33.8007
 20
-21.0751
 11
33.8532
 21
-20.927
  0
LINE
  8
0
 10
33.8532
 20
-20.927
 11
33.8978
 21
-20.7765
  0
LINE
  8
0
 10
33.8978
 20
-20.7765
 11
33.9344
 21
-20.6237
  0
LINE
  8
0
 10
33.9344
 20
-20.6237
 11
33.9631
 21
-20.4693
  0
LINE
  8
0
 10
33.9631
 20
-20.4693
 11
33.9836
 21
-20.3136
  0
LINE
  8
0
 10
33.9836
 20
-20.3136
 11
33.9959
 21
-20.157
  0
LINE
  8
0
 10
33.9959
 20
-20.157
 11
34
 21
-20
  0
LINE
  8
0
 10
34
 20
-20
 11
34
 21
20
  0
LINE
  8
0
 10
34
 20
20
 11
33.9959
 21
20.157
  0
LINE
  8
0
 10
33.9959
 20
20.157
 11
33.9836
 21
20.3136
  0
LINE
  8
0
 10
33.9836
 20
20.3136
 11
33.9631
 21
20.4693
  0
LINE
  8
0
 10
33.9631
 20
20.4693
 11
33.9344
 21
20.6237
  0
LINE
  8
0
 10
33.9344
 20
20.6237
 11
33.8978
 21
20.7765
  0
LINE
  8
0
 10
33.8978
 20
20.7765
 11
33.8532
 21
20.927
  0
LINE
  8
0
 10
33.8532
 20
20.927
 11
33.8007
 21
21.0751
  0
LINE
  8
0
 10
33.8007
 20
21.0751
 11
33.7406
 21
21.2202
  0
LINE
  8
0
 10
33.7406
 20
21.2202
 11
33.673
 21
21.362
  0
LINE
  8
0
 10
33.673
 20
21.362
 11
33.5981
 21
21.5
  0
LINE
  8
0
 10
33.5981
 20
21.5
 11
33.516
 21
21.6339
  0
LINE
  8
0
 10
33.516
 20
21.6339
 11
33.427
 21
21.7634
  0
LINE
  8
0
 10
33.427
 20
21.7634
 11
33.3314
 21
21.888
  0
LINE
  8
0
 10
33.3314
 20
21.888
 11
33.2294
 21
22.0074
  0
LINE
  8
0
 10
33.2294
 20
22.0074
 11
33.1213
 21
22.1213
  0
LINE
  8
0
 10
33.1213
 20
22.1213
 11
33.0074
 21
22.2294
  0
LINE
  8
0
 10
33.0074
 20
22.2294
 11
32.888
 21
22.3314
  0
LINE
  8
0
 10
32.888
 20
22.3314
 11
32.7634
 21
22.427
  0
LINE
  8
0
 10
32.7634
 20
22.427
 11
32.6339
 21
22.516
  0
LINE
  8
0
 10
32.6339
 20
22.516
 11
32.5
 21
22.5981
  0
LINE
  8
0
 10
32.5
 20
22.5981
 11
32.362
 21
22.673
  0
LINE
  8
0
 10
32.362
 20
22.673
 11
32.2202
 21
22.7406
  0
LINE
  8
0
 10
32.2202
 20
22.7406
 11
32.0751
 21
22.8007
  0
LINE
  8
0
 10
32.0751
 20
22.8007
 11
31.927
 21
22.8532
  0
LINE
  8
0
 10
31.927
 20
22.8532
 11
31.7765
 21
22.8978
  0
LINE
  8
0
 10
31.7765
 20
22.8978
 11
31.6237
 21
22.9344
  0
LINE
  8
0
 10
31.6237
 20
22.9344
 11
31.4693
 21
22.9631
  0
LINE
  8
0
 10
31.4693
 20
22.9631
 11
31.3136
 21
22.9836
  0
LINE
  8
0
 10
31.3136
 20
22.9836
 11
31.157
 21
22.9959
  0
LINE
  8
0
 10
31.157
 20
22.9959
 11
31
 21
23
  0
LINE
  8
0
 10
31
 20
23
 11
23
 21
23
  0
LINE
  8
0
 10
23
 20
23
 11
22.843
 21
22.9959
  0
LINE
  8
0
 10
22.843
 20
22.9959
 11
22.6864
 21
22.9836
  0
LINE
  8
0
 10
22.6864
 20
22.9836
 11
22.5307
 21
22.9631
  0
LINE
  8
0
 10
22.5307
 20
22.9631
 11
22.3763
 21
22.9344
  0
LINE
  8
0
 10
22.3763
 20
22.9344
 11
22.2235
 21
22.8978
  0
LINE
  8
0
 10
22.2235
 20
22.8978
 11
22.073
 21
22.8532
  0
LINE
  8
0
 10
22.073
 20
22.8532
 11
21.9249
 21
22.8007
  0
LINE
  8
0
 10
21.9249
 20
22.8007
 11
21.7798
 21
22.7406
  0
LINE
  8
0
 10
21.7798
 20
22.7406
 11
21.638
 21
22.673
  0
LINE
  8
0
 10
21.638
 20
22.673
 11
21.5
 21
22.5981
  0
LINE
  8
0
 10
21.5
 20
22.5981
 11
21.3661
 21
22.516
  0
LINE
  8
0
 10
21.3661
 20
22.516
 11
21.2366
 21
22.427
  0
LINE
  8
0
 10
21.2366
 20
22.427
 11
21.112
 21
22.3314
  0
LINE
  8
0
 10
21.112
 20
22.3314
 11
21
 21
22.2357
  0
LINE
  8
0
 10
21
 20
22.2357
 11
20.888
 21
22.3314
  0
LINE
  8
0
 10
20.888
 20
22.3314
 11
20.7634
 21
22.427
  0
LINE
  8
0
 10
20.7634
 20
22.427
 11
20.6339
 21
22.516
  0
LINE
  8
0
 10
20.6339
 20
22.516
 11
20.5
 21
22.5981
  0
LINE
  8
0
 10
20.5
 20
22.5981
 11
20.362
 21
22.673
  0
LINE
  8
0
 10
20.362
 20
22.673
 11
20.2202
 21
22.7406
  0
LINE
  8
0
 10
20.2202
 20
22.7406
 11
20.0751
 21
22.8007
  0
LINE
  8
0
 10
20.0751
 20
22.8007
 11
19.927
 21
22.8532
  0
LINE
  8
0
 10
19.927
 20
22.8532
 11
19.7765
 21
22.8978
  0
LINE
  8
0
 10
19.7765
 20
22.8978
 11
19.6237
 21
22.9344
  0
LINE
  8
0
 10
19.6237
 20
22.9344
 11
19.4693
 21
22.9631
  0
LINE
  8
0
 10
19.4693
 20
22.9631
 11
19.3136
 21
22.9836
  0
LINE
  8
0
 10
19.3136
 20
22.9836
 11
19.157
 21
22.9959
  0
LINE
  8
0
 10
19.157
 20
22.9959
 11
19
 21
23
  0
LINE
  8
0
 10
19
 20
23
 11
-19
 21
23
  0
LINE
  8
0
 10
-19
 20
23
 11
-19.157
 21
22.9959
  0
LINE
  8
0
 10
-19.157
 20
22.9959
 11
-19.3136
 21
22.9836
  0
LINE
  8
0
 10
-19.3136
 20
22.9836
 11
-19.4693
 21
22.9631
  0
LINE
  8
0
 10
-19.4693
 20
22.9631
 11
-19.6237
 21
22.9344
  0
LINE
  8
0
 10
-19.6237
 20
22.9344
 11
-19.7765
 21
22.8978
  0
LINE
  8
0
 10
-19.7765
 20
22.8978
 11
-19.927
 21
22.8532
  0
LINE
  8
0
 10
-19.927
 20
22.8532
 11
-20.0751
 21
22.8007
  0
LINE
  8
0
 10
-20.0751
 20
22.8007
 11
-20.2202
 21
22.7406
  0
LINE
  8
0
 10
-20.2202
 20
22.7406
 11
-20.362
 21
22.673
  0
LINE
  8
0
 10
-20.362
 20
22.673
 11
-20.5
 21
22.5981
  0
LINE
  8
0
 10
-20.5
 20
22.5981
 11
-20.6339
 21
22.516
  0
LINE
  8
0
 10
-20.6339
 20
22.516
 11
-20.7634
 21
22.427
  0
LINE
  8
0
 10
-20.7634
 20
22.427
 11
-20.888
 21
22.3314
  0
LINE
  8
0
 10
-20.888
 20
22.3314
 11
-21
 21
22.2357
  0
LINE
  8
0
 10
-21
 20
22.2357
 11
-21.112
 21
22.3314
  0
LINE
  8
0
 10
-21.112
 20
22.3314
 11
-21.2366
 21
22.427
  0
LINE
  8
0
 10
-21.2366
 20
22.427
 11
-21.3661
 21
22.516
  0
LINE
  8
0
 10
-21.3661
 20
22.516
 11
-21.5
 21
22.5981
  0
LINE
  8
0
 10
-21.5
 20
22.5981
 11
-21.638
 21
22.673
  0
LINE
  8
0
 10
-21.638
 20
22.673
 11
-21.7798
 21
22.7406
  0
LINE
  8
0
 10
-21.7798
 20
22.7406
 11
-21.9249
 21
22.8007
  0
LINE
  8
0
 10
-21.9249
 20
22.8007
 11
-22.073
 21
22.8532
  0
LINE
  8
0
 10
-22.073
 20
22.8532
 11
-22.2235
 21
22.8978
  0
LINE
  8
0
 10
-22.2235
 20
22.8978
 11
-22.3763
 21
22.9344
  0
LINE
  8
0
 10
-22.3763
 20
22.9344
 11
-22.5307
 21
22.9631
  0
LINE
  8
0
 10
-22.5307
 20
22.9631
 11
-22.6864
 21
22.9836
  0
LINE
  8
0
 10
-22.6864
 20
22.9836
 11
-22.843
 21
22.9959
  0
LINE
  8
0
 10
-22.843
 20
22.9959
 11
-23
 21
23
  0
LINE
  8
0
 10
-23
 20
23
 11
-31
 21
23
  0
LINE
  8
0
 10
-31
 20
23
 11
-31.157
 21
22.9959
  0
LINE
  8
0
 10
-31.157
 20
22.9959
 11
-31.3136
 21
22.9836
  0
LINE
  8
0
 10
-31.3136
 20
22.9836
 11
-31.4693
 21
22.9631
  0
LINE
  8
0
 10
-31.4693
 20
22.9631
 11
-31.6237
 21
22.9344
  0
LINE
  8
0
 10
-31.6237
 20
22.9344
 11
-31.7765
 21
22.8978
  0
LINE
  8
0
 10
-31.7765
 20
22.8978
 11
-31.927
 21
22.8532
  0
LINE
  8
0
 10
-31.927
 20
22.8532
 11
-32.0751
 21
22.8007
  0
LINE
  8
0
 10
-32.0751
 20
22.8007
 11
-32.2202
 21
22.7406
  0
LINE
  8
0
 10
-32.2202
 20
22.7406
 11
-32.362
 21
22.673
  0
LINE
  8
0
 10
-32.362
 20
22.673
 11
-32.5
 21
22.5981
  0
LINE
  8
0
 10
-32.5
 20
22.5981
 11
-32.6339
 21
22.516
  0
LINE
  8
0
 10
-32.6339
 20
22.516
 11
-32.7634
 21
22.427
  0
LINE
  8
0
 10
-32.7634
 20
22.427
 11
-32.888
 21
22.3314
  0
LINE
  8
0
 10
-32.888
 20
22.3314
 11
-33.0074
 21
22.2294
  0
LINE
  8
0
 10
-33.0074
 20
22.2294
 11
-33.1213
 21
22.1213
  0
LINE
  8
0
 10
-33.1213
 20
22.1213
 11
-33.2294
 21
22.0074
  0
LINE
  8
0
 10
-33.2294
 20
22.0074
 11
-33.3314
 21
21.888
  0
LINE
  8
0
 10
-33.3314
 20
21.888
 11
-33.427
 21
21.7634
  0
LINE
  8
0
 10
-33.427
 20
21.7634
 11
-33.516
 21
21.6339
  0
LINE
  8
0
 10
-33.516
 20
21.6339
 11
-33.5981
 21
21.5
  0
LINE
  8
0
 10
-33.5981
 20
21.5
 11
-33.673
 21
21.362
  0
LINE
  8
0
 10
-33.673
 20
21.362
 11
-33.7406
 21
21.2202
  0
LINE
  8
0
 10
-33.7406
 20
21.2202
 11
-33.8007
 21
21.0751
  0
LINE
  8
0
 10
-33.8007
 20
21.0751
 11
-33.8532
 21
20.927
  0
LINE
  8
0
 10
-33.8532
 20
20.927
 11
-33.8978
 21
20.7765
  0
LINE
  8
0
 10
-33.8978
 20
20.7765
 11
-33.9344
 21
20.6237
  0
LINE
  8
0
 10
-33.9344
 20
20.6237
 11
-33.9631
 21
20.4693
  0
LINE
  8
0
 10
-33.9631
 20
20.4693
 11
-33.9836
 21
20.3136
  0
LINE
  8
0
 10
-33.9836
 20
20.3136
 11
-33.9959
 21
20.157
  0
LINE
  8
0
 10
-33.9959
 20
20.157
 11
-34
 21
20
  0
LINE
  8
0
 10
-34
 20
20
 11
-34
 21
-20
  0
LINE
  8
0
 10
-34
 20
-20
 11
-33.9959
 21
-20.157
  0
LINE
  8
0
 10
-33.9959
 20
-20.157
 11
-33.9836
 21
-20.3136
  0
LINE
  8
0
 10
-33.9836
 20
-20.3136
 11
-33.9631
 21
-20.4693
  0
LINE
  8
0
 10
-33.9631
 20
-20.4693
 11
-33.9344
 21
-20.6237
  0
LINE
  8
0
 10
-33.9344
 20
-20.6237
 11
-33.8978
 21
-20.7765
  0
LINE
  8
0
 10
-33.8978
 20
-20.7765
 11
-33.8532
 21
-20.927
  0
LINE
  8
0
 10
-33.8532
 20
-20.927
 11
-33.8007
 21
-21.0751
  0
LINE
  8
0
 10
-33.8007
 20
-21.0751
 11
-33.7406
 21
-21.2202
  0
LINE
  8
0
 10
-33.7406
 20
-21.2202
 11
-33.673
 21
-21.362
  0
LINE
  8
0
 10
-33.673
 20
-21.362
 11
-33.5981
 21
-21.5
  0
LINE
  8
0
 10
-33.5981
 20
-21.5
 11
-33.516
 21
-21.6339
  0
LINE
  8
0
 10
-33.516
 20
-21.6339
 11
-33.427
 21
-21.7634
  0
LINE
  8
0
 10
-33.427
 20
-21.7634
 11
-33.3314
 21
-21.888
  0
LINE
  8
0
 10
-33.3314
 20
-21.888
 11
-33.2294
 21
-22.0074
  0
LINE
  8
0
 10
-33.2294
 20
-22.0074
 11
-33.1213
 21
-22.1213
  0
LINE
  8
0
 10
-33.1213
 20
-22.1213
 11
-33.0074
 21
-22.2294
  0
LINE
  8
0
 10
-33.0074
 20
-22.2294
 11
-32.888
 21
-22.3314
  0
LINE
  8
0
 10
-32.888
 20
-22.3314
 11
-32.7634
 21
-22.427
  0
LINE
  8
0
 10
-32.7634
 20
-22.427
 11
-32.6339
 21
-22.516
  0
LINE
  8
0
 10
-32.6339
 20
-22.516
 11
-32.5
 21
-22.5981
  0
LINE
  8
0
 10
-32.5
 20
-22.5981
 11
-32.362
 21
-22.673
  0
LINE
  8
0
 10
-32.362
 20
-22.673
 11
-32.2202
 21
-22.7406
  0
LINE
  8
0
 10
-32.2202
 20
-22.7406
 11
-32.0751
 21
-22.8007
  0
LINE
  8
0
 10
-32.0751
 20
-22.8007
 11
-31.927
 21
-22.8532
  0
LINE
  8
0
 10
-31.927
 20
-22.8532
 11
-31.7765
 21
-22.8978
  0
LINE
  8
0
 10
-31.7765
 20
-22.8978
 11
-31.6237
 21
-22.9344
  0
LINE
  8
0
 10
-31.6237
 20
-22.9344
 11
-31.4693
 21
-22.9631
  0
LINE
  8
0
 10
-31.4693
 20
-22.9631
 11
-31.3136
 21
-22.9836
  0
LINE
  8
0
 10
-31.3136
 20
-22.9836
 11
-31.157
 21
-22.9959
  0
LINE
  8
0
 10
-31.157
 20
-22.9959
 11
-31
 21
-23
  0
LINE
  8
0
 10
-31
 20
-23
 11
-23
 21
-23
  0
LINE
  8
0
 10
-23
 20
-23
 11
-22.843
 21
-22.9959
  0
LINE
  8
0
 10
-0.669891
 20
-12.7825
 11
-1.33795
 21
-12.7299
  0
LINE
  8
0
 10
-1.33795
 20
-12.7299
 11
-2.00235
 21
-12.6424
  0
LINE
  8
0
 10
-2.00235
 20
-12.6424
 11
-2.66125
 21
-12.5203
  0
LINE
  8
0
 10
-2.66125
 20
-12.5203
 11
-3.31287
 21
-12.3638
  0
LINE
  8
0
 10
-3.31287
 20
-12.3638
 11
-3.95541
 21
-12.1735
  0
LINE
  8
0
 10
-3.95541
 20
-12.1735
 11
-4.5871
 21
-11.9498
  0
LINE
  8
0
 10
-4.5871
 20
-11.9498
 11
-5.20622
 21
-11.6934
  0
LINE
  8
0
 10
-5.20622
 20
-11.6934
 11
-5.81107
 21
-11.4049
  0
LINE
  8
0
 10
-5.81107
 20
-11.4049
 11
-6.39999
 21
-11.0851
  0
LINE
  8
0
 10
-6.39999
 20
-11.0851
 11
-6.97137
 21
-10.735
  0
LINE
  8
0
 10
-6.97137
 20
-10.735
 11
-7.52364
 21
-10.3554
  0
LINE
  8
0
 10
-7.52364
 20
-10.3554
 11
-8.0553
 21
-9.94746
  0
LINE
  8
0
 10
-8.0553
 20
-9.94746
 11
-8.56487
 21
-9.51224
  0
LINE
  8
0
 10
-8.56487
 20
-9.51224
 11
-9.05096
 21
-9.05096
  0
LINE
  8
0
 10
-9.05096
 20
-9.05096
 11
-9.51224
 21
-8.56487
  0
LINE
  8
0
 10
-9.51224
 20
-8.56487
 11
-9.94746
 21
-8.0553
  0
LINE
  8
0
 10
-9.94746
 20
-8.0553
 11
-10.3554
 21
-7.52364
  0
LINE
  8
0
 10
-10.3554
 20
-7.52364
 11
-10.735
 21
-6.97137
  0
LINE
  8
0
 10
-10.735
 20
-6.97137
 11
-11.0851
 21
-6.39999
  0
LINE
  8
0
 10
-11.0851
 20
-6.39999
 11
-11.4049
 21
-5.81107
  0
LINE
  8
0
 10
-11.4049
 20
-5.81107
 11
-11.6934
 21
-5.20622
  0
LINE
  8
0
 10
-11.6934
 20
-5.20622
 11
-11.9498
 21
-4.5871
  0
LINE
  8
0
 10
-11.9498
 20
-4.5871
 11
-12.1735
 21
-3.95541
  0
LINE
  8
0
 10
-12.1735
 20
-3.95541
 11
-12.3638
 21
-3.31287
  0
LINE
  8
0
 10
-12.3638
 20
-3.31287
 11
-12.5203
 21
-2.66125
  0
LINE
  8
0
 10
-12.5203
 20
-2.66125
 11
-12.6424
 21
-2.00235
  0
LINE
  8
0
 10
-12.6424
 20
-2.00235
 11
-12.7299
 21
-1.33795
  0
LINE
  8
0
 10
-12.7299
 20
-1.33795
 11
-12.7825
 21
-0.669891
  0
LINE
  8
0
 10
-12.7825
 20
-0.669891
 11
-12.8
 21
0
  0
LINE
  8
0
 10
-12.8
 20
0
 11
-12.7825
 21
0.669891
  0
LINE
  8
0
 10
-12.7825
 20
0.669891
 11
-12.7299
 21
1.33795
  0
LINE
  8
0
 10
-12.7299
 20
1.33795
 11
-12.6424
 21
2.00235
  0
LINE
  8
0
 10
-12.6424
 20
2.00235
 11
-12.5203
 21
2.66125
  0
LINE
  8
0
 10
-12.5203
 20
2.66125
 11
-12.3638
 21
3.31287
  0
LINE
  8
0
 10
-12.3638
 20
3.31287
 11
-12.1735
 21
3.95541
  0
LINE
  8
0
 10
-12.1735
 20
3.95541
 11
-11.9498
 21
4.5871
  0
LINE
  8
0
 10
-11.9498
 20
4.5871
 11
-11.6934
 21
5.20622
  0
LINE
  8
0
 10
-11.6934
 20
5.20622
 11
-11.4049
 21
5.81107
  0
LINE
  8
0
 10
-11.4049
 20
5.81107
 11
-11.0851
 21
6.39999
  0
LINE
  8
0
 10
-11.0851
 20
6.39999
 11
-10.735
 21
6.97137
  0
LINE
  8
0
 10
-10.735
 20
6.97137
 11
-10.3554
 21
7.52364
  0
LINE
  8
0
 10
-10.3554
 20
7.52364
 11
-9.94746
 21
8.0553
  0
LINE
  8
0
 10
-9.94746
 20
8.0553
 11
-9.51224
 21
8.56487
  0
LINE
  8
0
 10
-9.51224
 20
8.56487
 11
-9.05096
 21
9.05096
  0
LINE
  8
0
 10
-9.05096
 20
9.05096
 11
-8.56487
 21
9.51224
  0
LINE
  8
0
 10
-8.56487
 20
9.51224
 11
-8.0553
 21
9.94746
  0
LINE
  8
0
 10
-8.0553
 20
9.94746
 11
-7.52364
 21
10.3554
  0
LINE
  8
0
 10
-7.52364
 20
10.3554
 11
-6.97137
 21
10.735
  0
LINE
  8
0
 10
-6.97137
 20
10.735
 11
-6.39999
 21
11.0851
  0
LINE
  8
0
 10
-6.39999
 20
11.0851
 11
-5.81107
 21
11.4049
  0
LINE
  8
0
 10
-5.81107
 20
11.4049
 11
-5.20622
 21
11.6934
  0
LINE
  8
0
 10
-5.20622
 20
11.6934
 11
-4.5871
 21
11.9498
  0
LINE
  8
0
 10
-4.5871
 20
11.9498
 11
-3.95541
 21
12.1735
  0
LINE
  8
0
 10
-3.95541
 20
12.1735
 11
-3.31287
 21
12.3638
  0
LINE
  8
0
 10
-3.31287
 20
12.3638
 11
-2.66125
 21
12.5203
  0
LINE
  8
0
 10
-2.66125
 20
12.5203
 11
-2.00235
 21
12.6424
  0
LINE
  8
0
 10
-2.00235
 20
12.6424
 11
-1.33795
 21
12.7299
  0
LINE
  8
0
 10
-1.33795
 20
12.7299
 11
-0.669891
 21
12.7825
  0
LINE
  8
0
 10
-0.669891
 20
12.7825
 11
0
 21
12.8
  0
LINE
  8
0
 10
0
 20
12.8
 11
0.669891
 21
12.7825
  0
LINE
  8
0
 10
0.669891
 20
12.7825
 11
1.33795
 21
12.7299
  0
LINE
  8
0
 10
1.33795
 20
12.7299
 11
2.00235
 21
12.6424
  0
LINE
  8
0
 10
2.00235
 20
12.6424
 11
2.66125
 21
12.5203
  0
LINE
  8
0
 10
2.66125
 20
12.5203
 11
3.31287
 21
12.3638
  0
LINE
  8
0
 10
3.31287
 20
12.3638
 11
3.95541
 21
12.1735
  0
LINE
  8
0
 10
3.95541
 20
12.1735
 11
4.5871
 21
11.9498
  0
LINE
  8
0
 10
4.5871
 20
11.9498
 11
5.20622
 21
11.6934
  0
LINE
  8
0
 10
5.20622
 20
11.6934
 11
5.81107
 21
11.4049
  0
LINE
  8
0
 10
5.81107
 20
11.4049
 11
6.39999
 21
11.0851
  0
LINE
  8
0
 10
6.39999
 20
11.0851
 11
6.97137
 21
10.735
  0
LINE
  8
0
 10
6.97137
 20
10.735
 11
7.52364
 21
10.3554
  0
LINE
  8
0
 10
7.52364
 20
10.3554
 11
8.0553
 21
9.94746
  0
LINE
  8
0
 10
8.0553
 20
9.94746
 11
8.56487
 21
9.51224
  0
LINE
  8
0
 10
8.56487
 20
9.51224
 11
9.05096
 21
9.05096
  0
LINE
  8
0
 10
9.05096
 20
9.05096
 11
9.51224
 21
8.56487
  0
LINE
  8
0
 10
9.51224
 20
8.56487
 11
9.94746
 21
8.0553
  0
LINE
  8
0
 10
9.94746
 20
8.0553
 11
10.3554
 21
7.52364
  0
LINE
  8
0
 10
10.3554
 20
7.52364
 11
10.735
 21
6.97137
  0
LINE
  8
0
 10
10.735
 20
6.97137
 11
11.0851
 21
6.39999
  0
LINE
  8
0
 10
11.0851
 20
6.39999
 11
11.4049
 21
5.81107
  0
LINE
  8
0
 10
11.4049
 20
5.81107
 11
11.6934
 21
5.20622
  0
LINE
  8
0
 10
11.6934
 20
5.20622
 11
11.9498
 21
4.5871
  0
LINE
  8
0
 10
11.9498
 20
4.5871
 11
12.1735
 21
3.95541
  0
LINE
  8
0
 10
12.1735
 20
3.95541
 11
12.3638
 21
3.31287
  0
LINE
  8
0
 10
12.3638
 20
3.31287
 11
12.5203
 21
2.66125
  0
LINE
  8
0
 10
12.5203
 20
2.66125
 11
12.6424
 21
2.00235
  0
LINE
  8
0
 10
12.6424
 20
2.00235
 11
12.7299
 21
1.33795
  0
LINE
  8
0
 10
12.7299
 20
1.33795
 11
12.7825
 21
0.669891
  0
LINE
  8
0
 10
12.7825
 20
0.669891
 11
12.8
 21
0
  0
LINE
  8
0
 10
12.8
 20
0
 11
12.7825
 21
-0.669891
  0
LINE
  8
0
 10
12.7825
 20
-0.669891
 11
12.7299
 21
-1.33795
  0
LINE
  8
0
 10
12.7299
 20
-1.33795
 11
12.6424
 21
-2.00235
  0
LINE
  8
0
 10
12.6424
 20
-2.00235
 11
12.5203
 21
-2.66125
  0
LINE
  8
0
 10
12.5203
 20
-2.66125
 11
12.3638
 21
-3.31287
  0
LINE
  8
0
 10
12.3638
 20
-3.31287
 11
12.1735
 21
-3.95541
  0
LINE
  8
0
 10
12.1735
 20
-3.95541
 11
11.9498
 21
-4.5871
  0
LINE
  8
0
 10
11.9498
 20
-4.5871
 11
11.6934
 21
-5.20622
  0
LINE
  8
0
 10
11.6934
 20
-5.20622
 11
11.4049
 21
-5.81107
  0
LINE
  8
0
 10
11.4049
 20
-5.81107
 11
11.0851
 21
-6.39999
  0
LINE
  8
0
 10
11.0851
 20
-6.39999
 11
10.735
 21
-6.97137
  0
LINE
  8
0
 10
10.735
 20
-6.97137
 11
10.3554
 21
-7.52364
  0
LINE
  8
0
 10
10.3554
 20
-7.52364
 11
9.94746
 21
-8.0553
  0
LINE
  8
0
 10
9.94746
 20
-8.0553
 11
9.51224
 21
-8.56487
  0
LINE
  8
0
 10
9.51224
 20
-8.56487
 11
9.05096
 21
-9.05096
  0
LINE
  8
0
 10
9.05096
 20
-9.05096
 11
8.56487
 21
-9.51224
  0
LINE
  8
0
 10
8.56487
 20
-9.51224
 11
8.0553
 21
-9.94746
  0
LINE
  8
0
 10
8.0553
 20
-9.94746
 11
7.52364
 21
-10.3554
  0
LINE
  8
0
 10
7.52364
 20
-10.3554
 11
6.97137
 21
-10.735
  0
LINE
  8
0
 10
6.97137
 20
-10.735
 11
6.39999
 21
-11.0851
  0
LINE
  8
0
 10
6.39999
 20
-11.0851
 11
5.81107
 21
-11.4049
  0
LINE
  8
0
 10
5.81107
 20
-11.4049
 11
5.20622
 21
-11.6934
  0
LINE
  8
0
 10
5.20622
 20
-11.6934
 11
4.5871
 21
-11.9498
  0
LINE
  8
0
 10
4.5871
 20
-11.9498
 11
3.95541
 21
-12.1735
  0
LINE
  8
0
 10
3.95541
 20
-12.1735
 11
3.31287
 21
-12.3638
  0
LINE
  8
0
 10
3.31287
 20
-12.3638
 11
2.66125
 21
-12.5203
  0
LINE
  8
0
 10
2.66125
 20
-12.5203
 11
2.00235
 21
-12.6424
  0
LINE
  8
0
 10
2.00235
 20
-12.6424
 11
1.33795
 21
-12.7299
  0
LINE
  8
0
 10
1.33795
 20
-12.7299
 11
0.669891
 21
-12.7825
  0
LINE
  8
0
 10
0.669891
 20
-12.7825
 11
0
 21
-12.8
  0
LINE
  8
0
 10
0
 20
-12.8
 11
-0.669891
 21
-12.7825
  0
ENDSEC
  0
SECTION
  2
OBJECTS
  0
DICTIONARY
  0
ENDSEC
  0
EOF
