  0
SECTION
  2
BLOCKS
  0
ENDSEC
  0
SECTION
  2
ENTITIES
  0
LINE
  8
0
 10
3.23801
 20
-61.7852
 11
6.46718
 21
-61.5311
  0
LINE
  8
0
 10
6.46718
 20
-61.5311
 11
9.67859
 21
-61.1083
  0
LINE
  8
0
 10
9.67859
 20
-61.1083
 11
12.8635
 21
-60.518
  0
LINE
  8
0
 10
12.8635
 20
-60.518
 11
16.0131
 21
-59.7618
  0
LINE
  8
0
 10
16.0131
 20
-59.7618
 11
19.1189
 21
-58.8419
  0
LINE
  8
0
 10
19.1189
 20
-58.8419
 11
22.1722
 21
-57.7606
  0
LINE
  8
0
 10
22.1722
 20
-57.7606
 11
25.1648
 21
-56.5211
  0
LINE
  8
0
 10
25.1648
 20
-56.5211
 11
28.0884
 21
-55.1266
  0
LINE
  8
0
 10
28.0884
 20
-55.1266
 11
30.935
 21
-53.581
  0
LINE
  8
0
 10
30.935
 20
-53.581
 11
33.6968
 21
-51.8885
  0
LINE
  8
0
 10
33.6968
 20
-51.8885
 11
36.3663
 21
-50.0539
  0
LINE
  8
0
 10
36.3663
 20
-50.0539
 11
38.9361
 21
-48.082
  0
LINE
  8
0
 10
38.9361
 20
-48.082
 11
41.3991
 21
-45.9784
  0
LINE
  8
0
 10
41.3991
 20
-45.9784
 11
43.7487
 21
-43.7487
  0
LINE
  8
0
 10
43.7487
 20
-43.7487
 11
45.9784
 21
-41.3991
  0
LINE
  8
0
 10
45.9784
 20
-41.3991
 11
48.082
 21
-38.9361
  0
LINE
  8
0
 10
48.082
 20
-38.9361
 11
50.0539
 21
-36.3663
  0
LINE
  8
0
 10
50.0539
 20
-36.3663
 11
51.8885
 21
-33.6968
  0
LINE
  8
0
 10
51.8885
 20
-33.6968
 11
53.581
 21
-30.935
  0
LINE
  8
0
 10
53.581
 20
-30.935
 11
55.1266
 21
-28.0884
  0
LINE
  8
0
 10
55.1266
 20
-28.0884
 11
56.5211
 21
-25.1648
  0
LINE
  8
0
 10
56.5211
 20
-25.1648
 11
57.7606
 21
-22.1722
  0
LINE
  8
0
 10
57.7606
 20
-22.1722
 11
58.8419
 21
-19.1189
  0
LINE
  8
0
 10
58.8419
 20
-19.1189
 11
59.7618
 21
-16.0131
  0
LINE
  8
0
 10
59.7618
 20
-16.0131
 11
60.518
 21
-12.8635
  0
LINE
  8
0
 10
60.518
 20
-12.8635
 11
61.1083
 21
-9.67859
  0
LINE
  8
0
 10
61.1083
 20
-9.67859
 11
61.5311
 21
-6.46718
  0
LINE
  8
0
 10
61.5311
 20
-6.46718
 11
61.7852
 21
-3.23801
  0
LINE
  8
0
 10
61.7852
 20
-3.23801
 11
61.87
 21
0
  0
LINE
  8
0
 10
61.87
 20
0
 11
61.7852
 21
3.23801
  0
LINE
  8
0
 10
61.7852
 20
3.23801
 11
61.5311
 21
6.46718
  0
LINE
  8
0
 10
61.5311
 20
6.46718
 11
61.1083
 21
9.67859
  0
LINE
  8
0
 10
61.1083
 20
9.67859
 11
60.518
 21
12.8635
  0
LINE
  8
0
 10
60.518
 20
12.8635
 11
59.7618
 21
16.0131
  0
LINE
  8
0
 10
59.7618
 20
16.0131
 11
58.8419
 21
19.1189
  0
LINE
  8
0
 10
58.8419
 20
19.1189
 11
57.7606
 21
22.1722
  0
LINE
  8
0
 10
57.7606
 20
22.1722
 11
56.5211
 21
25.1648
  0
LINE
  8
0
 10
56.5211
 20
25.1648
 11
55.1266
 21
28.0884
  0
LINE
  8
0
 10
55.1266
 20
28.0884
 11
53.581
 21
30.935
  0
LINE
  8
0
 10
53.581
 20
30.935
 11
51.8885
 21
33.6968
  0
LINE
  8
0
 10
51.8885
 20
33.6968
 11
50.0539
 21
36.3663
  0
LINE
  8
0
 10
50.0539
 20
36.3663
 11
48.082
 21
38.9361
  0
LINE
  8
0
 10
48.082
 20
38.9361
 11
45.9784
 21
41.3991
  0
LINE
  8
0
 10
45.9784
 20
41.3991
 11
43.7487
 21
43.7487
  0
LINE
  8
0
 10
43.7487
 20
43.7487
 11
41.3991
 21
45.9784
  0
LINE
  8
0
 10
41.3991
 20
45.9784
 11
38.9361
 21
48.082
  0
LINE
  8
0
 10
38.9361
 20
48.082
 11
36.3663
 21
50.0539
  0
LINE
  8
0
 10
36.3663
 20
50.0539
 11
33.6968
 21
51.8885
  0
LINE
  8
0
 10
33.6968
 20
51.8885
 11
30.935
 21
53.581
  0
LINE
  8
0
 10
30.935
 20
53.581
 11
28.0884
 21
55.1266
  0
LINE
  8
0
 10
28.0884
 20
55.1266
 11
25.1648
 21
56.5211
  0
LINE
  8
0
 10
25.1648
 20
56.5211
 11
22.1722
 21
57.7606
  0
LINE
  8
0
 10
22.1722
 20
57.7606
 11
19.1189
 21
58.8419
  0
LINE
  8
0
 10
19.1189
 20
58.8419
 11
16.0131
 21
59.7618
  0
LINE
  8
0
 10
16.0131
 20
59.7618
 11
12.8635
 21
60.518
  0
LINE
  8
0
 10
12.8635
 20
60.518
 11
9.67859
 21
61.1083
  0
LINE
  8
0
 10
9.67859
 20
61.1083
 11
6.46718
 21
61.5311
  0
LINE
  8
0
 10
6.46718
 20
61.5311
 11
3.23801
 21
61.7852
  0
LINE
  8
0
 10
3.23801
 20
61.7852
 11
0
 21
61.87
  0
LINE
  8
0
 10
0
 20
61.87
 11
-3.23801
 21
61.7852
  0
LINE
  8
0
 10
-3.23801
 20
61.7852
 11
-6.46718
 21
61.5311
  0
LINE
  8
0
 10
-6.46718
 20
61.5311
 11
-9.67859
 21
61.1083
  0
LINE
  8
0
 10
-9.67859
 20
61.1083
 11
-12.8635
 21
60.518
  0
LINE
  8
0
 10
-12.8635
 20
60.518
 11
-16.0131
 21
59.7618
  0
LINE
  8
0
 10
-16.0131
 20
59.7618
 11
-19.1189
 21
58.8419
  0
LINE
  8
0
 10
-19.1189
 20
58.8419
 11
-22.1722
 21
57.7606
  0
LINE
  8
0
 10
-22.1722
 20
57.7606
 11
-25.1648
 21
56.5211
  0
LINE
  8
0
 10
-25.1648
 20
56.5211
 11
-28.0884
 21
55.1266
  0
LINE
  8
0
 10
-28.0884
 20
55.1266
 11
-30.935
 21
53.581
  0
LINE
  8
0
 10
-30.935
 20
53.581
 11
-33.6968
 21
51.8885
  0
LINE
  8
0
 10
-33.6968
 20
51.8885
 11
-36.3663
 21
50.0539
  0
LINE
  8
0
 10
-36.3663
 20
50.0539
 11
-38.9361
 21
48.082
  0
LINE
  8
0
 10
-38.9361
 20
48.082
 11
-41.3991
 21
45.9784
  0
LINE
  8
0
 10
-41.3991
 20
45.9784
 11
-43.7487
 21
43.7487
  0
LINE
  8
0
 10
-43.7487
 20
43.7487
 11
-45.9784
 21
41.3991
  0
LINE
  8
0
 10
-45.9784
 20
41.3991
 11
-48.082
 21
38.9361
  0
LINE
  8
0
 10
-48.082
 20
38.9361
 11
-50.0539
 21
36.3663
  0
LINE
  8
0
 10
-50.0539
 20
36.3663
 11
-51.8885
 21
33.6968
  0
LINE
  8
0
 10
-51.8885
 20
33.6968
 11
-53.581
 21
30.935
  0
LINE
  8
0
 10
-53.581
 20
30.935
 11
-55.1266
 21
28.0884
  0
LINE
  8
0
 10
-55.1266
 20
28.0884
 11
-56.5211
 21
25.1648
  0
LINE
  8
0
 10
-56.5211
 20
25.1648
 11
-57.7606
 21
22.1722
  0
LINE
  8
0
 10
-57.7606
 20
22.1722
 11
-58.8419
 21
19.1189
  0
LINE
  8
0
 10
-58.8419
 20
19.1189
 11
-59.7618
 21
16.0131
  0
LINE
  8
0
 10
-59.7618
 20
16.0131
 11
-60.518
 21
12.8635
  0
LINE
  8
0
 10
-60.518
 20
12.8635
 11
-61.1083
 21
9.67859
  0
LINE
  8
0
 10
-61.1083
 20
9.67859
 11
-61.5311
 21
6.46718
  0
LINE
  8
0
 10
-61.5311
 20
6.46718
 11
-61.7852
 21
3.23801
  0
LINE
  8
0
 10
-61.7852
 20
3.23801
 11
-61.87
 21
0
  0
LINE
  8
0
 10
-61.87
 20
0
 11
-61.7852
 21
-3.23801
  0
LINE
  8
0
 10
-61.7852
 20
-3.23801
 11
-61.5311
 21
-6.46718
  0
LINE
  8
0
 10
-61.5311
 20
-6.46718
 11
-61.1083
 21
-9.67859
  0
LINE
  8
0
 10
-61.1083
 20
-9.67859
 11
-60.518
 21
-12.8635
  0
LINE
  8
0
 10
-60.518
 20
-12.8635
 11
-59.7618
 21
-16.0131
  0
LINE
  8
0
 10
-59.7618
 20
-16.0131
 11
-58.8419
 21
-19.1189
  0
LINE
  8
0
 10
-58.8419
 20
-19.1189
 11
-57.7606
 21
-22.1722
  0
LINE
  8
0
 10
-57.7606
 20
-22.1722
 11
-56.5211
 21
-25.1648
  0
LINE
  8
0
 10
-56.5211
 20
-25.1648
 11
-55.1266
 21
-28.0884
  0
LINE
  8
0
 10
-55.1266
 20
-28.0884
 11
-53.581
 21
-30.935
  0
LINE
  8
0
 10
-53.581
 20
-30.935
 11
-51.8885
 21
-33.6968
  0
LINE
  8
0
 10
-51.8885
 20
-33.6968
 11
-50.0539
 21
-36.3663
  0
LINE
  8
0
 10
-50.0539
 20
-36.3663
 11
-48.082
 21
-38.9361
  0
LINE
  8
0
 10
-48.082
 20
-38.9361
 11
-45.9784
 21
-41.3991
  0
LINE
  8
0
 10
-45.9784
 20
-41.3991
 11
-43.7487
 21
-43.7487
  0
LINE
  8
0
 10
-43.7487
 20
-43.7487
 11
-41.3991
 21
-45.9784
  0
LINE
  8
0
 10
-41.3991
 20
-45.9784
 11
-38.9361
 21
-48.082
  0
LINE
  8
0
 10
-38.9361
 20
-48.082
 11
-36.3663
 21
-50.0539
  0
LINE
  8
0
 10
-36.3663
 20
-50.0539
 11
-33.6968
 21
-51.8885
  0
LINE
  8
0
 10
-33.6968
 20
-51.8885
 11
-30.935
 21
-53.581
  0
LINE
  8
0
 10
-30.935
 20
-53.581
 11
-28.0884
 21
-55.1266
  0
LINE
  8
0
 10
-28.0884
 20
-55.1266
 11
-25.1648
 21
-56.5211
  0
LINE
  8
0
 10
-25.1648
 20
-56.5211
 11
-22.1722
 21
-57.7606
  0
LINE
  8
0
 10
-22.1722
 20
-57.7606
 11
-19.1189
 21
-58.8419
  0
LINE
  8
0
 10
-19.1189
 20
-58.8419
 11
-16.0131
 21
-59.7618
  0
LINE
  8
0
 10
-16.0131
 20
-59.7618
 11
-12.8635
 21
-60.518
  0
LINE
  8
0
 10
-12.8635
 20
-60.518
 11
-9.67859
 21
-61.1083
  0
LINE
  8
0
 10
-9.67859
 20
-61.1083
 11
-6.46718
 21
-61.5311
  0
LINE
  8
0
 10
-6.46718
 20
-61.5311
 11
-3.23801
 21
-61.7852
  0
LINE
  8
0
 10
-3.23801
 20
-61.7852
 11
0
 21
-61.87
  0
LINE
  8
0
 10
0
 20
-61.87
 11
3.23801
 21
-61.7852
  0
LINE
  8
0
 10
34.911
 20
26.3023
 11
34.8223
 21
26.3093
  0
LINE
  8
0
 10
34.8223
 20
26.3093
 11
34.7341
 21
26.3209
  0
LINE
  8
0
 10
34.7341
 20
26.3209
 11
34.6465
 21
26.3371
  0
LINE
  8
0
 10
34.6465
 20
26.3371
 11
34.56
 21
26.3579
  0
LINE
  8
0
 10
34.56
 20
26.3579
 11
34.4747
 21
26.3832
  0
LINE
  8
0
 10
34.4747
 20
26.3832
 11
34.3908
 21
26.4129
  0
LINE
  8
0
 10
34.3908
 20
26.4129
 11
34.3085
 21
26.447
  0
LINE
  8
0
 10
34.3085
 20
26.447
 11
34.2282
 21
26.4853
  0
LINE
  8
0
 10
34.2282
 20
26.4853
 11
34.15
 21
26.5278
  0
LINE
  8
0
 10
34.15
 20
26.5278
 11
34.0741
 21
26.5743
  0
LINE
  8
0
 10
34.0741
 20
26.5743
 11
34.0008
 21
26.6247
  0
LINE
  8
0
 10
34.0008
 20
26.6247
 11
33.9302
 21
26.6789
  0
LINE
  8
0
 10
33.9302
 20
26.6789
 11
33.8625
 21
26.7367
  0
LINE
  8
0
 10
33.8625
 20
26.7367
 11
33.7979
 21
26.7979
  0
LINE
  8
0
 10
33.7979
 20
26.7979
 11
33.7367
 21
26.8625
  0
LINE
  8
0
 10
33.7367
 20
26.8625
 11
33.6789
 21
26.9302
  0
LINE
  8
0
 10
33.6789
 20
26.9302
 11
33.6247
 21
27.0008
  0
LINE
  8
0
 10
33.6247
 20
27.0008
 11
33.5743
 21
27.0741
  0
LINE
  8
0
 10
33.5743
 20
27.0741
 11
33.5278
 21
27.15
  0
LINE
  8
0
 10
33.5278
 20
27.15
 11
33.4853
 21
27.2282
  0
LINE
  8
0
 10
33.4853
 20
27.2282
 11
33.447
 21
27.3085
  0
LINE
  8
0
 10
33.447
 20
27.3085
 11
33.4129
 21
27.3908
  0
LINE
  8
0
 10
33.4129
 20
27.3908
 11
33.3832
 21
27.4747
  0
LINE
  8
0
 10
33.3832
 20
27.4747
 11
33.3579
 21
27.56
  0
LINE
  8
0
 10
33.3579
 20
27.56
 11
33.3372
 21
27.6465
  0
LINE
  8
0
 10
33.3372
 20
27.6465
 11
33.3209
 21
27.7341
  0
LINE
  8
0
 10
33.3209
 20
27.7341
 11
33.3093
 21
27.8223
  0
LINE
  8
0
 10
33.3093
 20
27.8223
 11
33.3023
 21
27.911
  0
LINE
  8
0
 10
33.3023
 20
27.911
 11
33.3
 21
28
  0
LINE
  8
0
 10
33.3
 20
28
 11
33.3023
 21
28.089
  0
LINE
  8
0
 10
33.3023
 20
28.089
 11
33.3093
 21
28.1777
  0
LINE
  8
0
 10
33.3093
 20
28.1777
 11
33.3209
 21
28.2659
  0
LINE
  8
0
 10
33.3209
 20
28.2659
 11
33.3372
 21
28.3535
  0
LINE
  8
0
 10
33.3372
 20
28.3535
 11
33.3579
 21
28.44
  0
LINE
  8
0
 10
33.3579
 20
28.44
 11
33.3832
 21
28.5253
  0
LINE
  8
0
 10
33.3832
 20
28.5253
 11
33.4129
 21
28.6092
  0
LINE
  8
0
 10
33.4129
 20
28.6092
 11
33.447
 21
28.6915
  0
LINE
  8
0
 10
33.447
 20
28.6915
 11
33.4853
 21
28.7718
  0
LINE
  8
0
 10
33.4853
 20
28.7718
 11
33.5278
 21
28.85
  0
LINE
  8
0
 10
33.5278
 20
28.85
 11
33.5743
 21
28.9259
  0
LINE
  8
0
 10
33.5743
 20
28.9259
 11
33.6247
 21
28.9992
  0
LINE
  8
0
 10
33.6247
 20
28.9992
 11
33.6789
 21
29.0698
  0
LINE
  8
0
 10
33.6789
 20
29.0698
 11
33.7367
 21
29.1375
  0
LINE
  8
0
 10
33.7367
 20
29.1375
 11
33.7979
 21
29.2021
  0
LINE
  8
0
 10
33.7979
 20
29.2021
 11
33.8625
 21
29.2633
  0
LINE
  8
0
 10
33.8625
 20
29.2633
 11
33.9302
 21
29.3211
  0
LINE
  8
0
 10
33.9302
 20
29.3211
 11
34.0008
 21
29.3753
  0
LINE
  8
0
 10
34.0008
 20
29.3753
 11
34.0741
 21
29.4257
  0
LINE
  8
0
 10
34.0741
 20
29.4257
 11
34.15
 21
29.4722
  0
LINE
  8
0
 10
34.15
 20
29.4722
 11
34.2282
 21
29.5147
  0
LINE
  8
0
 10
34.2282
 20
29.5147
 11
34.3085
 21
29.553
  0
LINE
  8
0
 10
34.3085
 20
29.553
 11
34.3908
 21
29.5871
  0
LINE
  8
0
 10
34.3908
 20
29.5871
 11
34.4747
 21
29.6168
  0
LINE
  8
0
 10
34.4747
 20
29.6168
 11
34.56
 21
29.6421
  0
LINE
  8
0
 10
34.56
 20
29.6421
 11
34.6465
 21
29.6628
  0
LINE
  8
0
 10
34.6465
 20
29.6628
 11
34.7341
 21
29.6791
  0
LINE
  8
0
 10
34.7341
 20
29.6791
 11
34.8223
 21
29.6907
  0
LINE
  8
0
 10
34.8223
 20
29.6907
 11
34.911
 21
29.6977
  0
LINE
  8
0
 10
34.911
 20
29.6977
 11
35
 21
29.7
  0
LINE
  8
0
 10
35
 20
29.7
 11
35.089
 21
29.6977
  0
LINE
  8
0
 10
35.089
 20
29.6977
 11
35.1777
 21
29.6907
  0
LINE
  8
0
 10
35.1777
 20
29.6907
 11
35.2659
 21
29.6791
  0
LINE
  8
0
 10
35.2659
 20
29.6791
 11
35.3535
 21
29.6628
  0
LINE
  8
0
 10
35.3535
 20
29.6628
 11
35.44
 21
29.6421
  0
LINE
  8
0
 10
35.44
 20
29.6421
 11
35.5253
 21
29.6168
  0
LINE
  8
0
 10
35.5253
 20
29.6168
 11
35.6092
 21
29.5871
  0
LINE
  8
0
 10
35.6092
 20
29.5871
 11
35.6915
 21
29.553
  0
LINE
  8
0
 10
35.6915
 20
29.553
 11
35.7718
 21
29.5147
  0
LINE
  8
0
 10
35.7718
 20
29.5147
 11
35.85
 21
29.4722
  0
LINE
  8
0
 10
35.85
 20
29.4722
 11
35.9259
 21
29.4257
  0
LINE
  8
0
 10
35.9259
 20
29.4257
 11
35.9992
 21
29.3753
  0
LINE
  8
0
 10
35.9992
 20
29.3753
 11
36.0698
 21
29.3211
  0
LINE
  8
0
 10
36.0698
 20
29.3211
 11
36.1375
 21
29.2633
  0
LINE
  8
0
 10
36.1375
 20
29.2633
 11
36.2021
 21
29.2021
  0
LINE
  8
0
 10
36.2021
 20
29.2021
 11
36.2633
 21
29.1375
  0
LINE
  8
0
 10
36.2633
 20
29.1375
 11
36.3211
 21
29.0698
  0
LINE
  8
0
 10
36.3211
 20
29.0698
 11
36.3753
 21
28.9992
  0
LINE
  8
0
 10
36.3753
 20
28.9992
 11
36.4257
 21
28.9259
  0
LINE
  8
0
 10
36.4257
 20
28.9259
 11
36.4722
 21
28.85
  0
LINE
  8
0
 10
36.4722
 20
28.85
 11
36.5147
 21
28.7718
  0
LINE
  8
0
 10
36.5147
 20
28.7718
 11
36.553
 21
28.6915
  0
LINE
  8
0
 10
36.553
 20
28.6915
 11
36.5871
 21
28.6092
  0
LINE
  8
0
 10
36.5871
 20
28.6092
 11
36.6168
 21
28.5253
  0
LINE
  8
0
 10
36.6168
 20
28.5253
 11
36.6421
 21
28.44
  0
LINE
  8
0
 10
36.6421
 20
28.44
 11
36.6628
 21
28.3535
  0
LINE
  8
0
 10
36.6628
 20
28.3535
 11
36.6791
 21
28.2659
  0
LINE
  8
0
 10
36.6791
 20
28.2659
 11
36.6907
 21
28.1777
  0
LINE
  8
0
 10
36.6907
 20
28.1777
 11
36.6977
 21
28.089
  0
LINE
  8
0
 10
36.6977
 20
28.089
 11
36.7
 21
28
  0
LINE
  8
0
 10
36.7
 20
28
 11
36.6977
 21
27.911
  0
LINE
  8
0
 10
36.6977
 20
27.911
 11
36.6907
 21
27.8223
  0
LINE
  8
0
 10
36.6907
 20
27.8223
 11
36.6791
 21
27.7341
  0
LINE
  8
0
 10
36.6791
 20
27.7341
 11
36.6628
 21
27.6465
  0
LINE
  8
0
 10
36.6628
 20
27.6465
 11
36.6421
 21
27.56
  0
LINE
  8
0
 10
36.6421
 20
27.56
 11
36.6168
 21
27.4747
  0
LINE
  8
0
 10
36.6168
 20
27.4747
 11
36.5871
 21
27.3908
  0
LINE
  8
0
 10
36.5871
 20
27.3908
 11
36.553
 21
27.3085
  0
LINE
  8
0
 10
36.553
 20
27.3085
 11
36.5147
 21
27.2282
  0
LINE
  8
0
 10
36.5147
 20
27.2282
 11
36.4722
 21
27.15
  0
LINE
  8
0
 10
36.4722
 20
27.15
 11
36.4257
 21
27.0741
  0
LINE
  8
0
 10
36.4257
 20
27.0741
 11
36.3753
 21
27.0008
  0
LINE
  8
0
 10
36.3753
 20
27.0008
 11
36.3211
 21
26.9302
  0
LINE
  8
0
 10
36.3211
 20
26.9302
 11
36.2633
 21
26.8625
  0
LINE
  8
0
 10
36.2633
 20
26.8625
 11
36.2021
 21
26.7979
  0
LINE
  8
0
 10
36.2021
 20
26.7979
 11
36.1375
 21
26.7367
  0
LINE
  8
0
 10
36.1375
 20
26.7367
 11
36.0698
 21
26.6789
  0
LINE
  8
0
 10
36.0698
 20
26.6789
 11
35.9992
 21
26.6247
  0
LINE
  8
0
 10
35.9992
 20
26.6247
 11
35.9259
 21
26.5743
  0
LINE
  8
0
 10
35.9259
 20
26.5743
 11
35.85
 21
26.5278
  0
LINE
  8
0
 10
35.85
 20
26.5278
 11
35.7718
 21
26.4853
  0
LINE
  8
0
 10
35.7718
 20
26.4853
 11
35.6915
 21
26.447
  0
LINE
  8
0
 10
35.6915
 20
26.447
 11
35.6092
 21
26.4129
  0
LINE
  8
0
 10
35.6092
 20
26.4129
 11
35.5253
 21
26.3832
  0
LINE
  8
0
 10
35.5253
 20
26.3832
 11
35.44
 21
26.3579
  0
LINE
  8
0
 10
35.44
 20
26.3579
 11
35.3535
 21
26.3371
  0
LINE
  8
0
 10
35.3535
 20
26.3371
 11
35.2659
 21
26.3209
  0
LINE
  8
0
 10
35.2659
 20
26.3209
 11
35.1777
 21
26.3093
  0
LINE
  8
0
 10
35.1777
 20
26.3093
 11
35.089
 21
26.3023
  0
LINE
  8
0
 10
35.089
 20
26.3023
 11
35
 21
26.3
  0
LINE
  8
0
 10
35
 20
26.3
 11
34.911
 21
26.3023
  0
LINE
  8
0
 10
24.8822
 20
22.7531
 11
24.7648
 21
22.7623
  0
LINE
  8
0
 10
24.7648
 20
22.7623
 11
24.648
 21
22.7777
  0
LINE
  8
0
 10
24.648
 20
22.7777
 11
24.5322
 21
22.7992
  0
LINE
  8
0
 10
24.5322
 20
22.7992
 11
24.4177
 21
22.8267
  0
LINE
  8
0
 10
24.4177
 20
22.8267
 11
24.3047
 21
22.8601
  0
LINE
  8
0
 10
24.3047
 20
22.8601
 11
24.1937
 21
22.8994
  0
LINE
  8
0
 10
24.1937
 20
22.8994
 11
24.0848
 21
22.9445
  0
LINE
  8
0
 10
24.0848
 20
22.9445
 11
23.9785
 21
22.9952
  0
LINE
  8
0
 10
23.9785
 20
22.9952
 11
23.875
 21
23.0514
  0
LINE
  8
0
 10
23.875
 20
23.0514
 11
23.7746
 21
23.113
  0
LINE
  8
0
 10
23.7746
 20
23.113
 11
23.6775
 21
23.1797
  0
LINE
  8
0
 10
23.6775
 20
23.1797
 11
23.584
 21
23.2514
  0
LINE
  8
0
 10
23.584
 20
23.2514
 11
23.4945
 21
23.3279
  0
LINE
  8
0
 10
23.4945
 20
23.3279
 11
23.409
 21
23.409
  0
LINE
  8
0
 10
23.409
 20
23.409
 11
23.3279
 21
23.4945
  0
LINE
  8
0
 10
23.3279
 20
23.4945
 11
23.2514
 21
23.584
  0
LINE
  8
0
 10
23.2514
 20
23.584
 11
23.1797
 21
23.6775
  0
LINE
  8
0
 10
23.1797
 20
23.6775
 11
23.113
 21
23.7746
  0
LINE
  8
0
 10
23.113
 20
23.7746
 11
23.0514
 21
23.875
  0
LINE
  8
0
 10
23.0514
 20
23.875
 11
22.9952
 21
23.9785
  0
LINE
  8
0
 10
22.9952
 20
23.9785
 11
22.9445
 21
24.0848
  0
LINE
  8
0
 10
22.9445
 20
24.0848
 11
22.8994
 21
24.1937
  0
LINE
  8
0
 10
22.8994
 20
24.1937
 11
22.8601
 21
24.3047
  0
LINE
  8
0
 10
22.8601
 20
24.3047
 11
22.8267
 21
24.4177
  0
LINE
  8
0
 10
22.8267
 20
24.4177
 11
22.7992
 21
24.5322
  0
LINE
  8
0
 10
22.7992
 20
24.5322
 11
22.7777
 21
24.648
  0
LINE
  8
0
 10
22.7777
 20
24.648
 11
22.7623
 21
24.7648
  0
LINE
  8
0
 10
22.7623
 20
24.7648
 11
22.7531
 21
24.8822
  0
LINE
  8
0
 10
22.7531
 20
24.8822
 11
22.75
 21
25
  0
LINE
  8
0
 10
22.75
 20
25
 11
22.7531
 21
25.1178
  0
LINE
  8
0
 10
22.7531
 20
25.1178
 11
22.7623
 21
25.2352
  0
LINE
  8
0
 10
22.7623
 20
25.2352
 11
22.7777
 21
25.352
  0
LINE
  8
0
 10
22.7777
 20
25.352
 11
22.7992
 21
25.4678
  0
LINE
  8
0
 10
22.7992
 20
25.4678
 11
22.8267
 21
25.5823
  0
LINE
  8
0
 10
22.8267
 20
25.5823
 11
22.8601
 21
25.6953
  0
LINE
  8
0
 10
22.8601
 20
25.6953
 11
22.8994
 21
25.8063
  0
LINE
  8
0
 10
22.8994
 20
25.8063
 11
22.9445
 21
25.9152
  0
LINE
  8
0
 10
22.9445
 20
25.9152
 11
22.9952
 21
26.0215
  0
LINE
  8
0
 10
22.9952
 20
26.0215
 11
23.0514
 21
26.125
  0
LINE
  8
0
 10
23.0514
 20
26.125
 11
23.113
 21
26.2254
  0
LINE
  8
0
 10
23.113
 20
26.2254
 11
23.1797
 21
26.3225
  0
LINE
  8
0
 10
23.1797
 20
26.3225
 11
23.2514
 21
26.416
  0
LINE
  8
0
 10
23.2514
 20
26.416
 11
23.3279
 21
26.5055
  0
LINE
  8
0
 10
23.3279
 20
26.5055
 11
23.409
 21
26.591
  0
LINE
  8
0
 10
23.409
 20
26.591
 11
23.4945
 21
26.6721
  0
LINE
  8
0
 10
23.4945
 20
26.6721
 11
23.584
 21
26.7486
  0
LINE
  8
0
 10
23.584
 20
26.7486
 11
23.6775
 21
26.8203
  0
LINE
  8
0
 10
23.6775
 20
26.8203
 11
23.7746
 21
26.887
  0
LINE
  8
0
 10
23.7746
 20
26.887
 11
23.875
 21
26.9486
  0
LINE
  8
0
 10
23.875
 20
26.9486
 11
23.9785
 21
27.0048
  0
LINE
  8
0
 10
23.9785
 20
27.0048
 11
24.0848
 21
27.0555
  0
LINE
  8
0
 10
24.0848
 20
27.0555
 11
24.1937
 21
27.1006
  0
LINE
  8
0
 10
24.1937
 20
27.1006
 11
24.3047
 21
27.1399
  0
LINE
  8
0
 10
24.3047
 20
27.1399
 11
24.4177
 21
27.1733
  0
LINE
  8
0
 10
24.4177
 20
27.1733
 11
24.5322
 21
27.2008
  0
LINE
  8
0
 10
24.5322
 20
27.2008
 11
24.648
 21
27.2223
  0
LINE
  8
0
 10
24.648
 20
27.2223
 11
24.7648
 21
27.2377
  0
LINE
  8
0
 10
24.7648
 20
27.2377
 11
24.8822
 21
27.2469
  0
LINE
  8
0
 10
24.8822
 20
27.2469
 11
25
 21
27.25
  0
LINE
  8
0
 10
25
 20
27.25
 11
25.1178
 21
27.2469
  0
LINE
  8
0
 10
25.1178
 20
27.2469
 11
25.2352
 21
27.2377
  0
LINE
  8
0
 10
25.2352
 20
27.2377
 11
25.352
 21
27.2223
  0
LINE
  8
0
 10
25.352
 20
27.2223
 11
25.4678
 21
27.2008
  0
LINE
  8
0
 10
25.4678
 20
27.2008
 11
25.5823
 21
27.1733
  0
LINE
  8
0
 10
25.5823
 20
27.1733
 11
25.6953
 21
27.1399
  0
LINE
  8
0
 10
25.6953
 20
27.1399
 11
25.8063
 21
27.1006
  0
LINE
  8
0
 10
25.8063
 20
27.1006
 11
25.9152
 21
27.0555
  0
LINE
  8
0
 10
25.9152
 20
27.0555
 11
26.0215
 21
27.0048
  0
LINE
  8
0
 10
26.0215
 20
27.0048
 11
26.125
 21
26.9486
  0
LINE
  8
0
 10
26.125
 20
26.9486
 11
26.2254
 21
26.887
  0
LINE
  8
0
 10
26.2254
 20
26.887
 11
26.3225
 21
26.8203
  0
LINE
  8
0
 10
26.3225
 20
26.8203
 11
26.416
 21
26.7486
  0
LINE
  8
0
 10
26.416
 20
26.7486
 11
26.5055
 21
26.6721
  0
LINE
  8
0
 10
26.5055
 20
26.6721
 11
26.591
 21
26.591
  0
LINE
  8
0
 10
26.591
 20
26.591
 11
26.6721
 21
26.5055
  0
LINE
  8
0
 10
26.6721
 20
26.5055
 11
26.7486
 21
26.416
  0
LINE
  8
0
 10
26.7486
 20
26.416
 11
26.8203
 21
26.3225
  0
LINE
  8
0
 10
26.8203
 20
26.3225
 11
26.887
 21
26.2254
  0
LINE
  8
0
 10
26.887
 20
26.2254
 11
26.9486
 21
26.125
  0
LINE
  8
0
 10
26.9486
 20
26.125
 11
27.0048
 21
26.0215
  0
LINE
  8
0
 10
27.0048
 20
26.0215
 11
27.0555
 21
25.9152
  0
LINE
  8
0
 10
27.0555
 20
25.9152
 11
27.1006
 21
25.8063
  0
LINE
  8
0
 10
27.1006
 20
25.8063
 11
27.1399
 21
25.6953
  0
LINE
  8
0
 10
27.1399
 20
25.6953
 11
27.1733
 21
25.5823
  0
LINE
  8
0
 10
27.1733
 20
25.5823
 11
27.2008
 21
25.4678
  0
LINE
  8
0
 10
27.2008
 20
25.4678
 11
27.2223
 21
25.352
  0
LINE
  8
0
 10
27.2223
 20
25.352
 11
27.2377
 21
25.2352
  0
LINE
  8
0
 10
27.2377
 20
25.2352
 11
27.2469
 21
25.1178
  0
LINE
  8
0
 10
27.2469
 20
25.1178
 11
27.25
 21
25
  0
LINE
  8
0
 10
27.25
 20
25
 11
27.2469
 21
24.8822
  0
LINE
  8
0
 10
27.2469
 20
24.8822
 11
27.2377
 21
24.7648
  0
LINE
  8
0
 10
27.2377
 20
24.7648
 11
27.2223
 21
24.648
  0
LINE
  8
0
 10
27.2223
 20
24.648
 11
27.2008
 21
24.5322
  0
LINE
  8
0
 10
27.2008
 20
24.5322
 11
27.1733
 21
24.4177
  0
LINE
  8
0
 10
27.1733
 20
24.4177
 11
27.1399
 21
24.3047
  0
LINE
  8
0
 10
27.1399
 20
24.3047
 11
27.1006
 21
24.1937
  0
LINE
  8
0
 10
27.1006
 20
24.1937
 11
27.0555
 21
24.0848
  0
LINE
  8
0
 10
27.0555
 20
24.0848
 11
27.0048
 21
23.9785
  0
LINE
  8
0
 10
27.0048
 20
23.9785
 11
26.9486
 21
23.875
  0
LINE
  8
0
 10
26.9486
 20
23.875
 11
26.887
 21
23.7746
  0
LINE
  8
0
 10
26.887
 20
23.7746
 11
26.8203
 21
23.6775
  0
LINE
  8
0
 10
26.8203
 20
23.6775
 11
26.7486
 21
23.584
  0
LINE
  8
0
 10
26.7486
 20
23.584
 11
26.6721
 21
23.4945
  0
LINE
  8
0
 10
26.6721
 20
23.4945
 11
26.591
 21
23.409
  0
LINE
  8
0
 10
26.591
 20
23.409
 11
26.5055
 21
23.3279
  0
LINE
  8
0
 10
26.5055
 20
23.3279
 11
26.416
 21
23.2514
  0
LINE
  8
0
 10
26.416
 20
23.2514
 11
26.3225
 21
23.1797
  0
LINE
  8
0
 10
26.3225
 20
23.1797
 11
26.2254
 21
23.113
  0
LINE
  8
0
 10
26.2254
 20
23.113
 11
26.125
 21
23.0514
  0
LINE
  8
0
 10
26.125
 20
23.0514
 11
26.0215
 21
22.9952
  0
LINE
  8
0
 10
26.0215
 20
22.9952
 11
25.9152
 21
22.9445
  0
LINE
  8
0
 10
25.9152
 20
22.9445
 11
25.8063
 21
22.8994
  0
LINE
  8
0
 10
25.8063
 20
22.8994
 11
25.6953
 21
22.8601
  0
LINE
  8
0
 10
25.6953
 20
22.8601
 11
25.5823
 21
22.8267
  0
LINE
  8
0
 10
25.5823
 20
22.8267
 11
25.4678
 21
22.7992
  0
LINE
  8
0
 10
25.4678
 20
22.7992
 11
25.352
 21
22.7777
  0
LINE
  8
0
 10
25.352
 20
22.7777
 11
25.2352
 21
22.7623
  0
LINE
  8
0
 10
25.2352
 20
22.7623
 11
25.1178
 21
22.7531
  0
LINE
  8
0
 10
25.1178
 20
22.7531
 11
25
 21
22.75
  0
LINE
  8
0
 10
25
 20
22.75
 11
24.8822
 21
22.7531
  0
LINE
  8
0
 10
-25.1178
 20
22.7531
 11
-25.2352
 21
22.7623
  0
LINE
  8
0
 10
-25.2352
 20
22.7623
 11
-25.352
 21
22.7777
  0
LINE
  8
0
 10
-25.352
 20
22.7777
 11
-25.4678
 21
22.7992
  0
LINE
  8
0
 10
-25.4678
 20
22.7992
 11
-25.5823
 21
22.8267
  0
LINE
  8
0
 10
-25.5823
 20
22.8267
 11
-25.6953
 21
22.8601
  0
LINE
  8
0
 10
-25.6953
 20
22.8601
 11
-25.8063
 21
22.8994
  0
LINE
  8
0
 10
-25.8063
 20
22.8994
 11
-25.9152
 21
22.9445
  0
LINE
  8
0
 10
-25.9152
 20
22.9445
 11
-26.0215
 21
22.9952
  0
LINE
  8
0
 10
-26.0215
 20
22.9952
 11
-26.125
 21
23.0514
  0
LINE
  8
0
 10
-26.125
 20
23.0514
 11
-26.2254
 21
23.113
  0
LINE
  8
0
 10
-26.2254
 20
23.113
 11
-26.3225
 21
23.1797
  0
LINE
  8
0
 10
-26.3225
 20
23.1797
 11
-26.416
 21
23.2514
  0
LINE
  8
0
 10
-26.416
 20
23.2514
 11
-26.5055
 21
23.3279
  0
LINE
  8
0
 10
-26.5055
 20
23.3279
 11
-26.591
 21
23.409
  0
LINE
  8
0
 10
-26.591
 20
23.409
 11
-26.6721
 21
23.4945
  0
LINE
  8
0
 10
-26.6721
 20
23.4945
 11
-26.7486
 21
23.584
  0
LINE
  8
0
 10
-26.7486
 20
23.584
 11
-26.8203
 21
23.6775
  0
LINE
  8
0
 10
-26.8203
 20
23.6775
 11
-26.887
 21
23.7746
  0
LINE
  8
0
 10
-26.887
 20
23.7746
 11
-26.9486
 21
23.875
  0
LINE
  8
0
 10
-26.9486
 20
23.875
 11
-27.0048
 21
23.9785
  0
LINE
  8
0
 10
-27.0048
 20
23.9785
 11
-27.0555
 21
24.0848
  0
LINE
  8
0
 10
-27.0555
 20
24.0848
 11
-27.1006
 21
24.1937
  0
LINE
  8
0
 10
-27.1006
 20
24.1937
 11
-27.1399
 21
24.3047
  0
LINE
  8
0
 10
-27.1399
 20
24.3047
 11
-27.1733
 21
24.4177
  0
LINE
  8
0
 10
-27.1733
 20
24.4177
 11
-27.2008
 21
24.5322
  0
LINE
  8
0
 10
-27.2008
 20
24.5322
 11
-27.2223
 21
24.648
  0
LINE
  8
0
 10
-27.2223
 20
24.648
 11
-27.2377
 21
24.7648
  0
LINE
  8
0
 10
-27.2377
 20
24.7648
 11
-27.2469
 21
24.8822
  0
LINE
  8
0
 10
-27.2469
 20
24.8822
 11
-27.25
 21
25
  0
LINE
  8
0
 10
-27.25
 20
25
 11
-27.2469
 21
25.1178
  0
LINE
  8
0
 10
-27.2469
 20
25.1178
 11
-27.2377
 21
25.2352
  0
LINE
  8
0
 10
-27.2377
 20
25.2352
 11
-27.2223
 21
25.352
  0
LINE
  8
0
 10
-27.2223
 20
25.352
 11
-27.2008
 21
25.4678
  0
LINE
  8
0
 10
-27.2008
 20
25.4678
 11
-27.1733
 21
25.5823
  0
LINE
  8
0
 10
-27.1733
 20
25.5823
 11
-27.1399
 21
25.6953
  0
LINE
  8
0
 10
-27.1399
 20
25.6953
 11
-27.1006
 21
25.8063
  0
LINE
  8
0
 10
-27.1006
 20
25.8063
 11
-27.0555
 21
25.9152
  0
LINE
  8
0
 10
-27.0555
 20
25.9152
 11
-27.0048
 21
26.0215
  0
LINE
  8
0
 10
-27.0048
 20
26.0215
 11
-26.9486
 21
26.125
  0
LINE
  8
0
 10
-26.9486
 20
26.125
 11
-26.887
 21
26.2254
  0
LINE
  8
0
 10
-26.887
 20
26.2254
 11
-26.8203
 21
26.3225
  0
LINE
  8
0
 10
-26.8203
 20
26.3225
 11
-26.7486
 21
26.416
  0
LINE
  8
0
 10
-26.7486
 20
26.416
 11
-26.6721
 21
26.5055
  0
LINE
  8
0
 10
-26.6721
 20
26.5055
 11
-26.591
 21
26.591
  0
LINE
  8
0
 10
-26.591
 20
26.591
 11
-26.5055
 21
26.6721
  0
LINE
  8
0
 10
-26.5055
 20
26.6721
 11
-26.416
 21
26.7486
  0
LINE
  8
0
 10
-26.416
 20
26.7486
 11
-26.3225
 21
26.8203
  0
LINE
  8
0
 10
-26.3225
 20
26.8203
 11
-26.2254
 21
26.887
  0
LINE
  8
0
 10
-26.2254
 20
26.887
 11
-26.125
 21
26.9486
  0
LINE
  8
0
 10
-26.125
 20
26.9486
 11
-26.0215
 21
27.0048
  0
LINE
  8
0
 10
-26.0215
 20
27.0048
 11
-25.9152
 21
27.0555
  0
LINE
  8
0
 10
-25.9152
 20
27.0555
 11
-25.8063
 21
27.1006
  0
LINE
  8
0
 10
-25.8063
 20
27.1006
 11
-25.6953
 21
27.1399
  0
LINE
  8
0
 10
-25.6953
 20
27.1399
 11
-25.5823
 21
27.1733
  0
LINE
  8
0
 10
-25.5823
 20
27.1733
 11
-25.4678
 21
27.2008
  0
LINE
  8
0
 10
-25.4678
 20
27.2008
 11
-25.352
 21
27.2223
  0
LINE
  8
0
 10
-25.352
 20
27.2223
 11
-25.2352
 21
27.2377
  0
LINE
  8
0
 10
-25.2352
 20
27.2377
 11
-25.1178
 21
27.2469
  0
LINE
  8
0
 10
-25.1178
 20
27.2469
 11
-25
 21
27.25
  0
LINE
  8
0
 10
-25
 20
27.25
 11
-24.8822
 21
27.2469
  0
LINE
  8
0
 10
-24.8822
 20
27.2469
 11
-24.7648
 21
27.2377
  0
LINE
  8
0
 10
-24.7648
 20
27.2377
 11
-24.648
 21
27.2223
  0
LINE
  8
0
 10
-24.648
 20
27.2223
 11
-24.5322
 21
27.2008
  0
LINE
  8
0
 10
-24.5322
 20
27.2008
 11
-24.4177
 21
27.1733
  0
LINE
  8
0
 10
-24.4177
 20
27.1733
 11
-24.3047
 21
27.1399
  0
LINE
  8
0
 10
-24.3047
 20
27.1399
 11
-24.1937
 21
27.1006
  0
LINE
  8
0
 10
-24.1937
 20
27.1006
 11
-24.0848
 21
27.0555
  0
LINE
  8
0
 10
-24.0848
 20
27.0555
 11
-23.9785
 21
27.0048
  0
LINE
  8
0
 10
-23.9785
 20
27.0048
 11
-23.875
 21
26.9486
  0
LINE
  8
0
 10
-23.875
 20
26.9486
 11
-23.7746
 21
26.887
  0
LINE
  8
0
 10
-23.7746
 20
26.887
 11
-23.6775
 21
26.8203
  0
LINE
  8
0
 10
-23.6775
 20
26.8203
 11
-23.584
 21
26.7486
  0
LINE
  8
0
 10
-23.584
 20
26.7486
 11
-23.4945
 21
26.6721
  0
LINE
  8
0
 10
-23.4945
 20
26.6721
 11
-23.409
 21
26.591
  0
LINE
  8
0
 10
-23.409
 20
26.591
 11
-23.3279
 21
26.5055
  0
LINE
  8
0
 10
-23.3279
 20
26.5055
 11
-23.2514
 21
26.416
  0
LINE
  8
0
 10
-23.2514
 20
26.416
 11
-23.1797
 21
26.3225
  0
LINE
  8
0
 10
-23.1797
 20
26.3225
 11
-23.113
 21
26.2254
  0
LINE
  8
0
 10
-23.113
 20
26.2254
 11
-23.0514
 21
26.125
  0
LINE
  8
0
 10
-23.0514
 20
26.125
 11
-22.9952
 21
26.0215
  0
LINE
  8
0
 10
-22.9952
 20
26.0215
 11
-22.9445
 21
25.9152
  0
LINE
  8
0
 10
-22.9445
 20
25.9152
 11
-22.8994
 21
25.8063
  0
LINE
  8
0
 10
-22.8994
 20
25.8063
 11
-22.8601
 21
25.6953
  0
LINE
  8
0
 10
-22.8601
 20
25.6953
 11
-22.8267
 21
25.5823
  0
LINE
  8
0
 10
-22.8267
 20
25.5823
 11
-22.7992
 21
25.4678
  0
LINE
  8
0
 10
-22.7992
 20
25.4678
 11
-22.7777
 21
25.352
  0
LINE
  8
0
 10
-22.7777
 20
25.352
 11
-22.7623
 21
25.2352
  0
LINE
  8
0
 10
-22.7623
 20
25.2352
 11
-22.7531
 21
25.1178
  0
LINE
  8
0
 10
-22.7531
 20
25.1178
 11
-22.75
 21
25
  0
LINE
  8
0
 10
-22.75
 20
25
 11
-22.7531
 21
24.8822
  0
LINE
  8
0
 10
-22.7531
 20
24.8822
 11
-22.7623
 21
24.7648
  0
LINE
  8
0
 10
-22.7623
 20
24.7648
 11
-22.7777
 21
24.648
  0
LINE
  8
0
 10
-22.7777
 20
24.648
 11
-22.7992
 21
24.5322
  0
LINE
  8
0
 10
-22.7992
 20
24.5322
 11
-22.8267
 21
24.4177
  0
LINE
  8
0
 10
-22.8267
 20
24.4177
 11
-22.8601
 21
24.3047
  0
LINE
  8
0
 10
-22.8601
 20
24.3047
 11
-22.8994
 21
24.1937
  0
LINE
  8
0
 10
-22.8994
 20
24.1937
 11
-22.9445
 21
24.0848
  0
LINE
  8
0
 10
-22.9445
 20
24.0848
 11
-22.9952
 21
23.9785
  0
LINE
  8
0
 10
-22.9952
 20
23.9785
 11
-23.0514
 21
23.875
  0
LINE
  8
0
 10
-23.0514
 20
23.875
 11
-23.113
 21
23.7746
  0
LINE
  8
0
 10
-23.113
 20
23.7746
 11
-23.1797
 21
23.6775
  0
LINE
  8
0
 10
-23.1797
 20
23.6775
 11
-23.2514
 21
23.584
  0
LINE
  8
0
 10
-23.2514
 20
23.584
 11
-23.3279
 21
23.4945
  0
LINE
  8
0
 10
-23.3279
 20
23.4945
 11
-23.409
 21
23.409
  0
LINE
  8
0
 10
-23.409
 20
23.409
 11
-23.4945
 21
23.3279
  0
LINE
  8
0
 10
-23.4945
 20
23.3279
 11
-23.584
 21
23.2514
  0
LINE
  8
0
 10
-23.584
 20
23.2514
 11
-23.6775
 21
23.1797
  0
LINE
  8
0
 10
-23.6775
 20
23.1797
 11
-23.7746
 21
23.113
  0
LINE
  8
0
 10
-23.7746
 20
23.113
 11
-23.875
 21
23.0514
  0
LINE
  8
0
 10
-23.875
 20
23.0514
 11
-23.9785
 21
22.9952
  0
LINE
  8
0
 10
-23.9785
 20
22.9952
 11
-24.0848
 21
22.9445
  0
LINE
  8
0
 10
-24.0848
 20
22.9445
 11
-24.1937
 21
22.8994
  0
LINE
  8
0
 10
-24.1937
 20
22.8994
 11
-24.3047
 21
22.8601
  0
LINE
  8
0
 10
-24.3047
 20
22.8601
 11
-24.4177
 21
22.8267
  0
LINE
  8
0
 10
-24.4177
 20
22.8267
 11
-24.5322
 21
22.7992
  0
LINE
  8
0
 10
-24.5322
 20
22.7992
 11
-24.648
 21
22.7777
  0
LINE
  8
0
 10
-24.648
 20
22.7777
 11
-24.7648
 21
22.7623
  0
LINE
  8
0
 10
-24.7648
 20
22.7623
 11
-24.8822
 21
22.7531
  0
LINE
  8
0
 10
-24.8822
 20
22.7531
 11
-25
 21
22.75
  0
LINE
  8
0
 10
-25
 20
22.75
 11
-25.1178
 21
22.7531
  0
LINE
  8
0
 10
-35.089
 20
18.3023
 11
-35.1777
 21
18.3093
  0
LINE
  8
0
 10
-35.1777
 20
18.3093
 11
-35.2659
 21
18.3209
  0
LINE
  8
0
 10
-35.2659
 20
18.3209
 11
-35.3535
 21
18.3371
  0
LINE
  8
0
 10
-35.3535
 20
18.3371
 11
-35.44
 21
18.3579
  0
LINE
  8
0
 10
-35.44
 20
18.3579
 11
-35.5253
 21
18.3832
  0
LINE
  8
0
 10
-35.5253
 20
18.3832
 11
-35.6092
 21
18.4129
  0
LINE
  8
0
 10
-35.6092
 20
18.4129
 11
-35.6915
 21
18.447
  0
LINE
  8
0
 10
-35.6915
 20
18.447
 11
-35.7718
 21
18.4853
  0
LINE
  8
0
 10
-35.7718
 20
18.4853
 11
-35.85
 21
18.5278
  0
LINE
  8
0
 10
-35.85
 20
18.5278
 11
-35.9259
 21
18.5743
  0
LINE
  8
0
 10
-35.9259
 20
18.5743
 11
-35.9992
 21
18.6247
  0
LINE
  8
0
 10
-35.9992
 20
18.6247
 11
-36.0698
 21
18.6789
  0
LINE
  8
0
 10
-36.0698
 20
18.6789
 11
-36.1375
 21
18.7367
  0
LINE
  8
0
 10
-36.1375
 20
18.7367
 11
-36.2021
 21
18.7979
  0
LINE
  8
0
 10
-36.2021
 20
18.7979
 11
-36.2633
 21
18.8625
  0
LINE
  8
0
 10
-36.2633
 20
18.8625
 11
-36.3211
 21
18.9302
  0
LINE
  8
0
 10
-36.3211
 20
18.9302
 11
-36.3753
 21
19.0008
  0
LINE
  8
0
 10
-36.3753
 20
19.0008
 11
-36.4257
 21
19.0741
  0
LINE
  8
0
 10
-36.4257
 20
19.0741
 11
-36.4722
 21
19.15
  0
LINE
  8
0
 10
-36.4722
 20
19.15
 11
-36.5147
 21
19.2282
  0
LINE
  8
0
 10
-36.5147
 20
19.2282
 11
-36.553
 21
19.3085
  0
LINE
  8
0
 10
-36.553
 20
19.3085
 11
-36.5871
 21
19.3908
  0
LINE
  8
0
 10
-36.5871
 20
19.3908
 11
-36.6168
 21
19.4747
  0
LINE
  8
0
 10
-36.6168
 20
19.4747
 11
-36.6421
 21
19.56
  0
LINE
  8
0
 10
-36.6421
 20
19.56
 11
-36.6628
 21
19.6465
  0
LINE
  8
0
 10
-36.6628
 20
19.6465
 11
-36.6791
 21
19.7341
  0
LINE
  8
0
 10
-36.6791
 20
19.7341
 11
-36.6907
 21
19.8223
  0
LINE
  8
0
 10
-36.6907
 20
19.8223
 11
-36.6977
 21
19.911
  0
LINE
  8
0
 10
-36.6977
 20
19.911
 11
-36.7
 21
20
  0
LINE
  8
0
 10
-36.7
 20
20
 11
-36.6977
 21
20.089
  0
LINE
  8
0
 10
-36.6977
 20
20.089
 11
-36.6907
 21
20.1777
  0
LINE
  8
0
 10
-36.6907
 20
20.1777
 11
-36.6791
 21
20.2659
  0
LINE
  8
0
 10
-36.6791
 20
20.2659
 11
-36.6628
 21
20.3535
  0
LINE
  8
0
 10
-36.6628
 20
20.3535
 11
-36.6421
 21
20.44
  0
LINE
  8
0
 10
-36.6421
 20
20.44
 11
-36.6168
 21
20.5253
  0
LINE
  8
0
 10
-36.6168
 20
20.5253
 11
-36.5871
 21
20.6092
  0
LINE
  8
0
 10
-36.5871
 20
20.6092
 11
-36.553
 21
20.6915
  0
LINE
  8
0
 10
-36.553
 20
20.6915
 11
-36.5147
 21
20.7718
  0
LINE
  8
0
 10
-36.5147
 20
20.7718
 11
-36.4722
 21
20.85
  0
LINE
  8
0
 10
-36.4722
 20
20.85
 11
-36.4257
 21
20.9259
  0
LINE
  8
0
 10
-36.4257
 20
20.9259
 11
-36.3753
 21
20.9992
  0
LINE
  8
0
 10
-36.3753
 20
20.9992
 11
-36.3211
 21
21.0698
  0
LINE
  8
0
 10
-36.3211
 20
21.0698
 11
-36.2633
 21
21.1375
  0
LINE
  8
0
 10
-36.2633
 20
21.1375
 11
-36.2021
 21
21.2021
  0
LINE
  8
0
 10
-36.2021
 20
21.2021
 11
-36.1375
 21
21.2633
  0
LINE
  8
0
 10
-36.1375
 20
21.2633
 11
-36.0698
 21
21.3211
  0
LINE
  8
0
 10
-36.0698
 20
21.3211
 11
-35.9992
 21
21.3753
  0
LINE
  8
0
 10
-35.9992
 20
21.3753
 11
-35.9259
 21
21.4257
  0
LINE
  8
0
 10
-35.9259
 20
21.4257
 11
-35.85
 21
21.4722
  0
LINE
  8
0
 10
-35.85
 20
21.4722
 11
-35.7718
 21
21.5147
  0
LINE
  8
0
 10
-35.7718
 20
21.5147
 11
-35.6915
 21
21.553
  0
LINE
  8
0
 10
-35.6915
 20
21.553
 11
-35.6092
 21
21.5871
  0
LINE
  8
0
 10
-35.6092
 20
21.5871
 11
-35.5253
 21
21.6168
  0
LINE
  8
0
 10
-35.5253
 20
21.6168
 11
-35.44
 21
21.6421
  0
LINE
  8
0
 10
-35.44
 20
21.6421
 11
-35.3535
 21
21.6628
  0
LINE
  8
0
 10
-35.3535
 20
21.6628
 11
-35.2659
 21
21.6791
  0
LINE
  8
0
 10
-35.2659
 20
21.6791
 11
-35.1777
 21
21.6907
  0
LINE
  8
0
 10
-35.1777
 20
21.6907
 11
-35.089
 21
21.6977
  0
LINE
  8
0
 10
-35.089
 20
21.6977
 11
-35
 21
21.7
  0
LINE
  8
0
 10
-35
 20
21.7
 11
-34.911
 21
21.6977
  0
LINE
  8
0
 10
-34.911
 20
21.6977
 11
-34.8223
 21
21.6907
  0
LINE
  8
0
 10
-34.8223
 20
21.6907
 11
-34.7341
 21
21.6791
  0
LINE
  8
0
 10
-34.7341
 20
21.6791
 11
-34.6465
 21
21.6628
  0
LINE
  8
0
 10
-34.6465
 20
21.6628
 11
-34.56
 21
21.6421
  0
LINE
  8
0
 10
-34.56
 20
21.6421
 11
-34.4747
 21
21.6168
  0
LINE
  8
0
 10
-34.4747
 20
21.6168
 11
-34.3908
 21
21.5871
  0
LINE
  8
0
 10
-34.3908
 20
21.5871
 11
-34.3085
 21
21.553
  0
LINE
  8
0
 10
-34.3085
 20
21.553
 11
-34.2282
 21
21.5147
  0
LINE
  8
0
 10
-34.2282
 20
21.5147
 11
-34.15
 21
21.4722
  0
LINE
  8
0
 10
-34.15
 20
21.4722
 11
-34.0741
 21
21.4257
  0
LINE
  8
0
 10
-34.0741
 20
21.4257
 11
-34.0008
 21
21.3753
  0
LINE
  8
0
 10
-34.0008
 20
21.3753
 11
-33.9302
 21
21.3211
  0
LINE
  8
0
 10
-33.9302
 20
21.3211
 11
-33.8625
 21
21.2633
  0
LINE
  8
0
 10
-33.8625
 20
21.2633
 11
-33.7979
 21
21.2021
  0
LINE
  8
0
 10
-33.7979
 20
21.2021
 11
-33.7367
 21
21.1375
  0
LINE
  8
0
 10
-33.7367
 20
21.1375
 11
-33.6789
 21
21.0698
  0
LINE
  8
0
 10
-33.6789
 20
21.0698
 11
-33.6247
 21
20.9992
  0
LINE
  8
0
 10
-33.6247
 20
20.9992
 11
-33.5743
 21
20.9259
  0
LINE
  8
0
 10
-33.5743
 20
20.9259
 11
-33.5278
 21
20.85
  0
LINE
  8
0
 10
-33.5278
 20
20.85
 11
-33.4853
 21
20.7718
  0
LINE
  8
0
 10
-33.4853
 20
20.7718
 11
-33.447
 21
20.6915
  0
LINE
  8
0
 10
-33.447
 20
20.6915
 11
-33.4129
 21
20.6092
  0
LINE
  8
0
 10
-33.4129
 20
20.6092
 11
-33.3832
 21
20.5253
  0
LINE
  8
0
 10
-33.3832
 20
20.5253
 11
-33.3579
 21
20.44
  0
LINE
  8
0
 10
-33.3579
 20
20.44
 11
-33.3372
 21
20.3535
  0
LINE
  8
0
 10
-33.3372
 20
20.3535
 11
-33.3209
 21
20.2659
  0
LINE
  8
0
 10
-33.3209
 20
20.2659
 11
-33.3093
 21
20.1777
  0
LINE
  8
0
 10
-33.3093
 20
20.1777
 11
-33.3023
 21
20.089
  0
LINE
  8
0
 10
-33.3023
 20
20.089
 11
-33.3
 21
20
  0
LINE
  8
0
 10
-33.3
 20
20
 11
-33.3023
 21
19.911
  0
LINE
  8
0
 10
-33.3023
 20
19.911
 11
-33.3093
 21
19.8223
  0
LINE
  8
0
 10
-33.3093
 20
19.8223
 11
-33.3209
 21
19.7341
  0
LINE
  8
0
 10
-33.3209
 20
19.7341
 11
-33.3372
 21
19.6465
  0
LINE
  8
0
 10
-33.3372
 20
19.6465
 11
-33.3579
 21
19.56
  0
LINE
  8
0
 10
-33.3579
 20
19.56
 11
-33.3832
 21
19.4747
  0
LINE
  8
0
 10
-33.3832
 20
19.4747
 11
-33.4129
 21
19.3908
  0
LINE
  8
0
 10
-33.4129
 20
19.3908
 11
-33.447
 21
19.3085
  0
LINE
  8
0
 10
-33.447
 20
19.3085
 11
-33.4853
 21
19.2282
  0
LINE
  8
0
 10
-33.4853
 20
19.2282
 11
-33.5278
 21
19.15
  0
LINE
  8
0
 10
-33.5278
 20
19.15
 11
-33.5743
 21
19.0741
  0
LINE
  8
0
 10
-33.5743
 20
19.0741
 11
-33.6247
 21
19.0008
  0
LINE
  8
0
 10
-33.6247
 20
19.0008
 11
-33.6789
 21
18.9302
  0
LINE
  8
0
 10
-33.6789
 20
18.9302
 11
-33.7367
 21
18.8625
  0
LINE
  8
0
 10
-33.7367
 20
18.8625
 11
-33.7979
 21
18.7979
  0
LINE
  8
0
 10
-33.7979
 20
18.7979
 11
-33.8625
 21
18.7367
  0
LINE
  8
0
 10
-33.8625
 20
18.7367
 11
-33.9302
 21
18.6789
  0
LINE
  8
0
 10
-33.9302
 20
18.6789
 11
-34.0008
 21
18.6247
  0
LINE
  8
0
 10
-34.0008
 20
18.6247
 11
-34.0741
 21
18.5743
  0
LINE
  8
0
 10
-34.0741
 20
18.5743
 11
-34.15
 21
18.5278
  0
LINE
  8
0
 10
-34.15
 20
18.5278
 11
-34.2282
 21
18.4853
  0
LINE
  8
0
 10
-34.2282
 20
18.4853
 11
-34.3085
 21
18.447
  0
LINE
  8
0
 10
-34.3085
 20
18.447
 11
-34.3908
 21
18.4129
  0
LINE
  8
0
 10
-34.3908
 20
18.4129
 11
-34.4747
 21
18.3832
  0
LINE
  8
0
 10
-34.4747
 20
18.3832
 11
-34.56
 21
18.3579
  0
LINE
  8
0
 10
-34.56
 20
18.3579
 11
-34.6465
 21
18.3371
  0
LINE
  8
0
 10
-34.6465
 20
18.3371
 11
-34.7341
 21
18.3209
  0
LINE
  8
0
 10
-34.7341
 20
18.3209
 11
-34.8223
 21
18.3093
  0
LINE
  8
0
 10
-34.8223
 20
18.3093
 11
-34.911
 21
18.3023
  0
LINE
  8
0
 10
-34.911
 20
18.3023
 11
-35
 21
18.3
  0
LINE
  8
0
 10
-35
 20
18.3
 11
-35.089
 21
18.3023
  0
LINE
  8
0
 10
-0.314011
 20
-5.99178
 11
-0.627167
 21
-5.96712
  0
LINE
  8
0
 10
-0.627167
 20
-5.96712
 11
-0.938599
 21
-5.92612
  0
LINE
  8
0
 10
-0.938599
 20
-5.92612
 11
-1.24747
 21
-5.86888
  0
LINE
  8
0
 10
-1.24747
 20
-5.86888
 11
-1.5529
 21
-5.79555
  0
LINE
  8
0
 10
-1.5529
 20
-5.79555
 11
-1.8541
 21
-5.70633
  0
LINE
  8
0
 10
-1.8541
 20
-5.70633
 11
-2.15021
 21
-5.60147
  0
LINE
  8
0
 10
-2.15021
 20
-5.60147
 11
-2.44041
 21
-5.48126
  0
LINE
  8
0
 10
-2.44041
 20
-5.48126
 11
-2.72394
 21
-5.34604
  0
LINE
  8
0
 10
-2.72394
 20
-5.34604
 11
-3
 21
-5.19614
  0
LINE
  8
0
 10
-3
 20
-5.19614
 11
-3.26782
 21
-5.03201
  0
LINE
  8
0
 10
-3.26782
 20
-5.03201
 11
-3.5267
 21
-4.8541
  0
LINE
  8
0
 10
-3.5267
 20
-4.8541
 11
-3.77591
 21
-4.66287
  0
LINE
  8
0
 10
-3.77591
 20
-4.66287
 11
-4.01477
 21
-4.45886
  0
LINE
  8
0
 10
-4.01477
 20
-4.45886
 11
-4.24263
 21
-4.24263
  0
LINE
  8
0
 10
-4.24263
 20
-4.24263
 11
-4.45886
 21
-4.01477
  0
LINE
  8
0
 10
-4.45886
 20
-4.01477
 11
-4.66287
 21
-3.77591
  0
LINE
  8
0
 10
-4.66287
 20
-3.77591
 11
-4.8541
 21
-3.5267
  0
LINE
  8
0
 10
-4.8541
 20
-3.5267
 11
-5.03201
 21
-3.26782
  0
LINE
  8
0
 10
-5.03201
 20
-3.26782
 11
-5.19614
 21
-3
  0
LINE
  8
0
 10
-5.19614
 20
-3
 11
-5.34604
 21
-2.72394
  0
LINE
  8
0
 10
-5.34604
 20
-2.72394
 11
-5.48126
 21
-2.44041
  0
LINE
  8
0
 10
-5.48126
 20
-2.44041
 11
-5.60147
 21
-2.15021
  0
LINE
  8
0
 10
-5.60147
 20
-2.15021
 11
-5.70633
 21
-1.8541
  0
LINE
  8
0
 10
-5.70633
 20
-1.8541
 11
-5.79555
 21
-1.5529
  0
LINE
  8
0
 10
-5.79555
 20
-1.5529
 11
-5.86888
 21
-1.24747
  0
LINE
  8
0
 10
-5.86888
 20
-1.24747
 11
-5.92612
 21
-0.938599
  0
LINE
  8
0
 10
-5.92612
 20
-0.938599
 11
-5.96712
 21
-0.627167
  0
LINE
  8
0
 10
-5.96712
 20
-0.627167
 11
-5.99178
 21
-0.314011
  0
LINE
  8
0
 10
-5.99178
 20
-0.314011
 11
-6
 21
0
  0
LINE
  8
0
 10
-6
 20
0
 11
-5.99178
 21
0.314011
  0
LINE
  8
0
 10
-5.99178
 20
0.314011
 11
-5.96712
 21
0.627167
  0
LINE
  8
0
 10
-5.96712
 20
0.627167
 11
-5.92612
 21
0.938599
  0
LINE
  8
0
 10
-5.92612
 20
0.938599
 11
-5.86888
 21
1.24747
  0
LINE
  8
0
 10
-5.86888
 20
1.24747
 11
-5.79555
 21
1.5529
  0
LINE
  8
0
 10
-5.79555
 20
1.5529
 11
-5.70633
 21
1.8541
  0
LINE
  8
0
 10
-5.70633
 20
1.8541
 11
-5.60147
 21
2.15021
  0
LINE
  8
0
 10
-5.60147
 20
2.15021
 11
-5.48126
 21
2.44041
  0
LINE
  8
0
 10
-5.48126
 20
2.44041
 11
-5.34604
 21
2.72394
  0
LINE
  8
0
 10
-5.34604
 20
2.72394
 11
-5.19614
 21
3
  0
LINE
  8
0
 10
-5.19614
 20
3
 11
-5.03201
 21
3.26782
  0
LINE
  8
0
 10
-5.03201
 20
3.26782
 11
-4.8541
 21
3.5267
  0
LINE
  8
0
 10
-4.8541
 20
3.5267
 11
-4.66287
 21
3.77591
  0
LINE
  8
0
 10
-4.66287
 20
3.77591
 11
-4.45886
 21
4.01477
  0
LINE
  8
0
 10
-4.45886
 20
4.01477
 11
-4.24263
 21
4.24263
  0
LINE
  8
0
 10
-4.24263
 20
4.24263
 11
-4.01477
 21
4.45886
  0
LINE
  8
0
 10
-4.01477
 20
4.45886
 11
-3.77591
 21
4.66287
  0
LINE
  8
0
 10
-3.77591
 20
4.66287
 11
-3.5267
 21
4.8541
  0
LINE
  8
0
 10
-3.5267
 20
4.8541
 11
-3.26782
 21
5.03201
  0
LINE
  8
0
 10
-3.26782
 20
5.03201
 11
-3
 21
5.19614
  0
LINE
  8
0
 10
-3
 20
5.19614
 11
-2.72394
 21
5.34604
  0
LINE
  8
0
 10
-2.72394
 20
5.34604
 11
-2.44041
 21
5.48126
  0
LINE
  8
0
 10
-2.44041
 20
5.48126
 11
-2.15021
 21
5.60147
  0
LINE
  8
0
 10
-2.15021
 20
5.60147
 11
-1.8541
 21
5.70633
  0
LINE
  8
0
 10
-1.8541
 20
5.70633
 11
-1.5529
 21
5.79555
  0
LINE
  8
0
 10
-1.5529
 20
5.79555
 11
-1.24747
 21
5.86888
  0
LINE
  8
0
 10
-1.24747
 20
5.86888
 11
-0.938599
 21
5.92612
  0
LINE
  8
0
 10
-0.938599
 20
5.92612
 11
-0.627167
 21
5.96712
  0
LINE
  8
0
 10
-0.627167
 20
5.96712
 11
-0.314011
 21
5.99178
  0
LINE
  8
0
 10
-0.314011
 20
5.99178
 11
0
 21
6
  0
LINE
  8
0
 10
0
 20
6
 11
0.314011
 21
5.99178
  0
LINE
  8
0
 10
0.314011
 20
5.99178
 11
0.627167
 21
5.96712
  0
LINE
  8
0
 10
0.627167
 20
5.96712
 11
0.938599
 21
5.92612
  0
LINE
  8
0
 10
0.938599
 20
5.92612
 11
1.24747
 21
5.86888
  0
LINE
  8
0
 10
1.24747
 20
5.86888
 11
1.5529
 21
5.79555
  0
LINE
  8
0
 10
1.5529
 20
5.79555
 11
1.8541
 21
5.70633
  0
LINE
  8
0
 10
1.8541
 20
5.70633
 11
2.15021
 21
5.60147
  0
LINE
  8
0
 10
2.15021
 20
5.60147
 11
2.44041
 21
5.48126
  0
LINE
  8
0
 10
2.44041
 20
5.48126
 11
2.72394
 21
5.34604
  0
LINE
  8
0
 10
2.72394
 20
5.34604
 11
3
 21
5.19614
  0
LINE
  8
0
 10
3
 20
5.19614
 11
3.26782
 21
5.03201
  0
LINE
  8
0
 10
3.26782
 20
5.03201
 11
3.5267
 21
4.8541
  0
LINE
  8
0
 10
3.5267
 20
4.8541
 11
3.77591
 21
4.66287
  0
LINE
  8
0
 10
3.77591
 20
4.66287
 11
4.01477
 21
4.45886
  0
LINE
  8
0
 10
4.01477
 20
4.45886
 11
4.24263
 21
4.24263
  0
LINE
  8
0
 10
4.24263
 20
4.24263
 11
4.45886
 21
4.01477
  0
LINE
  8
0
 10
4.45886
 20
4.01477
 11
4.66287
 21
3.77591
  0
LINE
  8
0
 10
4.66287
 20
3.77591
 11
4.8541
 21
3.5267
  0
LINE
  8
0
 10
4.8541
 20
3.5267
 11
5.03201
 21
3.26782
  0
LINE
  8
0
 10
5.03201
 20
3.26782
 11
5.19614
 21
3
  0
LINE
  8
0
 10
5.19614
 20
3
 11
5.34604
 21
2.72394
  0
LINE
  8
0
 10
5.34604
 20
2.72394
 11
5.48126
 21
2.44041
  0
LINE
  8
0
 10
5.48126
 20
2.44041
 11
5.60147
 21
2.15021
  0
LINE
  8
0
 10
5.60147
 20
2.15021
 11
5.70633
 21
1.8541
  0
LINE
  8
0
 10
5.70633
 20
1.8541
 11
5.79555
 21
1.5529
  0
LINE
  8
0
 10
5.79555
 20
1.5529
 11
5.86888
 21
1.24747
  0
LINE
  8
0
 10
5.86888
 20
1.24747
 11
5.92612
 21
0.938599
  0
LINE
  8
0
 10
5.92612
 20
0.938599
 11
5.96712
 21
0.627167
  0
LINE
  8
0
 10
5.96712
 20
0.627167
 11
5.99178
 21
0.314011
  0
LINE
  8
0
 10
5.99178
 20
0.314011
 11
6
 21
0
  0
LINE
  8
0
 10
6
 20
0
 11
5.99178
 21
-0.314011
  0
LINE
  8
0
 10
5.99178
 20
-0.314011
 11
5.96712
 21
-0.627167
  0
LINE
  8
0
 10
5.96712
 20
-0.627167
 11
5.92612
 21
-0.938599
  0
LINE
  8
0
 10
5.92612
 20
-0.938599
 11
5.86888
 21
-1.24747
  0
LINE
  8
0
 10
5.86888
 20
-1.24747
 11
5.79555
 21
-1.5529
  0
LINE
  8
0
 10
5.79555
 20
-1.5529
 11
5.70633
 21
-1.8541
  0
LINE
  8
0
 10
5.70633
 20
-1.8541
 11
5.60147
 21
-2.15021
  0
LINE
  8
0
 10
5.60147
 20
-2.15021
 11
5.48126
 21
-2.44041
  0
LINE
  8
0
 10
5.48126
 20
-2.44041
 11
5.34604
 21
-2.72394
  0
LINE
  8
0
 10
5.34604
 20
-2.72394
 11
5.19614
 21
-3
  0
LINE
  8
0
 10
5.19614
 20
-3
 11
5.03201
 21
-3.26782
  0
LINE
  8
0
 10
5.03201
 20
-3.26782
 11
4.8541
 21
-3.5267
  0
LINE
  8
0
 10
4.8541
 20
-3.5267
 11
4.66287
 21
-3.77591
  0
LINE
  8
0
 10
4.66287
 20
-3.77591
 11
4.45886
 21
-4.01477
  0
LINE
  8
0
 10
4.45886
 20
-4.01477
 11
4.24263
 21
-4.24263
  0
LINE
  8
0
 10
4.24263
 20
-4.24263
 11
4.01477
 21
-4.45886
  0
LINE
  8
0
 10
4.01477
 20
-4.45886
 11
3.77591
 21
-4.66287
  0
LINE
  8
0
 10
3.77591
 20
-4.66287
 11
3.5267
 21
-4.8541
  0
LINE
  8
0
 10
3.5267
 20
-4.8541
 11
3.26782
 21
-5.03201
  0
LINE
  8
0
 10
3.26782
 20
-5.03201
 11
3
 21
-5.19614
  0
LINE
  8
0
 10
3
 20
-5.19614
 11
2.72394
 21
-5.34604
  0
LINE
  8
0
 10
2.72394
 20
-5.34604
 11
2.44041
 21
-5.48126
  0
LINE
  8
0
 10
2.44041
 20
-5.48126
 11
2.15021
 21
-5.60147
  0
LINE
  8
0
 10
2.15021
 20
-5.60147
 11
1.8541
 21
-5.70633
  0
LINE
  8
0
 10
1.8541
 20
-5.70633
 11
1.5529
 21
-5.79555
  0
LINE
  8
0
 10
1.5529
 20
-5.79555
 11
1.24747
 21
-5.86888
  0
LINE
  8
0
 10
1.24747
 20
-5.86888
 11
0.938599
 21
-5.92612
  0
LINE
  8
0
 10
0.938599
 20
-5.92612
 11
0.627167
 21
-5.96712
  0
LINE
  8
0
 10
0.627167
 20
-5.96712
 11
0.314011
 21
-5.99178
  0
LINE
  8
0
 10
0.314011
 20
-5.99178
 11
0
 21
-6
  0
LINE
  8
0
 10
0
 20
-6
 11
-0.314011
 21
-5.99178
  0
LINE
  8
0
 10
-35.089
 20
-21.6977
 11
-35.1777
 21
-21.6907
  0
LINE
  8
0
 10
-35.1777
 20
-21.6907
 11
-35.2659
 21
-21.6791
  0
LINE
  8
0
 10
-35.2659
 20
-21.6791
 11
-35.3535
 21
-21.6628
  0
LINE
  8
0
 10
-35.3535
 20
-21.6628
 11
-35.44
 21
-21.6421
  0
LINE
  8
0
 10
-35.44
 20
-21.6421
 11
-35.5253
 21
-21.6168
  0
LINE
  8
0
 10
-35.5253
 20
-21.6168
 11
-35.6092
 21
-21.5871
  0
LINE
  8
0
 10
-35.6092
 20
-21.5871
 11
-35.6915
 21
-21.553
  0
LINE
  8
0
 10
-35.6915
 20
-21.553
 11
-35.7718
 21
-21.5147
  0
LINE
  8
0
 10
-35.7718
 20
-21.5147
 11
-35.85
 21
-21.4722
  0
LINE
  8
0
 10
-35.85
 20
-21.4722
 11
-35.9259
 21
-21.4257
  0
LINE
  8
0
 10
-35.9259
 20
-21.4257
 11
-35.9992
 21
-21.3753
  0
LINE
  8
0
 10
-35.9992
 20
-21.3753
 11
-36.0698
 21
-21.3211
  0
LINE
  8
0
 10
-36.0698
 20
-21.3211
 11
-36.1375
 21
-21.2633
  0
LINE
  8
0
 10
-36.1375
 20
-21.2633
 11
-36.2021
 21
-21.2021
  0
LINE
  8
0
 10
-36.2021
 20
-21.2021
 11
-36.2633
 21
-21.1375
  0
LINE
  8
0
 10
-36.2633
 20
-21.1375
 11
-36.3211
 21
-21.0698
  0
LINE
  8
0
 10
-36.3211
 20
-21.0698
 11
-36.3753
 21
-20.9992
  0
LINE
  8
0
 10
-36.3753
 20
-20.9992
 11
-36.4257
 21
-20.9259
  0
LINE
  8
0
 10
-36.4257
 20
-20.9259
 11
-36.4722
 21
-20.85
  0
LINE
  8
0
 10
-36.4722
 20
-20.85
 11
-36.5147
 21
-20.7718
  0
LINE
  8
0
 10
-36.5147
 20
-20.7718
 11
-36.553
 21
-20.6915
  0
LINE
  8
0
 10
-36.553
 20
-20.6915
 11
-36.5871
 21
-20.6092
  0
LINE
  8
0
 10
-36.5871
 20
-20.6092
 11
-36.6168
 21
-20.5253
  0
LINE
  8
0
 10
-36.6168
 20
-20.5253
 11
-36.6421
 21
-20.44
  0
LINE
  8
0
 10
-36.6421
 20
-20.44
 11
-36.6628
 21
-20.3535
  0
LINE
  8
0
 10
-36.6628
 20
-20.3535
 11
-36.6791
 21
-20.2659
  0
LINE
  8
0
 10
-36.6791
 20
-20.2659
 11
-36.6907
 21
-20.1777
  0
LINE
  8
0
 10
-36.6907
 20
-20.1777
 11
-36.6977
 21
-20.089
  0
LINE
  8
0
 10
-36.6977
 20
-20.089
 11
-36.7
 21
-20
  0
LINE
  8
0
 10
-36.7
 20
-20
 11
-36.6977
 21
-19.911
  0
LINE
  8
0
 10
-36.6977
 20
-19.911
 11
-36.6907
 21
-19.8223
  0
LINE
  8
0
 10
-36.6907
 20
-19.8223
 11
-36.6791
 21
-19.7341
  0
LINE
  8
0
 10
-36.6791
 20
-19.7341
 11
-36.6628
 21
-19.6465
  0
LINE
  8
0
 10
-36.6628
 20
-19.6465
 11
-36.6421
 21
-19.56
  0
LINE
  8
0
 10
-36.6421
 20
-19.56
 11
-36.6168
 21
-19.4747
  0
LINE
  8
0
 10
-36.6168
 20
-19.4747
 11
-36.5871
 21
-19.3908
  0
LINE
  8
0
 10
-36.5871
 20
-19.3908
 11
-36.553
 21
-19.3085
  0
LINE
  8
0
 10
-36.553
 20
-19.3085
 11
-36.5147
 21
-19.2282
  0
LINE
  8
0
 10
-36.5147
 20
-19.2282
 11
-36.4722
 21
-19.15
  0
LINE
  8
0
 10
-36.4722
 20
-19.15
 11
-36.4257
 21
-19.0741
  0
LINE
  8
0
 10
-36.4257
 20
-19.0741
 11
-36.3753
 21
-19.0008
  0
LINE
  8
0
 10
-36.3753
 20
-19.0008
 11
-36.3211
 21
-18.9302
  0
LINE
  8
0
 10
-36.3211
 20
-18.9302
 11
-36.2633
 21
-18.8625
  0
LINE
  8
0
 10
-36.2633
 20
-18.8625
 11
-36.2021
 21
-18.7979
  0
LINE
  8
0
 10
-36.2021
 20
-18.7979
 11
-36.1375
 21
-18.7367
  0
LINE
  8
0
 10
-36.1375
 20
-18.7367
 11
-36.0698
 21
-18.6789
  0
LINE
  8
0
 10
-36.0698
 20
-18.6789
 11
-35.9992
 21
-18.6247
  0
LINE
  8
0
 10
-35.9992
 20
-18.6247
 11
-35.9259
 21
-18.5743
  0
LINE
  8
0
 10
-35.9259
 20
-18.5743
 11
-35.85
 21
-18.5278
  0
LINE
  8
0
 10
-35.85
 20
-18.5278
 11
-35.7718
 21
-18.4853
  0
LINE
  8
0
 10
-35.7718
 20
-18.4853
 11
-35.6915
 21
-18.447
  0
LINE
  8
0
 10
-35.6915
 20
-18.447
 11
-35.6092
 21
-18.4129
  0
LINE
  8
0
 10
-35.6092
 20
-18.4129
 11
-35.5253
 21
-18.3832
  0
LINE
  8
0
 10
-35.5253
 20
-18.3832
 11
-35.44
 21
-18.3579
  0
LINE
  8
0
 10
-35.44
 20
-18.3579
 11
-35.3535
 21
-18.3371
  0
LINE
  8
0
 10
-35.3535
 20
-18.3371
 11
-35.2659
 21
-18.3209
  0
LINE
  8
0
 10
-35.2659
 20
-18.3209
 11
-35.1777
 21
-18.3093
  0
LINE
  8
0
 10
-35.1777
 20
-18.3093
 11
-35.089
 21
-18.3023
  0
LINE
  8
0
 10
-35.089
 20
-18.3023
 11
-35
 21
-18.3
  0
LINE
  8
0
 10
-35
 20
-18.3
 11
-34.911
 21
-18.3023
  0
LINE
  8
0
 10
-34.911
 20
-18.3023
 11
-34.8223
 21
-18.3093
  0
LINE
  8
0
 10
-34.8223
 20
-18.3093
 11
-34.7341
 21
-18.3209
  0
LINE
  8
0
 10
-34.7341
 20
-18.3209
 11
-34.6465
 21
-18.3371
  0
LINE
  8
0
 10
-34.6465
 20
-18.3371
 11
-34.56
 21
-18.3579
  0
LINE
  8
0
 10
-34.56
 20
-18.3579
 11
-34.4747
 21
-18.3832
  0
LINE
  8
0
 10
-34.4747
 20
-18.3832
 11
-34.3908
 21
-18.4129
  0
LINE
  8
0
 10
-34.3908
 20
-18.4129
 11
-34.3085
 21
-18.447
  0
LINE
  8
0
 10
-34.3085
 20
-18.447
 11
-34.2282
 21
-18.4853
  0
LINE
  8
0
 10
-34.2282
 20
-18.4853
 11
-34.15
 21
-18.5278
  0
LINE
  8
0
 10
-34.15
 20
-18.5278
 11
-34.0741
 21
-18.5743
  0
LINE
  8
0
 10
-34.0741
 20
-18.5743
 11
-34.0008
 21
-18.6247
  0
LINE
  8
0
 10
-34.0008
 20
-18.6247
 11
-33.9302
 21
-18.6789
  0
LINE
  8
0
 10
-33.9302
 20
-18.6789
 11
-33.8625
 21
-18.7367
  0
LINE
  8
0
 10
-33.8625
 20
-18.7367
 11
-33.7979
 21
-18.7979
  0
LINE
  8
0
 10
-33.7979
 20
-18.7979
 11
-33.7367
 21
-18.8625
  0
LINE
  8
0
 10
-33.7367
 20
-18.8625
 11
-33.6789
 21
-18.9302
  0
LINE
  8
0
 10
-33.6789
 20
-18.9302
 11
-33.6247
 21
-19.0008
  0
LINE
  8
0
 10
-33.6247
 20
-19.0008
 11
-33.5743
 21
-19.0741
  0
LINE
  8
0
 10
-33.5743
 20
-19.0741
 11
-33.5278
 21
-19.15
  0
LINE
  8
0
 10
-33.5278
 20
-19.15
 11
-33.4853
 21
-19.2282
  0
LINE
  8
0
 10
-33.4853
 20
-19.2282
 11
-33.447
 21
-19.3085
  0
LINE
  8
0
 10
-33.447
 20
-19.3085
 11
-33.4129
 21
-19.3908
  0
LINE
  8
0
 10
-33.4129
 20
-19.3908
 11
-33.3832
 21
-19.4747
  0
LINE
  8
0
 10
-33.3832
 20
-19.4747
 11
-33.3579
 21
-19.56
  0
LINE
  8
0
 10
-33.3579
 20
-19.56
 11
-33.3372
 21
-19.6465
  0
LINE
  8
0
 10
-33.3372
 20
-19.6465
 11
-33.3209
 21
-19.7341
  0
LINE
  8
0
 10
-33.3209
 20
-19.7341
 11
-33.3093
 21
-19.8223
  0
LINE
  8
0
 10
-33.3093
 20
-19.8223
 11
-33.3023
 21
-19.911
  0
LINE
  8
0
 10
-33.3023
 20
-19.911
 11
-33.3
 21
-20
  0
LINE
  8
0
 10
-33.3
 20
-20
 11
-33.3023
 21
-20.089
  0
LINE
  8
0
 10
-33.3023
 20
-20.089
 11
-33.3093
 21
-20.1777
  0
LINE
  8
0
 10
-33.3093
 20
-20.1777
 11
-33.3209
 21
-20.2659
  0
LINE
  8
0
 10
-33.3209
 20
-20.2659
 11
-33.3372
 21
-20.3535
  0
LINE
  8
0
 10
-33.3372
 20
-20.3535
 11
-33.3579
 21
-20.44
  0
LINE
  8
0
 10
-33.3579
 20
-20.44
 11
-33.3832
 21
-20.5253
  0
LINE
  8
0
 10
-33.3832
 20
-20.5253
 11
-33.4129
 21
-20.6092
  0
LINE
  8
0
 10
-33.4129
 20
-20.6092
 11
-33.447
 21
-20.6915
  0
LINE
  8
0
 10
-33.447
 20
-20.6915
 11
-33.4853
 21
-20.7718
  0
LINE
  8
0
 10
-33.4853
 20
-20.7718
 11
-33.5278
 21
-20.85
  0
LINE
  8
0
 10
-33.5278
 20
-20.85
 11
-33.5743
 21
-20.9259
  0
LINE
  8
0
 10
-33.5743
 20
-20.9259
 11
-33.6247
 21
-20.9992
  0
LINE
  8
0
 10
-33.6247
 20
-20.9992
 11
-33.6789
 21
-21.0698
  0
LINE
  8
0
 10
-33.6789
 20
-21.0698
 11
-33.7367
 21
-21.1375
  0
LINE
  8
0
 10
-33.7367
 20
-21.1375
 11
-33.7979
 21
-21.2021
  0
LINE
  8
0
 10
-33.7979
 20
-21.2021
 11
-33.8625
 21
-21.2633
  0
LINE
  8
0
 10
-33.8625
 20
-21.2633
 11
-33.9302
 21
-21.3211
  0
LINE
  8
0
 10
-33.9302
 20
-21.3211
 11
-34.0008
 21
-21.3753
  0
LINE
  8
0
 10
-34.0008
 20
-21.3753
 11
-34.0741
 21
-21.4257
  0
LINE
  8
0
 10
-34.0741
 20
-21.4257
 11
-34.15
 21
-21.4722
  0
LINE
  8
0
 10
-34.15
 20
-21.4722
 11
-34.2282
 21
-21.5147
  0
LINE
  8
0
 10
-34.2282
 20
-21.5147
 11
-34.3085
 21
-21.553
  0
LINE
  8
0
 10
-34.3085
 20
-21.553
 11
-34.3908
 21
-21.5871
  0
LINE
  8
0
 10
-34.3908
 20
-21.5871
 11
-34.4747
 21
-21.6168
  0
LINE
  8
0
 10
-34.4747
 20
-21.6168
 11
-34.56
 21
-21.6421
  0
LINE
  8
0
 10
-34.56
 20
-21.6421
 11
-34.6465
 21
-21.6628
  0
LINE
  8
0
 10
-34.6465
 20
-21.6628
 11
-34.7341
 21
-21.6791
  0
LINE
  8
0
 10
-34.7341
 20
-21.6791
 11
-34.8223
 21
-21.6907
  0
LINE
  8
0
 10
-34.8223
 20
-21.6907
 11
-34.911
 21
-21.6977
  0
LINE
  8
0
 10
-34.911
 20
-21.6977
 11
-35
 21
-21.7
  0
LINE
  8
0
 10
-35
 20
-21.7
 11
-35.089
 21
-21.6977
  0
LINE
  8
0
 10
-25.1178
 20
-27.2469
 11
-25.2352
 21
-27.2377
  0
LINE
  8
0
 10
-25.2352
 20
-27.2377
 11
-25.352
 21
-27.2223
  0
LINE
  8
0
 10
-25.352
 20
-27.2223
 11
-25.4678
 21
-27.2008
  0
LINE
  8
0
 10
-25.4678
 20
-27.2008
 11
-25.5823
 21
-27.1733
  0
LINE
  8
0
 10
-25.5823
 20
-27.1733
 11
-25.6953
 21
-27.1399
  0
LINE
  8
0
 10
-25.6953
 20
-27.1399
 11
-25.8063
 21
-27.1006
  0
LINE
  8
0
 10
-25.8063
 20
-27.1006
 11
-25.9152
 21
-27.0555
  0
LINE
  8
0
 10
-25.9152
 20
-27.0555
 11
-26.0215
 21
-27.0048
  0
LINE
  8
0
 10
-26.0215
 20
-27.0048
 11
-26.125
 21
-26.9486
  0
LINE
  8
0
 10
-26.125
 20
-26.9486
 11
-26.2254
 21
-26.887
  0
LINE
  8
0
 10
-26.2254
 20
-26.887
 11
-26.3225
 21
-26.8203
  0
LINE
  8
0
 10
-26.3225
 20
-26.8203
 11
-26.416
 21
-26.7486
  0
LINE
  8
0
 10
-26.416
 20
-26.7486
 11
-26.5055
 21
-26.6721
  0
LINE
  8
0
 10
-26.5055
 20
-26.6721
 11
-26.591
 21
-26.591
  0
LINE
  8
0
 10
-26.591
 20
-26.591
 11
-26.6721
 21
-26.5055
  0
LINE
  8
0
 10
-26.6721
 20
-26.5055
 11
-26.7486
 21
-26.416
  0
LINE
  8
0
 10
-26.7486
 20
-26.416
 11
-26.8203
 21
-26.3225
  0
LINE
  8
0
 10
-26.8203
 20
-26.3225
 11
-26.887
 21
-26.2254
  0
LINE
  8
0
 10
-26.887
 20
-26.2254
 11
-26.9486
 21
-26.125
  0
LINE
  8
0
 10
-26.9486
 20
-26.125
 11
-27.0048
 21
-26.0215
  0
LINE
  8
0
 10
-27.0048
 20
-26.0215
 11
-27.0555
 21
-25.9152
  0
LINE
  8
0
 10
-27.0555
 20
-25.9152
 11
-27.1006
 21
-25.8063
  0
LINE
  8
0
 10
-27.1006
 20
-25.8063
 11
-27.1399
 21
-25.6953
  0
LINE
  8
0
 10
-27.1399
 20
-25.6953
 11
-27.1733
 21
-25.5823
  0
LINE
  8
0
 10
-27.1733
 20
-25.5823
 11
-27.2008
 21
-25.4678
  0
LINE
  8
0
 10
-27.2008
 20
-25.4678
 11
-27.2223
 21
-25.352
  0
LINE
  8
0
 10
-27.2223
 20
-25.352
 11
-27.2377
 21
-25.2352
  0
LINE
  8
0
 10
-27.2377
 20
-25.2352
 11
-27.2469
 21
-25.1178
  0
LINE
  8
0
 10
-27.2469
 20
-25.1178
 11
-27.25
 21
-25
  0
LINE
  8
0
 10
-27.25
 20
-25
 11
-27.2469
 21
-24.8822
  0
LINE
  8
0
 10
-27.2469
 20
-24.8822
 11
-27.2377
 21
-24.7648
  0
LINE
  8
0
 10
-27.2377
 20
-24.7648
 11
-27.2223
 21
-24.648
  0
LINE
  8
0
 10
-27.2223
 20
-24.648
 11
-27.2008
 21
-24.5322
  0
LINE
  8
0
 10
-27.2008
 20
-24.5322
 11
-27.1733
 21
-24.4177
  0
LINE
  8
0
 10
-27.1733
 20
-24.4177
 11
-27.1399
 21
-24.3047
  0
LINE
  8
0
 10
-27.1399
 20
-24.3047
 11
-27.1006
 21
-24.1937
  0
LINE
  8
0
 10
-27.1006
 20
-24.1937
 11
-27.0555
 21
-24.0848
  0
LINE
  8
0
 10
-27.0555
 20
-24.0848
 11
-27.0048
 21
-23.9785
  0
LINE
  8
0
 10
-27.0048
 20
-23.9785
 11
-26.9486
 21
-23.875
  0
LINE
  8
0
 10
-26.9486
 20
-23.875
 11
-26.887
 21
-23.7746
  0
LINE
  8
0
 10
-26.887
 20
-23.7746
 11
-26.8203
 21
-23.6775
  0
LINE
  8
0
 10
-26.8203
 20
-23.6775
 11
-26.7486
 21
-23.584
  0
LINE
  8
0
 10
-26.7486
 20
-23.584
 11
-26.6721
 21
-23.4945
  0
LINE
  8
0
 10
-26.6721
 20
-23.4945
 11
-26.591
 21
-23.409
  0
LINE
  8
0
 10
-26.591
 20
-23.409
 11
-26.5055
 21
-23.3279
  0
LINE
  8
0
 10
-26.5055
 20
-23.3279
 11
-26.416
 21
-23.2514
  0
LINE
  8
0
 10
-26.416
 20
-23.2514
 11
-26.3225
 21
-23.1797
  0
LINE
  8
0
 10
-26.3225
 20
-23.1797
 11
-26.2254
 21
-23.113
  0
LINE
  8
0
 10
-26.2254
 20
-23.113
 11
-26.125
 21
-23.0514
  0
LINE
  8
0
 10
-26.125
 20
-23.0514
 11
-26.0215
 21
-22.9952
  0
LINE
  8
0
 10
-26.0215
 20
-22.9952
 11
-25.9152
 21
-22.9445
  0
LINE
  8
0
 10
-25.9152
 20
-22.9445
 11
-25.8063
 21
-22.8994
  0
LINE
  8
0
 10
-25.8063
 20
-22.8994
 11
-25.6953
 21
-22.8601
  0
LINE
  8
0
 10
-25.6953
 20
-22.8601
 11
-25.5823
 21
-22.8267
  0
LINE
  8
0
 10
-25.5823
 20
-22.8267
 11
-25.4678
 21
-22.7992
  0
LINE
  8
0
 10
-25.4678
 20
-22.7992
 11
-25.352
 21
-22.7777
  0
LINE
  8
0
 10
-25.352
 20
-22.7777
 11
-25.2352
 21
-22.7623
  0
LINE
  8
0
 10
-25.2352
 20
-22.7623
 11
-25.1178
 21
-22.7531
  0
LINE
  8
0
 10
-25.1178
 20
-22.7531
 11
-25
 21
-22.75
  0
LINE
  8
0
 10
-25
 20
-22.75
 11
-24.8822
 21
-22.7531
  0
LINE
  8
0
 10
-24.8822
 20
-22.7531
 11
-24.7648
 21
-22.7623
  0
LINE
  8
0
 10
-24.7648
 20
-22.7623
 11
-24.648
 21
-22.7777
  0
LINE
  8
0
 10
-24.648
 20
-22.7777
 11
-24.5322
 21
-22.7992
  0
LINE
  8
0
 10
-24.5322
 20
-22.7992
 11
-24.4177
 21
-22.8267
  0
LINE
  8
0
 10
-24.4177
 20
-22.8267
 11
-24.3047
 21
-22.8601
  0
LINE
  8
0
 10
-24.3047
 20
-22.8601
 11
-24.1937
 21
-22.8994
  0
LINE
  8
0
 10
-24.1937
 20
-22.8994
 11
-24.0848
 21
-22.9445
  0
LINE
  8
0
 10
-24.0848
 20
-22.9445
 11
-23.9785
 21
-22.9952
  0
LINE
  8
0
 10
-23.9785
 20
-22.9952
 11
-23.875
 21
-23.0514
  0
LINE
  8
0
 10
-23.875
 20
-23.0514
 11
-23.7746
 21
-23.113
  0
LINE
  8
0
 10
-23.7746
 20
-23.113
 11
-23.6775
 21
-23.1797
  0
LINE
  8
0
 10
-23.6775
 20
-23.1797
 11
-23.584
 21
-23.2514
  0
LINE
  8
0
 10
-23.584
 20
-23.2514
 11
-23.4945
 21
-23.3279
  0
LINE
  8
0
 10
-23.4945
 20
-23.3279
 11
-23.409
 21
-23.409
  0
LINE
  8
0
 10
-23.409
 20
-23.409
 11
-23.3279
 21
-23.4945
  0
LINE
  8
0
 10
-23.3279
 20
-23.4945
 11
-23.2514
 21
-23.584
  0
LINE
  8
0
 10
-23.2514
 20
-23.584
 11
-23.1797
 21
-23.6775
  0
LINE
  8
0
 10
-23.1797
 20
-23.6775
 11
-23.113
 21
-23.7746
  0
LINE
  8
0
 10
-23.113
 20
-23.7746
 11
-23.0514
 21
-23.875
  0
LINE
  8
0
 10
-23.0514
 20
-23.875
 11
-22.9952
 21
-23.9785
  0
LINE
  8
0
 10
-22.9952
 20
-23.9785
 11
-22.9445
 21
-24.0848
  0
LINE
  8
0
 10
-22.9445
 20
-24.0848
 11
-22.8994
 21
-24.1937
  0
LINE
  8
0
 10
-22.8994
 20
-24.1937
 11
-22.8601
 21
-24.3047
  0
LINE
  8
0
 10
-22.8601
 20
-24.3047
 11
-22.8267
 21
-24.4177
  0
LINE
  8
0
 10
-22.8267
 20
-24.4177
 11
-22.7992
 21
-24.5322
  0
LINE
  8
0
 10
-22.7992
 20
-24.5322
 11
-22.7777
 21
-24.648
  0
LINE
  8
0
 10
-22.7777
 20
-24.648
 11
-22.7623
 21
-24.7648
  0
LINE
  8
0
 10
-22.7623
 20
-24.7648
 11
-22.7531
 21
-24.8822
  0
LINE
  8
0
 10
-22.7531
 20
-24.8822
 11
-22.75
 21
-25
  0
LINE
  8
0
 10
-22.75
 20
-25
 11
-22.7531
 21
-25.1178
  0
LINE
  8
0
 10
-22.7531
 20
-25.1178
 11
-22.7623
 21
-25.2352
  0
LINE
  8
0
 10
-22.7623
 20
-25.2352
 11
-22.7777
 21
-25.352
  0
LINE
  8
0
 10
-22.7777
 20
-25.352
 11
-22.7992
 21
-25.4678
  0
LINE
  8
0
 10
-22.7992
 20
-25.4678
 11
-22.8267
 21
-25.5823
  0
LINE
  8
0
 10
-22.8267
 20
-25.5823
 11
-22.8601
 21
-25.6953
  0
LINE
  8
0
 10
-22.8601
 20
-25.6953
 11
-22.8994
 21
-25.8063
  0
LINE
  8
0
 10
-22.8994
 20
-25.8063
 11
-22.9445
 21
-25.9152
  0
LINE
  8
0
 10
-22.9445
 20
-25.9152
 11
-22.9952
 21
-26.0215
  0
LINE
  8
0
 10
-22.9952
 20
-26.0215
 11
-23.0514
 21
-26.125
  0
LINE
  8
0
 10
-23.0514
 20
-26.125
 11
-23.113
 21
-26.2254
  0
LINE
  8
0
 10
-23.113
 20
-26.2254
 11
-23.1797
 21
-26.3225
  0
LINE
  8
0
 10
-23.1797
 20
-26.3225
 11
-23.2514
 21
-26.416
  0
LINE
  8
0
 10
-23.2514
 20
-26.416
 11
-23.3279
 21
-26.5055
  0
LINE
  8
0
 10
-23.3279
 20
-26.5055
 11
-23.409
 21
-26.591
  0
LINE
  8
0
 10
-23.409
 20
-26.591
 11
-23.4945
 21
-26.6721
  0
LINE
  8
0
 10
-23.4945
 20
-26.6721
 11
-23.584
 21
-26.7486
  0
LINE
  8
0
 10
-23.584
 20
-26.7486
 11
-23.6775
 21
-26.8203
  0
LINE
  8
0
 10
-23.6775
 20
-26.8203
 11
-23.7746
 21
-26.887
  0
LINE
  8
0
 10
-23.7746
 20
-26.887
 11
-23.875
 21
-26.9486
  0
LINE
  8
0
 10
-23.875
 20
-26.9486
 11
-23.9785
 21
-27.0048
  0
LINE
  8
0
 10
-23.9785
 20
-27.0048
 11
-24.0848
 21
-27.0555
  0
LINE
  8
0
 10
-24.0848
 20
-27.0555
 11
-24.1937
 21
-27.1006
  0
LINE
  8
0
 10
-24.1937
 20
-27.1006
 11
-24.3047
 21
-27.1399
  0
LINE
  8
0
 10
-24.3047
 20
-27.1399
 11
-24.4177
 21
-27.1733
  0
LINE
  8
0
 10
-24.4177
 20
-27.1733
 11
-24.5322
 21
-27.2008
  0
LINE
  8
0
 10
-24.5322
 20
-27.2008
 11
-24.648
 21
-27.2223
  0
LINE
  8
0
 10
-24.648
 20
-27.2223
 11
-24.7648
 21
-27.2377
  0
LINE
  8
0
 10
-24.7648
 20
-27.2377
 11
-24.8822
 21
-27.2469
  0
LINE
  8
0
 10
-24.8822
 20
-27.2469
 11
-25
 21
-27.25
  0
LINE
  8
0
 10
-25
 20
-27.25
 11
-25.1178
 21
-27.2469
  0
LINE
  8
0
 10
24.8822
 20
-27.2469
 11
24.7648
 21
-27.2377
  0
LINE
  8
0
 10
24.7648
 20
-27.2377
 11
24.648
 21
-27.2223
  0
LINE
  8
0
 10
24.648
 20
-27.2223
 11
24.5322
 21
-27.2008
  0
LINE
  8
0
 10
24.5322
 20
-27.2008
 11
24.4177
 21
-27.1733
  0
LINE
  8
0
 10
24.4177
 20
-27.1733
 11
24.3047
 21
-27.1399
  0
LINE
  8
0
 10
24.3047
 20
-27.1399
 11
24.1937
 21
-27.1006
  0
LINE
  8
0
 10
24.1937
 20
-27.1006
 11
24.0848
 21
-27.0555
  0
LINE
  8
0
 10
24.0848
 20
-27.0555
 11
23.9785
 21
-27.0048
  0
LINE
  8
0
 10
23.9785
 20
-27.0048
 11
23.875
 21
-26.9486
  0
LINE
  8
0
 10
23.875
 20
-26.9486
 11
23.7746
 21
-26.887
  0
LINE
  8
0
 10
23.7746
 20
-26.887
 11
23.6775
 21
-26.8203
  0
LINE
  8
0
 10
23.6775
 20
-26.8203
 11
23.584
 21
-26.7486
  0
LINE
  8
0
 10
23.584
 20
-26.7486
 11
23.4945
 21
-26.6721
  0
LINE
  8
0
 10
23.4945
 20
-26.6721
 11
23.409
 21
-26.591
  0
LINE
  8
0
 10
23.409
 20
-26.591
 11
23.3279
 21
-26.5055
  0
LINE
  8
0
 10
23.3279
 20
-26.5055
 11
23.2514
 21
-26.416
  0
LINE
  8
0
 10
23.2514
 20
-26.416
 11
23.1797
 21
-26.3225
  0
LINE
  8
0
 10
23.1797
 20
-26.3225
 11
23.113
 21
-26.2254
  0
LINE
  8
0
 10
23.113
 20
-26.2254
 11
23.0514
 21
-26.125
  0
LINE
  8
0
 10
23.0514
 20
-26.125
 11
22.9952
 21
-26.0215
  0
LINE
  8
0
 10
22.9952
 20
-26.0215
 11
22.9445
 21
-25.9152
  0
LINE
  8
0
 10
22.9445
 20
-25.9152
 11
22.8994
 21
-25.8063
  0
LINE
  8
0
 10
22.8994
 20
-25.8063
 11
22.8601
 21
-25.6953
  0
LINE
  8
0
 10
22.8601
 20
-25.6953
 11
22.8267
 21
-25.5823
  0
LINE
  8
0
 10
22.8267
 20
-25.5823
 11
22.7992
 21
-25.4678
  0
LINE
  8
0
 10
22.7992
 20
-25.4678
 11
22.7777
 21
-25.352
  0
LINE
  8
0
 10
22.7777
 20
-25.352
 11
22.7623
 21
-25.2352
  0
LINE
  8
0
 10
22.7623
 20
-25.2352
 11
22.7531
 21
-25.1178
  0
LINE
  8
0
 10
22.7531
 20
-25.1178
 11
22.75
 21
-25
  0
LINE
  8
0
 10
22.75
 20
-25
 11
22.7531
 21
-24.8822
  0
LINE
  8
0
 10
22.7531
 20
-24.8822
 11
22.7623
 21
-24.7648
  0
LINE
  8
0
 10
22.7623
 20
-24.7648
 11
22.7777
 21
-24.648
  0
LINE
  8
0
 10
22.7777
 20
-24.648
 11
22.7992
 21
-24.5322
  0
LINE
  8
0
 10
22.7992
 20
-24.5322
 11
22.8267
 21
-24.4177
  0
LINE
  8
0
 10
22.8267
 20
-24.4177
 11
22.8601
 21
-24.3047
  0
LINE
  8
0
 10
22.8601
 20
-24.3047
 11
22.8994
 21
-24.1937
  0
LINE
  8
0
 10
22.8994
 20
-24.1937
 11
22.9445
 21
-24.0848
  0
LINE
  8
0
 10
22.9445
 20
-24.0848
 11
22.9952
 21
-23.9785
  0
LINE
  8
0
 10
22.9952
 20
-23.9785
 11
23.0514
 21
-23.875
  0
LINE
  8
0
 10
23.0514
 20
-23.875
 11
23.113
 21
-23.7746
  0
LINE
  8
0
 10
23.113
 20
-23.7746
 11
23.1797
 21
-23.6775
  0
LINE
  8
0
 10
23.1797
 20
-23.6775
 11
23.2514
 21
-23.584
  0
LINE
  8
0
 10
23.2514
 20
-23.584
 11
23.3279
 21
-23.4945
  0
LINE
  8
0
 10
23.3279
 20
-23.4945
 11
23.409
 21
-23.409
  0
LINE
  8
0
 10
23.409
 20
-23.409
 11
23.4945
 21
-23.3279
  0
LINE
  8
0
 10
23.4945
 20
-23.3279
 11
23.584
 21
-23.2514
  0
LINE
  8
0
 10
23.584
 20
-23.2514
 11
23.6775
 21
-23.1797
  0
LINE
  8
0
 10
23.6775
 20
-23.1797
 11
23.7746
 21
-23.113
  0
LINE
  8
0
 10
23.7746
 20
-23.113
 11
23.875
 21
-23.0514
  0
LINE
  8
0
 10
23.875
 20
-23.0514
 11
23.9785
 21
-22.9952
  0
LINE
  8
0
 10
23.9785
 20
-22.9952
 11
24.0848
 21
-22.9445
  0
LINE
  8
0
 10
24.0848
 20
-22.9445
 11
24.1937
 21
-22.8994
  0
LINE
  8
0
 10
24.1937
 20
-22.8994
 11
24.3047
 21
-22.8601
  0
LINE
  8
0
 10
24.3047
 20
-22.8601
 11
24.4177
 21
-22.8267
  0
LINE
  8
0
 10
24.4177
 20
-22.8267
 11
24.5322
 21
-22.7992
  0
LINE
  8
0
 10
24.5322
 20
-22.7992
 11
24.648
 21
-22.7777
  0
LINE
  8
0
 10
24.648
 20
-22.7777
 11
24.7648
 21
-22.7623
  0
LINE
  8
0
 10
24.7648
 20
-22.7623
 11
24.8822
 21
-22.7531
  0
LINE
  8
0
 10
24.8822
 20
-22.7531
 11
25
 21
-22.75
  0
LINE
  8
0
 10
25
 20
-22.75
 11
25.1178
 21
-22.7531
  0
LINE
  8
0
 10
25.1178
 20
-22.7531
 11
25.2352
 21
-22.7623
  0
LINE
  8
0
 10
25.2352
 20
-22.7623
 11
25.352
 21
-22.7777
  0
LINE
  8
0
 10
25.352
 20
-22.7777
 11
25.4678
 21
-22.7992
  0
LINE
  8
0
 10
25.4678
 20
-22.7992
 11
25.5823
 21
-22.8267
  0
LINE
  8
0
 10
25.5823
 20
-22.8267
 11
25.6953
 21
-22.8601
  0
LINE
  8
0
 10
25.6953
 20
-22.8601
 11
25.8063
 21
-22.8994
  0
LINE
  8
0
 10
25.8063
 20
-22.8994
 11
25.9152
 21
-22.9445
  0
LINE
  8
0
 10
25.9152
 20
-22.9445
 11
26.0215
 21
-22.9952
  0
LINE
  8
0
 10
26.0215
 20
-22.9952
 11
26.125
 21
-23.0514
  0
LINE
  8
0
 10
26.125
 20
-23.0514
 11
26.2254
 21
-23.113
  0
LINE
  8
0
 10
26.2254
 20
-23.113
 11
26.3225
 21
-23.1797
  0
LINE
  8
0
 10
26.3225
 20
-23.1797
 11
26.416
 21
-23.2514
  0
LINE
  8
0
 10
26.416
 20
-23.2514
 11
26.5055
 21
-23.3279
  0
LINE
  8
0
 10
26.5055
 20
-23.3279
 11
26.591
 21
-23.409
  0
LINE
  8
0
 10
26.591
 20
-23.409
 11
26.6721
 21
-23.4945
  0
LINE
  8
0
 10
26.6721
 20
-23.4945
 11
26.7486
 21
-23.584
  0
LINE
  8
0
 10
26.7486
 20
-23.584
 11
26.8203
 21
-23.6775
  0
LINE
  8
0
 10
26.8203
 20
-23.6775
 11
26.887
 21
-23.7746
  0
LINE
  8
0
 10
26.887
 20
-23.7746
 11
26.9486
 21
-23.875
  0
LINE
  8
0
 10
26.9486
 20
-23.875
 11
27.0048
 21
-23.9785
  0
LINE
  8
0
 10
27.0048
 20
-23.9785
 11
27.0555
 21
-24.0848
  0
LINE
  8
0
 10
27.0555
 20
-24.0848
 11
27.1006
 21
-24.1937
  0
LINE
  8
0
 10
27.1006
 20
-24.1937
 11
27.1399
 21
-24.3047
  0
LINE
  8
0
 10
27.1399
 20
-24.3047
 11
27.1733
 21
-24.4177
  0
LINE
  8
0
 10
27.1733
 20
-24.4177
 11
27.2008
 21
-24.5322
  0
LINE
  8
0
 10
27.2008
 20
-24.5322
 11
27.2223
 21
-24.648
  0
LINE
  8
0
 10
27.2223
 20
-24.648
 11
27.2377
 21
-24.7648
  0
LINE
  8
0
 10
27.2377
 20
-24.7648
 11
27.2469
 21
-24.8822
  0
LINE
  8
0
 10
27.2469
 20
-24.8822
 11
27.25
 21
-25
  0
LINE
  8
0
 10
27.25
 20
-25
 11
27.2469
 21
-25.1178
  0
LINE
  8
0
 10
27.2469
 20
-25.1178
 11
27.2377
 21
-25.2352
  0
LINE
  8
0
 10
27.2377
 20
-25.2352
 11
27.2223
 21
-25.352
  0
LINE
  8
0
 10
27.2223
 20
-25.352
 11
27.2008
 21
-25.4678
  0
LINE
  8
0
 10
27.2008
 20
-25.4678
 11
27.1733
 21
-25.5823
  0
LINE
  8
0
 10
27.1733
 20
-25.5823
 11
27.1399
 21
-25.6953
  0
LINE
  8
0
 10
27.1399
 20
-25.6953
 11
27.1006
 21
-25.8063
  0
LINE
  8
0
 10
27.1006
 20
-25.8063
 11
27.0555
 21
-25.9152
  0
LINE
  8
0
 10
27.0555
 20
-25.9152
 11
27.0048
 21
-26.0215
  0
LINE
  8
0
 10
27.0048
 20
-26.0215
 11
26.9486
 21
-26.125
  0
LINE
  8
0
 10
26.9486
 20
-26.125
 11
26.887
 21
-26.2254
  0
LINE
  8
0
 10
26.887
 20
-26.2254
 11
26.8203
 21
-26.3225
  0
LINE
  8
0
 10
26.8203
 20
-26.3225
 11
26.7486
 21
-26.416
  0
LINE
  8
0
 10
26.7486
 20
-26.416
 11
26.6721
 21
-26.5055
  0
LINE
  8
0
 10
26.6721
 20
-26.5055
 11
26.591
 21
-26.591
  0
LINE
  8
0
 10
26.591
 20
-26.591
 11
26.5055
 21
-26.6721
  0
LINE
  8
0
 10
26.5055
 20
-26.6721
 11
26.416
 21
-26.7486
  0
LINE
  8
0
 10
26.416
 20
-26.7486
 11
26.3225
 21
-26.8203
  0
LINE
  8
0
 10
26.3225
 20
-26.8203
 11
26.2254
 21
-26.887
  0
LINE
  8
0
 10
26.2254
 20
-26.887
 11
26.125
 21
-26.9486
  0
LINE
  8
0
 10
26.125
 20
-26.9486
 11
26.0215
 21
-27.0048
  0
LINE
  8
0
 10
26.0215
 20
-27.0048
 11
25.9152
 21
-27.0555
  0
LINE
  8
0
 10
25.9152
 20
-27.0555
 11
25.8063
 21
-27.1006
  0
LINE
  8
0
 10
25.8063
 20
-27.1006
 11
25.6953
 21
-27.1399
  0
LINE
  8
0
 10
25.6953
 20
-27.1399
 11
25.5823
 21
-27.1733
  0
LINE
  8
0
 10
25.5823
 20
-27.1733
 11
25.4678
 21
-27.2008
  0
LINE
  8
0
 10
25.4678
 20
-27.2008
 11
25.352
 21
-27.2223
  0
LINE
  8
0
 10
25.352
 20
-27.2223
 11
25.2352
 21
-27.2377
  0
LINE
  8
0
 10
25.2352
 20
-27.2377
 11
25.1178
 21
-27.2469
  0
LINE
  8
0
 10
25.1178
 20
-27.2469
 11
25
 21
-27.25
  0
LINE
  8
0
 10
25
 20
-27.25
 11
24.8822
 21
-27.2469
  0
LINE
  8
0
 10
34.911
 20
-29.6977
 11
34.8223
 21
-29.6907
  0
LINE
  8
0
 10
34.8223
 20
-29.6907
 11
34.7341
 21
-29.6791
  0
LINE
  8
0
 10
34.7341
 20
-29.6791
 11
34.6465
 21
-29.6628
  0
LINE
  8
0
 10
34.6465
 20
-29.6628
 11
34.56
 21
-29.6421
  0
LINE
  8
0
 10
34.56
 20
-29.6421
 11
34.4747
 21
-29.6168
  0
LINE
  8
0
 10
34.4747
 20
-29.6168
 11
34.3908
 21
-29.5871
  0
LINE
  8
0
 10
34.3908
 20
-29.5871
 11
34.3085
 21
-29.553
  0
LINE
  8
0
 10
34.3085
 20
-29.553
 11
34.2282
 21
-29.5147
  0
LINE
  8
0
 10
34.2282
 20
-29.5147
 11
34.15
 21
-29.4722
  0
LINE
  8
0
 10
34.15
 20
-29.4722
 11
34.0741
 21
-29.4257
  0
LINE
  8
0
 10
34.0741
 20
-29.4257
 11
34.0008
 21
-29.3753
  0
LINE
  8
0
 10
34.0008
 20
-29.3753
 11
33.9302
 21
-29.3211
  0
LINE
  8
0
 10
33.9302
 20
-29.3211
 11
33.8625
 21
-29.2633
  0
LINE
  8
0
 10
33.8625
 20
-29.2633
 11
33.7979
 21
-29.2021
  0
LINE
  8
0
 10
33.7979
 20
-29.2021
 11
33.7367
 21
-29.1375
  0
LINE
  8
0
 10
33.7367
 20
-29.1375
 11
33.6789
 21
-29.0698
  0
LINE
  8
0
 10
33.6789
 20
-29.0698
 11
33.6247
 21
-28.9992
  0
LINE
  8
0
 10
33.6247
 20
-28.9992
 11
33.5743
 21
-28.9259
  0
LINE
  8
0
 10
33.5743
 20
-28.9259
 11
33.5278
 21
-28.85
  0
LINE
  8
0
 10
33.5278
 20
-28.85
 11
33.4853
 21
-28.7718
  0
LINE
  8
0
 10
33.4853
 20
-28.7718
 11
33.447
 21
-28.6915
  0
LINE
  8
0
 10
33.447
 20
-28.6915
 11
33.4129
 21
-28.6092
  0
LINE
  8
0
 10
33.4129
 20
-28.6092
 11
33.3832
 21
-28.5253
  0
LINE
  8
0
 10
33.3832
 20
-28.5253
 11
33.3579
 21
-28.44
  0
LINE
  8
0
 10
33.3579
 20
-28.44
 11
33.3372
 21
-28.3535
  0
LINE
  8
0
 10
33.3372
 20
-28.3535
 11
33.3209
 21
-28.2659
  0
LINE
  8
0
 10
33.3209
 20
-28.2659
 11
33.3093
 21
-28.1777
  0
LINE
  8
0
 10
33.3093
 20
-28.1777
 11
33.3023
 21
-28.089
  0
LINE
  8
0
 10
33.3023
 20
-28.089
 11
33.3
 21
-28
  0
LINE
  8
0
 10
33.3
 20
-28
 11
33.3023
 21
-27.911
  0
LINE
  8
0
 10
33.3023
 20
-27.911
 11
33.3093
 21
-27.8223
  0
LINE
  8
0
 10
33.3093
 20
-27.8223
 11
33.3209
 21
-27.7341
  0
LINE
  8
0
 10
33.3209
 20
-27.7341
 11
33.3372
 21
-27.6465
  0
LINE
  8
0
 10
33.3372
 20
-27.6465
 11
33.3579
 21
-27.56
  0
LINE
  8
0
 10
33.3579
 20
-27.56
 11
33.3832
 21
-27.4747
  0
LINE
  8
0
 10
33.3832
 20
-27.4747
 11
33.4129
 21
-27.3908
  0
LINE
  8
0
 10
33.4129
 20
-27.3908
 11
33.447
 21
-27.3085
  0
LINE
  8
0
 10
33.447
 20
-27.3085
 11
33.4853
 21
-27.2282
  0
LINE
  8
0
 10
33.4853
 20
-27.2282
 11
33.5278
 21
-27.15
  0
LINE
  8
0
 10
33.5278
 20
-27.15
 11
33.5743
 21
-27.0741
  0
LINE
  8
0
 10
33.5743
 20
-27.0741
 11
33.6247
 21
-27.0008
  0
LINE
  8
0
 10
33.6247
 20
-27.0008
 11
33.6789
 21
-26.9302
  0
LINE
  8
0
 10
33.6789
 20
-26.9302
 11
33.7367
 21
-26.8625
  0
LINE
  8
0
 10
33.7367
 20
-26.8625
 11
33.7979
 21
-26.7979
  0
LINE
  8
0
 10
33.7979
 20
-26.7979
 11
33.8625
 21
-26.7367
  0
LINE
  8
0
 10
33.8625
 20
-26.7367
 11
33.9302
 21
-26.6789
  0
LINE
  8
0
 10
33.9302
 20
-26.6789
 11
34.0008
 21
-26.6247
  0
LINE
  8
0
 10
34.0008
 20
-26.6247
 11
34.0741
 21
-26.5743
  0
LINE
  8
0
 10
34.0741
 20
-26.5743
 11
34.15
 21
-26.5278
  0
LINE
  8
0
 10
34.15
 20
-26.5278
 11
34.2282
 21
-26.4853
  0
LINE
  8
0
 10
34.2282
 20
-26.4853
 11
34.3085
 21
-26.447
  0
LINE
  8
0
 10
34.3085
 20
-26.447
 11
34.3908
 21
-26.4129
  0
LINE
  8
0
 10
34.3908
 20
-26.4129
 11
34.4747
 21
-26.3832
  0
LINE
  8
0
 10
34.4747
 20
-26.3832
 11
34.56
 21
-26.3579
  0
LINE
  8
0
 10
34.56
 20
-26.3579
 11
34.6465
 21
-26.3371
  0
LINE
  8
0
 10
34.6465
 20
-26.3371
 11
34.7341
 21
-26.3209
  0
LINE
  8
0
 10
34.7341
 20
-26.3209
 11
34.8223
 21
-26.3093
  0
LINE
  8
0
 10
34.8223
 20
-26.3093
 11
34.911
 21
-26.3023
  0
LINE
  8
0
 10
34.911
 20
-26.3023
 11
35
 21
-26.3
  0
LINE
  8
0
 10
35
 20
-26.3
 11
35.089
 21
-26.3023
  0
LINE
  8
0
 10
35.089
 20
-26.3023
 11
35.1777
 21
-26.3093
  0
LINE
  8
0
 10
35.1777
 20
-26.3093
 11
35.2659
 21
-26.3209
  0
LINE
  8
0
 10
35.2659
 20
-26.3209
 11
35.3535
 21
-26.3371
  0
LINE
  8
0
 10
35.3535
 20
-26.3371
 11
35.44
 21
-26.3579
  0
LINE
  8
0
 10
35.44
 20
-26.3579
 11
35.5253
 21
-26.3832
  0
LINE
  8
0
 10
35.5253
 20
-26.3832
 11
35.6092
 21
-26.4129
  0
LINE
  8
0
 10
35.6092
 20
-26.4129
 11
35.6915
 21
-26.447
  0
LINE
  8
0
 10
35.6915
 20
-26.447
 11
35.7718
 21
-26.4853
  0
LINE
  8
0
 10
35.7718
 20
-26.4853
 11
35.85
 21
-26.5278
  0
LINE
  8
0
 10
35.85
 20
-26.5278
 11
35.9259
 21
-26.5743
  0
LINE
  8
0
 10
35.9259
 20
-26.5743
 11
35.9992
 21
-26.6247
  0
LINE
  8
0
 10
35.9992
 20
-26.6247
 11
36.0698
 21
-26.6789
  0
LINE
  8
0
 10
36.0698
 20
-26.6789
 11
36.1375
 21
-26.7367
  0
LINE
  8
0
 10
36.1375
 20
-26.7367
 11
36.2021
 21
-26.7979
  0
LINE
  8
0
 10
36.2021
 20
-26.7979
 11
36.2633
 21
-26.8625
  0
LINE
  8
0
 10
36.2633
 20
-26.8625
 11
36.3211
 21
-26.9302
  0
LINE
  8
0
 10
36.3211
 20
-26.9302
 11
36.3753
 21
-27.0008
  0
LINE
  8
0
 10
36.3753
 20
-27.0008
 11
36.4257
 21
-27.0741
  0
LINE
  8
0
 10
36.4257
 20
-27.0741
 11
36.4722
 21
-27.15
  0
LINE
  8
0
 10
36.4722
 20
-27.15
 11
36.5147
 21
-27.2282
  0
LINE
  8
0
 10
36.5147
 20
-27.2282
 11
36.553
 21
-27.3085
  0
LINE
  8
0
 10
36.553
 20
-27.3085
 11
36.5871
 21
-27.3908
  0
LINE
  8
0
 10
36.5871
 20
-27.3908
 11
36.6168
 21
-27.4747
  0
LINE
  8
0
 10
36.6168
 20
-27.4747
 11
36.6421
 21
-27.56
  0
LINE
  8
0
 10
36.6421
 20
-27.56
 11
36.6628
 21
-27.6465
  0
LINE
  8
0
 10
36.6628
 20
-27.6465
 11
36.6791
 21
-27.7341
  0
LINE
  8
0
 10
36.6791
 20
-27.7341
 11
36.6907
 21
-27.8223
  0
LINE
  8
0
 10
36.6907
 20
-27.8223
 11
36.6977
 21
-27.911
  0
LINE
  8
0
 10
36.6977
 20
-27.911
 11
36.7
 21
-28
  0
LINE
  8
0
 10
36.7
 20
-28
 11
36.6977
 21
-28.089
  0
LINE
  8
0
 10
36.6977
 20
-28.089
 11
36.6907
 21
-28.1777
  0
LINE
  8
0
 10
36.6907
 20
-28.1777
 11
36.6791
 21
-28.2659
  0
LINE
  8
0
 10
36.6791
 20
-28.2659
 11
36.6628
 21
-28.3535
  0
LINE
  8
0
 10
36.6628
 20
-28.3535
 11
36.6421
 21
-28.44
  0
LINE
  8
0
 10
36.6421
 20
-28.44
 11
36.6168
 21
-28.5253
  0
LINE
  8
0
 10
36.6168
 20
-28.5253
 11
36.5871
 21
-28.6092
  0
LINE
  8
0
 10
36.5871
 20
-28.6092
 11
36.553
 21
-28.6915
  0
LINE
  8
0
 10
36.553
 20
-28.6915
 11
36.5147
 21
-28.7718
  0
LINE
  8
0
 10
36.5147
 20
-28.7718
 11
36.4722
 21
-28.85
  0
LINE
  8
0
 10
36.4722
 20
-28.85
 11
36.4257
 21
-28.9259
  0
LINE
  8
0
 10
36.4257
 20
-28.9259
 11
36.3753
 21
-28.9992
  0
LINE
  8
0
 10
36.3753
 20
-28.9992
 11
36.3211
 21
-29.0698
  0
LINE
  8
0
 10
36.3211
 20
-29.0698
 11
36.2633
 21
-29.1375
  0
LINE
  8
0
 10
36.2633
 20
-29.1375
 11
36.2021
 21
-29.2021
  0
LINE
  8
0
 10
36.2021
 20
-29.2021
 11
36.1375
 21
-29.2633
  0
LINE
  8
0
 10
36.1375
 20
-29.2633
 11
36.0698
 21
-29.3211
  0
LINE
  8
0
 10
36.0698
 20
-29.3211
 11
35.9992
 21
-29.3753
  0
LINE
  8
0
 10
35.9992
 20
-29.3753
 11
35.9259
 21
-29.4257
  0
LINE
  8
0
 10
35.9259
 20
-29.4257
 11
35.85
 21
-29.4722
  0
LINE
  8
0
 10
35.85
 20
-29.4722
 11
35.7718
 21
-29.5147
  0
LINE
  8
0
 10
35.7718
 20
-29.5147
 11
35.6915
 21
-29.553
  0
LINE
  8
0
 10
35.6915
 20
-29.553
 11
35.6092
 21
-29.5871
  0
LINE
  8
0
 10
35.6092
 20
-29.5871
 11
35.5253
 21
-29.6168
  0
LINE
  8
0
 10
35.5253
 20
-29.6168
 11
35.44
 21
-29.6421
  0
LINE
  8
0
 10
35.44
 20
-29.6421
 11
35.3535
 21
-29.6628
  0
LINE
  8
0
 10
35.3535
 20
-29.6628
 11
35.2659
 21
-29.6791
  0
LINE
  8
0
 10
35.2659
 20
-29.6791
 11
35.1777
 21
-29.6907
  0
LINE
  8
0
 10
35.1777
 20
-29.6907
 11
35.089
 21
-29.6977
  0
LINE
  8
0
 10
35.089
 20
-29.6977
 11
35
 21
-29.7
  0
LINE
  8
0
 10
35
 20
-29.7
 11
34.911
 21
-29.6977
  0
ENDSEC
  0
SECTION
  2
OBJECTS
  0
DICTIONARY
  0
ENDSEC
  0
EOF
