  0
SECTION
  2
BLOCKS
  0
ENDSEC
  0
SECTION
  2
ENTITIES
  0
LINE
  8
0
 10
56.314
 20
-61.9918
 11
56.6272
 21
-61.9671
  0
LINE
  8
0
 10
56.6272
 20
-61.9671
 11
56.9386
 21
-61.9261
  0
LINE
  8
0
 10
56.9386
 20
-61.9261
 11
57.2475
 21
-61.8689
  0
LINE
  8
0
 10
57.2475
 20
-61.8689
 11
57.5529
 21
-61.7955
  0
LINE
  8
0
 10
57.5529
 20
-61.7955
 11
57.8541
 21
-61.7063
  0
LINE
  8
0
 10
57.8541
 20
-61.7063
 11
58.1502
 21
-61.6015
  0
LINE
  8
0
 10
58.1502
 20
-61.6015
 11
58.4404
 21
-61.4813
  0
LINE
  8
0
 10
58.4404
 20
-61.4813
 11
58.7239
 21
-61.346
  0
LINE
  8
0
 10
58.7239
 20
-61.346
 11
59
 21
-61.1962
  0
LINE
  8
0
 10
59
 20
-61.1962
 11
59.2678
 21
-61.032
  0
LINE
  8
0
 10
59.2678
 20
-61.032
 11
59.5267
 21
-60.8541
  0
LINE
  8
0
 10
59.5267
 20
-60.8541
 11
59.7759
 21
-60.6629
  0
LINE
  8
0
 10
59.7759
 20
-60.6629
 11
60.0148
 21
-60.4589
  0
LINE
  8
0
 10
60.0148
 20
-60.4589
 11
60.2426
 21
-60.2426
  0
LINE
  8
0
 10
60.2426
 20
-60.2426
 11
60.4589
 21
-60.0148
  0
LINE
  8
0
 10
60.4589
 20
-60.0148
 11
60.6629
 21
-59.7759
  0
LINE
  8
0
 10
60.6629
 20
-59.7759
 11
60.8541
 21
-59.5267
  0
LINE
  8
0
 10
60.8541
 20
-59.5267
 11
61.032
 21
-59.2678
  0
LINE
  8
0
 10
61.032
 20
-59.2678
 11
61.1962
 21
-59
  0
LINE
  8
0
 10
61.1962
 20
-59
 11
61.346
 21
-58.7239
  0
LINE
  8
0
 10
61.346
 20
-58.7239
 11
61.4813
 21
-58.4404
  0
LINE
  8
0
 10
61.4813
 20
-58.4404
 11
61.6015
 21
-58.1502
  0
LINE
  8
0
 10
61.6015
 20
-58.1502
 11
61.7063
 21
-57.8541
  0
LINE
  8
0
 10
61.7063
 20
-57.8541
 11
61.7955
 21
-57.5529
  0
LINE
  8
0
 10
61.7955
 20
-57.5529
 11
61.8689
 21
-57.2475
  0
LINE
  8
0
 10
61.8689
 20
-57.2475
 11
61.9261
 21
-56.9386
  0
LINE
  8
0
 10
61.9261
 20
-56.9386
 11
61.9671
 21
-56.6272
  0
LINE
  8
0
 10
61.9671
 20
-56.6272
 11
61.9918
 21
-56.314
  0
LINE
  8
0
 10
61.9918
 20
-56.314
 11
62
 21
-56
  0
LINE
  8
0
 10
62
 20
-56
 11
62
 21
-25.4551
  0
LINE
  8
0
 10
62
 20
-25.4551
 11
62.0539
 21
-25.4742
  0
LINE
  8
0
 10
62.0539
 20
-25.4742
 11
62.2547
 21
-25.5337
  0
LINE
  8
0
 10
62.2547
 20
-25.5337
 11
62.4584
 21
-25.5826
  0
LINE
  8
0
 10
62.4584
 20
-25.5826
 11
62.6643
 21
-25.6208
  0
LINE
  8
0
 10
62.6643
 20
-25.6208
 11
62.8719
 21
-25.6481
  0
LINE
  8
0
 10
62.8719
 20
-25.6481
 11
63.0807
 21
-25.6645
  0
LINE
  8
0
 10
63.0807
 20
-25.6645
 11
63.29
 21
-25.67
  0
LINE
  8
0
 10
63.29
 20
-25.67
 11
63.4993
 21
-25.6645
  0
LINE
  8
0
 10
63.4993
 20
-25.6645
 11
63.7081
 21
-25.6481
  0
LINE
  8
0
 10
63.7081
 20
-25.6481
 11
63.9157
 21
-25.6208
  0
LINE
  8
0
 10
63.9157
 20
-25.6208
 11
64.1216
 21
-25.5826
  0
LINE
  8
0
 10
64.1216
 20
-25.5826
 11
64.3253
 21
-25.5337
  0
LINE
  8
0
 10
64.3253
 20
-25.5337
 11
64.5261
 21
-25.4742
  0
LINE
  8
0
 10
64.5261
 20
-25.4742
 11
64.7235
 21
-25.4043
  0
LINE
  8
0
 10
64.7235
 20
-25.4043
 11
64.9169
 21
-25.3242
  0
LINE
  8
0
 10
64.9169
 20
-25.3242
 11
65.106
 21
-25.234
  0
LINE
  8
0
 10
65.106
 20
-25.234
 11
65.29
 21
-25.1341
  0
LINE
  8
0
 10
65.29
 20
-25.1341
 11
65.4686
 21
-25.0247
  0
LINE
  8
0
 10
65.4686
 20
-25.0247
 11
65.6411
 21
-24.9061
  0
LINE
  8
0
 10
65.6411
 20
-24.9061
 11
65.8073
 21
-24.7786
  0
LINE
  8
0
 10
65.8073
 20
-24.7786
 11
65.9665
 21
-24.6426
  0
LINE
  8
0
 10
65.9665
 20
-24.6426
 11
66.1184
 21
-24.4984
  0
LINE
  8
0
 10
66.1184
 20
-24.4984
 11
66.2626
 21
-24.3465
  0
LINE
  8
0
 10
66.2626
 20
-24.3465
 11
66.3986
 21
-24.1873
  0
LINE
  8
0
 10
66.3986
 20
-24.1873
 11
66.5261
 21
-24.0211
  0
LINE
  8
0
 10
66.5261
 20
-24.0211
 11
66.6447
 21
-23.8486
  0
LINE
  8
0
 10
66.6447
 20
-23.8486
 11
66.7541
 21
-23.67
  0
LINE
  8
0
 10
66.7541
 20
-23.67
 11
66.854
 21
-23.486
  0
LINE
  8
0
 10
66.854
 20
-23.486
 11
66.9442
 21
-23.2969
  0
LINE
  8
0
 10
66.9442
 20
-23.2969
 11
67.0243
 21
-23.1035
  0
LINE
  8
0
 10
67.0243
 20
-23.1035
 11
67.0942
 21
-22.9061
  0
LINE
  8
0
 10
67.0942
 20
-22.9061
 11
67.1537
 21
-22.7053
  0
LINE
  8
0
 10
67.1537
 20
-22.7053
 11
67.2026
 21
-22.5016
  0
LINE
  8
0
 10
67.2026
 20
-22.5016
 11
67.2408
 21
-22.2957
  0
LINE
  8
0
 10
67.2408
 20
-22.2957
 11
67.2681
 21
-22.0881
  0
LINE
  8
0
 10
67.2681
 20
-22.0881
 11
67.2845
 21
-21.8793
  0
LINE
  8
0
 10
67.2845
 20
-21.8793
 11
67.29
 21
-21.67
  0
LINE
  8
0
 10
67.29
 20
-21.67
 11
67.2845
 21
-21.4607
  0
LINE
  8
0
 10
67.2845
 20
-21.4607
 11
67.2681
 21
-21.2519
  0
LINE
  8
0
 10
67.2681
 20
-21.2519
 11
67.2408
 21
-21.0443
  0
LINE
  8
0
 10
67.2408
 20
-21.0443
 11
67.2026
 21
-20.8384
  0
LINE
  8
0
 10
67.2026
 20
-20.8384
 11
67.1537
 21
-20.6347
  0
LINE
  8
0
 10
67.1537
 20
-20.6347
 11
67.0942
 21
-20.4339
  0
LINE
  8
0
 10
67.0942
 20
-20.4339
 11
67.0243
 21
-20.2365
  0
LINE
  8
0
 10
67.0243
 20
-20.2365
 11
66.9442
 21
-20.0431
  0
LINE
  8
0
 10
66.9442
 20
-20.0431
 11
66.854
 21
-19.854
  0
LINE
  8
0
 10
66.854
 20
-19.854
 11
66.7541
 21
-19.67
  0
LINE
  8
0
 10
66.7541
 20
-19.67
 11
66.6447
 21
-19.4914
  0
LINE
  8
0
 10
66.6447
 20
-19.4914
 11
66.5261
 21
-19.3189
  0
LINE
  8
0
 10
66.5261
 20
-19.3189
 11
66.3986
 21
-19.1527
  0
LINE
  8
0
 10
66.3986
 20
-19.1527
 11
66.2626
 21
-18.9935
  0
LINE
  8
0
 10
66.2626
 20
-18.9935
 11
66.1184
 21
-18.8416
  0
LINE
  8
0
 10
66.1184
 20
-18.8416
 11
65.9665
 21
-18.6974
  0
LINE
  8
0
 10
65.9665
 20
-18.6974
 11
65.8073
 21
-18.5614
  0
LINE
  8
0
 10
65.8073
 20
-18.5614
 11
65.6411
 21
-18.4339
  0
LINE
  8
0
 10
65.6411
 20
-18.4339
 11
65.4686
 21
-18.3153
  0
LINE
  8
0
 10
65.4686
 20
-18.3153
 11
65.29
 21
-18.2059
  0
LINE
  8
0
 10
65.29
 20
-18.2059
 11
65.106
 21
-18.106
  0
LINE
  8
0
 10
65.106
 20
-18.106
 11
64.9169
 21
-18.0158
  0
LINE
  8
0
 10
64.9169
 20
-18.0158
 11
64.7235
 21
-17.9357
  0
LINE
  8
0
 10
64.7235
 20
-17.9357
 11
64.5261
 21
-17.8658
  0
LINE
  8
0
 10
64.5261
 20
-17.8658
 11
64.3253
 21
-17.8063
  0
LINE
  8
0
 10
64.3253
 20
-17.8063
 11
64.1216
 21
-17.7574
  0
LINE
  8
0
 10
64.1216
 20
-17.7574
 11
63.9157
 21
-17.7192
  0
LINE
  8
0
 10
63.9157
 20
-17.7192
 11
63.7081
 21
-17.6919
  0
LINE
  8
0
 10
63.7081
 20
-17.6919
 11
63.4993
 21
-17.6755
  0
LINE
  8
0
 10
63.4993
 20
-17.6755
 11
63.29
 21
-17.67
  0
LINE
  8
0
 10
63.29
 20
-17.67
 11
63.0807
 21
-17.6755
  0
LINE
  8
0
 10
63.0807
 20
-17.6755
 11
62.8719
 21
-17.6919
  0
LINE
  8
0
 10
62.8719
 20
-17.6919
 11
62.6643
 21
-17.7192
  0
LINE
  8
0
 10
62.6643
 20
-17.7192
 11
62.4584
 21
-17.7574
  0
LINE
  8
0
 10
62.4584
 20
-17.7574
 11
62.2547
 21
-17.8063
  0
LINE
  8
0
 10
62.2547
 20
-17.8063
 11
62.0539
 21
-17.8658
  0
LINE
  8
0
 10
62.0539
 20
-17.8658
 11
62
 21
-17.8849
  0
LINE
  8
0
 10
62
 20
-17.8849
 11
62
 21
17.8849
  0
LINE
  8
0
 10
62
 20
17.8849
 11
62.0539
 21
17.8658
  0
LINE
  8
0
 10
62.0539
 20
17.8658
 11
62.2547
 21
17.8063
  0
LINE
  8
0
 10
62.2547
 20
17.8063
 11
62.4584
 21
17.7574
  0
LINE
  8
0
 10
62.4584
 20
17.7574
 11
62.6643
 21
17.7192
  0
LINE
  8
0
 10
62.6643
 20
17.7192
 11
62.8719
 21
17.6919
  0
LINE
  8
0
 10
62.8719
 20
17.6919
 11
63.0807
 21
17.6755
  0
LINE
  8
0
 10
63.0807
 20
17.6755
 11
63.29
 21
17.67
  0
LINE
  8
0
 10
63.29
 20
17.67
 11
63.4993
 21
17.6755
  0
LINE
  8
0
 10
63.4993
 20
17.6755
 11
63.7081
 21
17.6919
  0
LINE
  8
0
 10
63.7081
 20
17.6919
 11
63.9157
 21
17.7192
  0
LINE
  8
0
 10
63.9157
 20
17.7192
 11
64.1216
 21
17.7574
  0
LINE
  8
0
 10
64.1216
 20
17.7574
 11
64.3253
 21
17.8063
  0
LINE
  8
0
 10
64.3253
 20
17.8063
 11
64.5261
 21
17.8658
  0
LINE
  8
0
 10
64.5261
 20
17.8658
 11
64.7235
 21
17.9357
  0
LINE
  8
0
 10
64.7235
 20
17.9357
 11
64.9169
 21
18.0158
  0
LINE
  8
0
 10
64.9169
 20
18.0158
 11
65.106
 21
18.106
  0
LINE
  8
0
 10
65.106
 20
18.106
 11
65.29
 21
18.2059
  0
LINE
  8
0
 10
65.29
 20
18.2059
 11
65.4686
 21
18.3153
  0
LINE
  8
0
 10
65.4686
 20
18.3153
 11
65.6411
 21
18.4339
  0
LINE
  8
0
 10
65.6411
 20
18.4339
 11
65.8073
 21
18.5614
  0
LINE
  8
0
 10
65.8073
 20
18.5614
 11
65.9665
 21
18.6974
  0
LINE
  8
0
 10
65.9665
 20
18.6974
 11
66.1184
 21
18.8416
  0
LINE
  8
0
 10
66.1184
 20
18.8416
 11
66.2626
 21
18.9935
  0
LINE
  8
0
 10
66.2626
 20
18.9935
 11
66.3986
 21
19.1527
  0
LINE
  8
0
 10
66.3986
 20
19.1527
 11
66.5261
 21
19.3189
  0
LINE
  8
0
 10
66.5261
 20
19.3189
 11
66.6447
 21
19.4914
  0
LINE
  8
0
 10
66.6447
 20
19.4914
 11
66.7541
 21
19.67
  0
LINE
  8
0
 10
66.7541
 20
19.67
 11
66.854
 21
19.854
  0
LINE
  8
0
 10
66.854
 20
19.854
 11
66.9442
 21
20.0431
  0
LINE
  8
0
 10
66.9442
 20
20.0431
 11
67.0243
 21
20.2365
  0
LINE
  8
0
 10
67.0243
 20
20.2365
 11
67.0942
 21
20.4339
  0
LINE
  8
0
 10
67.0942
 20
20.4339
 11
67.1537
 21
20.6347
  0
LINE
  8
0
 10
67.1537
 20
20.6347
 11
67.2026
 21
20.8384
  0
LINE
  8
0
 10
67.2026
 20
20.8384
 11
67.2408
 21
21.0443
  0
LINE
  8
0
 10
67.2408
 20
21.0443
 11
67.2681
 21
21.2519
  0
LINE
  8
0
 10
67.2681
 20
21.2519
 11
67.2845
 21
21.4607
  0
LINE
  8
0
 10
67.2845
 20
21.4607
 11
67.29
 21
21.67
  0
LINE
  8
0
 10
67.29
 20
21.67
 11
67.2845
 21
21.8793
  0
LINE
  8
0
 10
67.2845
 20
21.8793
 11
67.2681
 21
22.0881
  0
LINE
  8
0
 10
67.2681
 20
22.0881
 11
67.2408
 21
22.2957
  0
LINE
  8
0
 10
67.2408
 20
22.2957
 11
67.2026
 21
22.5016
  0
LINE
  8
0
 10
67.2026
 20
22.5016
 11
67.1537
 21
22.7053
  0
LINE
  8
0
 10
67.1537
 20
22.7053
 11
67.0942
 21
22.9061
  0
LINE
  8
0
 10
67.0942
 20
22.9061
 11
67.0243
 21
23.1035
  0
LINE
  8
0
 10
67.0243
 20
23.1035
 11
66.9442
 21
23.2969
  0
LINE
  8
0
 10
66.9442
 20
23.2969
 11
66.854
 21
23.486
  0
LINE
  8
0
 10
66.854
 20
23.486
 11
66.7541
 21
23.67
  0
LINE
  8
0
 10
66.7541
 20
23.67
 11
66.6447
 21
23.8486
  0
LINE
  8
0
 10
66.6447
 20
23.8486
 11
66.5261
 21
24.0211
  0
LINE
  8
0
 10
66.5261
 20
24.0211
 11
66.3986
 21
24.1873
  0
LINE
  8
0
 10
66.3986
 20
24.1873
 11
66.2626
 21
24.3465
  0
LINE
  8
0
 10
66.2626
 20
24.3465
 11
66.1184
 21
24.4984
  0
LINE
  8
0
 10
66.1184
 20
24.4984
 11
65.9665
 21
24.6426
  0
LINE
  8
0
 10
65.9665
 20
24.6426
 11
65.8073
 21
24.7786
  0
LINE
  8
0
 10
65.8073
 20
24.7786
 11
65.6411
 21
24.9061
  0
LINE
  8
0
 10
65.6411
 20
24.9061
 11
65.4686
 21
25.0247
  0
LINE
  8
0
 10
65.4686
 20
25.0247
 11
65.29
 21
25.1341
  0
LINE
  8
0
 10
65.29
 20
25.1341
 11
65.106
 21
25.234
  0
LINE
  8
0
 10
65.106
 20
25.234
 11
64.9169
 21
25.3242
  0
LINE
  8
0
 10
64.9169
 20
25.3242
 11
64.7235
 21
25.4043
  0
LINE
  8
0
 10
64.7235
 20
25.4043
 11
64.5261
 21
25.4742
  0
LINE
  8
0
 10
64.5261
 20
25.4742
 11
64.3253
 21
25.5337
  0
LINE
  8
0
 10
64.3253
 20
25.5337
 11
64.1216
 21
25.5826
  0
LINE
  8
0
 10
64.1216
 20
25.5826
 11
63.9157
 21
25.6208
  0
LINE
  8
0
 10
63.9157
 20
25.6208
 11
63.7081
 21
25.6481
  0
LINE
  8
0
 10
63.7081
 20
25.6481
 11
63.4993
 21
25.6645
  0
LINE
  8
0
 10
63.4993
 20
25.6645
 11
63.29
 21
25.67
  0
LINE
  8
0
 10
63.29
 20
25.67
 11
63.0807
 21
25.6645
  0
LINE
  8
0
 10
63.0807
 20
25.6645
 11
62.8719
 21
25.6481
  0
LINE
  8
0
 10
62.8719
 20
25.6481
 11
62.6643
 21
25.6208
  0
LINE
  8
0
 10
62.6643
 20
25.6208
 11
62.4584
 21
25.5826
  0
LINE
  8
0
 10
62.4584
 20
25.5826
 11
62.2547
 21
25.5337
  0
LINE
  8
0
 10
62.2547
 20
25.5337
 11
62.0539
 21
25.4742
  0
LINE
  8
0
 10
62.0539
 20
25.4742
 11
62
 21
25.4551
  0
LINE
  8
0
 10
62
 20
25.4551
 11
62
 21
56
  0
LINE
  8
0
 10
62
 20
56
 11
61.9918
 21
56.314
  0
LINE
  8
0
 10
61.9918
 20
56.314
 11
61.9671
 21
56.6272
  0
LINE
  8
0
 10
61.9671
 20
56.6272
 11
61.9261
 21
56.9386
  0
LINE
  8
0
 10
61.9261
 20
56.9386
 11
61.8689
 21
57.2475
  0
LINE
  8
0
 10
61.8689
 20
57.2475
 11
61.7955
 21
57.5529
  0
LINE
  8
0
 10
61.7955
 20
57.5529
 11
61.7063
 21
57.8541
  0
LINE
  8
0
 10
61.7063
 20
57.8541
 11
61.6015
 21
58.1502
  0
LINE
  8
0
 10
61.6015
 20
58.1502
 11
61.4813
 21
58.4404
  0
LINE
  8
0
 10
61.4813
 20
58.4404
 11
61.346
 21
58.7239
  0
LINE
  8
0
 10
61.346
 20
58.7239
 11
61.1962
 21
59
  0
LINE
  8
0
 10
61.1962
 20
59
 11
61.032
 21
59.2678
  0
LINE
  8
0
 10
61.032
 20
59.2678
 11
60.8541
 21
59.5267
  0
LINE
  8
0
 10
60.8541
 20
59.5267
 11
60.6629
 21
59.7759
  0
LINE
  8
0
 10
60.6629
 20
59.7759
 11
60.4589
 21
60.0148
  0
LINE
  8
0
 10
60.4589
 20
60.0148
 11
60.2426
 21
60.2426
  0
LINE
  8
0
 10
60.2426
 20
60.2426
 11
60.0148
 21
60.4589
  0
LINE
  8
0
 10
60.0148
 20
60.4589
 11
59.7759
 21
60.6629
  0
LINE
  8
0
 10
59.7759
 20
60.6629
 11
59.5267
 21
60.8541
  0
LINE
  8
0
 10
59.5267
 20
60.8541
 11
59.2678
 21
61.032
  0
LINE
  8
0
 10
59.2678
 20
61.032
 11
59
 21
61.1962
  0
LINE
  8
0
 10
59
 20
61.1962
 11
58.7239
 21
61.346
  0
LINE
  8
0
 10
58.7239
 20
61.346
 11
58.4404
 21
61.4813
  0
LINE
  8
0
 10
58.4404
 20
61.4813
 11
58.1502
 21
61.6015
  0
LINE
  8
0
 10
58.1502
 20
61.6015
 11
57.8541
 21
61.7063
  0
LINE
  8
0
 10
57.8541
 20
61.7063
 11
57.5529
 21
61.7955
  0
LINE
  8
0
 10
57.5529
 20
61.7955
 11
57.2475
 21
61.8689
  0
LINE
  8
0
 10
57.2475
 20
61.8689
 11
56.9386
 21
61.9261
  0
LINE
  8
0
 10
56.9386
 20
61.9261
 11
56.6272
 21
61.9671
  0
LINE
  8
0
 10
56.6272
 20
61.9671
 11
56.314
 21
61.9918
  0
LINE
  8
0
 10
56.314
 20
61.9918
 11
56
 21
62
  0
LINE
  8
0
 10
56
 20
62
 11
-56
 21
62
  0
LINE
  8
0
 10
-56
 20
62
 11
-56.314
 21
61.9918
  0
LINE
  8
0
 10
-56.314
 20
61.9918
 11
-56.6272
 21
61.9671
  0
LINE
  8
0
 10
-56.6272
 20
61.9671
 11
-56.9386
 21
61.9261
  0
LINE
  8
0
 10
-56.9386
 20
61.9261
 11
-57.2475
 21
61.8689
  0
LINE
  8
0
 10
-57.2475
 20
61.8689
 11
-57.5529
 21
61.7955
  0
LINE
  8
0
 10
-57.5529
 20
61.7955
 11
-57.8541
 21
61.7063
  0
LINE
  8
0
 10
-57.8541
 20
61.7063
 11
-58.1502
 21
61.6015
  0
LINE
  8
0
 10
-58.1502
 20
61.6015
 11
-58.4404
 21
61.4813
  0
LINE
  8
0
 10
-58.4404
 20
61.4813
 11
-58.7239
 21
61.346
  0
LINE
  8
0
 10
-58.7239
 20
61.346
 11
-59
 21
61.1962
  0
LINE
  8
0
 10
-59
 20
61.1962
 11
-59.2678
 21
61.032
  0
LINE
  8
0
 10
-59.2678
 20
61.032
 11
-59.5267
 21
60.8541
  0
LINE
  8
0
 10
-59.5267
 20
60.8541
 11
-59.7759
 21
60.6629
  0
LINE
  8
0
 10
-59.7759
 20
60.6629
 11
-60.0148
 21
60.4589
  0
LINE
  8
0
 10
-60.0148
 20
60.4589
 11
-60.2426
 21
60.2426
  0
LINE
  8
0
 10
-60.2426
 20
60.2426
 11
-60.4589
 21
60.0148
  0
LINE
  8
0
 10
-60.4589
 20
60.0148
 11
-60.6629
 21
59.7759
  0
LINE
  8
0
 10
-60.6629
 20
59.7759
 11
-60.8541
 21
59.5267
  0
LINE
  8
0
 10
-60.8541
 20
59.5267
 11
-61.032
 21
59.2678
  0
LINE
  8
0
 10
-61.032
 20
59.2678
 11
-61.1962
 21
59
  0
LINE
  8
0
 10
-61.1962
 20
59
 11
-61.346
 21
58.7239
  0
LINE
  8
0
 10
-61.346
 20
58.7239
 11
-61.4813
 21
58.4404
  0
LINE
  8
0
 10
-61.4813
 20
58.4404
 11
-61.6015
 21
58.1502
  0
LINE
  8
0
 10
-61.6015
 20
58.1502
 11
-61.7063
 21
57.8541
  0
LINE
  8
0
 10
-61.7063
 20
57.8541
 11
-61.7955
 21
57.5529
  0
LINE
  8
0
 10
-61.7955
 20
57.5529
 11
-61.8689
 21
57.2475
  0
LINE
  8
0
 10
-61.8689
 20
57.2475
 11
-61.9261
 21
56.9386
  0
LINE
  8
0
 10
-61.9261
 20
56.9386
 11
-61.9671
 21
56.6272
  0
LINE
  8
0
 10
-61.9671
 20
56.6272
 11
-61.9918
 21
56.314
  0
LINE
  8
0
 10
-61.9918
 20
56.314
 11
-62
 21
56
  0
LINE
  8
0
 10
-62
 20
56
 11
-62
 21
-56
  0
LINE
  8
0
 10
-62
 20
-56
 11
-61.9918
 21
-56.314
  0
LINE
  8
0
 10
-61.9918
 20
-56.314
 11
-61.9671
 21
-56.6272
  0
LINE
  8
0
 10
-61.9671
 20
-56.6272
 11
-61.9261
 21
-56.9386
  0
LINE
  8
0
 10
-61.9261
 20
-56.9386
 11
-61.8689
 21
-57.2475
  0
LINE
  8
0
 10
-61.8689
 20
-57.2475
 11
-61.7955
 21
-57.5529
  0
LINE
  8
0
 10
-61.7955
 20
-57.5529
 11
-61.7063
 21
-57.8541
  0
LINE
  8
0
 10
-61.7063
 20
-57.8541
 11
-61.6015
 21
-58.1502
  0
LINE
  8
0
 10
-61.6015
 20
-58.1502
 11
-61.4813
 21
-58.4404
  0
LINE
  8
0
 10
-61.4813
 20
-58.4404
 11
-61.346
 21
-58.7239
  0
LINE
  8
0
 10
-61.346
 20
-58.7239
 11
-61.1962
 21
-59
  0
LINE
  8
0
 10
-61.1962
 20
-59
 11
-61.032
 21
-59.2678
  0
LINE
  8
0
 10
-61.032
 20
-59.2678
 11
-60.8541
 21
-59.5267
  0
LINE
  8
0
 10
-60.8541
 20
-59.5267
 11
-60.6629
 21
-59.7759
  0
LINE
  8
0
 10
-60.6629
 20
-59.7759
 11
-60.4589
 21
-60.0148
  0
LINE
  8
0
 10
-60.4589
 20
-60.0148
 11
-60.2426
 21
-60.2426
  0
LINE
  8
0
 10
-60.2426
 20
-60.2426
 11
-60.0148
 21
-60.4589
  0
LINE
  8
0
 10
-60.0148
 20
-60.4589
 11
-59.7759
 21
-60.6629
  0
LINE
  8
0
 10
-59.7759
 20
-60.6629
 11
-59.5267
 21
-60.8541
  0
LINE
  8
0
 10
-59.5267
 20
-60.8541
 11
-59.2678
 21
-61.032
  0
LINE
  8
0
 10
-59.2678
 20
-61.032
 11
-59
 21
-61.1962
  0
LINE
  8
0
 10
-59
 20
-61.1962
 11
-58.7239
 21
-61.346
  0
LINE
  8
0
 10
-58.7239
 20
-61.346
 11
-58.4404
 21
-61.4813
  0
LINE
  8
0
 10
-58.4404
 20
-61.4813
 11
-58.1502
 21
-61.6015
  0
LINE
  8
0
 10
-58.1502
 20
-61.6015
 11
-57.8541
 21
-61.7063
  0
LINE
  8
0
 10
-57.8541
 20
-61.7063
 11
-57.5529
 21
-61.7955
  0
LINE
  8
0
 10
-57.5529
 20
-61.7955
 11
-57.2475
 21
-61.8689
  0
LINE
  8
0
 10
-57.2475
 20
-61.8689
 11
-56.9386
 21
-61.9261
  0
LINE
  8
0
 10
-56.9386
 20
-61.9261
 11
-56.6272
 21
-61.9671
  0
LINE
  8
0
 10
-56.6272
 20
-61.9671
 11
-56.314
 21
-61.9918
  0
LINE
  8
0
 10
-56.314
 20
-61.9918
 11
-56
 21
-62
  0
LINE
  8
0
 10
-56
 20
-62
 11
56
 21
-62
  0
LINE
  8
0
 10
56
 20
-62
 11
56.314
 21
-61.9918
  0
LINE
  8
0
 10
-55.089
 20
53.3023
 11
-55.1777
 21
53.3093
  0
LINE
  8
0
 10
-55.1777
 20
53.3093
 11
-55.2659
 21
53.3209
  0
LINE
  8
0
 10
-55.2659
 20
53.3209
 11
-55.3535
 21
53.3372
  0
LINE
  8
0
 10
-55.3535
 20
53.3372
 11
-55.44
 21
53.3579
  0
LINE
  8
0
 10
-55.44
 20
53.3579
 11
-55.5253
 21
53.3832
  0
LINE
  8
0
 10
-55.5253
 20
53.3832
 11
-55.6092
 21
53.4129
  0
LINE
  8
0
 10
-55.6092
 20
53.4129
 11
-55.6915
 21
53.447
  0
LINE
  8
0
 10
-55.6915
 20
53.447
 11
-55.7718
 21
53.4853
  0
LINE
  8
0
 10
-55.7718
 20
53.4853
 11
-55.85
 21
53.5278
  0
LINE
  8
0
 10
-55.85
 20
53.5278
 11
-55.9259
 21
53.5743
  0
LINE
  8
0
 10
-55.9259
 20
53.5743
 11
-55.9992
 21
53.6247
  0
LINE
  8
0
 10
-55.9992
 20
53.6247
 11
-56.0698
 21
53.6789
  0
LINE
  8
0
 10
-56.0698
 20
53.6789
 11
-56.1375
 21
53.7367
  0
LINE
  8
0
 10
-56.1375
 20
53.7367
 11
-56.2021
 21
53.7979
  0
LINE
  8
0
 10
-56.2021
 20
53.7979
 11
-56.2633
 21
53.8625
  0
LINE
  8
0
 10
-56.2633
 20
53.8625
 11
-56.3211
 21
53.9302
  0
LINE
  8
0
 10
-56.3211
 20
53.9302
 11
-56.3753
 21
54.0008
  0
LINE
  8
0
 10
-56.3753
 20
54.0008
 11
-56.4257
 21
54.0741
  0
LINE
  8
0
 10
-56.4257
 20
54.0741
 11
-56.4722
 21
54.15
  0
LINE
  8
0
 10
-56.4722
 20
54.15
 11
-56.5147
 21
54.2282
  0
LINE
  8
0
 10
-56.5147
 20
54.2282
 11
-56.553
 21
54.3085
  0
LINE
  8
0
 10
-56.553
 20
54.3085
 11
-56.5871
 21
54.3908
  0
LINE
  8
0
 10
-56.5871
 20
54.3908
 11
-56.6168
 21
54.4747
  0
LINE
  8
0
 10
-56.6168
 20
54.4747
 11
-56.6421
 21
54.56
  0
LINE
  8
0
 10
-56.6421
 20
54.56
 11
-56.6628
 21
54.6465
  0
LINE
  8
0
 10
-56.6628
 20
54.6465
 11
-56.6791
 21
54.7341
  0
LINE
  8
0
 10
-56.6791
 20
54.7341
 11
-56.6907
 21
54.8223
  0
LINE
  8
0
 10
-56.6907
 20
54.8223
 11
-56.6977
 21
54.911
  0
LINE
  8
0
 10
-56.6977
 20
54.911
 11
-56.7
 21
55
  0
LINE
  8
0
 10
-56.7
 20
55
 11
-56.6977
 21
55.089
  0
LINE
  8
0
 10
-56.6977
 20
55.089
 11
-56.6907
 21
55.1777
  0
LINE
  8
0
 10
-56.6907
 20
55.1777
 11
-56.6791
 21
55.2659
  0
LINE
  8
0
 10
-56.6791
 20
55.2659
 11
-56.6628
 21
55.3535
  0
LINE
  8
0
 10
-56.6628
 20
55.3535
 11
-56.6421
 21
55.44
  0
LINE
  8
0
 10
-56.6421
 20
55.44
 11
-56.6168
 21
55.5253
  0
LINE
  8
0
 10
-56.6168
 20
55.5253
 11
-56.5871
 21
55.6092
  0
LINE
  8
0
 10
-56.5871
 20
55.6092
 11
-56.553
 21
55.6915
  0
LINE
  8
0
 10
-56.553
 20
55.6915
 11
-56.5147
 21
55.7718
  0
LINE
  8
0
 10
-56.5147
 20
55.7718
 11
-56.4722
 21
55.85
  0
LINE
  8
0
 10
-56.4722
 20
55.85
 11
-56.4257
 21
55.9259
  0
LINE
  8
0
 10
-56.4257
 20
55.9259
 11
-56.3753
 21
55.9992
  0
LINE
  8
0
 10
-56.3753
 20
55.9992
 11
-56.3211
 21
56.0698
  0
LINE
  8
0
 10
-56.3211
 20
56.0698
 11
-56.2633
 21
56.1375
  0
LINE
  8
0
 10
-56.2633
 20
56.1375
 11
-56.2021
 21
56.2021
  0
LINE
  8
0
 10
-56.2021
 20
56.2021
 11
-56.1375
 21
56.2633
  0
LINE
  8
0
 10
-56.1375
 20
56.2633
 11
-56.0698
 21
56.3211
  0
LINE
  8
0
 10
-56.0698
 20
56.3211
 11
-55.9992
 21
56.3753
  0
LINE
  8
0
 10
-55.9992
 20
56.3753
 11
-55.9259
 21
56.4257
  0
LINE
  8
0
 10
-55.9259
 20
56.4257
 11
-55.85
 21
56.4722
  0
LINE
  8
0
 10
-55.85
 20
56.4722
 11
-55.7718
 21
56.5147
  0
LINE
  8
0
 10
-55.7718
 20
56.5147
 11
-55.6915
 21
56.553
  0
LINE
  8
0
 10
-55.6915
 20
56.553
 11
-55.6092
 21
56.5871
  0
LINE
  8
0
 10
-55.6092
 20
56.5871
 11
-55.5253
 21
56.6168
  0
LINE
  8
0
 10
-55.5253
 20
56.6168
 11
-55.44
 21
56.6421
  0
LINE
  8
0
 10
-55.44
 20
56.6421
 11
-55.3535
 21
56.6628
  0
LINE
  8
0
 10
-55.3535
 20
56.6628
 11
-55.2659
 21
56.6791
  0
LINE
  8
0
 10
-55.2659
 20
56.6791
 11
-55.1777
 21
56.6907
  0
LINE
  8
0
 10
-55.1777
 20
56.6907
 11
-55.089
 21
56.6977
  0
LINE
  8
0
 10
-55.089
 20
56.6977
 11
-55
 21
56.7
  0
LINE
  8
0
 10
-55
 20
56.7
 11
-54.911
 21
56.6977
  0
LINE
  8
0
 10
-54.911
 20
56.6977
 11
-54.8223
 21
56.6907
  0
LINE
  8
0
 10
-54.8223
 20
56.6907
 11
-54.7341
 21
56.6791
  0
LINE
  8
0
 10
-54.7341
 20
56.6791
 11
-54.6465
 21
56.6628
  0
LINE
  8
0
 10
-54.6465
 20
56.6628
 11
-54.56
 21
56.6421
  0
LINE
  8
0
 10
-54.56
 20
56.6421
 11
-54.4747
 21
56.6168
  0
LINE
  8
0
 10
-54.4747
 20
56.6168
 11
-54.3908
 21
56.5871
  0
LINE
  8
0
 10
-54.3908
 20
56.5871
 11
-54.3085
 21
56.553
  0
LINE
  8
0
 10
-54.3085
 20
56.553
 11
-54.2282
 21
56.5147
  0
LINE
  8
0
 10
-54.2282
 20
56.5147
 11
-54.15
 21
56.4722
  0
LINE
  8
0
 10
-54.15
 20
56.4722
 11
-54.0741
 21
56.4257
  0
LINE
  8
0
 10
-54.0741
 20
56.4257
 11
-54.0008
 21
56.3753
  0
LINE
  8
0
 10
-54.0008
 20
56.3753
 11
-53.9302
 21
56.3211
  0
LINE
  8
0
 10
-53.9302
 20
56.3211
 11
-53.8625
 21
56.2633
  0
LINE
  8
0
 10
-53.8625
 20
56.2633
 11
-53.7979
 21
56.2021
  0
LINE
  8
0
 10
-53.7979
 20
56.2021
 11
-53.7367
 21
56.1375
  0
LINE
  8
0
 10
-53.7367
 20
56.1375
 11
-53.6789
 21
56.0698
  0
LINE
  8
0
 10
-53.6789
 20
56.0698
 11
-53.6247
 21
55.9992
  0
LINE
  8
0
 10
-53.6247
 20
55.9992
 11
-53.5743
 21
55.9259
  0
LINE
  8
0
 10
-53.5743
 20
55.9259
 11
-53.5278
 21
55.85
  0
LINE
  8
0
 10
-53.5278
 20
55.85
 11
-53.4853
 21
55.7718
  0
LINE
  8
0
 10
-53.4853
 20
55.7718
 11
-53.447
 21
55.6915
  0
LINE
  8
0
 10
-53.447
 20
55.6915
 11
-53.4129
 21
55.6092
  0
LINE
  8
0
 10
-53.4129
 20
55.6092
 11
-53.3832
 21
55.5253
  0
LINE
  8
0
 10
-53.3832
 20
55.5253
 11
-53.3579
 21
55.44
  0
LINE
  8
0
 10
-53.3579
 20
55.44
 11
-53.3372
 21
55.3535
  0
LINE
  8
0
 10
-53.3372
 20
55.3535
 11
-53.3209
 21
55.2659
  0
LINE
  8
0
 10
-53.3209
 20
55.2659
 11
-53.3093
 21
55.1777
  0
LINE
  8
0
 10
-53.3093
 20
55.1777
 11
-53.3023
 21
55.089
  0
LINE
  8
0
 10
-53.3023
 20
55.089
 11
-53.3
 21
55
  0
LINE
  8
0
 10
-53.3
 20
55
 11
-53.3023
 21
54.911
  0
LINE
  8
0
 10
-53.3023
 20
54.911
 11
-53.3093
 21
54.8223
  0
LINE
  8
0
 10
-53.3093
 20
54.8223
 11
-53.3209
 21
54.7341
  0
LINE
  8
0
 10
-53.3209
 20
54.7341
 11
-53.3372
 21
54.6465
  0
LINE
  8
0
 10
-53.3372
 20
54.6465
 11
-53.3579
 21
54.56
  0
LINE
  8
0
 10
-53.3579
 20
54.56
 11
-53.3832
 21
54.4747
  0
LINE
  8
0
 10
-53.3832
 20
54.4747
 11
-53.4129
 21
54.3908
  0
LINE
  8
0
 10
-53.4129
 20
54.3908
 11
-53.447
 21
54.3085
  0
LINE
  8
0
 10
-53.447
 20
54.3085
 11
-53.4853
 21
54.2282
  0
LINE
  8
0
 10
-53.4853
 20
54.2282
 11
-53.5278
 21
54.15
  0
LINE
  8
0
 10
-53.5278
 20
54.15
 11
-53.5743
 21
54.0741
  0
LINE
  8
0
 10
-53.5743
 20
54.0741
 11
-53.6247
 21
54.0008
  0
LINE
  8
0
 10
-53.6247
 20
54.0008
 11
-53.6789
 21
53.9302
  0
LINE
  8
0
 10
-53.6789
 20
53.9302
 11
-53.7367
 21
53.8625
  0
LINE
  8
0
 10
-53.7367
 20
53.8625
 11
-53.7979
 21
53.7979
  0
LINE
  8
0
 10
-53.7979
 20
53.7979
 11
-53.8625
 21
53.7367
  0
LINE
  8
0
 10
-53.8625
 20
53.7367
 11
-53.9302
 21
53.6789
  0
LINE
  8
0
 10
-53.9302
 20
53.6789
 11
-54.0008
 21
53.6247
  0
LINE
  8
0
 10
-54.0008
 20
53.6247
 11
-54.0741
 21
53.5743
  0
LINE
  8
0
 10
-54.0741
 20
53.5743
 11
-54.15
 21
53.5278
  0
LINE
  8
0
 10
-54.15
 20
53.5278
 11
-54.2282
 21
53.4853
  0
LINE
  8
0
 10
-54.2282
 20
53.4853
 11
-54.3085
 21
53.447
  0
LINE
  8
0
 10
-54.3085
 20
53.447
 11
-54.3908
 21
53.4129
  0
LINE
  8
0
 10
-54.3908
 20
53.4129
 11
-54.4747
 21
53.3832
  0
LINE
  8
0
 10
-54.4747
 20
53.3832
 11
-54.56
 21
53.3579
  0
LINE
  8
0
 10
-54.56
 20
53.3579
 11
-54.6465
 21
53.3372
  0
LINE
  8
0
 10
-54.6465
 20
53.3372
 11
-54.7341
 21
53.3209
  0
LINE
  8
0
 10
-54.7341
 20
53.3209
 11
-54.8223
 21
53.3093
  0
LINE
  8
0
 10
-54.8223
 20
53.3093
 11
-54.911
 21
53.3023
  0
LINE
  8
0
 10
-54.911
 20
53.3023
 11
-55
 21
53.3
  0
LINE
  8
0
 10
-55
 20
53.3
 11
-55.089
 21
53.3023
  0
LINE
  8
0
 10
54.911
 20
53.3023
 11
54.8223
 21
53.3093
  0
LINE
  8
0
 10
54.8223
 20
53.3093
 11
54.7341
 21
53.3209
  0
LINE
  8
0
 10
54.7341
 20
53.3209
 11
54.6465
 21
53.3372
  0
LINE
  8
0
 10
54.6465
 20
53.3372
 11
54.56
 21
53.3579
  0
LINE
  8
0
 10
54.56
 20
53.3579
 11
54.4747
 21
53.3832
  0
LINE
  8
0
 10
54.4747
 20
53.3832
 11
54.3908
 21
53.4129
  0
LINE
  8
0
 10
54.3908
 20
53.4129
 11
54.3085
 21
53.447
  0
LINE
  8
0
 10
54.3085
 20
53.447
 11
54.2282
 21
53.4853
  0
LINE
  8
0
 10
54.2282
 20
53.4853
 11
54.15
 21
53.5278
  0
LINE
  8
0
 10
54.15
 20
53.5278
 11
54.0741
 21
53.5743
  0
LINE
  8
0
 10
54.0741
 20
53.5743
 11
54.0008
 21
53.6247
  0
LINE
  8
0
 10
54.0008
 20
53.6247
 11
53.9302
 21
53.6789
  0
LINE
  8
0
 10
53.9302
 20
53.6789
 11
53.8625
 21
53.7367
  0
LINE
  8
0
 10
53.8625
 20
53.7367
 11
53.7979
 21
53.7979
  0
LINE
  8
0
 10
53.7979
 20
53.7979
 11
53.7367
 21
53.8625
  0
LINE
  8
0
 10
53.7367
 20
53.8625
 11
53.6789
 21
53.9302
  0
LINE
  8
0
 10
53.6789
 20
53.9302
 11
53.6247
 21
54.0008
  0
LINE
  8
0
 10
53.6247
 20
54.0008
 11
53.5743
 21
54.0741
  0
LINE
  8
0
 10
53.5743
 20
54.0741
 11
53.5278
 21
54.15
  0
LINE
  8
0
 10
53.5278
 20
54.15
 11
53.4853
 21
54.2282
  0
LINE
  8
0
 10
53.4853
 20
54.2282
 11
53.447
 21
54.3085
  0
LINE
  8
0
 10
53.447
 20
54.3085
 11
53.4129
 21
54.3908
  0
LINE
  8
0
 10
53.4129
 20
54.3908
 11
53.3832
 21
54.4747
  0
LINE
  8
0
 10
53.3832
 20
54.4747
 11
53.3579
 21
54.56
  0
LINE
  8
0
 10
53.3579
 20
54.56
 11
53.3372
 21
54.6465
  0
LINE
  8
0
 10
53.3372
 20
54.6465
 11
53.3209
 21
54.7341
  0
LINE
  8
0
 10
53.3209
 20
54.7341
 11
53.3093
 21
54.8223
  0
LINE
  8
0
 10
53.3093
 20
54.8223
 11
53.3023
 21
54.911
  0
LINE
  8
0
 10
53.3023
 20
54.911
 11
53.3
 21
55
  0
LINE
  8
0
 10
53.3
 20
55
 11
53.3023
 21
55.089
  0
LINE
  8
0
 10
53.3023
 20
55.089
 11
53.3093
 21
55.1777
  0
LINE
  8
0
 10
53.3093
 20
55.1777
 11
53.3209
 21
55.2659
  0
LINE
  8
0
 10
53.3209
 20
55.2659
 11
53.3372
 21
55.3535
  0
LINE
  8
0
 10
53.3372
 20
55.3535
 11
53.3579
 21
55.44
  0
LINE
  8
0
 10
53.3579
 20
55.44
 11
53.3832
 21
55.5253
  0
LINE
  8
0
 10
53.3832
 20
55.5253
 11
53.4129
 21
55.6092
  0
LINE
  8
0
 10
53.4129
 20
55.6092
 11
53.447
 21
55.6915
  0
LINE
  8
0
 10
53.447
 20
55.6915
 11
53.4853
 21
55.7718
  0
LINE
  8
0
 10
53.4853
 20
55.7718
 11
53.5278
 21
55.85
  0
LINE
  8
0
 10
53.5278
 20
55.85
 11
53.5743
 21
55.9259
  0
LINE
  8
0
 10
53.5743
 20
55.9259
 11
53.6247
 21
55.9992
  0
LINE
  8
0
 10
53.6247
 20
55.9992
 11
53.6789
 21
56.0698
  0
LINE
  8
0
 10
53.6789
 20
56.0698
 11
53.7367
 21
56.1375
  0
LINE
  8
0
 10
53.7367
 20
56.1375
 11
53.7979
 21
56.2021
  0
LINE
  8
0
 10
53.7979
 20
56.2021
 11
53.8625
 21
56.2633
  0
LINE
  8
0
 10
53.8625
 20
56.2633
 11
53.9302
 21
56.3211
  0
LINE
  8
0
 10
53.9302
 20
56.3211
 11
54.0008
 21
56.3753
  0
LINE
  8
0
 10
54.0008
 20
56.3753
 11
54.0741
 21
56.4257
  0
LINE
  8
0
 10
54.0741
 20
56.4257
 11
54.15
 21
56.4722
  0
LINE
  8
0
 10
54.15
 20
56.4722
 11
54.2282
 21
56.5147
  0
LINE
  8
0
 10
54.2282
 20
56.5147
 11
54.3085
 21
56.553
  0
LINE
  8
0
 10
54.3085
 20
56.553
 11
54.3908
 21
56.5871
  0
LINE
  8
0
 10
54.3908
 20
56.5871
 11
54.4747
 21
56.6168
  0
LINE
  8
0
 10
54.4747
 20
56.6168
 11
54.56
 21
56.6421
  0
LINE
  8
0
 10
54.56
 20
56.6421
 11
54.6465
 21
56.6628
  0
LINE
  8
0
 10
54.6465
 20
56.6628
 11
54.7341
 21
56.6791
  0
LINE
  8
0
 10
54.7341
 20
56.6791
 11
54.8223
 21
56.6907
  0
LINE
  8
0
 10
54.8223
 20
56.6907
 11
54.911
 21
56.6977
  0
LINE
  8
0
 10
54.911
 20
56.6977
 11
55
 21
56.7
  0
LINE
  8
0
 10
55
 20
56.7
 11
55.089
 21
56.6977
  0
LINE
  8
0
 10
55.089
 20
56.6977
 11
55.1777
 21
56.6907
  0
LINE
  8
0
 10
55.1777
 20
56.6907
 11
55.2659
 21
56.6791
  0
LINE
  8
0
 10
55.2659
 20
56.6791
 11
55.3535
 21
56.6628
  0
LINE
  8
0
 10
55.3535
 20
56.6628
 11
55.44
 21
56.6421
  0
LINE
  8
0
 10
55.44
 20
56.6421
 11
55.5253
 21
56.6168
  0
LINE
  8
0
 10
55.5253
 20
56.6168
 11
55.6092
 21
56.5871
  0
LINE
  8
0
 10
55.6092
 20
56.5871
 11
55.6915
 21
56.553
  0
LINE
  8
0
 10
55.6915
 20
56.553
 11
55.7718
 21
56.5147
  0
LINE
  8
0
 10
55.7718
 20
56.5147
 11
55.85
 21
56.4722
  0
LINE
  8
0
 10
55.85
 20
56.4722
 11
55.9259
 21
56.4257
  0
LINE
  8
0
 10
55.9259
 20
56.4257
 11
55.9992
 21
56.3753
  0
LINE
  8
0
 10
55.9992
 20
56.3753
 11
56.0698
 21
56.3211
  0
LINE
  8
0
 10
56.0698
 20
56.3211
 11
56.1375
 21
56.2633
  0
LINE
  8
0
 10
56.1375
 20
56.2633
 11
56.2021
 21
56.2021
  0
LINE
  8
0
 10
56.2021
 20
56.2021
 11
56.2633
 21
56.1375
  0
LINE
  8
0
 10
56.2633
 20
56.1375
 11
56.3211
 21
56.0698
  0
LINE
  8
0
 10
56.3211
 20
56.0698
 11
56.3753
 21
55.9992
  0
LINE
  8
0
 10
56.3753
 20
55.9992
 11
56.4257
 21
55.9259
  0
LINE
  8
0
 10
56.4257
 20
55.9259
 11
56.4722
 21
55.85
  0
LINE
  8
0
 10
56.4722
 20
55.85
 11
56.5147
 21
55.7718
  0
LINE
  8
0
 10
56.5147
 20
55.7718
 11
56.553
 21
55.6915
  0
LINE
  8
0
 10
56.553
 20
55.6915
 11
56.5871
 21
55.6092
  0
LINE
  8
0
 10
56.5871
 20
55.6092
 11
56.6168
 21
55.5253
  0
LINE
  8
0
 10
56.6168
 20
55.5253
 11
56.6421
 21
55.44
  0
LINE
  8
0
 10
56.6421
 20
55.44
 11
56.6628
 21
55.3535
  0
LINE
  8
0
 10
56.6628
 20
55.3535
 11
56.6791
 21
55.2659
  0
LINE
  8
0
 10
56.6791
 20
55.2659
 11
56.6907
 21
55.1777
  0
LINE
  8
0
 10
56.6907
 20
55.1777
 11
56.6977
 21
55.089
  0
LINE
  8
0
 10
56.6977
 20
55.089
 11
56.7
 21
55
  0
LINE
  8
0
 10
56.7
 20
55
 11
56.6977
 21
54.911
  0
LINE
  8
0
 10
56.6977
 20
54.911
 11
56.6907
 21
54.8223
  0
LINE
  8
0
 10
56.6907
 20
54.8223
 11
56.6791
 21
54.7341
  0
LINE
  8
0
 10
56.6791
 20
54.7341
 11
56.6628
 21
54.6465
  0
LINE
  8
0
 10
56.6628
 20
54.6465
 11
56.6421
 21
54.56
  0
LINE
  8
0
 10
56.6421
 20
54.56
 11
56.6168
 21
54.4747
  0
LINE
  8
0
 10
56.6168
 20
54.4747
 11
56.5871
 21
54.3908
  0
LINE
  8
0
 10
56.5871
 20
54.3908
 11
56.553
 21
54.3085
  0
LINE
  8
0
 10
56.553
 20
54.3085
 11
56.5147
 21
54.2282
  0
LINE
  8
0
 10
56.5147
 20
54.2282
 11
56.4722
 21
54.15
  0
LINE
  8
0
 10
56.4722
 20
54.15
 11
56.4257
 21
54.0741
  0
LINE
  8
0
 10
56.4257
 20
54.0741
 11
56.3753
 21
54.0008
  0
LINE
  8
0
 10
56.3753
 20
54.0008
 11
56.3211
 21
53.9302
  0
LINE
  8
0
 10
56.3211
 20
53.9302
 11
56.2633
 21
53.8625
  0
LINE
  8
0
 10
56.2633
 20
53.8625
 11
56.2021
 21
53.7979
  0
LINE
  8
0
 10
56.2021
 20
53.7979
 11
56.1375
 21
53.7367
  0
LINE
  8
0
 10
56.1375
 20
53.7367
 11
56.0698
 21
53.6789
  0
LINE
  8
0
 10
56.0698
 20
53.6789
 11
55.9992
 21
53.6247
  0
LINE
  8
0
 10
55.9992
 20
53.6247
 11
55.9259
 21
53.5743
  0
LINE
  8
0
 10
55.9259
 20
53.5743
 11
55.85
 21
53.5278
  0
LINE
  8
0
 10
55.85
 20
53.5278
 11
55.7718
 21
53.4853
  0
LINE
  8
0
 10
55.7718
 20
53.4853
 11
55.6915
 21
53.447
  0
LINE
  8
0
 10
55.6915
 20
53.447
 11
55.6092
 21
53.4129
  0
LINE
  8
0
 10
55.6092
 20
53.4129
 11
55.5253
 21
53.3832
  0
LINE
  8
0
 10
55.5253
 20
53.3832
 11
55.44
 21
53.3579
  0
LINE
  8
0
 10
55.44
 20
53.3579
 11
55.3535
 21
53.3372
  0
LINE
  8
0
 10
55.3535
 20
53.3372
 11
55.2659
 21
53.3209
  0
LINE
  8
0
 10
55.2659
 20
53.3209
 11
55.1777
 21
53.3093
  0
LINE
  8
0
 10
55.1777
 20
53.3093
 11
55.089
 21
53.3023
  0
LINE
  8
0
 10
55.089
 20
53.3023
 11
55
 21
53.3
  0
LINE
  8
0
 10
55
 20
53.3
 11
54.911
 21
53.3023
  0
LINE
  8
0
 10
-0.209335
 20
40.0055
 11
-0.418106
 21
40.0219
  0
LINE
  8
0
 10
-0.418106
 20
40.0219
 11
-0.625732
 21
40.0492
  0
LINE
  8
0
 10
-0.625732
 20
40.0492
 11
-0.831635
 21
40.0874
  0
LINE
  8
0
 10
-0.831635
 20
40.0874
 11
-1.03528
 21
40.1363
  0
LINE
  8
0
 10
-1.03528
 20
40.1363
 11
-1.23607
 21
40.1958
  0
LINE
  8
0
 10
-1.23607
 20
40.1958
 11
-1.43346
 21
40.2657
  0
LINE
  8
0
 10
-1.43346
 20
40.2657
 11
-1.62694
 21
40.3458
  0
LINE
  8
0
 10
-1.62694
 20
40.3458
 11
-1.81595
 21
40.436
  0
LINE
  8
0
 10
-1.81595
 20
40.436
 11
-2
 21
40.5359
  0
LINE
  8
0
 10
-2
 20
40.5359
 11
-2.17856
 21
40.6453
  0
LINE
  8
0
 10
-2.17856
 20
40.6453
 11
-2.35114
 21
40.7639
  0
LINE
  8
0
 10
-2.35114
 20
40.7639
 11
-2.51727
 21
40.8914
  0
LINE
  8
0
 10
-2.51727
 20
40.8914
 11
-2.67651
 21
41.0274
  0
LINE
  8
0
 10
-2.67651
 20
41.0274
 11
-2.82841
 21
41.1716
  0
LINE
  8
0
 10
-2.82841
 20
41.1716
 11
-2.97258
 21
41.3235
  0
LINE
  8
0
 10
-2.97258
 20
41.3235
 11
-3.10857
 21
41.4827
  0
LINE
  8
0
 10
-3.10857
 20
41.4827
 11
-3.23607
 21
41.6489
  0
LINE
  8
0
 10
-3.23607
 20
41.6489
 11
-3.35468
 21
41.8214
  0
LINE
  8
0
 10
-3.35468
 20
41.8214
 11
-3.4641
 21
42
  0
LINE
  8
0
 10
-3.4641
 20
42
 11
-3.56403
 21
42.184
  0
LINE
  8
0
 10
-3.56403
 20
42.184
 11
-3.65417
 21
42.3731
  0
LINE
  8
0
 10
-3.65417
 20
42.3731
 11
-3.73431
 21
42.5665
  0
LINE
  8
0
 10
-3.73431
 20
42.5665
 11
-3.80423
 21
42.7639
  0
LINE
  8
0
 10
-3.80423
 20
42.7639
 11
-3.86369
 21
42.9647
  0
LINE
  8
0
 10
-3.86369
 20
42.9647
 11
-3.91258
 21
43.1684
  0
LINE
  8
0
 10
-3.91258
 20
43.1684
 11
-3.95074
 21
43.3743
  0
LINE
  8
0
 10
-3.95074
 20
43.3743
 11
-3.97809
 21
43.5819
  0
LINE
  8
0
 10
-3.97809
 20
43.5819
 11
-3.99451
 21
43.7907
  0
LINE
  8
0
 10
-3.99451
 20
43.7907
 11
-4
 21
44
  0
LINE
  8
0
 10
-4
 20
44
 11
-3.99451
 21
44.2093
  0
LINE
  8
0
 10
-3.99451
 20
44.2093
 11
-3.97809
 21
44.4181
  0
LINE
  8
0
 10
-3.97809
 20
44.4181
 11
-3.95074
 21
44.6257
  0
LINE
  8
0
 10
-3.95074
 20
44.6257
 11
-3.91258
 21
44.8316
  0
LINE
  8
0
 10
-3.91258
 20
44.8316
 11
-3.86369
 21
45.0353
  0
LINE
  8
0
 10
-3.86369
 20
45.0353
 11
-3.80423
 21
45.2361
  0
LINE
  8
0
 10
-3.80423
 20
45.2361
 11
-3.73431
 21
45.4335
  0
LINE
  8
0
 10
-3.73431
 20
45.4335
 11
-3.65417
 21
45.6269
  0
LINE
  8
0
 10
-3.65417
 20
45.6269
 11
-3.56403
 21
45.816
  0
LINE
  8
0
 10
-3.56403
 20
45.816
 11
-3.4641
 21
46
  0
LINE
  8
0
 10
-3.4641
 20
46
 11
-3.35468
 21
46.1786
  0
LINE
  8
0
 10
-3.35468
 20
46.1786
 11
-3.23607
 21
46.3511
  0
LINE
  8
0
 10
-3.23607
 20
46.3511
 11
-3.10857
 21
46.5173
  0
LINE
  8
0
 10
-3.10857
 20
46.5173
 11
-2.97258
 21
46.6765
  0
LINE
  8
0
 10
-2.97258
 20
46.6765
 11
-2.82841
 21
46.8284
  0
LINE
  8
0
 10
-2.82841
 20
46.8284
 11
-2.67651
 21
46.9726
  0
LINE
  8
0
 10
-2.67651
 20
46.9726
 11
-2.51727
 21
47.1086
  0
LINE
  8
0
 10
-2.51727
 20
47.1086
 11
-2.35114
 21
47.2361
  0
LINE
  8
0
 10
-2.35114
 20
47.2361
 11
-2.17856
 21
47.3547
  0
LINE
  8
0
 10
-2.17856
 20
47.3547
 11
-2
 21
47.4641
  0
LINE
  8
0
 10
-2
 20
47.4641
 11
-1.81595
 21
47.564
  0
LINE
  8
0
 10
-1.81595
 20
47.564
 11
-1.62694
 21
47.6542
  0
LINE
  8
0
 10
-1.62694
 20
47.6542
 11
-1.43346
 21
47.7343
  0
LINE
  8
0
 10
-1.43346
 20
47.7343
 11
-1.23607
 21
47.8042
  0
LINE
  8
0
 10
-1.23607
 20
47.8042
 11
-1.03528
 21
47.8637
  0
LINE
  8
0
 10
-1.03528
 20
47.8637
 11
-0.831635
 21
47.9126
  0
LINE
  8
0
 10
-0.831635
 20
47.9126
 11
-0.625732
 21
47.9508
  0
LINE
  8
0
 10
-0.625732
 20
47.9508
 11
-0.418106
 21
47.9781
  0
LINE
  8
0
 10
-0.418106
 20
47.9781
 11
-0.209335
 21
47.9945
  0
LINE
  8
0
 10
-0.209335
 20
47.9945
 11
0
 21
48
  0
LINE
  8
0
 10
0
 20
48
 11
0.209335
 21
47.9945
  0
LINE
  8
0
 10
0.209335
 20
47.9945
 11
0.418106
 21
47.9781
  0
LINE
  8
0
 10
0.418106
 20
47.9781
 11
0.625732
 21
47.9508
  0
LINE
  8
0
 10
0.625732
 20
47.9508
 11
0.831635
 21
47.9126
  0
LINE
  8
0
 10
0.831635
 20
47.9126
 11
1.03528
 21
47.8637
  0
LINE
  8
0
 10
1.03528
 20
47.8637
 11
1.23607
 21
47.8042
  0
LINE
  8
0
 10
1.23607
 20
47.8042
 11
1.43346
 21
47.7343
  0
LINE
  8
0
 10
1.43346
 20
47.7343
 11
1.62694
 21
47.6542
  0
LINE
  8
0
 10
1.62694
 20
47.6542
 11
1.81595
 21
47.564
  0
LINE
  8
0
 10
1.81595
 20
47.564
 11
2
 21
47.4641
  0
LINE
  8
0
 10
2
 20
47.4641
 11
2.17856
 21
47.3547
  0
LINE
  8
0
 10
2.17856
 20
47.3547
 11
2.35114
 21
47.2361
  0
LINE
  8
0
 10
2.35114
 20
47.2361
 11
2.51727
 21
47.1086
  0
LINE
  8
0
 10
2.51727
 20
47.1086
 11
2.67651
 21
46.9726
  0
LINE
  8
0
 10
2.67651
 20
46.9726
 11
2.82841
 21
46.8284
  0
LINE
  8
0
 10
2.82841
 20
46.8284
 11
2.97258
 21
46.6765
  0
LINE
  8
0
 10
2.97258
 20
46.6765
 11
3.10857
 21
46.5173
  0
LINE
  8
0
 10
3.10857
 20
46.5173
 11
3.23607
 21
46.3511
  0
LINE
  8
0
 10
3.23607
 20
46.3511
 11
3.35468
 21
46.1786
  0
LINE
  8
0
 10
3.35468
 20
46.1786
 11
3.4641
 21
46
  0
LINE
  8
0
 10
3.4641
 20
46
 11
3.56403
 21
45.816
  0
LINE
  8
0
 10
3.56403
 20
45.816
 11
3.65417
 21
45.6269
  0
LINE
  8
0
 10
3.65417
 20
45.6269
 11
3.73431
 21
45.4335
  0
LINE
  8
0
 10
3.73431
 20
45.4335
 11
3.80423
 21
45.2361
  0
LINE
  8
0
 10
3.80423
 20
45.2361
 11
3.86369
 21
45.0353
  0
LINE
  8
0
 10
3.86369
 20
45.0353
 11
3.91258
 21
44.8316
  0
LINE
  8
0
 10
3.91258
 20
44.8316
 11
3.95074
 21
44.6257
  0
LINE
  8
0
 10
3.95074
 20
44.6257
 11
3.97809
 21
44.4181
  0
LINE
  8
0
 10
3.97809
 20
44.4181
 11
3.99451
 21
44.2093
  0
LINE
  8
0
 10
3.99451
 20
44.2093
 11
4
 21
44
  0
LINE
  8
0
 10
4
 20
44
 11
3.99451
 21
43.7907
  0
LINE
  8
0
 10
3.99451
 20
43.7907
 11
3.97809
 21
43.5819
  0
LINE
  8
0
 10
3.97809
 20
43.5819
 11
3.95074
 21
43.3743
  0
LINE
  8
0
 10
3.95074
 20
43.3743
 11
3.91258
 21
43.1684
  0
LINE
  8
0
 10
3.91258
 20
43.1684
 11
3.86369
 21
42.9647
  0
LINE
  8
0
 10
3.86369
 20
42.9647
 11
3.80423
 21
42.7639
  0
LINE
  8
0
 10
3.80423
 20
42.7639
 11
3.73431
 21
42.5665
  0
LINE
  8
0
 10
3.73431
 20
42.5665
 11
3.65417
 21
42.3731
  0
LINE
  8
0
 10
3.65417
 20
42.3731
 11
3.56403
 21
42.184
  0
LINE
  8
0
 10
3.56403
 20
42.184
 11
3.4641
 21
42
  0
LINE
  8
0
 10
3.4641
 20
42
 11
3.35468
 21
41.8214
  0
LINE
  8
0
 10
3.35468
 20
41.8214
 11
3.23607
 21
41.6489
  0
LINE
  8
0
 10
3.23607
 20
41.6489
 11
3.10857
 21
41.4827
  0
LINE
  8
0
 10
3.10857
 20
41.4827
 11
2.97258
 21
41.3235
  0
LINE
  8
0
 10
2.97258
 20
41.3235
 11
2.82841
 21
41.1716
  0
LINE
  8
0
 10
2.82841
 20
41.1716
 11
2.67651
 21
41.0274
  0
LINE
  8
0
 10
2.67651
 20
41.0274
 11
2.51727
 21
40.8914
  0
LINE
  8
0
 10
2.51727
 20
40.8914
 11
2.35114
 21
40.7639
  0
LINE
  8
0
 10
2.35114
 20
40.7639
 11
2.17856
 21
40.6453
  0
LINE
  8
0
 10
2.17856
 20
40.6453
 11
2
 21
40.5359
  0
LINE
  8
0
 10
2
 20
40.5359
 11
1.81595
 21
40.436
  0
LINE
  8
0
 10
1.81595
 20
40.436
 11
1.62694
 21
40.3458
  0
LINE
  8
0
 10
1.62694
 20
40.3458
 11
1.43346
 21
40.2657
  0
LINE
  8
0
 10
1.43346
 20
40.2657
 11
1.23607
 21
40.1958
  0
LINE
  8
0
 10
1.23607
 20
40.1958
 11
1.03528
 21
40.1363
  0
LINE
  8
0
 10
1.03528
 20
40.1363
 11
0.831635
 21
40.0874
  0
LINE
  8
0
 10
0.831635
 20
40.0874
 11
0.625732
 21
40.0492
  0
LINE
  8
0
 10
0.625732
 20
40.0492
 11
0.418106
 21
40.0219
  0
LINE
  8
0
 10
0.418106
 20
40.0219
 11
0.209335
 21
40.0055
  0
LINE
  8
0
 10
0.209335
 20
40.0055
 11
0
 21
40
  0
LINE
  8
0
 10
0
 20
40
 11
-0.209335
 21
40.0055
  0
LINE
  8
0
 10
30.9034
 20
27.1182
 11
30.6946
 21
27.1346
  0
LINE
  8
0
 10
30.6946
 20
27.1346
 11
30.487
 21
27.1619
  0
LINE
  8
0
 10
30.487
 20
27.1619
 11
30.2811
 21
27.2001
  0
LINE
  8
0
 10
30.2811
 20
27.2001
 11
30.0774
 21
27.249
  0
LINE
  8
0
 10
30.0774
 20
27.249
 11
29.8766
 21
27.3085
  0
LINE
  8
0
 10
29.8766
 20
27.3085
 11
29.6792
 21
27.3784
  0
LINE
  8
0
 10
29.6792
 20
27.3784
 11
29.4858
 21
27.4585
  0
LINE
  8
0
 10
29.4858
 20
27.4585
 11
29.2967
 21
27.5487
  0
LINE
  8
0
 10
29.2967
 20
27.5487
 11
29.1127
 21
27.6486
  0
LINE
  8
0
 10
29.1127
 20
27.6486
 11
28.9341
 21
27.758
  0
LINE
  8
0
 10
28.9341
 20
27.758
 11
28.7616
 21
27.8766
  0
LINE
  8
0
 10
28.7616
 20
27.8766
 11
28.5954
 21
28.0041
  0
LINE
  8
0
 10
28.5954
 20
28.0041
 11
28.4362
 21
28.1401
  0
LINE
  8
0
 10
28.4362
 20
28.1401
 11
28.2843
 21
28.2843
  0
LINE
  8
0
 10
28.2843
 20
28.2843
 11
28.1401
 21
28.4362
  0
LINE
  8
0
 10
28.1401
 20
28.4362
 11
28.0041
 21
28.5954
  0
LINE
  8
0
 10
28.0041
 20
28.5954
 11
27.8766
 21
28.7616
  0
LINE
  8
0
 10
27.8766
 20
28.7616
 11
27.758
 21
28.9341
  0
LINE
  8
0
 10
27.758
 20
28.9341
 11
27.6486
 21
29.1127
  0
LINE
  8
0
 10
27.6486
 20
29.1127
 11
27.5487
 21
29.2967
  0
LINE
  8
0
 10
27.5487
 20
29.2967
 11
27.4585
 21
29.4858
  0
LINE
  8
0
 10
27.4585
 20
29.4858
 11
27.3784
 21
29.6792
  0
LINE
  8
0
 10
27.3784
 20
29.6792
 11
27.3085
 21
29.8766
  0
LINE
  8
0
 10
27.3085
 20
29.8766
 11
27.249
 21
30.0774
  0
LINE
  8
0
 10
27.249
 20
30.0774
 11
27.2001
 21
30.2811
  0
LINE
  8
0
 10
27.2001
 20
30.2811
 11
27.1619
 21
30.487
  0
LINE
  8
0
 10
27.1619
 20
30.487
 11
27.1346
 21
30.6946
  0
LINE
  8
0
 10
27.1346
 20
30.6946
 11
27.1182
 21
30.9034
  0
LINE
  8
0
 10
27.1182
 20
30.9034
 11
27.1127
 21
31.1127
  0
LINE
  8
0
 10
27.1127
 20
31.1127
 11
27.1182
 21
31.322
  0
LINE
  8
0
 10
27.1182
 20
31.322
 11
27.1346
 21
31.5308
  0
LINE
  8
0
 10
27.1346
 20
31.5308
 11
27.1619
 21
31.7384
  0
LINE
  8
0
 10
27.1619
 20
31.7384
 11
27.2001
 21
31.9443
  0
LINE
  8
0
 10
27.2001
 20
31.9443
 11
27.249
 21
32.148
  0
LINE
  8
0
 10
27.249
 20
32.148
 11
27.3085
 21
32.3488
  0
LINE
  8
0
 10
27.3085
 20
32.3488
 11
27.3784
 21
32.5462
  0
LINE
  8
0
 10
27.3784
 20
32.5462
 11
27.4585
 21
32.7396
  0
LINE
  8
0
 10
27.4585
 20
32.7396
 11
27.5487
 21
32.9287
  0
LINE
  8
0
 10
27.5487
 20
32.9287
 11
27.6486
 21
33.1127
  0
LINE
  8
0
 10
27.6486
 20
33.1127
 11
27.758
 21
33.2913
  0
LINE
  8
0
 10
27.758
 20
33.2913
 11
27.8766
 21
33.4638
  0
LINE
  8
0
 10
27.8766
 20
33.4638
 11
28.0041
 21
33.63
  0
LINE
  8
0
 10
28.0041
 20
33.63
 11
28.1401
 21
33.7892
  0
LINE
  8
0
 10
28.1401
 20
33.7892
 11
28.2843
 21
33.9411
  0
LINE
  8
0
 10
28.2843
 20
33.9411
 11
28.4362
 21
34.0853
  0
LINE
  8
0
 10
28.4362
 20
34.0853
 11
28.5954
 21
34.2213
  0
LINE
  8
0
 10
28.5954
 20
34.2213
 11
28.7616
 21
34.3488
  0
LINE
  8
0
 10
28.7616
 20
34.3488
 11
28.9341
 21
34.4674
  0
LINE
  8
0
 10
28.9341
 20
34.4674
 11
29.1127
 21
34.5768
  0
LINE
  8
0
 10
29.1127
 20
34.5768
 11
29.2967
 21
34.6767
  0
LINE
  8
0
 10
29.2967
 20
34.6767
 11
29.4858
 21
34.7669
  0
LINE
  8
0
 10
29.4858
 20
34.7669
 11
29.6792
 21
34.847
  0
LINE
  8
0
 10
29.6792
 20
34.847
 11
29.8766
 21
34.9169
  0
LINE
  8
0
 10
29.8766
 20
34.9169
 11
30.0774
 21
34.9764
  0
LINE
  8
0
 10
30.0774
 20
34.9764
 11
30.2811
 21
35.0253
  0
LINE
  8
0
 10
30.2811
 20
35.0253
 11
30.487
 21
35.0634
  0
LINE
  8
0
 10
30.487
 20
35.0634
 11
30.6946
 21
35.0908
  0
LINE
  8
0
 10
30.6946
 20
35.0908
 11
30.9034
 21
35.1072
  0
LINE
  8
0
 10
30.9034
 20
35.1072
 11
31.1127
 21
35.1127
  0
LINE
  8
0
 10
31.1127
 20
35.1127
 11
31.322
 21
35.1072
  0
LINE
  8
0
 10
31.322
 20
35.1072
 11
31.5308
 21
35.0908
  0
LINE
  8
0
 10
31.5308
 20
35.0908
 11
31.7384
 21
35.0634
  0
LINE
  8
0
 10
31.7384
 20
35.0634
 11
31.9443
 21
35.0253
  0
LINE
  8
0
 10
31.9443
 20
35.0253
 11
32.148
 21
34.9764
  0
LINE
  8
0
 10
32.148
 20
34.9764
 11
32.3488
 21
34.9169
  0
LINE
  8
0
 10
32.3488
 20
34.9169
 11
32.5462
 21
34.847
  0
LINE
  8
0
 10
32.5462
 20
34.847
 11
32.7396
 21
34.7669
  0
LINE
  8
0
 10
32.7396
 20
34.7669
 11
32.9287
 21
34.6767
  0
LINE
  8
0
 10
32.9287
 20
34.6767
 11
33.1127
 21
34.5768
  0
LINE
  8
0
 10
33.1127
 20
34.5768
 11
33.2913
 21
34.4674
  0
LINE
  8
0
 10
33.2913
 20
34.4674
 11
33.4638
 21
34.3488
  0
LINE
  8
0
 10
33.4638
 20
34.3488
 11
33.63
 21
34.2213
  0
LINE
  8
0
 10
33.63
 20
34.2213
 11
33.7892
 21
34.0853
  0
LINE
  8
0
 10
33.7892
 20
34.0853
 11
33.9411
 21
33.9411
  0
LINE
  8
0
 10
33.9411
 20
33.9411
 11
34.0853
 21
33.7892
  0
LINE
  8
0
 10
34.0853
 20
33.7892
 11
34.2213
 21
33.63
  0
LINE
  8
0
 10
34.2213
 20
33.63
 11
34.3488
 21
33.4638
  0
LINE
  8
0
 10
34.3488
 20
33.4638
 11
34.4674
 21
33.2913
  0
LINE
  8
0
 10
34.4674
 20
33.2913
 11
34.5768
 21
33.1127
  0
LINE
  8
0
 10
34.5768
 20
33.1127
 11
34.6767
 21
32.9287
  0
LINE
  8
0
 10
34.6767
 20
32.9287
 11
34.7669
 21
32.7396
  0
LINE
  8
0
 10
34.7669
 20
32.7396
 11
34.847
 21
32.5462
  0
LINE
  8
0
 10
34.847
 20
32.5462
 11
34.9169
 21
32.3488
  0
LINE
  8
0
 10
34.9169
 20
32.3488
 11
34.9764
 21
32.148
  0
LINE
  8
0
 10
34.9764
 20
32.148
 11
35.0253
 21
31.9443
  0
LINE
  8
0
 10
35.0253
 20
31.9443
 11
35.0634
 21
31.7384
  0
LINE
  8
0
 10
35.0634
 20
31.7384
 11
35.0908
 21
31.5308
  0
LINE
  8
0
 10
35.0908
 20
31.5308
 11
35.1072
 21
31.322
  0
LINE
  8
0
 10
35.1072
 20
31.322
 11
35.1127
 21
31.1127
  0
LINE
  8
0
 10
35.1127
 20
31.1127
 11
35.1072
 21
30.9034
  0
LINE
  8
0
 10
35.1072
 20
30.9034
 11
35.0908
 21
30.6946
  0
LINE
  8
0
 10
35.0908
 20
30.6946
 11
35.0634
 21
30.487
  0
LINE
  8
0
 10
35.0634
 20
30.487
 11
35.0253
 21
30.2811
  0
LINE
  8
0
 10
35.0253
 20
30.2811
 11
34.9764
 21
30.0774
  0
LINE
  8
0
 10
34.9764
 20
30.0774
 11
34.9169
 21
29.8766
  0
LINE
  8
0
 10
34.9169
 20
29.8766
 11
34.847
 21
29.6792
  0
LINE
  8
0
 10
34.847
 20
29.6792
 11
34.7669
 21
29.4858
  0
LINE
  8
0
 10
34.7669
 20
29.4858
 11
34.6767
 21
29.2967
  0
LINE
  8
0
 10
34.6767
 20
29.2967
 11
34.5768
 21
29.1127
  0
LINE
  8
0
 10
34.5768
 20
29.1127
 11
34.4674
 21
28.9341
  0
LINE
  8
0
 10
34.4674
 20
28.9341
 11
34.3488
 21
28.7616
  0
LINE
  8
0
 10
34.3488
 20
28.7616
 11
34.2213
 21
28.5954
  0
LINE
  8
0
 10
34.2213
 20
28.5954
 11
34.0853
 21
28.4362
  0
LINE
  8
0
 10
34.0853
 20
28.4362
 11
33.9411
 21
28.2843
  0
LINE
  8
0
 10
33.9411
 20
28.2843
 11
33.7892
 21
28.1401
  0
LINE
  8
0
 10
33.7892
 20
28.1401
 11
33.63
 21
28.0041
  0
LINE
  8
0
 10
33.63
 20
28.0041
 11
33.4638
 21
27.8766
  0
LINE
  8
0
 10
33.4638
 20
27.8766
 11
33.2913
 21
27.758
  0
LINE
  8
0
 10
33.2913
 20
27.758
 11
33.1127
 21
27.6486
  0
LINE
  8
0
 10
33.1127
 20
27.6486
 11
32.9287
 21
27.5487
  0
LINE
  8
0
 10
32.9287
 20
27.5487
 11
32.7396
 21
27.4585
  0
LINE
  8
0
 10
32.7396
 20
27.4585
 11
32.5462
 21
27.3784
  0
LINE
  8
0
 10
32.5462
 20
27.3784
 11
32.3488
 21
27.3085
  0
LINE
  8
0
 10
32.3488
 20
27.3085
 11
32.148
 21
27.249
  0
LINE
  8
0
 10
32.148
 20
27.249
 11
31.9443
 21
27.2001
  0
LINE
  8
0
 10
31.9443
 20
27.2001
 11
31.7384
 21
27.1619
  0
LINE
  8
0
 10
31.7384
 20
27.1619
 11
31.5308
 21
27.1346
  0
LINE
  8
0
 10
31.5308
 20
27.1346
 11
31.322
 21
27.1182
  0
LINE
  8
0
 10
31.322
 20
27.1182
 11
31.1127
 21
27.1127
  0
LINE
  8
0
 10
31.1127
 20
27.1127
 11
30.9034
 21
27.1182
  0
LINE
  8
0
 10
-31.322
 20
27.1182
 11
-31.5308
 21
27.1346
  0
LINE
  8
0
 10
-31.5308
 20
27.1346
 11
-31.7384
 21
27.1619
  0
LINE
  8
0
 10
-31.7384
 20
27.1619
 11
-31.9443
 21
27.2001
  0
LINE
  8
0
 10
-31.9443
 20
27.2001
 11
-32.148
 21
27.249
  0
LINE
  8
0
 10
-32.148
 20
27.249
 11
-32.3488
 21
27.3085
  0
LINE
  8
0
 10
-32.3488
 20
27.3085
 11
-32.5462
 21
27.3784
  0
LINE
  8
0
 10
-32.5462
 20
27.3784
 11
-32.7396
 21
27.4585
  0
LINE
  8
0
 10
-32.7396
 20
27.4585
 11
-32.9287
 21
27.5487
  0
LINE
  8
0
 10
-32.9287
 20
27.5487
 11
-33.1127
 21
27.6486
  0
LINE
  8
0
 10
-33.1127
 20
27.6486
 11
-33.2913
 21
27.758
  0
LINE
  8
0
 10
-33.2913
 20
27.758
 11
-33.4638
 21
27.8766
  0
LINE
  8
0
 10
-33.4638
 20
27.8766
 11
-33.63
 21
28.0041
  0
LINE
  8
0
 10
-33.63
 20
28.0041
 11
-33.7892
 21
28.1401
  0
LINE
  8
0
 10
-33.7892
 20
28.1401
 11
-33.9411
 21
28.2843
  0
LINE
  8
0
 10
-33.9411
 20
28.2843
 11
-34.0853
 21
28.4362
  0
LINE
  8
0
 10
-34.0853
 20
28.4362
 11
-34.2213
 21
28.5954
  0
LINE
  8
0
 10
-34.2213
 20
28.5954
 11
-34.3488
 21
28.7616
  0
LINE
  8
0
 10
-34.3488
 20
28.7616
 11
-34.4674
 21
28.9341
  0
LINE
  8
0
 10
-34.4674
 20
28.9341
 11
-34.5768
 21
29.1127
  0
LINE
  8
0
 10
-34.5768
 20
29.1127
 11
-34.6767
 21
29.2967
  0
LINE
  8
0
 10
-34.6767
 20
29.2967
 11
-34.7669
 21
29.4858
  0
LINE
  8
0
 10
-34.7669
 20
29.4858
 11
-34.847
 21
29.6792
  0
LINE
  8
0
 10
-34.847
 20
29.6792
 11
-34.9169
 21
29.8766
  0
LINE
  8
0
 10
-34.9169
 20
29.8766
 11
-34.9764
 21
30.0774
  0
LINE
  8
0
 10
-34.9764
 20
30.0774
 11
-35.0253
 21
30.2811
  0
LINE
  8
0
 10
-35.0253
 20
30.2811
 11
-35.0634
 21
30.487
  0
LINE
  8
0
 10
-35.0634
 20
30.487
 11
-35.0908
 21
30.6946
  0
LINE
  8
0
 10
-35.0908
 20
30.6946
 11
-35.1072
 21
30.9034
  0
LINE
  8
0
 10
-35.1072
 20
30.9034
 11
-35.1127
 21
31.1127
  0
LINE
  8
0
 10
-35.1127
 20
31.1127
 11
-35.1072
 21
31.322
  0
LINE
  8
0
 10
-35.1072
 20
31.322
 11
-35.0908
 21
31.5308
  0
LINE
  8
0
 10
-35.0908
 20
31.5308
 11
-35.0634
 21
31.7384
  0
LINE
  8
0
 10
-35.0634
 20
31.7384
 11
-35.0253
 21
31.9443
  0
LINE
  8
0
 10
-35.0253
 20
31.9443
 11
-34.9764
 21
32.148
  0
LINE
  8
0
 10
-34.9764
 20
32.148
 11
-34.9169
 21
32.3488
  0
LINE
  8
0
 10
-34.9169
 20
32.3488
 11
-34.847
 21
32.5462
  0
LINE
  8
0
 10
-34.847
 20
32.5462
 11
-34.7669
 21
32.7396
  0
LINE
  8
0
 10
-34.7669
 20
32.7396
 11
-34.6767
 21
32.9287
  0
LINE
  8
0
 10
-34.6767
 20
32.9287
 11
-34.5768
 21
33.1127
  0
LINE
  8
0
 10
-34.5768
 20
33.1127
 11
-34.4674
 21
33.2913
  0
LINE
  8
0
 10
-34.4674
 20
33.2913
 11
-34.3488
 21
33.4638
  0
LINE
  8
0
 10
-34.3488
 20
33.4638
 11
-34.2213
 21
33.63
  0
LINE
  8
0
 10
-34.2213
 20
33.63
 11
-34.0853
 21
33.7892
  0
LINE
  8
0
 10
-34.0853
 20
33.7892
 11
-33.9411
 21
33.9411
  0
LINE
  8
0
 10
-33.9411
 20
33.9411
 11
-33.7892
 21
34.0853
  0
LINE
  8
0
 10
-33.7892
 20
34.0853
 11
-33.63
 21
34.2213
  0
LINE
  8
0
 10
-33.63
 20
34.2213
 11
-33.4638
 21
34.3488
  0
LINE
  8
0
 10
-33.4638
 20
34.3488
 11
-33.2913
 21
34.4674
  0
LINE
  8
0
 10
-33.2913
 20
34.4674
 11
-33.1127
 21
34.5768
  0
LINE
  8
0
 10
-33.1127
 20
34.5768
 11
-32.9287
 21
34.6767
  0
LINE
  8
0
 10
-32.9287
 20
34.6767
 11
-32.7396
 21
34.7669
  0
LINE
  8
0
 10
-32.7396
 20
34.7669
 11
-32.5462
 21
34.847
  0
LINE
  8
0
 10
-32.5462
 20
34.847
 11
-32.3488
 21
34.9169
  0
LINE
  8
0
 10
-32.3488
 20
34.9169
 11
-32.148
 21
34.9764
  0
LINE
  8
0
 10
-32.148
 20
34.9764
 11
-31.9443
 21
35.0253
  0
LINE
  8
0
 10
-31.9443
 20
35.0253
 11
-31.7384
 21
35.0634
  0
LINE
  8
0
 10
-31.7384
 20
35.0634
 11
-31.5308
 21
35.0908
  0
LINE
  8
0
 10
-31.5308
 20
35.0908
 11
-31.322
 21
35.1072
  0
LINE
  8
0
 10
-31.322
 20
35.1072
 11
-31.1127
 21
35.1127
  0
LINE
  8
0
 10
-31.1127
 20
35.1127
 11
-30.9034
 21
35.1072
  0
LINE
  8
0
 10
-30.9034
 20
35.1072
 11
-30.6946
 21
35.0908
  0
LINE
  8
0
 10
-30.6946
 20
35.0908
 11
-30.487
 21
35.0634
  0
LINE
  8
0
 10
-30.487
 20
35.0634
 11
-30.2811
 21
35.0253
  0
LINE
  8
0
 10
-30.2811
 20
35.0253
 11
-30.0774
 21
34.9764
  0
LINE
  8
0
 10
-30.0774
 20
34.9764
 11
-29.8766
 21
34.9169
  0
LINE
  8
0
 10
-29.8766
 20
34.9169
 11
-29.6792
 21
34.847
  0
LINE
  8
0
 10
-29.6792
 20
34.847
 11
-29.4858
 21
34.7669
  0
LINE
  8
0
 10
-29.4858
 20
34.7669
 11
-29.2967
 21
34.6767
  0
LINE
  8
0
 10
-29.2967
 20
34.6767
 11
-29.1127
 21
34.5768
  0
LINE
  8
0
 10
-29.1127
 20
34.5768
 11
-28.9341
 21
34.4674
  0
LINE
  8
0
 10
-28.9341
 20
34.4674
 11
-28.7616
 21
34.3488
  0
LINE
  8
0
 10
-28.7616
 20
34.3488
 11
-28.5954
 21
34.2213
  0
LINE
  8
0
 10
-28.5954
 20
34.2213
 11
-28.4362
 21
34.0853
  0
LINE
  8
0
 10
-28.4362
 20
34.0853
 11
-28.2843
 21
33.9411
  0
LINE
  8
0
 10
-28.2843
 20
33.9411
 11
-28.1401
 21
33.7892
  0
LINE
  8
0
 10
-28.1401
 20
33.7892
 11
-28.0041
 21
33.63
  0
LINE
  8
0
 10
-28.0041
 20
33.63
 11
-27.8766
 21
33.4638
  0
LINE
  8
0
 10
-27.8766
 20
33.4638
 11
-27.758
 21
33.2913
  0
LINE
  8
0
 10
-27.758
 20
33.2913
 11
-27.6486
 21
33.1127
  0
LINE
  8
0
 10
-27.6486
 20
33.1127
 11
-27.5487
 21
32.9287
  0
LINE
  8
0
 10
-27.5487
 20
32.9287
 11
-27.4585
 21
32.7396
  0
LINE
  8
0
 10
-27.4585
 20
32.7396
 11
-27.3784
 21
32.5462
  0
LINE
  8
0
 10
-27.3784
 20
32.5462
 11
-27.3085
 21
32.3488
  0
LINE
  8
0
 10
-27.3085
 20
32.3488
 11
-27.249
 21
32.148
  0
LINE
  8
0
 10
-27.249
 20
32.148
 11
-27.2001
 21
31.9443
  0
LINE
  8
0
 10
-27.2001
 20
31.9443
 11
-27.1619
 21
31.7384
  0
LINE
  8
0
 10
-27.1619
 20
31.7384
 11
-27.1346
 21
31.5308
  0
LINE
  8
0
 10
-27.1346
 20
31.5308
 11
-27.1182
 21
31.322
  0
LINE
  8
0
 10
-27.1182
 20
31.322
 11
-27.1127
 21
31.1127
  0
LINE
  8
0
 10
-27.1127
 20
31.1127
 11
-27.1182
 21
30.9034
  0
LINE
  8
0
 10
-27.1182
 20
30.9034
 11
-27.1346
 21
30.6946
  0
LINE
  8
0
 10
-27.1346
 20
30.6946
 11
-27.1619
 21
30.487
  0
LINE
  8
0
 10
-27.1619
 20
30.487
 11
-27.2001
 21
30.2811
  0
LINE
  8
0
 10
-27.2001
 20
30.2811
 11
-27.249
 21
30.0774
  0
LINE
  8
0
 10
-27.249
 20
30.0774
 11
-27.3085
 21
29.8766
  0
LINE
  8
0
 10
-27.3085
 20
29.8766
 11
-27.3784
 21
29.6792
  0
LINE
  8
0
 10
-27.3784
 20
29.6792
 11
-27.4585
 21
29.4858
  0
LINE
  8
0
 10
-27.4585
 20
29.4858
 11
-27.5487
 21
29.2967
  0
LINE
  8
0
 10
-27.5487
 20
29.2967
 11
-27.6486
 21
29.1127
  0
LINE
  8
0
 10
-27.6486
 20
29.1127
 11
-27.758
 21
28.9341
  0
LINE
  8
0
 10
-27.758
 20
28.9341
 11
-27.8766
 21
28.7616
  0
LINE
  8
0
 10
-27.8766
 20
28.7616
 11
-28.0041
 21
28.5954
  0
LINE
  8
0
 10
-28.0041
 20
28.5954
 11
-28.1401
 21
28.4362
  0
LINE
  8
0
 10
-28.1401
 20
28.4362
 11
-28.2843
 21
28.2843
  0
LINE
  8
0
 10
-28.2843
 20
28.2843
 11
-28.4362
 21
28.1401
  0
LINE
  8
0
 10
-28.4362
 20
28.1401
 11
-28.5954
 21
28.0041
  0
LINE
  8
0
 10
-28.5954
 20
28.0041
 11
-28.7616
 21
27.8766
  0
LINE
  8
0
 10
-28.7616
 20
27.8766
 11
-28.9341
 21
27.758
  0
LINE
  8
0
 10
-28.9341
 20
27.758
 11
-29.1127
 21
27.6486
  0
LINE
  8
0
 10
-29.1127
 20
27.6486
 11
-29.2967
 21
27.5487
  0
LINE
  8
0
 10
-29.2967
 20
27.5487
 11
-29.4858
 21
27.4585
  0
LINE
  8
0
 10
-29.4858
 20
27.4585
 11
-29.6792
 21
27.3784
  0
LINE
  8
0
 10
-29.6792
 20
27.3784
 11
-29.8766
 21
27.3085
  0
LINE
  8
0
 10
-29.8766
 20
27.3085
 11
-30.0774
 21
27.249
  0
LINE
  8
0
 10
-30.0774
 20
27.249
 11
-30.2811
 21
27.2001
  0
LINE
  8
0
 10
-30.2811
 20
27.2001
 11
-30.487
 21
27.1619
  0
LINE
  8
0
 10
-30.487
 20
27.1619
 11
-30.6946
 21
27.1346
  0
LINE
  8
0
 10
-30.6946
 20
27.1346
 11
-30.9034
 21
27.1182
  0
LINE
  8
0
 10
-30.9034
 20
27.1182
 11
-31.1127
 21
27.1127
  0
LINE
  8
0
 10
-31.1127
 20
27.1127
 11
-31.322
 21
27.1182
  0
LINE
  8
0
 10
43.7907
 20
-3.99451
 11
43.5819
 21
-3.97809
  0
LINE
  8
0
 10
43.5819
 20
-3.97809
 11
43.3743
 21
-3.95074
  0
LINE
  8
0
 10
43.3743
 20
-3.95074
 11
43.1684
 21
-3.91258
  0
LINE
  8
0
 10
43.1684
 20
-3.91258
 11
42.9647
 21
-3.86369
  0
LINE
  8
0
 10
42.9647
 20
-3.86369
 11
42.7639
 21
-3.80423
  0
LINE
  8
0
 10
42.7639
 20
-3.80423
 11
42.5665
 21
-3.73431
  0
LINE
  8
0
 10
42.5665
 20
-3.73431
 11
42.3731
 21
-3.65417
  0
LINE
  8
0
 10
42.3731
 20
-3.65417
 11
42.184
 21
-3.56403
  0
LINE
  8
0
 10
42.184
 20
-3.56403
 11
42
 21
-3.4641
  0
LINE
  8
0
 10
42
 20
-3.4641
 11
41.8214
 21
-3.35468
  0
LINE
  8
0
 10
41.8214
 20
-3.35468
 11
41.6489
 21
-3.23607
  0
LINE
  8
0
 10
41.6489
 20
-3.23607
 11
41.4827
 21
-3.10857
  0
LINE
  8
0
 10
41.4827
 20
-3.10857
 11
41.3235
 21
-2.97258
  0
LINE
  8
0
 10
41.3235
 20
-2.97258
 11
41.1716
 21
-2.82841
  0
LINE
  8
0
 10
41.1716
 20
-2.82841
 11
41.0274
 21
-2.67651
  0
LINE
  8
0
 10
41.0274
 20
-2.67651
 11
40.8914
 21
-2.51727
  0
LINE
  8
0
 10
40.8914
 20
-2.51727
 11
40.7639
 21
-2.35114
  0
LINE
  8
0
 10
40.7639
 20
-2.35114
 11
40.6453
 21
-2.17856
  0
LINE
  8
0
 10
40.6453
 20
-2.17856
 11
40.5359
 21
-2
  0
LINE
  8
0
 10
40.5359
 20
-2
 11
40.436
 21
-1.81595
  0
LINE
  8
0
 10
40.436
 20
-1.81595
 11
40.3458
 21
-1.62694
  0
LINE
  8
0
 10
40.3458
 20
-1.62694
 11
40.2657
 21
-1.43346
  0
LINE
  8
0
 10
40.2657
 20
-1.43346
 11
40.1958
 21
-1.23607
  0
LINE
  8
0
 10
40.1958
 20
-1.23607
 11
40.1363
 21
-1.03528
  0
LINE
  8
0
 10
40.1363
 20
-1.03528
 11
40.0874
 21
-0.831635
  0
LINE
  8
0
 10
40.0874
 20
-0.831635
 11
40.0492
 21
-0.625732
  0
LINE
  8
0
 10
40.0492
 20
-0.625732
 11
40.0219
 21
-0.418106
  0
LINE
  8
0
 10
40.0219
 20
-0.418106
 11
40.0055
 21
-0.209335
  0
LINE
  8
0
 10
40.0055
 20
-0.209335
 11
40
 21
0
  0
LINE
  8
0
 10
40
 20
0
 11
40.0055
 21
0.209335
  0
LINE
  8
0
 10
40.0055
 20
0.209335
 11
40.0219
 21
0.418106
  0
LINE
  8
0
 10
40.0219
 20
0.418106
 11
40.0492
 21
0.625732
  0
LINE
  8
0
 10
40.0492
 20
0.625732
 11
40.0874
 21
0.831635
  0
LINE
  8
0
 10
40.0874
 20
0.831635
 11
40.1363
 21
1.03528
  0
LINE
  8
0
 10
40.1363
 20
1.03528
 11
40.1958
 21
1.23607
  0
LINE
  8
0
 10
40.1958
 20
1.23607
 11
40.2657
 21
1.43346
  0
LINE
  8
0
 10
40.2657
 20
1.43346
 11
40.3458
 21
1.62694
  0
LINE
  8
0
 10
40.3458
 20
1.62694
 11
40.436
 21
1.81595
  0
LINE
  8
0
 10
40.436
 20
1.81595
 11
40.5359
 21
2
  0
LINE
  8
0
 10
40.5359
 20
2
 11
40.6453
 21
2.17856
  0
LINE
  8
0
 10
40.6453
 20
2.17856
 11
40.7639
 21
2.35114
  0
LINE
  8
0
 10
40.7639
 20
2.35114
 11
40.8914
 21
2.51727
  0
LINE
  8
0
 10
40.8914
 20
2.51727
 11
41.0274
 21
2.67651
  0
LINE
  8
0
 10
41.0274
 20
2.67651
 11
41.1716
 21
2.82841
  0
LINE
  8
0
 10
41.1716
 20
2.82841
 11
41.3235
 21
2.97258
  0
LINE
  8
0
 10
41.3235
 20
2.97258
 11
41.4827
 21
3.10857
  0
LINE
  8
0
 10
41.4827
 20
3.10857
 11
41.6489
 21
3.23607
  0
LINE
  8
0
 10
41.6489
 20
3.23607
 11
41.8214
 21
3.35468
  0
LINE
  8
0
 10
41.8214
 20
3.35468
 11
42
 21
3.4641
  0
LINE
  8
0
 10
42
 20
3.4641
 11
42.184
 21
3.56403
  0
LINE
  8
0
 10
42.184
 20
3.56403
 11
42.3731
 21
3.65417
  0
LINE
  8
0
 10
42.3731
 20
3.65417
 11
42.5665
 21
3.73431
  0
LINE
  8
0
 10
42.5665
 20
3.73431
 11
42.7639
 21
3.80423
  0
LINE
  8
0
 10
42.7639
 20
3.80423
 11
42.9647
 21
3.86369
  0
LINE
  8
0
 10
42.9647
 20
3.86369
 11
43.1684
 21
3.91258
  0
LINE
  8
0
 10
43.1684
 20
3.91258
 11
43.3743
 21
3.95074
  0
LINE
  8
0
 10
43.3743
 20
3.95074
 11
43.5819
 21
3.97809
  0
LINE
  8
0
 10
43.5819
 20
3.97809
 11
43.7907
 21
3.99451
  0
LINE
  8
0
 10
43.7907
 20
3.99451
 11
44
 21
4
  0
LINE
  8
0
 10
44
 20
4
 11
44.2093
 21
3.99451
  0
LINE
  8
0
 10
44.2093
 20
3.99451
 11
44.4181
 21
3.97809
  0
LINE
  8
0
 10
44.4181
 20
3.97809
 11
44.6257
 21
3.95074
  0
LINE
  8
0
 10
44.6257
 20
3.95074
 11
44.8316
 21
3.91258
  0
LINE
  8
0
 10
44.8316
 20
3.91258
 11
45.0353
 21
3.86369
  0
LINE
  8
0
 10
45.0353
 20
3.86369
 11
45.2361
 21
3.80423
  0
LINE
  8
0
 10
45.2361
 20
3.80423
 11
45.4335
 21
3.73431
  0
LINE
  8
0
 10
45.4335
 20
3.73431
 11
45.6269
 21
3.65417
  0
LINE
  8
0
 10
45.6269
 20
3.65417
 11
45.816
 21
3.56403
  0
LINE
  8
0
 10
45.816
 20
3.56403
 11
46
 21
3.4641
  0
LINE
  8
0
 10
46
 20
3.4641
 11
46.1786
 21
3.35468
  0
LINE
  8
0
 10
46.1786
 20
3.35468
 11
46.3511
 21
3.23607
  0
LINE
  8
0
 10
46.3511
 20
3.23607
 11
46.5173
 21
3.10857
  0
LINE
  8
0
 10
46.5173
 20
3.10857
 11
46.6765
 21
2.97258
  0
LINE
  8
0
 10
46.6765
 20
2.97258
 11
46.8284
 21
2.82841
  0
LINE
  8
0
 10
46.8284
 20
2.82841
 11
46.9726
 21
2.67651
  0
LINE
  8
0
 10
46.9726
 20
2.67651
 11
47.1086
 21
2.51727
  0
LINE
  8
0
 10
47.1086
 20
2.51727
 11
47.2361
 21
2.35114
  0
LINE
  8
0
 10
47.2361
 20
2.35114
 11
47.3547
 21
2.17856
  0
LINE
  8
0
 10
47.3547
 20
2.17856
 11
47.4641
 21
2
  0
LINE
  8
0
 10
47.4641
 20
2
 11
47.564
 21
1.81595
  0
LINE
  8
0
 10
47.564
 20
1.81595
 11
47.6542
 21
1.62694
  0
LINE
  8
0
 10
47.6542
 20
1.62694
 11
47.7343
 21
1.43346
  0
LINE
  8
0
 10
47.7343
 20
1.43346
 11
47.8042
 21
1.23607
  0
LINE
  8
0
 10
47.8042
 20
1.23607
 11
47.8637
 21
1.03528
  0
LINE
  8
0
 10
47.8637
 20
1.03528
 11
47.9126
 21
0.831635
  0
LINE
  8
0
 10
47.9126
 20
0.831635
 11
47.9508
 21
0.625732
  0
LINE
  8
0
 10
47.9508
 20
0.625732
 11
47.9781
 21
0.418106
  0
LINE
  8
0
 10
47.9781
 20
0.418106
 11
47.9945
 21
0.209335
  0
LINE
  8
0
 10
47.9945
 20
0.209335
 11
48
 21
0
  0
LINE
  8
0
 10
48
 20
0
 11
47.9945
 21
-0.209335
  0
LINE
  8
0
 10
47.9945
 20
-0.209335
 11
47.9781
 21
-0.418106
  0
LINE
  8
0
 10
47.9781
 20
-0.418106
 11
47.9508
 21
-0.625732
  0
LINE
  8
0
 10
47.9508
 20
-0.625732
 11
47.9126
 21
-0.831635
  0
LINE
  8
0
 10
47.9126
 20
-0.831635
 11
47.8637
 21
-1.03528
  0
LINE
  8
0
 10
47.8637
 20
-1.03528
 11
47.8042
 21
-1.23607
  0
LINE
  8
0
 10
47.8042
 20
-1.23607
 11
47.7343
 21
-1.43346
  0
LINE
  8
0
 10
47.7343
 20
-1.43346
 11
47.6542
 21
-1.62694
  0
LINE
  8
0
 10
47.6542
 20
-1.62694
 11
47.564
 21
-1.81595
  0
LINE
  8
0
 10
47.564
 20
-1.81595
 11
47.4641
 21
-2
  0
LINE
  8
0
 10
47.4641
 20
-2
 11
47.3547
 21
-2.17856
  0
LINE
  8
0
 10
47.3547
 20
-2.17856
 11
47.2361
 21
-2.35114
  0
LINE
  8
0
 10
47.2361
 20
-2.35114
 11
47.1086
 21
-2.51727
  0
LINE
  8
0
 10
47.1086
 20
-2.51727
 11
46.9726
 21
-2.67651
  0
LINE
  8
0
 10
46.9726
 20
-2.67651
 11
46.8284
 21
-2.82841
  0
LINE
  8
0
 10
46.8284
 20
-2.82841
 11
46.6765
 21
-2.97258
  0
LINE
  8
0
 10
46.6765
 20
-2.97258
 11
46.5173
 21
-3.10857
  0
LINE
  8
0
 10
46.5173
 20
-3.10857
 11
46.3511
 21
-3.23607
  0
LINE
  8
0
 10
46.3511
 20
-3.23607
 11
46.1786
 21
-3.35468
  0
LINE
  8
0
 10
46.1786
 20
-3.35468
 11
46
 21
-3.4641
  0
LINE
  8
0
 10
46
 20
-3.4641
 11
45.816
 21
-3.56403
  0
LINE
  8
0
 10
45.816
 20
-3.56403
 11
45.6269
 21
-3.65417
  0
LINE
  8
0
 10
45.6269
 20
-3.65417
 11
45.4335
 21
-3.73431
  0
LINE
  8
0
 10
45.4335
 20
-3.73431
 11
45.2361
 21
-3.80423
  0
LINE
  8
0
 10
45.2361
 20
-3.80423
 11
45.0353
 21
-3.86369
  0
LINE
  8
0
 10
45.0353
 20
-3.86369
 11
44.8316
 21
-3.91258
  0
LINE
  8
0
 10
44.8316
 20
-3.91258
 11
44.6257
 21
-3.95074
  0
LINE
  8
0
 10
44.6257
 20
-3.95074
 11
44.4181
 21
-3.97809
  0
LINE
  8
0
 10
44.4181
 20
-3.97809
 11
44.2093
 21
-3.99451
  0
LINE
  8
0
 10
44.2093
 20
-3.99451
 11
44
 21
-4
  0
LINE
  8
0
 10
44
 20
-4
 11
43.7907
 21
-3.99451
  0
LINE
  8
0
 10
-44.2093
 20
-3.99451
 11
-44.4181
 21
-3.97809
  0
LINE
  8
0
 10
-44.4181
 20
-3.97809
 11
-44.6257
 21
-3.95074
  0
LINE
  8
0
 10
-44.6257
 20
-3.95074
 11
-44.8316
 21
-3.91258
  0
LINE
  8
0
 10
-44.8316
 20
-3.91258
 11
-45.0353
 21
-3.86369
  0
LINE
  8
0
 10
-45.0353
 20
-3.86369
 11
-45.2361
 21
-3.80423
  0
LINE
  8
0
 10
-45.2361
 20
-3.80423
 11
-45.4335
 21
-3.73431
  0
LINE
  8
0
 10
-45.4335
 20
-3.73431
 11
-45.6269
 21
-3.65417
  0
LINE
  8
0
 10
-45.6269
 20
-3.65417
 11
-45.816
 21
-3.56403
  0
LINE
  8
0
 10
-45.816
 20
-3.56403
 11
-46
 21
-3.4641
  0
LINE
  8
0
 10
-46
 20
-3.4641
 11
-46.1786
 21
-3.35468
  0
LINE
  8
0
 10
-46.1786
 20
-3.35468
 11
-46.3511
 21
-3.23607
  0
LINE
  8
0
 10
-46.3511
 20
-3.23607
 11
-46.5173
 21
-3.10857
  0
LINE
  8
0
 10
-46.5173
 20
-3.10857
 11
-46.6765
 21
-2.97258
  0
LINE
  8
0
 10
-46.6765
 20
-2.97258
 11
-46.8284
 21
-2.82841
  0
LINE
  8
0
 10
-46.8284
 20
-2.82841
 11
-46.9726
 21
-2.67651
  0
LINE
  8
0
 10
-46.9726
 20
-2.67651
 11
-47.1086
 21
-2.51727
  0
LINE
  8
0
 10
-47.1086
 20
-2.51727
 11
-47.2361
 21
-2.35114
  0
LINE
  8
0
 10
-47.2361
 20
-2.35114
 11
-47.3547
 21
-2.17856
  0
LINE
  8
0
 10
-47.3547
 20
-2.17856
 11
-47.4641
 21
-2
  0
LINE
  8
0
 10
-47.4641
 20
-2
 11
-47.564
 21
-1.81595
  0
LINE
  8
0
 10
-47.564
 20
-1.81595
 11
-47.6542
 21
-1.62694
  0
LINE
  8
0
 10
-47.6542
 20
-1.62694
 11
-47.7343
 21
-1.43346
  0
LINE
  8
0
 10
-47.7343
 20
-1.43346
 11
-47.8042
 21
-1.23607
  0
LINE
  8
0
 10
-47.8042
 20
-1.23607
 11
-47.8637
 21
-1.03528
  0
LINE
  8
0
 10
-47.8637
 20
-1.03528
 11
-47.9126
 21
-0.831635
  0
LINE
  8
0
 10
-47.9126
 20
-0.831635
 11
-47.9508
 21
-0.625732
  0
LINE
  8
0
 10
-47.9508
 20
-0.625732
 11
-47.9781
 21
-0.418106
  0
LINE
  8
0
 10
-47.9781
 20
-0.418106
 11
-47.9945
 21
-0.209335
  0
LINE
  8
0
 10
-47.9945
 20
-0.209335
 11
-48
 21
0
  0
LINE
  8
0
 10
-48
 20
0
 11
-47.9945
 21
0.209335
  0
LINE
  8
0
 10
-47.9945
 20
0.209335
 11
-47.9781
 21
0.418106
  0
LINE
  8
0
 10
-47.9781
 20
0.418106
 11
-47.9508
 21
0.625732
  0
LINE
  8
0
 10
-47.9508
 20
0.625732
 11
-47.9126
 21
0.831635
  0
LINE
  8
0
 10
-47.9126
 20
0.831635
 11
-47.8637
 21
1.03528
  0
LINE
  8
0
 10
-47.8637
 20
1.03528
 11
-47.8042
 21
1.23607
  0
LINE
  8
0
 10
-47.8042
 20
1.23607
 11
-47.7343
 21
1.43346
  0
LINE
  8
0
 10
-47.7343
 20
1.43346
 11
-47.6542
 21
1.62694
  0
LINE
  8
0
 10
-47.6542
 20
1.62694
 11
-47.564
 21
1.81595
  0
LINE
  8
0
 10
-47.564
 20
1.81595
 11
-47.4641
 21
2
  0
LINE
  8
0
 10
-47.4641
 20
2
 11
-47.3547
 21
2.17856
  0
LINE
  8
0
 10
-47.3547
 20
2.17856
 11
-47.2361
 21
2.35114
  0
LINE
  8
0
 10
-47.2361
 20
2.35114
 11
-47.1086
 21
2.51727
  0
LINE
  8
0
 10
-47.1086
 20
2.51727
 11
-46.9726
 21
2.67651
  0
LINE
  8
0
 10
-46.9726
 20
2.67651
 11
-46.8284
 21
2.82841
  0
LINE
  8
0
 10
-46.8284
 20
2.82841
 11
-46.6765
 21
2.97258
  0
LINE
  8
0
 10
-46.6765
 20
2.97258
 11
-46.5173
 21
3.10857
  0
LINE
  8
0
 10
-46.5173
 20
3.10857
 11
-46.3511
 21
3.23607
  0
LINE
  8
0
 10
-46.3511
 20
3.23607
 11
-46.1786
 21
3.35468
  0
LINE
  8
0
 10
-46.1786
 20
3.35468
 11
-46
 21
3.4641
  0
LINE
  8
0
 10
-46
 20
3.4641
 11
-45.816
 21
3.56403
  0
LINE
  8
0
 10
-45.816
 20
3.56403
 11
-45.6269
 21
3.65417
  0
LINE
  8
0
 10
-45.6269
 20
3.65417
 11
-45.4335
 21
3.73431
  0
LINE
  8
0
 10
-45.4335
 20
3.73431
 11
-45.2361
 21
3.80423
  0
LINE
  8
0
 10
-45.2361
 20
3.80423
 11
-45.0353
 21
3.86369
  0
LINE
  8
0
 10
-45.0353
 20
3.86369
 11
-44.8316
 21
3.91258
  0
LINE
  8
0
 10
-44.8316
 20
3.91258
 11
-44.6257
 21
3.95074
  0
LINE
  8
0
 10
-44.6257
 20
3.95074
 11
-44.4181
 21
3.97809
  0
LINE
  8
0
 10
-44.4181
 20
3.97809
 11
-44.2093
 21
3.99451
  0
LINE
  8
0
 10
-44.2093
 20
3.99451
 11
-44
 21
4
  0
LINE
  8
0
 10
-44
 20
4
 11
-43.7907
 21
3.99451
  0
LINE
  8
0
 10
-43.7907
 20
3.99451
 11
-43.5819
 21
3.97809
  0
LINE
  8
0
 10
-43.5819
 20
3.97809
 11
-43.3743
 21
3.95074
  0
LINE
  8
0
 10
-43.3743
 20
3.95074
 11
-43.1684
 21
3.91258
  0
LINE
  8
0
 10
-43.1684
 20
3.91258
 11
-42.9647
 21
3.86369
  0
LINE
  8
0
 10
-42.9647
 20
3.86369
 11
-42.7639
 21
3.80423
  0
LINE
  8
0
 10
-42.7639
 20
3.80423
 11
-42.5665
 21
3.73431
  0
LINE
  8
0
 10
-42.5665
 20
3.73431
 11
-42.3731
 21
3.65417
  0
LINE
  8
0
 10
-42.3731
 20
3.65417
 11
-42.184
 21
3.56403
  0
LINE
  8
0
 10
-42.184
 20
3.56403
 11
-42
 21
3.4641
  0
LINE
  8
0
 10
-42
 20
3.4641
 11
-41.8214
 21
3.35468
  0
LINE
  8
0
 10
-41.8214
 20
3.35468
 11
-41.6489
 21
3.23607
  0
LINE
  8
0
 10
-41.6489
 20
3.23607
 11
-41.4827
 21
3.10857
  0
LINE
  8
0
 10
-41.4827
 20
3.10857
 11
-41.3235
 21
2.97258
  0
LINE
  8
0
 10
-41.3235
 20
2.97258
 11
-41.1716
 21
2.82841
  0
LINE
  8
0
 10
-41.1716
 20
2.82841
 11
-41.0274
 21
2.67651
  0
LINE
  8
0
 10
-41.0274
 20
2.67651
 11
-40.8914
 21
2.51727
  0
LINE
  8
0
 10
-40.8914
 20
2.51727
 11
-40.7639
 21
2.35114
  0
LINE
  8
0
 10
-40.7639
 20
2.35114
 11
-40.6453
 21
2.17856
  0
LINE
  8
0
 10
-40.6453
 20
2.17856
 11
-40.5359
 21
2
  0
LINE
  8
0
 10
-40.5359
 20
2
 11
-40.436
 21
1.81595
  0
LINE
  8
0
 10
-40.436
 20
1.81595
 11
-40.3458
 21
1.62694
  0
LINE
  8
0
 10
-40.3458
 20
1.62694
 11
-40.2657
 21
1.43346
  0
LINE
  8
0
 10
-40.2657
 20
1.43346
 11
-40.1958
 21
1.23607
  0
LINE
  8
0
 10
-40.1958
 20
1.23607
 11
-40.1363
 21
1.03528
  0
LINE
  8
0
 10
-40.1363
 20
1.03528
 11
-40.0874
 21
0.831635
  0
LINE
  8
0
 10
-40.0874
 20
0.831635
 11
-40.0492
 21
0.625732
  0
LINE
  8
0
 10
-40.0492
 20
0.625732
 11
-40.0219
 21
0.418106
  0
LINE
  8
0
 10
-40.0219
 20
0.418106
 11
-40.0055
 21
0.209335
  0
LINE
  8
0
 10
-40.0055
 20
0.209335
 11
-40
 21
0
  0
LINE
  8
0
 10
-40
 20
0
 11
-40.0055
 21
-0.209335
  0
LINE
  8
0
 10
-40.0055
 20
-0.209335
 11
-40.0219
 21
-0.418106
  0
LINE
  8
0
 10
-40.0219
 20
-0.418106
 11
-40.0492
 21
-0.625732
  0
LINE
  8
0
 10
-40.0492
 20
-0.625732
 11
-40.0874
 21
-0.831635
  0
LINE
  8
0
 10
-40.0874
 20
-0.831635
 11
-40.1363
 21
-1.03528
  0
LINE
  8
0
 10
-40.1363
 20
-1.03528
 11
-40.1958
 21
-1.23607
  0
LINE
  8
0
 10
-40.1958
 20
-1.23607
 11
-40.2657
 21
-1.43346
  0
LINE
  8
0
 10
-40.2657
 20
-1.43346
 11
-40.3458
 21
-1.62694
  0
LINE
  8
0
 10
-40.3458
 20
-1.62694
 11
-40.436
 21
-1.81595
  0
LINE
  8
0
 10
-40.436
 20
-1.81595
 11
-40.5359
 21
-2
  0
LINE
  8
0
 10
-40.5359
 20
-2
 11
-40.6453
 21
-2.17856
  0
LINE
  8
0
 10
-40.6453
 20
-2.17856
 11
-40.7639
 21
-2.35114
  0
LINE
  8
0
 10
-40.7639
 20
-2.35114
 11
-40.8914
 21
-2.51727
  0
LINE
  8
0
 10
-40.8914
 20
-2.51727
 11
-41.0274
 21
-2.67651
  0
LINE
  8
0
 10
-41.0274
 20
-2.67651
 11
-41.1716
 21
-2.82841
  0
LINE
  8
0
 10
-41.1716
 20
-2.82841
 11
-41.3235
 21
-2.97258
  0
LINE
  8
0
 10
-41.3235
 20
-2.97258
 11
-41.4827
 21
-3.10857
  0
LINE
  8
0
 10
-41.4827
 20
-3.10857
 11
-41.6489
 21
-3.23607
  0
LINE
  8
0
 10
-41.6489
 20
-3.23607
 11
-41.8214
 21
-3.35468
  0
LINE
  8
0
 10
-41.8214
 20
-3.35468
 11
-42
 21
-3.4641
  0
LINE
  8
0
 10
-42
 20
-3.4641
 11
-42.184
 21
-3.56403
  0
LINE
  8
0
 10
-42.184
 20
-3.56403
 11
-42.3731
 21
-3.65417
  0
LINE
  8
0
 10
-42.3731
 20
-3.65417
 11
-42.5665
 21
-3.73431
  0
LINE
  8
0
 10
-42.5665
 20
-3.73431
 11
-42.7639
 21
-3.80423
  0
LINE
  8
0
 10
-42.7639
 20
-3.80423
 11
-42.9647
 21
-3.86369
  0
LINE
  8
0
 10
-42.9647
 20
-3.86369
 11
-43.1684
 21
-3.91258
  0
LINE
  8
0
 10
-43.1684
 20
-3.91258
 11
-43.3743
 21
-3.95074
  0
LINE
  8
0
 10
-43.3743
 20
-3.95074
 11
-43.5819
 21
-3.97809
  0
LINE
  8
0
 10
-43.5819
 20
-3.97809
 11
-43.7907
 21
-3.99451
  0
LINE
  8
0
 10
-43.7907
 20
-3.99451
 11
-44
 21
-4
  0
LINE
  8
0
 10
-44
 20
-4
 11
-44.2093
 21
-3.99451
  0
LINE
  8
0
 10
-31.322
 20
-35.1072
 11
-31.5308
 21
-35.0908
  0
LINE
  8
0
 10
-31.5308
 20
-35.0908
 11
-31.7384
 21
-35.0634
  0
LINE
  8
0
 10
-31.7384
 20
-35.0634
 11
-31.9443
 21
-35.0253
  0
LINE
  8
0
 10
-31.9443
 20
-35.0253
 11
-32.148
 21
-34.9764
  0
LINE
  8
0
 10
-32.148
 20
-34.9764
 11
-32.3488
 21
-34.9169
  0
LINE
  8
0
 10
-32.3488
 20
-34.9169
 11
-32.5462
 21
-34.847
  0
LINE
  8
0
 10
-32.5462
 20
-34.847
 11
-32.7396
 21
-34.7669
  0
LINE
  8
0
 10
-32.7396
 20
-34.7669
 11
-32.9287
 21
-34.6767
  0
LINE
  8
0
 10
-32.9287
 20
-34.6767
 11
-33.1127
 21
-34.5768
  0
LINE
  8
0
 10
-33.1127
 20
-34.5768
 11
-33.2913
 21
-34.4674
  0
LINE
  8
0
 10
-33.2913
 20
-34.4674
 11
-33.4638
 21
-34.3488
  0
LINE
  8
0
 10
-33.4638
 20
-34.3488
 11
-33.63
 21
-34.2213
  0
LINE
  8
0
 10
-33.63
 20
-34.2213
 11
-33.7892
 21
-34.0853
  0
LINE
  8
0
 10
-33.7892
 20
-34.0853
 11
-33.9411
 21
-33.9411
  0
LINE
  8
0
 10
-33.9411
 20
-33.9411
 11
-34.0853
 21
-33.7892
  0
LINE
  8
0
 10
-34.0853
 20
-33.7892
 11
-34.2213
 21
-33.63
  0
LINE
  8
0
 10
-34.2213
 20
-33.63
 11
-34.3488
 21
-33.4638
  0
LINE
  8
0
 10
-34.3488
 20
-33.4638
 11
-34.4674
 21
-33.2913
  0
LINE
  8
0
 10
-34.4674
 20
-33.2913
 11
-34.5768
 21
-33.1127
  0
LINE
  8
0
 10
-34.5768
 20
-33.1127
 11
-34.6767
 21
-32.9287
  0
LINE
  8
0
 10
-34.6767
 20
-32.9287
 11
-34.7669
 21
-32.7396
  0
LINE
  8
0
 10
-34.7669
 20
-32.7396
 11
-34.847
 21
-32.5462
  0
LINE
  8
0
 10
-34.847
 20
-32.5462
 11
-34.9169
 21
-32.3488
  0
LINE
  8
0
 10
-34.9169
 20
-32.3488
 11
-34.9764
 21
-32.148
  0
LINE
  8
0
 10
-34.9764
 20
-32.148
 11
-35.0253
 21
-31.9443
  0
LINE
  8
0
 10
-35.0253
 20
-31.9443
 11
-35.0634
 21
-31.7384
  0
LINE
  8
0
 10
-35.0634
 20
-31.7384
 11
-35.0908
 21
-31.5308
  0
LINE
  8
0
 10
-35.0908
 20
-31.5308
 11
-35.1072
 21
-31.322
  0
LINE
  8
0
 10
-35.1072
 20
-31.322
 11
-35.1127
 21
-31.1127
  0
LINE
  8
0
 10
-35.1127
 20
-31.1127
 11
-35.1072
 21
-30.9034
  0
LINE
  8
0
 10
-35.1072
 20
-30.9034
 11
-35.0908
 21
-30.6946
  0
LINE
  8
0
 10
-35.0908
 20
-30.6946
 11
-35.0634
 21
-30.487
  0
LINE
  8
0
 10
-35.0634
 20
-30.487
 11
-35.0253
 21
-30.2811
  0
LINE
  8
0
 10
-35.0253
 20
-30.2811
 11
-34.9764
 21
-30.0774
  0
LINE
  8
0
 10
-34.9764
 20
-30.0774
 11
-34.9169
 21
-29.8766
  0
LINE
  8
0
 10
-34.9169
 20
-29.8766
 11
-34.847
 21
-29.6792
  0
LINE
  8
0
 10
-34.847
 20
-29.6792
 11
-34.7669
 21
-29.4858
  0
LINE
  8
0
 10
-34.7669
 20
-29.4858
 11
-34.6767
 21
-29.2967
  0
LINE
  8
0
 10
-34.6767
 20
-29.2967
 11
-34.5768
 21
-29.1127
  0
LINE
  8
0
 10
-34.5768
 20
-29.1127
 11
-34.4674
 21
-28.9341
  0
LINE
  8
0
 10
-34.4674
 20
-28.9341
 11
-34.3488
 21
-28.7616
  0
LINE
  8
0
 10
-34.3488
 20
-28.7616
 11
-34.2213
 21
-28.5954
  0
LINE
  8
0
 10
-34.2213
 20
-28.5954
 11
-34.0853
 21
-28.4362
  0
LINE
  8
0
 10
-34.0853
 20
-28.4362
 11
-33.9411
 21
-28.2843
  0
LINE
  8
0
 10
-33.9411
 20
-28.2843
 11
-33.7892
 21
-28.1401
  0
LINE
  8
0
 10
-33.7892
 20
-28.1401
 11
-33.63
 21
-28.0041
  0
LINE
  8
0
 10
-33.63
 20
-28.0041
 11
-33.4638
 21
-27.8766
  0
LINE
  8
0
 10
-33.4638
 20
-27.8766
 11
-33.2913
 21
-27.758
  0
LINE
  8
0
 10
-33.2913
 20
-27.758
 11
-33.1127
 21
-27.6486
  0
LINE
  8
0
 10
-33.1127
 20
-27.6486
 11
-32.9287
 21
-27.5487
  0
LINE
  8
0
 10
-32.9287
 20
-27.5487
 11
-32.7396
 21
-27.4585
  0
LINE
  8
0
 10
-32.7396
 20
-27.4585
 11
-32.5462
 21
-27.3784
  0
LINE
  8
0
 10
-32.5462
 20
-27.3784
 11
-32.3488
 21
-27.3085
  0
LINE
  8
0
 10
-32.3488
 20
-27.3085
 11
-32.148
 21
-27.249
  0
LINE
  8
0
 10
-32.148
 20
-27.249
 11
-31.9443
 21
-27.2001
  0
LINE
  8
0
 10
-31.9443
 20
-27.2001
 11
-31.7384
 21
-27.1619
  0
LINE
  8
0
 10
-31.7384
 20
-27.1619
 11
-31.5308
 21
-27.1346
  0
LINE
  8
0
 10
-31.5308
 20
-27.1346
 11
-31.322
 21
-27.1182
  0
LINE
  8
0
 10
-31.322
 20
-27.1182
 11
-31.1127
 21
-27.1127
  0
LINE
  8
0
 10
-31.1127
 20
-27.1127
 11
-30.9034
 21
-27.1182
  0
LINE
  8
0
 10
-30.9034
 20
-27.1182
 11
-30.6946
 21
-27.1346
  0
LINE
  8
0
 10
-30.6946
 20
-27.1346
 11
-30.487
 21
-27.1619
  0
LINE
  8
0
 10
-30.487
 20
-27.1619
 11
-30.2811
 21
-27.2001
  0
LINE
  8
0
 10
-30.2811
 20
-27.2001
 11
-30.0774
 21
-27.249
  0
LINE
  8
0
 10
-30.0774
 20
-27.249
 11
-29.8766
 21
-27.3085
  0
LINE
  8
0
 10
-29.8766
 20
-27.3085
 11
-29.6792
 21
-27.3784
  0
LINE
  8
0
 10
-29.6792
 20
-27.3784
 11
-29.4858
 21
-27.4585
  0
LINE
  8
0
 10
-29.4858
 20
-27.4585
 11
-29.2967
 21
-27.5487
  0
LINE
  8
0
 10
-29.2967
 20
-27.5487
 11
-29.1127
 21
-27.6486
  0
LINE
  8
0
 10
-29.1127
 20
-27.6486
 11
-28.9341
 21
-27.758
  0
LINE
  8
0
 10
-28.9341
 20
-27.758
 11
-28.7616
 21
-27.8766
  0
LINE
  8
0
 10
-28.7616
 20
-27.8766
 11
-28.5954
 21
-28.0041
  0
LINE
  8
0
 10
-28.5954
 20
-28.0041
 11
-28.4362
 21
-28.1401
  0
LINE
  8
0
 10
-28.4362
 20
-28.1401
 11
-28.2843
 21
-28.2843
  0
LINE
  8
0
 10
-28.2843
 20
-28.2843
 11
-28.1401
 21
-28.4362
  0
LINE
  8
0
 10
-28.1401
 20
-28.4362
 11
-28.0041
 21
-28.5954
  0
LINE
  8
0
 10
-28.0041
 20
-28.5954
 11
-27.8766
 21
-28.7616
  0
LINE
  8
0
 10
-27.8766
 20
-28.7616
 11
-27.758
 21
-28.9341
  0
LINE
  8
0
 10
-27.758
 20
-28.9341
 11
-27.6486
 21
-29.1127
  0
LINE
  8
0
 10
-27.6486
 20
-29.1127
 11
-27.5487
 21
-29.2967
  0
LINE
  8
0
 10
-27.5487
 20
-29.2967
 11
-27.4585
 21
-29.4858
  0
LINE
  8
0
 10
-27.4585
 20
-29.4858
 11
-27.3784
 21
-29.6792
  0
LINE
  8
0
 10
-27.3784
 20
-29.6792
 11
-27.3085
 21
-29.8766
  0
LINE
  8
0
 10
-27.3085
 20
-29.8766
 11
-27.249
 21
-30.0774
  0
LINE
  8
0
 10
-27.249
 20
-30.0774
 11
-27.2001
 21
-30.2811
  0
LINE
  8
0
 10
-27.2001
 20
-30.2811
 11
-27.1619
 21
-30.487
  0
LINE
  8
0
 10
-27.1619
 20
-30.487
 11
-27.1346
 21
-30.6946
  0
LINE
  8
0
 10
-27.1346
 20
-30.6946
 11
-27.1182
 21
-30.9034
  0
LINE
  8
0
 10
-27.1182
 20
-30.9034
 11
-27.1127
 21
-31.1127
  0
LINE
  8
0
 10
-27.1127
 20
-31.1127
 11
-27.1182
 21
-31.322
  0
LINE
  8
0
 10
-27.1182
 20
-31.322
 11
-27.1346
 21
-31.5308
  0
LINE
  8
0
 10
-27.1346
 20
-31.5308
 11
-27.1619
 21
-31.7384
  0
LINE
  8
0
 10
-27.1619
 20
-31.7384
 11
-27.2001
 21
-31.9443
  0
LINE
  8
0
 10
-27.2001
 20
-31.9443
 11
-27.249
 21
-32.148
  0
LINE
  8
0
 10
-27.249
 20
-32.148
 11
-27.3085
 21
-32.3488
  0
LINE
  8
0
 10
-27.3085
 20
-32.3488
 11
-27.3784
 21
-32.5462
  0
LINE
  8
0
 10
-27.3784
 20
-32.5462
 11
-27.4585
 21
-32.7396
  0
LINE
  8
0
 10
-27.4585
 20
-32.7396
 11
-27.5487
 21
-32.9287
  0
LINE
  8
0
 10
-27.5487
 20
-32.9287
 11
-27.6486
 21
-33.1127
  0
LINE
  8
0
 10
-27.6486
 20
-33.1127
 11
-27.758
 21
-33.2913
  0
LINE
  8
0
 10
-27.758
 20
-33.2913
 11
-27.8766
 21
-33.4638
  0
LINE
  8
0
 10
-27.8766
 20
-33.4638
 11
-28.0041
 21
-33.63
  0
LINE
  8
0
 10
-28.0041
 20
-33.63
 11
-28.1401
 21
-33.7892
  0
LINE
  8
0
 10
-28.1401
 20
-33.7892
 11
-28.2843
 21
-33.9411
  0
LINE
  8
0
 10
-28.2843
 20
-33.9411
 11
-28.4362
 21
-34.0853
  0
LINE
  8
0
 10
-28.4362
 20
-34.0853
 11
-28.5954
 21
-34.2213
  0
LINE
  8
0
 10
-28.5954
 20
-34.2213
 11
-28.7616
 21
-34.3488
  0
LINE
  8
0
 10
-28.7616
 20
-34.3488
 11
-28.9341
 21
-34.4674
  0
LINE
  8
0
 10
-28.9341
 20
-34.4674
 11
-29.1127
 21
-34.5768
  0
LINE
  8
0
 10
-29.1127
 20
-34.5768
 11
-29.2967
 21
-34.6767
  0
LINE
  8
0
 10
-29.2967
 20
-34.6767
 11
-29.4858
 21
-34.7669
  0
LINE
  8
0
 10
-29.4858
 20
-34.7669
 11
-29.6792
 21
-34.847
  0
LINE
  8
0
 10
-29.6792
 20
-34.847
 11
-29.8766
 21
-34.9169
  0
LINE
  8
0
 10
-29.8766
 20
-34.9169
 11
-30.0774
 21
-34.9764
  0
LINE
  8
0
 10
-30.0774
 20
-34.9764
 11
-30.2811
 21
-35.0253
  0
LINE
  8
0
 10
-30.2811
 20
-35.0253
 11
-30.487
 21
-35.0634
  0
LINE
  8
0
 10
-30.487
 20
-35.0634
 11
-30.6946
 21
-35.0908
  0
LINE
  8
0
 10
-30.6946
 20
-35.0908
 11
-30.9034
 21
-35.1072
  0
LINE
  8
0
 10
-30.9034
 20
-35.1072
 11
-31.1127
 21
-35.1127
  0
LINE
  8
0
 10
-31.1127
 20
-35.1127
 11
-31.322
 21
-35.1072
  0
LINE
  8
0
 10
30.9034
 20
-35.1072
 11
30.6946
 21
-35.0908
  0
LINE
  8
0
 10
30.6946
 20
-35.0908
 11
30.487
 21
-35.0634
  0
LINE
  8
0
 10
30.487
 20
-35.0634
 11
30.2811
 21
-35.0253
  0
LINE
  8
0
 10
30.2811
 20
-35.0253
 11
30.0774
 21
-34.9764
  0
LINE
  8
0
 10
30.0774
 20
-34.9764
 11
29.8766
 21
-34.9169
  0
LINE
  8
0
 10
29.8766
 20
-34.9169
 11
29.6792
 21
-34.847
  0
LINE
  8
0
 10
29.6792
 20
-34.847
 11
29.4858
 21
-34.7669
  0
LINE
  8
0
 10
29.4858
 20
-34.7669
 11
29.2967
 21
-34.6767
  0
LINE
  8
0
 10
29.2967
 20
-34.6767
 11
29.1127
 21
-34.5768
  0
LINE
  8
0
 10
29.1127
 20
-34.5768
 11
28.9341
 21
-34.4674
  0
LINE
  8
0
 10
28.9341
 20
-34.4674
 11
28.7616
 21
-34.3488
  0
LINE
  8
0
 10
28.7616
 20
-34.3488
 11
28.5954
 21
-34.2213
  0
LINE
  8
0
 10
28.5954
 20
-34.2213
 11
28.4362
 21
-34.0853
  0
LINE
  8
0
 10
28.4362
 20
-34.0853
 11
28.2843
 21
-33.9411
  0
LINE
  8
0
 10
28.2843
 20
-33.9411
 11
28.1401
 21
-33.7892
  0
LINE
  8
0
 10
28.1401
 20
-33.7892
 11
28.0041
 21
-33.63
  0
LINE
  8
0
 10
28.0041
 20
-33.63
 11
27.8766
 21
-33.4638
  0
LINE
  8
0
 10
27.8766
 20
-33.4638
 11
27.758
 21
-33.2913
  0
LINE
  8
0
 10
27.758
 20
-33.2913
 11
27.6486
 21
-33.1127
  0
LINE
  8
0
 10
27.6486
 20
-33.1127
 11
27.5487
 21
-32.9287
  0
LINE
  8
0
 10
27.5487
 20
-32.9287
 11
27.4585
 21
-32.7396
  0
LINE
  8
0
 10
27.4585
 20
-32.7396
 11
27.3784
 21
-32.5462
  0
LINE
  8
0
 10
27.3784
 20
-32.5462
 11
27.3085
 21
-32.3488
  0
LINE
  8
0
 10
27.3085
 20
-32.3488
 11
27.249
 21
-32.148
  0
LINE
  8
0
 10
27.249
 20
-32.148
 11
27.2001
 21
-31.9443
  0
LINE
  8
0
 10
27.2001
 20
-31.9443
 11
27.1619
 21
-31.7384
  0
LINE
  8
0
 10
27.1619
 20
-31.7384
 11
27.1346
 21
-31.5308
  0
LINE
  8
0
 10
27.1346
 20
-31.5308
 11
27.1182
 21
-31.322
  0
LINE
  8
0
 10
27.1182
 20
-31.322
 11
27.1127
 21
-31.1127
  0
LINE
  8
0
 10
27.1127
 20
-31.1127
 11
27.1182
 21
-30.9034
  0
LINE
  8
0
 10
27.1182
 20
-30.9034
 11
27.1346
 21
-30.6946
  0
LINE
  8
0
 10
27.1346
 20
-30.6946
 11
27.1619
 21
-30.487
  0
LINE
  8
0
 10
27.1619
 20
-30.487
 11
27.2001
 21
-30.2811
  0
LINE
  8
0
 10
27.2001
 20
-30.2811
 11
27.249
 21
-30.0774
  0
LINE
  8
0
 10
27.249
 20
-30.0774
 11
27.3085
 21
-29.8766
  0
LINE
  8
0
 10
27.3085
 20
-29.8766
 11
27.3784
 21
-29.6792
  0
LINE
  8
0
 10
27.3784
 20
-29.6792
 11
27.4585
 21
-29.4858
  0
LINE
  8
0
 10
27.4585
 20
-29.4858
 11
27.5487
 21
-29.2967
  0
LINE
  8
0
 10
27.5487
 20
-29.2967
 11
27.6486
 21
-29.1127
  0
LINE
  8
0
 10
27.6486
 20
-29.1127
 11
27.758
 21
-28.9341
  0
LINE
  8
0
 10
27.758
 20
-28.9341
 11
27.8766
 21
-28.7616
  0
LINE
  8
0
 10
27.8766
 20
-28.7616
 11
28.0041
 21
-28.5954
  0
LINE
  8
0
 10
28.0041
 20
-28.5954
 11
28.1401
 21
-28.4362
  0
LINE
  8
0
 10
28.1401
 20
-28.4362
 11
28.2843
 21
-28.2843
  0
LINE
  8
0
 10
28.2843
 20
-28.2843
 11
28.4362
 21
-28.1401
  0
LINE
  8
0
 10
28.4362
 20
-28.1401
 11
28.5954
 21
-28.0041
  0
LINE
  8
0
 10
28.5954
 20
-28.0041
 11
28.7616
 21
-27.8766
  0
LINE
  8
0
 10
28.7616
 20
-27.8766
 11
28.9341
 21
-27.758
  0
LINE
  8
0
 10
28.9341
 20
-27.758
 11
29.1127
 21
-27.6486
  0
LINE
  8
0
 10
29.1127
 20
-27.6486
 11
29.2967
 21
-27.5487
  0
LINE
  8
0
 10
29.2967
 20
-27.5487
 11
29.4858
 21
-27.4585
  0
LINE
  8
0
 10
29.4858
 20
-27.4585
 11
29.6792
 21
-27.3784
  0
LINE
  8
0
 10
29.6792
 20
-27.3784
 11
29.8766
 21
-27.3085
  0
LINE
  8
0
 10
29.8766
 20
-27.3085
 11
30.0774
 21
-27.249
  0
LINE
  8
0
 10
30.0774
 20
-27.249
 11
30.2811
 21
-27.2001
  0
LINE
  8
0
 10
30.2811
 20
-27.2001
 11
30.487
 21
-27.1619
  0
LINE
  8
0
 10
30.487
 20
-27.1619
 11
30.6946
 21
-27.1346
  0
LINE
  8
0
 10
30.6946
 20
-27.1346
 11
30.9034
 21
-27.1182
  0
LINE
  8
0
 10
30.9034
 20
-27.1182
 11
31.1127
 21
-27.1127
  0
LINE
  8
0
 10
31.1127
 20
-27.1127
 11
31.322
 21
-27.1182
  0
LINE
  8
0
 10
31.322
 20
-27.1182
 11
31.5308
 21
-27.1346
  0
LINE
  8
0
 10
31.5308
 20
-27.1346
 11
31.7384
 21
-27.1619
  0
LINE
  8
0
 10
31.7384
 20
-27.1619
 11
31.9443
 21
-27.2001
  0
LINE
  8
0
 10
31.9443
 20
-27.2001
 11
32.148
 21
-27.249
  0
LINE
  8
0
 10
32.148
 20
-27.249
 11
32.3488
 21
-27.3085
  0
LINE
  8
0
 10
32.3488
 20
-27.3085
 11
32.5462
 21
-27.3784
  0
LINE
  8
0
 10
32.5462
 20
-27.3784
 11
32.7396
 21
-27.4585
  0
LINE
  8
0
 10
32.7396
 20
-27.4585
 11
32.9287
 21
-27.5487
  0
LINE
  8
0
 10
32.9287
 20
-27.5487
 11
33.1127
 21
-27.6486
  0
LINE
  8
0
 10
33.1127
 20
-27.6486
 11
33.2913
 21
-27.758
  0
LINE
  8
0
 10
33.2913
 20
-27.758
 11
33.4638
 21
-27.8766
  0
LINE
  8
0
 10
33.4638
 20
-27.8766
 11
33.63
 21
-28.0041
  0
LINE
  8
0
 10
33.63
 20
-28.0041
 11
33.7892
 21
-28.1401
  0
LINE
  8
0
 10
33.7892
 20
-28.1401
 11
33.9411
 21
-28.2843
  0
LINE
  8
0
 10
33.9411
 20
-28.2843
 11
34.0853
 21
-28.4362
  0
LINE
  8
0
 10
34.0853
 20
-28.4362
 11
34.2213
 21
-28.5954
  0
LINE
  8
0
 10
34.2213
 20
-28.5954
 11
34.3488
 21
-28.7616
  0
LINE
  8
0
 10
34.3488
 20
-28.7616
 11
34.4674
 21
-28.9341
  0
LINE
  8
0
 10
34.4674
 20
-28.9341
 11
34.5768
 21
-29.1127
  0
LINE
  8
0
 10
34.5768
 20
-29.1127
 11
34.6767
 21
-29.2967
  0
LINE
  8
0
 10
34.6767
 20
-29.2967
 11
34.7669
 21
-29.4858
  0
LINE
  8
0
 10
34.7669
 20
-29.4858
 11
34.847
 21
-29.6792
  0
LINE
  8
0
 10
34.847
 20
-29.6792
 11
34.9169
 21
-29.8766
  0
LINE
  8
0
 10
34.9169
 20
-29.8766
 11
34.9764
 21
-30.0774
  0
LINE
  8
0
 10
34.9764
 20
-30.0774
 11
35.0253
 21
-30.2811
  0
LINE
  8
0
 10
35.0253
 20
-30.2811
 11
35.0634
 21
-30.487
  0
LINE
  8
0
 10
35.0634
 20
-30.487
 11
35.0908
 21
-30.6946
  0
LINE
  8
0
 10
35.0908
 20
-30.6946
 11
35.1072
 21
-30.9034
  0
LINE
  8
0
 10
35.1072
 20
-30.9034
 11
35.1127
 21
-31.1127
  0
LINE
  8
0
 10
35.1127
 20
-31.1127
 11
35.1072
 21
-31.322
  0
LINE
  8
0
 10
35.1072
 20
-31.322
 11
35.0908
 21
-31.5308
  0
LINE
  8
0
 10
35.0908
 20
-31.5308
 11
35.0634
 21
-31.7384
  0
LINE
  8
0
 10
35.0634
 20
-31.7384
 11
35.0253
 21
-31.9443
  0
LINE
  8
0
 10
35.0253
 20
-31.9443
 11
34.9764
 21
-32.148
  0
LINE
  8
0
 10
34.9764
 20
-32.148
 11
34.9169
 21
-32.3488
  0
LINE
  8
0
 10
34.9169
 20
-32.3488
 11
34.847
 21
-32.5462
  0
LINE
  8
0
 10
34.847
 20
-32.5462
 11
34.7669
 21
-32.7396
  0
LINE
  8
0
 10
34.7669
 20
-32.7396
 11
34.6767
 21
-32.9287
  0
LINE
  8
0
 10
34.6767
 20
-32.9287
 11
34.5768
 21
-33.1127
  0
LINE
  8
0
 10
34.5768
 20
-33.1127
 11
34.4674
 21
-33.2913
  0
LINE
  8
0
 10
34.4674
 20
-33.2913
 11
34.3488
 21
-33.4638
  0
LINE
  8
0
 10
34.3488
 20
-33.4638
 11
34.2213
 21
-33.63
  0
LINE
  8
0
 10
34.2213
 20
-33.63
 11
34.0853
 21
-33.7892
  0
LINE
  8
0
 10
34.0853
 20
-33.7892
 11
33.9411
 21
-33.9411
  0
LINE
  8
0
 10
33.9411
 20
-33.9411
 11
33.7892
 21
-34.0853
  0
LINE
  8
0
 10
33.7892
 20
-34.0853
 11
33.63
 21
-34.2213
  0
LINE
  8
0
 10
33.63
 20
-34.2213
 11
33.4638
 21
-34.3488
  0
LINE
  8
0
 10
33.4638
 20
-34.3488
 11
33.2913
 21
-34.4674
  0
LINE
  8
0
 10
33.2913
 20
-34.4674
 11
33.1127
 21
-34.5768
  0
LINE
  8
0
 10
33.1127
 20
-34.5768
 11
32.9287
 21
-34.6767
  0
LINE
  8
0
 10
32.9287
 20
-34.6767
 11
32.7396
 21
-34.7669
  0
LINE
  8
0
 10
32.7396
 20
-34.7669
 11
32.5462
 21
-34.847
  0
LINE
  8
0
 10
32.5462
 20
-34.847
 11
32.3488
 21
-34.9169
  0
LINE
  8
0
 10
32.3488
 20
-34.9169
 11
32.148
 21
-34.9764
  0
LINE
  8
0
 10
32.148
 20
-34.9764
 11
31.9443
 21
-35.0253
  0
LINE
  8
0
 10
31.9443
 20
-35.0253
 11
31.7384
 21
-35.0634
  0
LINE
  8
0
 10
31.7384
 20
-35.0634
 11
31.5308
 21
-35.0908
  0
LINE
  8
0
 10
31.5308
 20
-35.0908
 11
31.322
 21
-35.1072
  0
LINE
  8
0
 10
31.322
 20
-35.1072
 11
31.1127
 21
-35.1127
  0
LINE
  8
0
 10
31.1127
 20
-35.1127
 11
30.9034
 21
-35.1072
  0
LINE
  8
0
 10
-0.209335
 20
-47.9945
 11
-0.418106
 21
-47.9781
  0
LINE
  8
0
 10
-0.418106
 20
-47.9781
 11
-0.625732
 21
-47.9508
  0
LINE
  8
0
 10
-0.625732
 20
-47.9508
 11
-0.831635
 21
-47.9126
  0
LINE
  8
0
 10
-0.831635
 20
-47.9126
 11
-1.03528
 21
-47.8637
  0
LINE
  8
0
 10
-1.03528
 20
-47.8637
 11
-1.23607
 21
-47.8042
  0
LINE
  8
0
 10
-1.23607
 20
-47.8042
 11
-1.43346
 21
-47.7343
  0
LINE
  8
0
 10
-1.43346
 20
-47.7343
 11
-1.62694
 21
-47.6542
  0
LINE
  8
0
 10
-1.62694
 20
-47.6542
 11
-1.81595
 21
-47.564
  0
LINE
  8
0
 10
-1.81595
 20
-47.564
 11
-2
 21
-47.4641
  0
LINE
  8
0
 10
-2
 20
-47.4641
 11
-2.17856
 21
-47.3547
  0
LINE
  8
0
 10
-2.17856
 20
-47.3547
 11
-2.35114
 21
-47.2361
  0
LINE
  8
0
 10
-2.35114
 20
-47.2361
 11
-2.51727
 21
-47.1086
  0
LINE
  8
0
 10
-2.51727
 20
-47.1086
 11
-2.67651
 21
-46.9726
  0
LINE
  8
0
 10
-2.67651
 20
-46.9726
 11
-2.82841
 21
-46.8284
  0
LINE
  8
0
 10
-2.82841
 20
-46.8284
 11
-2.97258
 21
-46.6765
  0
LINE
  8
0
 10
-2.97258
 20
-46.6765
 11
-3.10857
 21
-46.5173
  0
LINE
  8
0
 10
-3.10857
 20
-46.5173
 11
-3.23607
 21
-46.3511
  0
LINE
  8
0
 10
-3.23607
 20
-46.3511
 11
-3.35468
 21
-46.1786
  0
LINE
  8
0
 10
-3.35468
 20
-46.1786
 11
-3.4641
 21
-46
  0
LINE
  8
0
 10
-3.4641
 20
-46
 11
-3.56403
 21
-45.816
  0
LINE
  8
0
 10
-3.56403
 20
-45.816
 11
-3.65417
 21
-45.6269
  0
LINE
  8
0
 10
-3.65417
 20
-45.6269
 11
-3.73431
 21
-45.4335
  0
LINE
  8
0
 10
-3.73431
 20
-45.4335
 11
-3.80423
 21
-45.2361
  0
LINE
  8
0
 10
-3.80423
 20
-45.2361
 11
-3.86369
 21
-45.0353
  0
LINE
  8
0
 10
-3.86369
 20
-45.0353
 11
-3.91258
 21
-44.8316
  0
LINE
  8
0
 10
-3.91258
 20
-44.8316
 11
-3.95074
 21
-44.6257
  0
LINE
  8
0
 10
-3.95074
 20
-44.6257
 11
-3.97809
 21
-44.4181
  0
LINE
  8
0
 10
-3.97809
 20
-44.4181
 11
-3.99451
 21
-44.2093
  0
LINE
  8
0
 10
-3.99451
 20
-44.2093
 11
-4
 21
-44
  0
LINE
  8
0
 10
-4
 20
-44
 11
-3.99451
 21
-43.7907
  0
LINE
  8
0
 10
-3.99451
 20
-43.7907
 11
-3.97809
 21
-43.5819
  0
LINE
  8
0
 10
-3.97809
 20
-43.5819
 11
-3.95074
 21
-43.3743
  0
LINE
  8
0
 10
-3.95074
 20
-43.3743
 11
-3.91258
 21
-43.1684
  0
LINE
  8
0
 10
-3.91258
 20
-43.1684
 11
-3.86369
 21
-42.9647
  0
LINE
  8
0
 10
-3.86369
 20
-42.9647
 11
-3.80423
 21
-42.7639
  0
LINE
  8
0
 10
-3.80423
 20
-42.7639
 11
-3.73431
 21
-42.5665
  0
LINE
  8
0
 10
-3.73431
 20
-42.5665
 11
-3.65417
 21
-42.3731
  0
LINE
  8
0
 10
-3.65417
 20
-42.3731
 11
-3.56403
 21
-42.184
  0
LINE
  8
0
 10
-3.56403
 20
-42.184
 11
-3.4641
 21
-42
  0
LINE
  8
0
 10
-3.4641
 20
-42
 11
-3.35468
 21
-41.8214
  0
LINE
  8
0
 10
-3.35468
 20
-41.8214
 11
-3.23607
 21
-41.6489
  0
LINE
  8
0
 10
-3.23607
 20
-41.6489
 11
-3.10857
 21
-41.4827
  0
LINE
  8
0
 10
-3.10857
 20
-41.4827
 11
-2.97258
 21
-41.3235
  0
LINE
  8
0
 10
-2.97258
 20
-41.3235
 11
-2.82841
 21
-41.1716
  0
LINE
  8
0
 10
-2.82841
 20
-41.1716
 11
-2.67651
 21
-41.0274
  0
LINE
  8
0
 10
-2.67651
 20
-41.0274
 11
-2.51727
 21
-40.8914
  0
LINE
  8
0
 10
-2.51727
 20
-40.8914
 11
-2.35114
 21
-40.7639
  0
LINE
  8
0
 10
-2.35114
 20
-40.7639
 11
-2.17856
 21
-40.6453
  0
LINE
  8
0
 10
-2.17856
 20
-40.6453
 11
-2
 21
-40.5359
  0
LINE
  8
0
 10
-2
 20
-40.5359
 11
-1.81595
 21
-40.436
  0
LINE
  8
0
 10
-1.81595
 20
-40.436
 11
-1.62694
 21
-40.3458
  0
LINE
  8
0
 10
-1.62694
 20
-40.3458
 11
-1.43346
 21
-40.2657
  0
LINE
  8
0
 10
-1.43346
 20
-40.2657
 11
-1.23607
 21
-40.1958
  0
LINE
  8
0
 10
-1.23607
 20
-40.1958
 11
-1.03528
 21
-40.1363
  0
LINE
  8
0
 10
-1.03528
 20
-40.1363
 11
-0.831635
 21
-40.0874
  0
LINE
  8
0
 10
-0.831635
 20
-40.0874
 11
-0.625732
 21
-40.0492
  0
LINE
  8
0
 10
-0.625732
 20
-40.0492
 11
-0.418106
 21
-40.0219
  0
LINE
  8
0
 10
-0.418106
 20
-40.0219
 11
-0.209335
 21
-40.0055
  0
LINE
  8
0
 10
-0.209335
 20
-40.0055
 11
0
 21
-40
  0
LINE
  8
0
 10
0
 20
-40
 11
0.209335
 21
-40.0055
  0
LINE
  8
0
 10
0.209335
 20
-40.0055
 11
0.418106
 21
-40.0219
  0
LINE
  8
0
 10
0.418106
 20
-40.0219
 11
0.625732
 21
-40.0492
  0
LINE
  8
0
 10
0.625732
 20
-40.0492
 11
0.831635
 21
-40.0874
  0
LINE
  8
0
 10
0.831635
 20
-40.0874
 11
1.03528
 21
-40.1363
  0
LINE
  8
0
 10
1.03528
 20
-40.1363
 11
1.23607
 21
-40.1958
  0
LINE
  8
0
 10
1.23607
 20
-40.1958
 11
1.43346
 21
-40.2657
  0
LINE
  8
0
 10
1.43346
 20
-40.2657
 11
1.62694
 21
-40.3458
  0
LINE
  8
0
 10
1.62694
 20
-40.3458
 11
1.81595
 21
-40.436
  0
LINE
  8
0
 10
1.81595
 20
-40.436
 11
2
 21
-40.5359
  0
LINE
  8
0
 10
2
 20
-40.5359
 11
2.17856
 21
-40.6453
  0
LINE
  8
0
 10
2.17856
 20
-40.6453
 11
2.35114
 21
-40.7639
  0
LINE
  8
0
 10
2.35114
 20
-40.7639
 11
2.51727
 21
-40.8914
  0
LINE
  8
0
 10
2.51727
 20
-40.8914
 11
2.67651
 21
-41.0274
  0
LINE
  8
0
 10
2.67651
 20
-41.0274
 11
2.82841
 21
-41.1716
  0
LINE
  8
0
 10
2.82841
 20
-41.1716
 11
2.97258
 21
-41.3235
  0
LINE
  8
0
 10
2.97258
 20
-41.3235
 11
3.10857
 21
-41.4827
  0
LINE
  8
0
 10
3.10857
 20
-41.4827
 11
3.23607
 21
-41.6489
  0
LINE
  8
0
 10
3.23607
 20
-41.6489
 11
3.35468
 21
-41.8214
  0
LINE
  8
0
 10
3.35468
 20
-41.8214
 11
3.4641
 21
-42
  0
LINE
  8
0
 10
3.4641
 20
-42
 11
3.56403
 21
-42.184
  0
LINE
  8
0
 10
3.56403
 20
-42.184
 11
3.65417
 21
-42.3731
  0
LINE
  8
0
 10
3.65417
 20
-42.3731
 11
3.73431
 21
-42.5665
  0
LINE
  8
0
 10
3.73431
 20
-42.5665
 11
3.80423
 21
-42.7639
  0
LINE
  8
0
 10
3.80423
 20
-42.7639
 11
3.86369
 21
-42.9647
  0
LINE
  8
0
 10
3.86369
 20
-42.9647
 11
3.91258
 21
-43.1684
  0
LINE
  8
0
 10
3.91258
 20
-43.1684
 11
3.95074
 21
-43.3743
  0
LINE
  8
0
 10
3.95074
 20
-43.3743
 11
3.97809
 21
-43.5819
  0
LINE
  8
0
 10
3.97809
 20
-43.5819
 11
3.99451
 21
-43.7907
  0
LINE
  8
0
 10
3.99451
 20
-43.7907
 11
4
 21
-44
  0
LINE
  8
0
 10
4
 20
-44
 11
3.99451
 21
-44.2093
  0
LINE
  8
0
 10
3.99451
 20
-44.2093
 11
3.97809
 21
-44.4181
  0
LINE
  8
0
 10
3.97809
 20
-44.4181
 11
3.95074
 21
-44.6257
  0
LINE
  8
0
 10
3.95074
 20
-44.6257
 11
3.91258
 21
-44.8316
  0
LINE
  8
0
 10
3.91258
 20
-44.8316
 11
3.86369
 21
-45.0353
  0
LINE
  8
0
 10
3.86369
 20
-45.0353
 11
3.80423
 21
-45.2361
  0
LINE
  8
0
 10
3.80423
 20
-45.2361
 11
3.73431
 21
-45.4335
  0
LINE
  8
0
 10
3.73431
 20
-45.4335
 11
3.65417
 21
-45.6269
  0
LINE
  8
0
 10
3.65417
 20
-45.6269
 11
3.56403
 21
-45.816
  0
LINE
  8
0
 10
3.56403
 20
-45.816
 11
3.4641
 21
-46
  0
LINE
  8
0
 10
3.4641
 20
-46
 11
3.35468
 21
-46.1786
  0
LINE
  8
0
 10
3.35468
 20
-46.1786
 11
3.23607
 21
-46.3511
  0
LINE
  8
0
 10
3.23607
 20
-46.3511
 11
3.10857
 21
-46.5173
  0
LINE
  8
0
 10
3.10857
 20
-46.5173
 11
2.97258
 21
-46.6765
  0
LINE
  8
0
 10
2.97258
 20
-46.6765
 11
2.82841
 21
-46.8284
  0
LINE
  8
0
 10
2.82841
 20
-46.8284
 11
2.67651
 21
-46.9726
  0
LINE
  8
0
 10
2.67651
 20
-46.9726
 11
2.51727
 21
-47.1086
  0
LINE
  8
0
 10
2.51727
 20
-47.1086
 11
2.35114
 21
-47.2361
  0
LINE
  8
0
 10
2.35114
 20
-47.2361
 11
2.17856
 21
-47.3547
  0
LINE
  8
0
 10
2.17856
 20
-47.3547
 11
2
 21
-47.4641
  0
LINE
  8
0
 10
2
 20
-47.4641
 11
1.81595
 21
-47.564
  0
LINE
  8
0
 10
1.81595
 20
-47.564
 11
1.62694
 21
-47.6542
  0
LINE
  8
0
 10
1.62694
 20
-47.6542
 11
1.43346
 21
-47.7343
  0
LINE
  8
0
 10
1.43346
 20
-47.7343
 11
1.23607
 21
-47.8042
  0
LINE
  8
0
 10
1.23607
 20
-47.8042
 11
1.03528
 21
-47.8637
  0
LINE
  8
0
 10
1.03528
 20
-47.8637
 11
0.831635
 21
-47.9126
  0
LINE
  8
0
 10
0.831635
 20
-47.9126
 11
0.625732
 21
-47.9508
  0
LINE
  8
0
 10
0.625732
 20
-47.9508
 11
0.418106
 21
-47.9781
  0
LINE
  8
0
 10
0.418106
 20
-47.9781
 11
0.209335
 21
-47.9945
  0
LINE
  8
0
 10
0.209335
 20
-47.9945
 11
0
 21
-48
  0
LINE
  8
0
 10
0
 20
-48
 11
-0.209335
 21
-47.9945
  0
LINE
  8
0
 10
-55.089
 20
-56.6977
 11
-55.1777
 21
-56.6907
  0
LINE
  8
0
 10
-55.1777
 20
-56.6907
 11
-55.2659
 21
-56.6791
  0
LINE
  8
0
 10
-55.2659
 20
-56.6791
 11
-55.3535
 21
-56.6628
  0
LINE
  8
0
 10
-55.3535
 20
-56.6628
 11
-55.44
 21
-56.6421
  0
LINE
  8
0
 10
-55.44
 20
-56.6421
 11
-55.5253
 21
-56.6168
  0
LINE
  8
0
 10
-55.5253
 20
-56.6168
 11
-55.6092
 21
-56.5871
  0
LINE
  8
0
 10
-55.6092
 20
-56.5871
 11
-55.6915
 21
-56.553
  0
LINE
  8
0
 10
-55.6915
 20
-56.553
 11
-55.7718
 21
-56.5147
  0
LINE
  8
0
 10
-55.7718
 20
-56.5147
 11
-55.85
 21
-56.4722
  0
LINE
  8
0
 10
-55.85
 20
-56.4722
 11
-55.9259
 21
-56.4257
  0
LINE
  8
0
 10
-55.9259
 20
-56.4257
 11
-55.9992
 21
-56.3753
  0
LINE
  8
0
 10
-55.9992
 20
-56.3753
 11
-56.0698
 21
-56.3211
  0
LINE
  8
0
 10
-56.0698
 20
-56.3211
 11
-56.1375
 21
-56.2633
  0
LINE
  8
0
 10
-56.1375
 20
-56.2633
 11
-56.2021
 21
-56.2021
  0
LINE
  8
0
 10
-56.2021
 20
-56.2021
 11
-56.2633
 21
-56.1375
  0
LINE
  8
0
 10
-56.2633
 20
-56.1375
 11
-56.3211
 21
-56.0698
  0
LINE
  8
0
 10
-56.3211
 20
-56.0698
 11
-56.3753
 21
-55.9992
  0
LINE
  8
0
 10
-56.3753
 20
-55.9992
 11
-56.4257
 21
-55.9259
  0
LINE
  8
0
 10
-56.4257
 20
-55.9259
 11
-56.4722
 21
-55.85
  0
LINE
  8
0
 10
-56.4722
 20
-55.85
 11
-56.5147
 21
-55.7718
  0
LINE
  8
0
 10
-56.5147
 20
-55.7718
 11
-56.553
 21
-55.6915
  0
LINE
  8
0
 10
-56.553
 20
-55.6915
 11
-56.5871
 21
-55.6092
  0
LINE
  8
0
 10
-56.5871
 20
-55.6092
 11
-56.6168
 21
-55.5253
  0
LINE
  8
0
 10
-56.6168
 20
-55.5253
 11
-56.6421
 21
-55.44
  0
LINE
  8
0
 10
-56.6421
 20
-55.44
 11
-56.6628
 21
-55.3535
  0
LINE
  8
0
 10
-56.6628
 20
-55.3535
 11
-56.6791
 21
-55.2659
  0
LINE
  8
0
 10
-56.6791
 20
-55.2659
 11
-56.6907
 21
-55.1777
  0
LINE
  8
0
 10
-56.6907
 20
-55.1777
 11
-56.6977
 21
-55.089
  0
LINE
  8
0
 10
-56.6977
 20
-55.089
 11
-56.7
 21
-55
  0
LINE
  8
0
 10
-56.7
 20
-55
 11
-56.6977
 21
-54.911
  0
LINE
  8
0
 10
-56.6977
 20
-54.911
 11
-56.6907
 21
-54.8223
  0
LINE
  8
0
 10
-56.6907
 20
-54.8223
 11
-56.6791
 21
-54.7341
  0
LINE
  8
0
 10
-56.6791
 20
-54.7341
 11
-56.6628
 21
-54.6465
  0
LINE
  8
0
 10
-56.6628
 20
-54.6465
 11
-56.6421
 21
-54.56
  0
LINE
  8
0
 10
-56.6421
 20
-54.56
 11
-56.6168
 21
-54.4747
  0
LINE
  8
0
 10
-56.6168
 20
-54.4747
 11
-56.5871
 21
-54.3908
  0
LINE
  8
0
 10
-56.5871
 20
-54.3908
 11
-56.553
 21
-54.3085
  0
LINE
  8
0
 10
-56.553
 20
-54.3085
 11
-56.5147
 21
-54.2282
  0
LINE
  8
0
 10
-56.5147
 20
-54.2282
 11
-56.4722
 21
-54.15
  0
LINE
  8
0
 10
-56.4722
 20
-54.15
 11
-56.4257
 21
-54.0741
  0
LINE
  8
0
 10
-56.4257
 20
-54.0741
 11
-56.3753
 21
-54.0008
  0
LINE
  8
0
 10
-56.3753
 20
-54.0008
 11
-56.3211
 21
-53.9302
  0
LINE
  8
0
 10
-56.3211
 20
-53.9302
 11
-56.2633
 21
-53.8625
  0
LINE
  8
0
 10
-56.2633
 20
-53.8625
 11
-56.2021
 21
-53.7979
  0
LINE
  8
0
 10
-56.2021
 20
-53.7979
 11
-56.1375
 21
-53.7367
  0
LINE
  8
0
 10
-56.1375
 20
-53.7367
 11
-56.0698
 21
-53.6789
  0
LINE
  8
0
 10
-56.0698
 20
-53.6789
 11
-55.9992
 21
-53.6247
  0
LINE
  8
0
 10
-55.9992
 20
-53.6247
 11
-55.9259
 21
-53.5743
  0
LINE
  8
0
 10
-55.9259
 20
-53.5743
 11
-55.85
 21
-53.5278
  0
LINE
  8
0
 10
-55.85
 20
-53.5278
 11
-55.7718
 21
-53.4853
  0
LINE
  8
0
 10
-55.7718
 20
-53.4853
 11
-55.6915
 21
-53.447
  0
LINE
  8
0
 10
-55.6915
 20
-53.447
 11
-55.6092
 21
-53.4129
  0
LINE
  8
0
 10
-55.6092
 20
-53.4129
 11
-55.5253
 21
-53.3832
  0
LINE
  8
0
 10
-55.5253
 20
-53.3832
 11
-55.44
 21
-53.3579
  0
LINE
  8
0
 10
-55.44
 20
-53.3579
 11
-55.3535
 21
-53.3372
  0
LINE
  8
0
 10
-55.3535
 20
-53.3372
 11
-55.2659
 21
-53.3209
  0
LINE
  8
0
 10
-55.2659
 20
-53.3209
 11
-55.1777
 21
-53.3093
  0
LINE
  8
0
 10
-55.1777
 20
-53.3093
 11
-55.089
 21
-53.3023
  0
LINE
  8
0
 10
-55.089
 20
-53.3023
 11
-55
 21
-53.3
  0
LINE
  8
0
 10
-55
 20
-53.3
 11
-54.911
 21
-53.3023
  0
LINE
  8
0
 10
-54.911
 20
-53.3023
 11
-54.8223
 21
-53.3093
  0
LINE
  8
0
 10
-54.8223
 20
-53.3093
 11
-54.7341
 21
-53.3209
  0
LINE
  8
0
 10
-54.7341
 20
-53.3209
 11
-54.6465
 21
-53.3372
  0
LINE
  8
0
 10
-54.6465
 20
-53.3372
 11
-54.56
 21
-53.3579
  0
LINE
  8
0
 10
-54.56
 20
-53.3579
 11
-54.4747
 21
-53.3832
  0
LINE
  8
0
 10
-54.4747
 20
-53.3832
 11
-54.3908
 21
-53.4129
  0
LINE
  8
0
 10
-54.3908
 20
-53.4129
 11
-54.3085
 21
-53.447
  0
LINE
  8
0
 10
-54.3085
 20
-53.447
 11
-54.2282
 21
-53.4853
  0
LINE
  8
0
 10
-54.2282
 20
-53.4853
 11
-54.15
 21
-53.5278
  0
LINE
  8
0
 10
-54.15
 20
-53.5278
 11
-54.0741
 21
-53.5743
  0
LINE
  8
0
 10
-54.0741
 20
-53.5743
 11
-54.0008
 21
-53.6247
  0
LINE
  8
0
 10
-54.0008
 20
-53.6247
 11
-53.9302
 21
-53.6789
  0
LINE
  8
0
 10
-53.9302
 20
-53.6789
 11
-53.8625
 21
-53.7367
  0
LINE
  8
0
 10
-53.8625
 20
-53.7367
 11
-53.7979
 21
-53.7979
  0
LINE
  8
0
 10
-53.7979
 20
-53.7979
 11
-53.7367
 21
-53.8625
  0
LINE
  8
0
 10
-53.7367
 20
-53.8625
 11
-53.6789
 21
-53.9302
  0
LINE
  8
0
 10
-53.6789
 20
-53.9302
 11
-53.6247
 21
-54.0008
  0
LINE
  8
0
 10
-53.6247
 20
-54.0008
 11
-53.5743
 21
-54.0741
  0
LINE
  8
0
 10
-53.5743
 20
-54.0741
 11
-53.5278
 21
-54.15
  0
LINE
  8
0
 10
-53.5278
 20
-54.15
 11
-53.4853
 21
-54.2282
  0
LINE
  8
0
 10
-53.4853
 20
-54.2282
 11
-53.447
 21
-54.3085
  0
LINE
  8
0
 10
-53.447
 20
-54.3085
 11
-53.4129
 21
-54.3908
  0
LINE
  8
0
 10
-53.4129
 20
-54.3908
 11
-53.3832
 21
-54.4747
  0
LINE
  8
0
 10
-53.3832
 20
-54.4747
 11
-53.3579
 21
-54.56
  0
LINE
  8
0
 10
-53.3579
 20
-54.56
 11
-53.3372
 21
-54.6465
  0
LINE
  8
0
 10
-53.3372
 20
-54.6465
 11
-53.3209
 21
-54.7341
  0
LINE
  8
0
 10
-53.3209
 20
-54.7341
 11
-53.3093
 21
-54.8223
  0
LINE
  8
0
 10
-53.3093
 20
-54.8223
 11
-53.3023
 21
-54.911
  0
LINE
  8
0
 10
-53.3023
 20
-54.911
 11
-53.3
 21
-55
  0
LINE
  8
0
 10
-53.3
 20
-55
 11
-53.3023
 21
-55.089
  0
LINE
  8
0
 10
-53.3023
 20
-55.089
 11
-53.3093
 21
-55.1777
  0
LINE
  8
0
 10
-53.3093
 20
-55.1777
 11
-53.3209
 21
-55.2659
  0
LINE
  8
0
 10
-53.3209
 20
-55.2659
 11
-53.3372
 21
-55.3535
  0
LINE
  8
0
 10
-53.3372
 20
-55.3535
 11
-53.3579
 21
-55.44
  0
LINE
  8
0
 10
-53.3579
 20
-55.44
 11
-53.3832
 21
-55.5253
  0
LINE
  8
0
 10
-53.3832
 20
-55.5253
 11
-53.4129
 21
-55.6092
  0
LINE
  8
0
 10
-53.4129
 20
-55.6092
 11
-53.447
 21
-55.6915
  0
LINE
  8
0
 10
-53.447
 20
-55.6915
 11
-53.4853
 21
-55.7718
  0
LINE
  8
0
 10
-53.4853
 20
-55.7718
 11
-53.5278
 21
-55.85
  0
LINE
  8
0
 10
-53.5278
 20
-55.85
 11
-53.5743
 21
-55.9259
  0
LINE
  8
0
 10
-53.5743
 20
-55.9259
 11
-53.6247
 21
-55.9992
  0
LINE
  8
0
 10
-53.6247
 20
-55.9992
 11
-53.6789
 21
-56.0698
  0
LINE
  8
0
 10
-53.6789
 20
-56.0698
 11
-53.7367
 21
-56.1375
  0
LINE
  8
0
 10
-53.7367
 20
-56.1375
 11
-53.7979
 21
-56.2021
  0
LINE
  8
0
 10
-53.7979
 20
-56.2021
 11
-53.8625
 21
-56.2633
  0
LINE
  8
0
 10
-53.8625
 20
-56.2633
 11
-53.9302
 21
-56.3211
  0
LINE
  8
0
 10
-53.9302
 20
-56.3211
 11
-54.0008
 21
-56.3753
  0
LINE
  8
0
 10
-54.0008
 20
-56.3753
 11
-54.0741
 21
-56.4257
  0
LINE
  8
0
 10
-54.0741
 20
-56.4257
 11
-54.15
 21
-56.4722
  0
LINE
  8
0
 10
-54.15
 20
-56.4722
 11
-54.2282
 21
-56.5147
  0
LINE
  8
0
 10
-54.2282
 20
-56.5147
 11
-54.3085
 21
-56.553
  0
LINE
  8
0
 10
-54.3085
 20
-56.553
 11
-54.3908
 21
-56.5871
  0
LINE
  8
0
 10
-54.3908
 20
-56.5871
 11
-54.4747
 21
-56.6168
  0
LINE
  8
0
 10
-54.4747
 20
-56.6168
 11
-54.56
 21
-56.6421
  0
LINE
  8
0
 10
-54.56
 20
-56.6421
 11
-54.6465
 21
-56.6628
  0
LINE
  8
0
 10
-54.6465
 20
-56.6628
 11
-54.7341
 21
-56.6791
  0
LINE
  8
0
 10
-54.7341
 20
-56.6791
 11
-54.8223
 21
-56.6907
  0
LINE
  8
0
 10
-54.8223
 20
-56.6907
 11
-54.911
 21
-56.6977
  0
LINE
  8
0
 10
-54.911
 20
-56.6977
 11
-55
 21
-56.7
  0
LINE
  8
0
 10
-55
 20
-56.7
 11
-55.089
 21
-56.6977
  0
LINE
  8
0
 10
54.911
 20
-56.6977
 11
54.8223
 21
-56.6907
  0
LINE
  8
0
 10
54.8223
 20
-56.6907
 11
54.7341
 21
-56.6791
  0
LINE
  8
0
 10
54.7341
 20
-56.6791
 11
54.6465
 21
-56.6628
  0
LINE
  8
0
 10
54.6465
 20
-56.6628
 11
54.56
 21
-56.6421
  0
LINE
  8
0
 10
54.56
 20
-56.6421
 11
54.4747
 21
-56.6168
  0
LINE
  8
0
 10
54.4747
 20
-56.6168
 11
54.3908
 21
-56.5871
  0
LINE
  8
0
 10
54.3908
 20
-56.5871
 11
54.3085
 21
-56.553
  0
LINE
  8
0
 10
54.3085
 20
-56.553
 11
54.2282
 21
-56.5147
  0
LINE
  8
0
 10
54.2282
 20
-56.5147
 11
54.15
 21
-56.4722
  0
LINE
  8
0
 10
54.15
 20
-56.4722
 11
54.0741
 21
-56.4257
  0
LINE
  8
0
 10
54.0741
 20
-56.4257
 11
54.0008
 21
-56.3753
  0
LINE
  8
0
 10
54.0008
 20
-56.3753
 11
53.9302
 21
-56.3211
  0
LINE
  8
0
 10
53.9302
 20
-56.3211
 11
53.8625
 21
-56.2633
  0
LINE
  8
0
 10
53.8625
 20
-56.2633
 11
53.7979
 21
-56.2021
  0
LINE
  8
0
 10
53.7979
 20
-56.2021
 11
53.7367
 21
-56.1375
  0
LINE
  8
0
 10
53.7367
 20
-56.1375
 11
53.6789
 21
-56.0698
  0
LINE
  8
0
 10
53.6789
 20
-56.0698
 11
53.6247
 21
-55.9992
  0
LINE
  8
0
 10
53.6247
 20
-55.9992
 11
53.5743
 21
-55.9259
  0
LINE
  8
0
 10
53.5743
 20
-55.9259
 11
53.5278
 21
-55.85
  0
LINE
  8
0
 10
53.5278
 20
-55.85
 11
53.4853
 21
-55.7718
  0
LINE
  8
0
 10
53.4853
 20
-55.7718
 11
53.447
 21
-55.6915
  0
LINE
  8
0
 10
53.447
 20
-55.6915
 11
53.4129
 21
-55.6092
  0
LINE
  8
0
 10
53.4129
 20
-55.6092
 11
53.3832
 21
-55.5253
  0
LINE
  8
0
 10
53.3832
 20
-55.5253
 11
53.3579
 21
-55.44
  0
LINE
  8
0
 10
53.3579
 20
-55.44
 11
53.3372
 21
-55.3535
  0
LINE
  8
0
 10
53.3372
 20
-55.3535
 11
53.3209
 21
-55.2659
  0
LINE
  8
0
 10
53.3209
 20
-55.2659
 11
53.3093
 21
-55.1777
  0
LINE
  8
0
 10
53.3093
 20
-55.1777
 11
53.3023
 21
-55.089
  0
LINE
  8
0
 10
53.3023
 20
-55.089
 11
53.3
 21
-55
  0
LINE
  8
0
 10
53.3
 20
-55
 11
53.3023
 21
-54.911
  0
LINE
  8
0
 10
53.3023
 20
-54.911
 11
53.3093
 21
-54.8223
  0
LINE
  8
0
 10
53.3093
 20
-54.8223
 11
53.3209
 21
-54.7341
  0
LINE
  8
0
 10
53.3209
 20
-54.7341
 11
53.3372
 21
-54.6465
  0
LINE
  8
0
 10
53.3372
 20
-54.6465
 11
53.3579
 21
-54.56
  0
LINE
  8
0
 10
53.3579
 20
-54.56
 11
53.3832
 21
-54.4747
  0
LINE
  8
0
 10
53.3832
 20
-54.4747
 11
53.4129
 21
-54.3908
  0
LINE
  8
0
 10
53.4129
 20
-54.3908
 11
53.447
 21
-54.3085
  0
LINE
  8
0
 10
53.447
 20
-54.3085
 11
53.4853
 21
-54.2282
  0
LINE
  8
0
 10
53.4853
 20
-54.2282
 11
53.5278
 21
-54.15
  0
LINE
  8
0
 10
53.5278
 20
-54.15
 11
53.5743
 21
-54.0741
  0
LINE
  8
0
 10
53.5743
 20
-54.0741
 11
53.6247
 21
-54.0008
  0
LINE
  8
0
 10
53.6247
 20
-54.0008
 11
53.6789
 21
-53.9302
  0
LINE
  8
0
 10
53.6789
 20
-53.9302
 11
53.7367
 21
-53.8625
  0
LINE
  8
0
 10
53.7367
 20
-53.8625
 11
53.7979
 21
-53.7979
  0
LINE
  8
0
 10
53.7979
 20
-53.7979
 11
53.8625
 21
-53.7367
  0
LINE
  8
0
 10
53.8625
 20
-53.7367
 11
53.9302
 21
-53.6789
  0
LINE
  8
0
 10
53.9302
 20
-53.6789
 11
54.0008
 21
-53.6247
  0
LINE
  8
0
 10
54.0008
 20
-53.6247
 11
54.0741
 21
-53.5743
  0
LINE
  8
0
 10
54.0741
 20
-53.5743
 11
54.15
 21
-53.5278
  0
LINE
  8
0
 10
54.15
 20
-53.5278
 11
54.2282
 21
-53.4853
  0
LINE
  8
0
 10
54.2282
 20
-53.4853
 11
54.3085
 21
-53.447
  0
LINE
  8
0
 10
54.3085
 20
-53.447
 11
54.3908
 21
-53.4129
  0
LINE
  8
0
 10
54.3908
 20
-53.4129
 11
54.4747
 21
-53.3832
  0
LINE
  8
0
 10
54.4747
 20
-53.3832
 11
54.56
 21
-53.3579
  0
LINE
  8
0
 10
54.56
 20
-53.3579
 11
54.6465
 21
-53.3372
  0
LINE
  8
0
 10
54.6465
 20
-53.3372
 11
54.7341
 21
-53.3209
  0
LINE
  8
0
 10
54.7341
 20
-53.3209
 11
54.8223
 21
-53.3093
  0
LINE
  8
0
 10
54.8223
 20
-53.3093
 11
54.911
 21
-53.3023
  0
LINE
  8
0
 10
54.911
 20
-53.3023
 11
55
 21
-53.3
  0
LINE
  8
0
 10
55
 20
-53.3
 11
55.089
 21
-53.3023
  0
LINE
  8
0
 10
55.089
 20
-53.3023
 11
55.1777
 21
-53.3093
  0
LINE
  8
0
 10
55.1777
 20
-53.3093
 11
55.2659
 21
-53.3209
  0
LINE
  8
0
 10
55.2659
 20
-53.3209
 11
55.3535
 21
-53.3372
  0
LINE
  8
0
 10
55.3535
 20
-53.3372
 11
55.44
 21
-53.3579
  0
LINE
  8
0
 10
55.44
 20
-53.3579
 11
55.5253
 21
-53.3832
  0
LINE
  8
0
 10
55.5253
 20
-53.3832
 11
55.6092
 21
-53.4129
  0
LINE
  8
0
 10
55.6092
 20
-53.4129
 11
55.6915
 21
-53.447
  0
LINE
  8
0
 10
55.6915
 20
-53.447
 11
55.7718
 21
-53.4853
  0
LINE
  8
0
 10
55.7718
 20
-53.4853
 11
55.85
 21
-53.5278
  0
LINE
  8
0
 10
55.85
 20
-53.5278
 11
55.9259
 21
-53.5743
  0
LINE
  8
0
 10
55.9259
 20
-53.5743
 11
55.9992
 21
-53.6247
  0
LINE
  8
0
 10
55.9992
 20
-53.6247
 11
56.0698
 21
-53.6789
  0
LINE
  8
0
 10
56.0698
 20
-53.6789
 11
56.1375
 21
-53.7367
  0
LINE
  8
0
 10
56.1375
 20
-53.7367
 11
56.2021
 21
-53.7979
  0
LINE
  8
0
 10
56.2021
 20
-53.7979
 11
56.2633
 21
-53.8625
  0
LINE
  8
0
 10
56.2633
 20
-53.8625
 11
56.3211
 21
-53.9302
  0
LINE
  8
0
 10
56.3211
 20
-53.9302
 11
56.3753
 21
-54.0008
  0
LINE
  8
0
 10
56.3753
 20
-54.0008
 11
56.4257
 21
-54.0741
  0
LINE
  8
0
 10
56.4257
 20
-54.0741
 11
56.4722
 21
-54.15
  0
LINE
  8
0
 10
56.4722
 20
-54.15
 11
56.5147
 21
-54.2282
  0
LINE
  8
0
 10
56.5147
 20
-54.2282
 11
56.553
 21
-54.3085
  0
LINE
  8
0
 10
56.553
 20
-54.3085
 11
56.5871
 21
-54.3908
  0
LINE
  8
0
 10
56.5871
 20
-54.3908
 11
56.6168
 21
-54.4747
  0
LINE
  8
0
 10
56.6168
 20
-54.4747
 11
56.6421
 21
-54.56
  0
LINE
  8
0
 10
56.6421
 20
-54.56
 11
56.6628
 21
-54.6465
  0
LINE
  8
0
 10
56.6628
 20
-54.6465
 11
56.6791
 21
-54.7341
  0
LINE
  8
0
 10
56.6791
 20
-54.7341
 11
56.6907
 21
-54.8223
  0
LINE
  8
0
 10
56.6907
 20
-54.8223
 11
56.6977
 21
-54.911
  0
LINE
  8
0
 10
56.6977
 20
-54.911
 11
56.7
 21
-55
  0
LINE
  8
0
 10
56.7
 20
-55
 11
56.6977
 21
-55.089
  0
LINE
  8
0
 10
56.6977
 20
-55.089
 11
56.6907
 21
-55.1777
  0
LINE
  8
0
 10
56.6907
 20
-55.1777
 11
56.6791
 21
-55.2659
  0
LINE
  8
0
 10
56.6791
 20
-55.2659
 11
56.6628
 21
-55.3535
  0
LINE
  8
0
 10
56.6628
 20
-55.3535
 11
56.6421
 21
-55.44
  0
LINE
  8
0
 10
56.6421
 20
-55.44
 11
56.6168
 21
-55.5253
  0
LINE
  8
0
 10
56.6168
 20
-55.5253
 11
56.5871
 21
-55.6092
  0
LINE
  8
0
 10
56.5871
 20
-55.6092
 11
56.553
 21
-55.6915
  0
LINE
  8
0
 10
56.553
 20
-55.6915
 11
56.5147
 21
-55.7718
  0
LINE
  8
0
 10
56.5147
 20
-55.7718
 11
56.4722
 21
-55.85
  0
LINE
  8
0
 10
56.4722
 20
-55.85
 11
56.4257
 21
-55.9259
  0
LINE
  8
0
 10
56.4257
 20
-55.9259
 11
56.3753
 21
-55.9992
  0
LINE
  8
0
 10
56.3753
 20
-55.9992
 11
56.3211
 21
-56.0698
  0
LINE
  8
0
 10
56.3211
 20
-56.0698
 11
56.2633
 21
-56.1375
  0
LINE
  8
0
 10
56.2633
 20
-56.1375
 11
56.2021
 21
-56.2021
  0
LINE
  8
0
 10
56.2021
 20
-56.2021
 11
56.1375
 21
-56.2633
  0
LINE
  8
0
 10
56.1375
 20
-56.2633
 11
56.0698
 21
-56.3211
  0
LINE
  8
0
 10
56.0698
 20
-56.3211
 11
55.9992
 21
-56.3753
  0
LINE
  8
0
 10
55.9992
 20
-56.3753
 11
55.9259
 21
-56.4257
  0
LINE
  8
0
 10
55.9259
 20
-56.4257
 11
55.85
 21
-56.4722
  0
LINE
  8
0
 10
55.85
 20
-56.4722
 11
55.7718
 21
-56.5147
  0
LINE
  8
0
 10
55.7718
 20
-56.5147
 11
55.6915
 21
-56.553
  0
LINE
  8
0
 10
55.6915
 20
-56.553
 11
55.6092
 21
-56.5871
  0
LINE
  8
0
 10
55.6092
 20
-56.5871
 11
55.5253
 21
-56.6168
  0
LINE
  8
0
 10
55.5253
 20
-56.6168
 11
55.44
 21
-56.6421
  0
LINE
  8
0
 10
55.44
 20
-56.6421
 11
55.3535
 21
-56.6628
  0
LINE
  8
0
 10
55.3535
 20
-56.6628
 11
55.2659
 21
-56.6791
  0
LINE
  8
0
 10
55.2659
 20
-56.6791
 11
55.1777
 21
-56.6907
  0
LINE
  8
0
 10
55.1777
 20
-56.6907
 11
55.089
 21
-56.6977
  0
LINE
  8
0
 10
55.089
 20
-56.6977
 11
55
 21
-56.7
  0
LINE
  8
0
 10
55
 20
-56.7
 11
54.911
 21
-56.6977
  0
LINE
  8
0
 10
-67.7907
 20
14.0055
 11
-67.5819
 21
14.0219
  0
LINE
  8
0
 10
-67.5819
 20
14.0219
 11
-67.3743
 21
14.0492
  0
LINE
  8
0
 10
-67.3743
 20
14.0492
 11
-67.1684
 21
14.0874
  0
LINE
  8
0
 10
-67.1684
 20
14.0874
 11
-66.9647
 21
14.1363
  0
LINE
  8
0
 10
-66.9647
 20
14.1363
 11
-66.7639
 21
14.1958
  0
LINE
  8
0
 10
-66.7639
 20
14.1958
 11
-66.5665
 21
14.2657
  0
LINE
  8
0
 10
-66.5665
 20
14.2657
 11
-66.3731
 21
14.3458
  0
LINE
  8
0
 10
-66.3731
 20
14.3458
 11
-66.184
 21
14.436
  0
LINE
  8
0
 10
-66.184
 20
14.436
 11
-66
 21
14.5359
  0
LINE
  8
0
 10
-66
 20
14.5359
 11
-65.8214
 21
14.6453
  0
LINE
  8
0
 10
-65.8214
 20
14.6453
 11
-65.6489
 21
14.7639
  0
LINE
  8
0
 10
-65.6489
 20
14.7639
 11
-65.4827
 21
14.8914
  0
LINE
  8
0
 10
-65.4827
 20
14.8914
 11
-65.3235
 21
15.0274
  0
LINE
  8
0
 10
-65.3235
 20
15.0274
 11
-65.1716
 21
15.1716
  0
LINE
  8
0
 10
-65.1716
 20
15.1716
 11
-65.0274
 21
15.3235
  0
LINE
  8
0
 10
-65.0274
 20
15.3235
 11
-64.8914
 21
15.4827
  0
LINE
  8
0
 10
-64.8914
 20
15.4827
 11
-64.7639
 21
15.6489
  0
LINE
  8
0
 10
-64.7639
 20
15.6489
 11
-64.6453
 21
15.8214
  0
LINE
  8
0
 10
-64.6453
 20
15.8214
 11
-64.5359
 21
16
  0
LINE
  8
0
 10
-64.5359
 20
16
 11
-64.436
 21
16.184
  0
LINE
  8
0
 10
-64.436
 20
16.184
 11
-64.3458
 21
16.3731
  0
LINE
  8
0
 10
-64.3458
 20
16.3731
 11
-64.2657
 21
16.5665
  0
LINE
  8
0
 10
-64.2657
 20
16.5665
 11
-64.1958
 21
16.7639
  0
LINE
  8
0
 10
-64.1958
 20
16.7639
 11
-64.1363
 21
16.9647
  0
LINE
  8
0
 10
-64.1363
 20
16.9647
 11
-64.0874
 21
17.1684
  0
LINE
  8
0
 10
-64.0874
 20
17.1684
 11
-64.0492
 21
17.3743
  0
LINE
  8
0
 10
-64.0492
 20
17.3743
 11
-64.0219
 21
17.5819
  0
LINE
  8
0
 10
-64.0219
 20
17.5819
 11
-64.0055
 21
17.7907
  0
LINE
  8
0
 10
-64.0055
 20
17.7907
 11
-64
 21
18
  0
LINE
  8
0
 10
-64
 20
18
 11
-64.0055
 21
18.2093
  0
LINE
  8
0
 10
-64.0055
 20
18.2093
 11
-64.0219
 21
18.4181
  0
LINE
  8
0
 10
-64.0219
 20
18.4181
 11
-64.0492
 21
18.6257
  0
LINE
  8
0
 10
-64.0492
 20
18.6257
 11
-64.0874
 21
18.8316
  0
LINE
  8
0
 10
-64.0874
 20
18.8316
 11
-64.1363
 21
19.0353
  0
LINE
  8
0
 10
-64.1363
 20
19.0353
 11
-64.1958
 21
19.2361
  0
LINE
  8
0
 10
-64.1958
 20
19.2361
 11
-64.2657
 21
19.4335
  0
LINE
  8
0
 10
-64.2657
 20
19.4335
 11
-64.3458
 21
19.6269
  0
LINE
  8
0
 10
-64.3458
 20
19.6269
 11
-64.436
 21
19.816
  0
LINE
  8
0
 10
-64.436
 20
19.816
 11
-64.5359
 21
20
  0
LINE
  8
0
 10
-64.5359
 20
20
 11
-64.6453
 21
20.1786
  0
LINE
  8
0
 10
-64.6453
 20
20.1786
 11
-64.7639
 21
20.3511
  0
LINE
  8
0
 10
-64.7639
 20
20.3511
 11
-64.8914
 21
20.5173
  0
LINE
  8
0
 10
-64.8914
 20
20.5173
 11
-65.0274
 21
20.6765
  0
LINE
  8
0
 10
-65.0274
 20
20.6765
 11
-65.1716
 21
20.8284
  0
LINE
  8
0
 10
-65.1716
 20
20.8284
 11
-65.3235
 21
20.9726
  0
LINE
  8
0
 10
-65.3235
 20
20.9726
 11
-65.4827
 21
21.1086
  0
LINE
  8
0
 10
-65.4827
 20
21.1086
 11
-65.6489
 21
21.2361
  0
LINE
  8
0
 10
-65.6489
 20
21.2361
 11
-65.8214
 21
21.3547
  0
LINE
  8
0
 10
-65.8214
 20
21.3547
 11
-66
 21
21.4641
  0
LINE
  8
0
 10
-66
 20
21.4641
 11
-66.184
 21
21.564
  0
LINE
  8
0
 10
-66.184
 20
21.564
 11
-66.3731
 21
21.6542
  0
LINE
  8
0
 10
-66.3731
 20
21.6542
 11
-66.5665
 21
21.7343
  0
LINE
  8
0
 10
-66.5665
 20
21.7343
 11
-66.7639
 21
21.8042
  0
LINE
  8
0
 10
-66.7639
 20
21.8042
 11
-66.9647
 21
21.8637
  0
LINE
  8
0
 10
-66.9647
 20
21.8637
 11
-67.1684
 21
21.9126
  0
LINE
  8
0
 10
-67.1684
 20
21.9126
 11
-67.3743
 21
21.9508
  0
LINE
  8
0
 10
-67.3743
 20
21.9508
 11
-67.5819
 21
21.9781
  0
LINE
  8
0
 10
-67.5819
 20
21.9781
 11
-67.7907
 21
21.9945
  0
LINE
  8
0
 10
-67.7907
 20
21.9945
 11
-68
 21
22
  0
LINE
  8
0
 10
-68
 20
22
 11
-68.2093
 21
21.9945
  0
LINE
  8
0
 10
-68.2093
 20
21.9945
 11
-68.4181
 21
21.9781
  0
LINE
  8
0
 10
-68.4181
 20
21.9781
 11
-68.6257
 21
21.9508
  0
LINE
  8
0
 10
-68.6257
 20
21.9508
 11
-68.8316
 21
21.9126
  0
LINE
  8
0
 10
-68.8316
 20
21.9126
 11
-69.0353
 21
21.8637
  0
LINE
  8
0
 10
-69.0353
 20
21.8637
 11
-69.2361
 21
21.8042
  0
LINE
  8
0
 10
-69.2361
 20
21.8042
 11
-69.4335
 21
21.7343
  0
LINE
  8
0
 10
-69.4335
 20
21.7343
 11
-69.6269
 21
21.6542
  0
LINE
  8
0
 10
-69.6269
 20
21.6542
 11
-69.816
 21
21.564
  0
LINE
  8
0
 10
-69.816
 20
21.564
 11
-70
 21
21.4641
  0
LINE
  8
0
 10
-70
 20
21.4641
 11
-70.1786
 21
21.3547
  0
LINE
  8
0
 10
-70.1786
 20
21.3547
 11
-70.3511
 21
21.2361
  0
LINE
  8
0
 10
-70.3511
 20
21.2361
 11
-70.5173
 21
21.1086
  0
LINE
  8
0
 10
-70.5173
 20
21.1086
 11
-70.6765
 21
20.9726
  0
LINE
  8
0
 10
-70.6765
 20
20.9726
 11
-70.8284
 21
20.8284
  0
LINE
  8
0
 10
-70.8284
 20
20.8284
 11
-70.9726
 21
20.6765
  0
LINE
  8
0
 10
-70.9726
 20
20.6765
 11
-71.1086
 21
20.5173
  0
LINE
  8
0
 10
-71.1086
 20
20.5173
 11
-71.2361
 21
20.3511
  0
LINE
  8
0
 10
-71.2361
 20
20.3511
 11
-71.3547
 21
20.1786
  0
LINE
  8
0
 10
-71.3547
 20
20.1786
 11
-71.4641
 21
20
  0
LINE
  8
0
 10
-71.4641
 20
20
 11
-71.564
 21
19.816
  0
LINE
  8
0
 10
-71.564
 20
19.816
 11
-71.6542
 21
19.6269
  0
LINE
  8
0
 10
-71.6542
 20
19.6269
 11
-71.7343
 21
19.4335
  0
LINE
  8
0
 10
-71.7343
 20
19.4335
 11
-71.8042
 21
19.2361
  0
LINE
  8
0
 10
-71.8042
 20
19.2361
 11
-71.8637
 21
19.0353
  0
LINE
  8
0
 10
-71.8637
 20
19.0353
 11
-71.9126
 21
18.8316
  0
LINE
  8
0
 10
-71.9126
 20
18.8316
 11
-71.9508
 21
18.6257
  0
LINE
  8
0
 10
-71.9508
 20
18.6257
 11
-71.9781
 21
18.4181
  0
LINE
  8
0
 10
-71.9781
 20
18.4181
 11
-71.9945
 21
18.2093
  0
LINE
  8
0
 10
-71.9945
 20
18.2093
 11
-72
 21
18
  0
LINE
  8
0
 10
-72
 20
18
 11
-71.9945
 21
17.7907
  0
LINE
  8
0
 10
-71.9945
 20
17.7907
 11
-71.9781
 21
17.5819
  0
LINE
  8
0
 10
-71.9781
 20
17.5819
 11
-71.9508
 21
17.3743
  0
LINE
  8
0
 10
-71.9508
 20
17.3743
 11
-71.9126
 21
17.1684
  0
LINE
  8
0
 10
-71.9126
 20
17.1684
 11
-71.8637
 21
16.9647
  0
LINE
  8
0
 10
-71.8637
 20
16.9647
 11
-71.8042
 21
16.7639
  0
LINE
  8
0
 10
-71.8042
 20
16.7639
 11
-71.7343
 21
16.5665
  0
LINE
  8
0
 10
-71.7343
 20
16.5665
 11
-71.6542
 21
16.3731
  0
LINE
  8
0
 10
-71.6542
 20
16.3731
 11
-71.564
 21
16.184
  0
LINE
  8
0
 10
-71.564
 20
16.184
 11
-71.4641
 21
16
  0
LINE
  8
0
 10
-71.4641
 20
16
 11
-71.3547
 21
15.8214
  0
LINE
  8
0
 10
-71.3547
 20
15.8214
 11
-71.2361
 21
15.6489
  0
LINE
  8
0
 10
-71.2361
 20
15.6489
 11
-71.1086
 21
15.4827
  0
LINE
  8
0
 10
-71.1086
 20
15.4827
 11
-70.9726
 21
15.3235
  0
LINE
  8
0
 10
-70.9726
 20
15.3235
 11
-70.8284
 21
15.1716
  0
LINE
  8
0
 10
-70.8284
 20
15.1716
 11
-70.6765
 21
15.0274
  0
LINE
  8
0
 10
-70.6765
 20
15.0274
 11
-70.5173
 21
14.8914
  0
LINE
  8
0
 10
-70.5173
 20
14.8914
 11
-70.3511
 21
14.7639
  0
LINE
  8
0
 10
-70.3511
 20
14.7639
 11
-70.1786
 21
14.6453
  0
LINE
  8
0
 10
-70.1786
 20
14.6453
 11
-70
 21
14.5359
  0
LINE
  8
0
 10
-70
 20
14.5359
 11
-69.816
 21
14.436
  0
LINE
  8
0
 10
-69.816
 20
14.436
 11
-69.6269
 21
14.3458
  0
LINE
  8
0
 10
-69.6269
 20
14.3458
 11
-69.4335
 21
14.2657
  0
LINE
  8
0
 10
-69.4335
 20
14.2657
 11
-69.2361
 21
14.1958
  0
LINE
  8
0
 10
-69.2361
 20
14.1958
 11
-69.0353
 21
14.1363
  0
LINE
  8
0
 10
-69.0353
 20
14.1363
 11
-68.8316
 21
14.0874
  0
LINE
  8
0
 10
-68.8316
 20
14.0874
 11
-68.6257
 21
14.0492
  0
LINE
  8
0
 10
-68.6257
 20
14.0492
 11
-68.4181
 21
14.0219
  0
LINE
  8
0
 10
-68.4181
 20
14.0219
 11
-68.2093
 21
14.0055
  0
LINE
  8
0
 10
-68.2093
 20
14.0055
 11
-68
 21
14
  0
LINE
  8
0
 10
-68
 20
14
 11
-67.7907
 21
14.0055
  0
LINE
  8
0
 10
-67.7907
 20
-21.9945
 11
-67.5819
 21
-21.9781
  0
LINE
  8
0
 10
-67.5819
 20
-21.9781
 11
-67.3743
 21
-21.9508
  0
LINE
  8
0
 10
-67.3743
 20
-21.9508
 11
-67.1684
 21
-21.9126
  0
LINE
  8
0
 10
-67.1684
 20
-21.9126
 11
-66.9647
 21
-21.8637
  0
LINE
  8
0
 10
-66.9647
 20
-21.8637
 11
-66.7639
 21
-21.8042
  0
LINE
  8
0
 10
-66.7639
 20
-21.8042
 11
-66.5665
 21
-21.7343
  0
LINE
  8
0
 10
-66.5665
 20
-21.7343
 11
-66.3731
 21
-21.6542
  0
LINE
  8
0
 10
-66.3731
 20
-21.6542
 11
-66.184
 21
-21.564
  0
LINE
  8
0
 10
-66.184
 20
-21.564
 11
-66
 21
-21.4641
  0
LINE
  8
0
 10
-66
 20
-21.4641
 11
-65.8214
 21
-21.3547
  0
LINE
  8
0
 10
-65.8214
 20
-21.3547
 11
-65.6489
 21
-21.2361
  0
LINE
  8
0
 10
-65.6489
 20
-21.2361
 11
-65.4827
 21
-21.1086
  0
LINE
  8
0
 10
-65.4827
 20
-21.1086
 11
-65.3235
 21
-20.9726
  0
LINE
  8
0
 10
-65.3235
 20
-20.9726
 11
-65.1716
 21
-20.8284
  0
LINE
  8
0
 10
-65.1716
 20
-20.8284
 11
-65.0274
 21
-20.6765
  0
LINE
  8
0
 10
-65.0274
 20
-20.6765
 11
-64.8914
 21
-20.5173
  0
LINE
  8
0
 10
-64.8914
 20
-20.5173
 11
-64.7639
 21
-20.3511
  0
LINE
  8
0
 10
-64.7639
 20
-20.3511
 11
-64.6453
 21
-20.1786
  0
LINE
  8
0
 10
-64.6453
 20
-20.1786
 11
-64.5359
 21
-20
  0
LINE
  8
0
 10
-64.5359
 20
-20
 11
-64.436
 21
-19.816
  0
LINE
  8
0
 10
-64.436
 20
-19.816
 11
-64.3458
 21
-19.6269
  0
LINE
  8
0
 10
-64.3458
 20
-19.6269
 11
-64.2657
 21
-19.4335
  0
LINE
  8
0
 10
-64.2657
 20
-19.4335
 11
-64.1958
 21
-19.2361
  0
LINE
  8
0
 10
-64.1958
 20
-19.2361
 11
-64.1363
 21
-19.0353
  0
LINE
  8
0
 10
-64.1363
 20
-19.0353
 11
-64.0874
 21
-18.8316
  0
LINE
  8
0
 10
-64.0874
 20
-18.8316
 11
-64.0492
 21
-18.6257
  0
LINE
  8
0
 10
-64.0492
 20
-18.6257
 11
-64.0219
 21
-18.4181
  0
LINE
  8
0
 10
-64.0219
 20
-18.4181
 11
-64.0055
 21
-18.2093
  0
LINE
  8
0
 10
-64.0055
 20
-18.2093
 11
-64
 21
-18
  0
LINE
  8
0
 10
-64
 20
-18
 11
-64.0055
 21
-17.7907
  0
LINE
  8
0
 10
-64.0055
 20
-17.7907
 11
-64.0219
 21
-17.5819
  0
LINE
  8
0
 10
-64.0219
 20
-17.5819
 11
-64.0492
 21
-17.3743
  0
LINE
  8
0
 10
-64.0492
 20
-17.3743
 11
-64.0874
 21
-17.1684
  0
LINE
  8
0
 10
-64.0874
 20
-17.1684
 11
-64.1363
 21
-16.9647
  0
LINE
  8
0
 10
-64.1363
 20
-16.9647
 11
-64.1958
 21
-16.7639
  0
LINE
  8
0
 10
-64.1958
 20
-16.7639
 11
-64.2657
 21
-16.5665
  0
LINE
  8
0
 10
-64.2657
 20
-16.5665
 11
-64.3458
 21
-16.3731
  0
LINE
  8
0
 10
-64.3458
 20
-16.3731
 11
-64.436
 21
-16.184
  0
LINE
  8
0
 10
-64.436
 20
-16.184
 11
-64.5359
 21
-16
  0
LINE
  8
0
 10
-64.5359
 20
-16
 11
-64.6453
 21
-15.8214
  0
LINE
  8
0
 10
-64.6453
 20
-15.8214
 11
-64.7639
 21
-15.6489
  0
LINE
  8
0
 10
-64.7639
 20
-15.6489
 11
-64.8914
 21
-15.4827
  0
LINE
  8
0
 10
-64.8914
 20
-15.4827
 11
-65.0274
 21
-15.3235
  0
LINE
  8
0
 10
-65.0274
 20
-15.3235
 11
-65.1716
 21
-15.1716
  0
LINE
  8
0
 10
-65.1716
 20
-15.1716
 11
-65.3235
 21
-15.0274
  0
LINE
  8
0
 10
-65.3235
 20
-15.0274
 11
-65.4827
 21
-14.8914
  0
LINE
  8
0
 10
-65.4827
 20
-14.8914
 11
-65.6489
 21
-14.7639
  0
LINE
  8
0
 10
-65.6489
 20
-14.7639
 11
-65.8214
 21
-14.6453
  0
LINE
  8
0
 10
-65.8214
 20
-14.6453
 11
-66
 21
-14.5359
  0
LINE
  8
0
 10
-66
 20
-14.5359
 11
-66.184
 21
-14.436
  0
LINE
  8
0
 10
-66.184
 20
-14.436
 11
-66.3731
 21
-14.3458
  0
LINE
  8
0
 10
-66.3731
 20
-14.3458
 11
-66.5665
 21
-14.2657
  0
LINE
  8
0
 10
-66.5665
 20
-14.2657
 11
-66.7639
 21
-14.1958
  0
LINE
  8
0
 10
-66.7639
 20
-14.1958
 11
-66.9647
 21
-14.1363
  0
LINE
  8
0
 10
-66.9647
 20
-14.1363
 11
-67.1684
 21
-14.0874
  0
LINE
  8
0
 10
-67.1684
 20
-14.0874
 11
-67.3743
 21
-14.0492
  0
LINE
  8
0
 10
-67.3743
 20
-14.0492
 11
-67.5819
 21
-14.0219
  0
LINE
  8
0
 10
-67.5819
 20
-14.0219
 11
-67.7907
 21
-14.0055
  0
LINE
  8
0
 10
-67.7907
 20
-14.0055
 11
-68
 21
-14
  0
LINE
  8
0
 10
-68
 20
-14
 11
-68.2093
 21
-14.0055
  0
LINE
  8
0
 10
-68.2093
 20
-14.0055
 11
-68.4181
 21
-14.0219
  0
LINE
  8
0
 10
-68.4181
 20
-14.0219
 11
-68.6257
 21
-14.0492
  0
LINE
  8
0
 10
-68.6257
 20
-14.0492
 11
-68.8316
 21
-14.0874
  0
LINE
  8
0
 10
-68.8316
 20
-14.0874
 11
-69.0353
 21
-14.1363
  0
LINE
  8
0
 10
-69.0353
 20
-14.1363
 11
-69.2361
 21
-14.1958
  0
LINE
  8
0
 10
-69.2361
 20
-14.1958
 11
-69.4335
 21
-14.2657
  0
LINE
  8
0
 10
-69.4335
 20
-14.2657
 11
-69.6269
 21
-14.3458
  0
LINE
  8
0
 10
-69.6269
 20
-14.3458
 11
-69.816
 21
-14.436
  0
LINE
  8
0
 10
-69.816
 20
-14.436
 11
-70
 21
-14.5359
  0
LINE
  8
0
 10
-70
 20
-14.5359
 11
-70.1786
 21
-14.6453
  0
LINE
  8
0
 10
-70.1786
 20
-14.6453
 11
-70.3511
 21
-14.7639
  0
LINE
  8
0
 10
-70.3511
 20
-14.7639
 11
-70.5173
 21
-14.8914
  0
LINE
  8
0
 10
-70.5173
 20
-14.8914
 11
-70.6765
 21
-15.0274
  0
LINE
  8
0
 10
-70.6765
 20
-15.0274
 11
-70.8284
 21
-15.1716
  0
LINE
  8
0
 10
-70.8284
 20
-15.1716
 11
-70.9726
 21
-15.3235
  0
LINE
  8
0
 10
-70.9726
 20
-15.3235
 11
-71.1086
 21
-15.4827
  0
LINE
  8
0
 10
-71.1086
 20
-15.4827
 11
-71.2361
 21
-15.6489
  0
LINE
  8
0
 10
-71.2361
 20
-15.6489
 11
-71.3547
 21
-15.8214
  0
LINE
  8
0
 10
-71.3547
 20
-15.8214
 11
-71.4641
 21
-16
  0
LINE
  8
0
 10
-71.4641
 20
-16
 11
-71.564
 21
-16.184
  0
LINE
  8
0
 10
-71.564
 20
-16.184
 11
-71.6542
 21
-16.3731
  0
LINE
  8
0
 10
-71.6542
 20
-16.3731
 11
-71.7343
 21
-16.5665
  0
LINE
  8
0
 10
-71.7343
 20
-16.5665
 11
-71.8042
 21
-16.7639
  0
LINE
  8
0
 10
-71.8042
 20
-16.7639
 11
-71.8637
 21
-16.9647
  0
LINE
  8
0
 10
-71.8637
 20
-16.9647
 11
-71.9126
 21
-17.1684
  0
LINE
  8
0
 10
-71.9126
 20
-17.1684
 11
-71.9508
 21
-17.3743
  0
LINE
  8
0
 10
-71.9508
 20
-17.3743
 11
-71.9781
 21
-17.5819
  0
LINE
  8
0
 10
-71.9781
 20
-17.5819
 11
-71.9945
 21
-17.7907
  0
LINE
  8
0
 10
-71.9945
 20
-17.7907
 11
-72
 21
-18
  0
LINE
  8
0
 10
-72
 20
-18
 11
-71.9945
 21
-18.2093
  0
LINE
  8
0
 10
-71.9945
 20
-18.2093
 11
-71.9781
 21
-18.4181
  0
LINE
  8
0
 10
-71.9781
 20
-18.4181
 11
-71.9508
 21
-18.6257
  0
LINE
  8
0
 10
-71.9508
 20
-18.6257
 11
-71.9126
 21
-18.8316
  0
LINE
  8
0
 10
-71.9126
 20
-18.8316
 11
-71.8637
 21
-19.0353
  0
LINE
  8
0
 10
-71.8637
 20
-19.0353
 11
-71.8042
 21
-19.2361
  0
LINE
  8
0
 10
-71.8042
 20
-19.2361
 11
-71.7343
 21
-19.4335
  0
LINE
  8
0
 10
-71.7343
 20
-19.4335
 11
-71.6542
 21
-19.6269
  0
LINE
  8
0
 10
-71.6542
 20
-19.6269
 11
-71.564
 21
-19.816
  0
LINE
  8
0
 10
-71.564
 20
-19.816
 11
-71.4641
 21
-20
  0
LINE
  8
0
 10
-71.4641
 20
-20
 11
-71.3547
 21
-20.1786
  0
LINE
  8
0
 10
-71.3547
 20
-20.1786
 11
-71.2361
 21
-20.3511
  0
LINE
  8
0
 10
-71.2361
 20
-20.3511
 11
-71.1086
 21
-20.5173
  0
LINE
  8
0
 10
-71.1086
 20
-20.5173
 11
-70.9726
 21
-20.6765
  0
LINE
  8
0
 10
-70.9726
 20
-20.6765
 11
-70.8284
 21
-20.8284
  0
LINE
  8
0
 10
-70.8284
 20
-20.8284
 11
-70.6765
 21
-20.9726
  0
LINE
  8
0
 10
-70.6765
 20
-20.9726
 11
-70.5173
 21
-21.1086
  0
LINE
  8
0
 10
-70.5173
 20
-21.1086
 11
-70.3511
 21
-21.2361
  0
LINE
  8
0
 10
-70.3511
 20
-21.2361
 11
-70.1786
 21
-21.3547
  0
LINE
  8
0
 10
-70.1786
 20
-21.3547
 11
-70
 21
-21.4641
  0
LINE
  8
0
 10
-70
 20
-21.4641
 11
-69.816
 21
-21.564
  0
LINE
  8
0
 10
-69.816
 20
-21.564
 11
-69.6269
 21
-21.6542
  0
LINE
  8
0
 10
-69.6269
 20
-21.6542
 11
-69.4335
 21
-21.7343
  0
LINE
  8
0
 10
-69.4335
 20
-21.7343
 11
-69.2361
 21
-21.8042
  0
LINE
  8
0
 10
-69.2361
 20
-21.8042
 11
-69.0353
 21
-21.8637
  0
LINE
  8
0
 10
-69.0353
 20
-21.8637
 11
-68.8316
 21
-21.9126
  0
LINE
  8
0
 10
-68.8316
 20
-21.9126
 11
-68.6257
 21
-21.9508
  0
LINE
  8
0
 10
-68.6257
 20
-21.9508
 11
-68.4181
 21
-21.9781
  0
LINE
  8
0
 10
-68.4181
 20
-21.9781
 11
-68.2093
 21
-21.9945
  0
LINE
  8
0
 10
-68.2093
 20
-21.9945
 11
-68
 21
-22
  0
LINE
  8
0
 10
-68
 20
-22
 11
-67.7907
 21
-21.9945
  0
ENDSEC
  0
SECTION
  2
OBJECTS
  0
DICTIONARY
  0
ENDSEC
  0
EOF
