<svg xmlns="http://www.w3.org/2000/svg" viewBox="0 0 860 800" width="860" height="800"><rect width="860" height="800" fill="#0d1117"/><text x="70" y="40" font-family="sans-serif" font-size="20" font-weight="700" fill="#e6edf3">MowerCarrier Rev A — placement (top)</text><text x="790" y="40" font-family="'JetBrains Mono',monospace" font-size="12" fill="#3fb950" text-anchor="end">120 × 100 mm · 2-layer · 2oz Cu</text><rect x="70.0" y="70.0" width="720.0" height="600.0" rx="10" fill="#0b3d2e" stroke="#1f7a52" stroke-width="2"/><circle cx="100.0" cy="100.0" r="6" fill="none" stroke="#c98a3a" stroke-width="1.6"/><circle cx="100.0" cy="100.0" r="2.6" fill="#0d1117"/><circle cx="760.0" cy="100.0" r="6" fill="none" stroke="#c98a3a" stroke-width="1.6"/><circle cx="760.0" cy="100.0" r="2.6" fill="#0d1117"/><circle cx="100.0" cy="640.0" r="6" fill="none" stroke="#c98a3a" stroke-width="1.6"/><circle cx="100.0" cy="640.0" r="2.6" fill="#0d1117"/><circle cx="760.0" cy="640.0" r="6" fill="none" stroke="#c98a3a" stroke-width="1.6"/><circle cx="760.0" cy="640.0" r="2.6" fill="#0d1117"/><rect x="70.0" y="70.0" width="252.0" height="600.0" rx="10" fill="#ff5c5c" opacity="0.05"/><text x="78.0" y="662.0" font-family="'JetBrains Mono',monospace" font-size="9.5" fill="#ff5c5c">POWER ZONE · wide 2oz pours · &gt;=3mm</text><rect x="94.0" y="118.0" width="120.0" height="84.0" rx="4" fill="#3a1214" stroke="#ff5c5c" stroke-width="1.3"/><text x="154.0" y="159.0" font-family="'JetBrains Mono',monospace" font-size="11" font-weight="600" fill="#ff5c5c" text-anchor="middle">XT60</text><text x="154.0" y="173.0" font-family="sans-serif" font-size="9" fill="#9aa7b4" text-anchor="middle">12V IN</text><rect x="94.0" y="226.0" width="204.0" height="60.0" rx="4" fill="#111a12" stroke="#1f7a52" stroke-width="1.3"/><text x="196.0" y="255.0" font-family="'JetBrains Mono',monospace" font-size="11" font-weight="600" fill="#d7e6dd" text-anchor="middle">F0 30A</text><text x="196.0" y="269.0" font-family="sans-serif" font-size="9" fill="#9aa7b4" text-anchor="middle">main fuse</text><rect x="94.0" y="310.0" width="96.0" height="96.0" rx="4" fill="#111a12" stroke="#1f7a52" stroke-width="1.3"/><text x="142.0" y="357.0" font-family="'JetBrains Mono',monospace" font-size="11" font-weight="600" fill="#d7e6dd" text-anchor="middle">Q1</text><text x="142.0" y="371.0" font-family="sans-serif" font-size="9" fill="#9aa7b4" text-anchor="middle">revP</text><rect x="202.0" y="310.0" width="96.0" height="96.0" rx="4" fill="#111a12" stroke="#1f7a52" stroke-width="1.3"/><text x="250.0" y="357.0" font-family="'JetBrains Mono',monospace" font-size="11" font-weight="600" fill="#d7e6dd" text-anchor="middle">TVS+C</text><text x="250.0" y="371.0" font-family="sans-serif" font-size="9" fill="#9aa7b4" text-anchor="middle">clamp</text><rect x="94.0" y="430.0" width="204.0" height="180.0" rx="4" fill="#111a12" stroke="#1f7a52" stroke-width="1.3"/><text x="196.0" y="519.0" font-family="'JetBrains Mono',monospace" font-size="11" font-weight="600" fill="#d7e6dd" text-anchor="middle">FUSE BLOCK</text><text x="196.0" y="533.0" font-family="sans-serif" font-size="9" fill="#9aa7b4" text-anchor="middle">F1-F4 branches</text><rect x="346.0" y="118.0" width="180.0" height="144.0" rx="4" fill="#3a1f10" stroke="#ff9f43" stroke-width="1.3"/><text x="436.0" y="189.0" font-family="'JetBrains Mono',monospace" font-size="11" font-weight="600" fill="#ff9f43" text-anchor="middle">K1 DRIVE</text><text x="436.0" y="203.0" font-family="sans-serif" font-size="9" fill="#9aa7b4" text-anchor="middle">40A relay</text><rect x="346.0" y="286.0" width="180.0" height="144.0" rx="4" fill="#3a1f10" stroke="#ff9f43" stroke-width="1.3"/><text x="436.0" y="357.0" font-family="'JetBrains Mono',monospace" font-size="11" font-weight="600" fill="#ff9f43" text-anchor="middle">K2 PTO</text><text x="436.0" y="371.0" font-family="sans-serif" font-size="9" fill="#9aa7b4" text-anchor="middle">40A relay</text><rect x="346.0" y="454.0" width="180.0" height="72.0" rx="4" fill="#111a12" stroke="#1f7a52" stroke-width="1.3"/><text x="436.0" y="489.0" font-family="'JetBrains Mono',monospace" font-size="11" font-weight="600" fill="#d7e6dd" text-anchor="middle">Q2/Q3 drv</text><text x="436.0" y="503.0" font-family="sans-serif" font-size="9" fill="#9aa7b4" text-anchor="middle">coil FETs</text><rect x="574.0" y="118.0" width="192.0" height="504.0" rx="4" fill="#10251a" stroke="#3fb950" stroke-width="1.3"/><text x="670.0" y="369.0" font-family="'JetBrains Mono',monospace" font-size="11" font-weight="600" fill="#3fb950" text-anchor="middle">ESP32</text><text x="670.0" y="383.0" font-family="sans-serif" font-size="9" fill="#9aa7b4" text-anchor="middle">DevKitC socket</text><rect x="346.0" y="550.0" width="180.0" height="72.0" rx="4" fill="#0e1c28" stroke="#1f7a52" stroke-width="1.3"/><text x="436.0" y="585.0" font-family="'JetBrains Mono',monospace" font-size="11" font-weight="600" fill="#d7e6dd" text-anchor="middle">J_FC</text><text x="436.0" y="599.0" font-family="sans-serif" font-size="9" fill="#9aa7b4" text-anchor="middle">Pixhawk PWM</text><rect x="574.0" y="118.0" width="0.0" height="0.0" rx="4" fill="none" stroke="#1f7a52" stroke-width="1.3"/><text x="574.0" y="117.0" font-family="'JetBrains Mono',monospace" font-size="11" font-weight="600" fill="#d7e6dd" text-anchor="middle"></text><rect x="574.0" y="118.0" width="0.0" height="0.0" rx="4" fill="none" stroke="#1f7a52" stroke-width="1.3"/><text x="574.0" y="117.0" font-family="'JetBrains Mono',monospace" font-size="11" font-weight="600" fill="#d7e6dd" text-anchor="middle"></text><rect x="574.0" y="118.0" width="0.0" height="0.0" rx="4" fill="none" stroke="#1f7a52" stroke-width="1.3"/><text x="574.0" y="117.0" font-family="'JetBrains Mono',monospace" font-size="11" font-weight="600" fill="#d7e6dd" text-anchor="middle"></text><rect x="574.0" y="118.0" width="0.0" height="0.0" rx="4" fill="none" stroke="#1f7a52" stroke-width="1.3"/><text x="574.0" y="117.0" font-family="'JetBrains Mono',monospace" font-size="11" font-weight="600" fill="#d7e6dd" text-anchor="middle"></text><rect x="574.0" y="118.0" width="0.0" height="0.0" rx="4" fill="none" stroke="#1f7a52" stroke-width="1.3"/><text x="574.0" y="117.0" font-family="'JetBrains Mono',monospace" font-size="11" font-weight="600" fill="#d7e6dd" text-anchor="middle"></text><rect x="574.0" y="118.0" width="0.0" height="0.0" rx="4" fill="none" stroke="#1f7a52" stroke-width="1.3"/><text x="574.0" y="117.0" font-family="'JetBrains Mono',monospace" font-size="11" font-weight="600" fill="#d7e6dd" text-anchor="middle"></text><rect x="574.0" y="118.0" width="0.0" height="0.0" rx="4" fill="none" stroke="#1f7a52" stroke-width="1.3"/><text x="574.0" y="117.0" font-family="'JetBrains Mono',monospace" font-size="11" font-weight="600" fill="#d7e6dd" text-anchor="middle"></text><rect x="94.0" y="622.0" width="90.0" height="36.0" rx="4" fill="#0e1c28" stroke="#1f7a52" stroke-width="1.3"/><text x="139.0" y="639.0" font-family="'JetBrains Mono',monospace" font-size="11" font-weight="600" fill="#d7e6dd" text-anchor="middle">MOTOR V+</text><rect x="190.0" y="622.0" width="90.0" height="36.0" rx="4" fill="#0e1c28" stroke="#1f7a52" stroke-width="1.3"/><text x="235.0" y="639.0" font-family="'JetBrains Mono',monospace" font-size="11" font-weight="600" fill="#d7e6dd" text-anchor="middle">PTO</text><rect x="286.0" y="622.0" width="90.0" height="36.0" rx="4" fill="#0e1c28" stroke="#1f7a52" stroke-width="1.3"/><text x="331.0" y="639.0" font-family="'JetBrains Mono',monospace" font-size="11" font-weight="600" fill="#d7e6dd" text-anchor="middle">POT_L</text><rect x="382.0" y="622.0" width="90.0" height="36.0" rx="4" fill="#0e1c28" stroke="#1f7a52" stroke-width="1.3"/><text x="427.0" y="639.0" font-family="'JetBrains Mono',monospace" font-size="11" font-weight="600" fill="#d7e6dd" text-anchor="middle">POT_R</text><rect x="478.0" y="622.0" width="90.0" height="36.0" rx="4" fill="#0e1c28" stroke="#1f7a52" stroke-width="1.3"/><text x="523.0" y="639.0" font-family="'JetBrains Mono',monospace" font-size="11" font-weight="600" fill="#d7e6dd" text-anchor="middle">M1</text><rect x="574.0" y="622.0" width="90.0" height="36.0" rx="4" fill="#0e1c28" stroke="#1f7a52" stroke-width="1.3"/><text x="619.0" y="639.0" font-family="'JetBrains Mono',monospace" font-size="11" font-weight="600" fill="#d7e6dd" text-anchor="middle">M2</text><rect x="670.0" y="622.0" width="90.0" height="36.0" rx="4" fill="#0e1c28" stroke="#1f7a52" stroke-width="1.3"/><text x="715.0" y="639.0" font-family="'JetBrains Mono',monospace" font-size="11" font-weight="600" fill="#d7e6dd" text-anchor="middle">5V</text><line x1="70.0" y1="48.0" x2="790.0" y2="48.0" stroke="#3fb950" stroke-width="1"/><line x1="70.0" y1="44.0" x2="70.0" y2="52.0" stroke="#3fb950" stroke-width="1"/><line x1="790.0" y1="44.0" x2="790.0" y2="52.0" stroke="#3fb950" stroke-width="1"/><text x="430.0" y="42.0" font-family="'JetBrains Mono',monospace" font-size="11" fill="#3fb950" text-anchor="middle">120 mm</text><line x1="48.0" y1="70.0" x2="48.0" y2="670.0" stroke="#3fb950" stroke-width="1"/><line x1="44.0" y1="70.0" x2="52.0" y2="70.0" stroke="#3fb950" stroke-width="1"/><line x1="44.0" y1="670.0" x2="52.0" y2="670.0" stroke="#3fb950" stroke-width="1"/><text x="40.0" y="373.0" font-family="'JetBrains Mono',monospace" font-size="11" fill="#3fb950" text-anchor="end" transform="rotate(-90 40.0 370.0)">100 mm</text><rect x="70" y="690.0" width="16" height="12" rx="2" fill="#0b3d2e" opacity="0.5" stroke="#0b3d2e"/><text x="92" y="700.0" font-family="sans-serif" font-size="11.5" fill="#9aa7b4">board / GND pour</text><rect x="270" y="690.0" width="16" height="12" rx="2" fill="#ff5c5c" opacity="0.5" stroke="#ff5c5c"/><text x="292" y="700.0" font-family="sans-serif" font-size="11.5" fill="#9aa7b4">power zone (2oz)</text><rect x="470" y="690.0" width="16" height="12" rx="2" fill="#ff9f43" opacity="0.5" stroke="#ff9f43"/><text x="492" y="700.0" font-family="sans-serif" font-size="11.5" fill="#9aa7b4">relay / driver</text><rect x="670" y="690.0" width="16" height="12" rx="2" fill="#3fb950" opacity="0.5" stroke="#3fb950"/><text x="692" y="700.0" font-family="sans-serif" font-size="11.5" fill="#9aa7b4">ESP32 / logic</text><rect x="870" y="690.0" width="16" height="12" rx="2" fill="#c98a3a" opacity="0.5" stroke="#c98a3a"/><text x="892" y="700.0" font-family="sans-serif" font-size="11.5" fill="#9aa7b4">M3 mount hole</text></svg>